<svg version="1.1" id="Layer_1" xmlns="http://www.w3.org/2000/svg" xmlns:xlink="http://www.w3.org/1999/xlink" x="0px" y="0px"
	 width="100%" viewBox="0 0 1432 1158" enable-background="new 0 0 1432 1158" xml:space="preserve">
<path fill="none" opacity="1.000000" stroke="#000000" stroke-linecap="round" stroke-linejoin="round" stroke-width="7.000000"
	d="
M1337.000000,783.500000 
	C1345.061401,794.287537 1349.910645,806.540833 1352.959106,819.509644 
	C1358.095703,841.362000 1360.614380,863.519836 1361.223755,885.993958 
	C1361.441650,894.031799 1362.339600,902.052795 1360.924438,909.986511 
	C1359.178101,919.777344 1358.241333,929.653625 1356.929077,939.490540 
	C1355.463867,950.473816 1354.711792,961.537781 1355.672729,972.484863 
	C1357.047607,988.149780 1360.016968,1003.655212 1359.559937,1019.501709 
	C1359.222412,1031.205688 1351.191528,1037.204468 1344.001709,1036.482544 
	C1339.375122,1036.017822 1335.695068,1034.374023 1332.887207,1030.073730 
	C1327.061157,1021.151306 1325.170044,1011.075439 1322.986328,1001.002991 
	C1319.556274,985.180603 1319.411743,968.989502 1317.657715,952.982727 
	C1317.004395,947.021057 1316.671387,940.988647 1316.071899,934.992798 
	C1315.756714,931.840271 1314.713989,929.279907 1311.494019,929.127747 
	C1308.315430,928.977356 1307.238892,931.423889 1306.376343,934.464905 
	C1304.090088,942.523682 1303.124512,950.750061 1301.921875,958.988586 
	C1299.353882,976.580078 1299.642822,994.361023 1297.882812,1011.988281 
	C1297.406860,1016.756409 1296.261841,1021.562622 1294.043579,1026.021729 
	C1291.309204,1031.517578 1286.823486,1033.721680 1281.001709,1033.462524 
	C1275.606323,1033.222168 1272.999146,1029.725220 1270.897461,1025.046021 
	C1267.642700,1017.800171 1266.848267,1010.171448 1266.574463,1002.497314 
	C1266.001587,986.445679 1267.651489,970.480835 1268.912354,954.493103 
	C1270.000610,940.693054 1270.583496,926.838562 1270.873169,912.997375 
	C1270.984497,907.680298 1269.899048,902.291138 1268.940918,897.010742 
	C1267.753540,890.466003 1269.708130,884.000000 1269.000000,877.500000 
"/>
<path fill="none" opacity="1.000000" stroke="#000000" stroke-linecap="round" stroke-linejoin="round" stroke-width="7.000000"
	d="
M458.500000,427.500000 
	C455.678162,432.492218 458.898865,437.181702 459.332703,441.992554 
	C459.664368,445.670563 460.713501,449.268951 461.227539,452.968384 
	C461.800476,457.092041 460.306915,457.740997 457.004486,458.048218 
	C453.151917,458.406677 449.348938,458.222229 445.496826,458.122528 
	C436.840271,457.898499 428.132599,458.881744 419.509552,458.346313 
	C410.820129,457.806793 402.170349,458.536835 393.491699,458.264404 
	C385.715790,458.020294 377.832306,458.254639 369.998627,458.443115 
	C360.170990,458.679535 350.331299,458.373566 340.500519,458.531586 
	C327.831757,458.735199 315.149658,458.880127 302.507690,459.629883 
	C296.823120,459.967010 291.164124,459.733429 285.499817,459.995789 
	C266.676331,460.867554 247.819778,460.482941 229.004227,461.124115 
	C182.336365,462.714325 135.664276,461.445038 89.001053,462.077759 
	C75.153168,462.265503 61.317905,463.383820 46.741085,464.112518 
	C47.736465,472.331848 46.186577,480.116516 47.825191,488.036163 
	C48.784172,492.671082 48.189037,497.676544 47.936729,502.496674 
	C47.753922,505.989075 48.353077,507.842194 52.494122,508.095947 
	C65.343529,508.883301 78.163933,507.803772 91.000626,507.941742 
	C111.331612,508.160370 131.677185,508.410919 151.997223,507.891174 
	C175.002808,507.302734 198.000214,507.696198 221.000198,507.525909 
	C232.332413,507.441986 243.656845,506.721405 255.004013,507.436401 
	C260.981354,507.813080 266.991211,507.293732 273.001404,507.349335 
	C320.332214,507.787292 367.671936,508.279938 414.996674,507.719421 
	C428.644592,507.557739 442.339722,507.523071 455.997864,506.949036 
	C461.171021,506.731628 461.438507,508.230530 460.928497,512.992371 
	C460.211212,519.689331 458.939453,526.325134 458.036560,533.004944 
	C457.762146,535.035095 457.831085,537.139282 459.000000,539.000000 
"/>
<path fill="none" opacity="1.000000" stroke="#000000" stroke-linecap="round" stroke-linejoin="round" stroke-width="7.000000"
	d="
M1166.000000,770.500000 
	C1163.178345,774.858826 1162.811768,779.300476 1163.824951,784.533875 
	C1165.620361,793.808838 1168.503662,802.317871 1173.246582,810.644348 
	C1177.988770,818.969666 1185.001465,826.175720 1187.000000,836.000000 
	C1193.111084,840.797363 1194.427612,848.712158 1199.020386,854.483826 
	C1201.519287,857.624084 1201.963623,861.653076 1203.718262,865.141724 
	C1205.033081,867.756226 1203.123779,871.606567 1203.709717,875.006958 
	C1205.478271,885.271057 1205.436646,895.680969 1204.813232,905.988708 
	C1204.457031,911.877563 1203.571411,918.226990 1197.028076,921.555237 
	C1192.281616,923.969482 1188.792114,923.446167 1185.054565,920.432312 
	C1178.604370,915.231140 1175.515137,907.907837 1174.044189,899.991760 
	C1170.189331,879.245300 1168.559326,858.136658 1163.983521,837.503662 
	C1163.607788,835.809387 1163.005859,834.164917 1162.498657,832.500427 
	C1161.765991,830.095764 1160.998535,827.311096 1158.001953,827.363708 
	C1155.092651,827.414856 1153.860352,829.919312 1152.980103,832.493225 
	C1150.638794,839.338684 1149.043457,846.354187 1148.005493,853.500793 
	C1145.488403,870.831604 1143.139648,888.188599 1140.427246,905.488586 
	C1139.427490,911.864563 1137.531128,917.758484 1129.518066,919.107056 
	C1122.887695,920.222961 1117.009888,917.395203 1115.539185,910.990967 
	C1112.253174,896.680176 1111.533691,882.111633 1112.058105,867.502075 
	C1112.423340,857.324585 1113.295776,847.164062 1114.008301,837.000610 
	C1115.268677,819.019653 1116.280762,801.044861 1116.730835,783.005737 
	C1117.130859,766.978333 1119.491577,750.999207 1121.019897,735.001892 
	C1121.116821,733.987305 1121.502930,733.000732 1121.749390,731.999878 
	C1123.487549,724.938843 1123.123169,724.347778 1116.507935,720.984497 
	C1096.537720,710.831238 1082.449463,695.185852 1073.473877,674.761475 
	C1071.885254,671.146545 1070.952515,667.215698 1068.497192,664.002197 
	C1067.114258,662.192200 1066.151855,660.302124 1063.579224,659.297119 
	C1061.148438,658.347412 1061.087769,655.142090 1060.978394,652.500916 
	C1060.185059,633.332520 1059.286621,614.168518 1058.545776,594.998230 
	C1058.422485,591.808716 1057.204224,590.426453 1053.999634,590.477417 
	C1040.996338,590.684570 1028.015015,589.742981 1014.998779,589.891479 
	C1001.504333,590.045532 987.989319,588.884338 974.504883,589.205750 
	C968.532959,589.348145 962.516235,589.985413 956.500000,589.994324 
	C943.833313,590.013000 931.166321,589.938049 918.500061,590.014954 
	C900.833069,590.122253 883.166809,590.351624 865.499939,590.490906 
	C858.500366,590.546143 851.499878,590.471497 844.500061,590.508850 
	C838.716492,590.539612 838.147705,590.872925 838.055054,596.500916 
	C837.906921,605.497498 837.812195,614.501038 837.800842,623.499756 
	C837.785461,635.654175 837.721680,647.905762 836.617554,659.964966 
	C836.012756,666.570801 837.789734,672.625916 837.601196,679.002991 
	C837.128479,694.993958 837.166626,711.000000 837.000000,727.000000 
"/>
<path fill="none" opacity="1.000000" stroke="#000000" stroke-linecap="round" stroke-linejoin="round" stroke-width="7.000000"
	d="
M575.000000,788.000000 
	C564.970215,802.488831 560.501526,819.040100 556.966858,835.993103 
	C552.010864,859.763184 550.830017,883.821228 551.013916,907.999878 
	C551.068115,915.122803 553.285522,921.959717 554.288818,928.958618 
	C555.292236,935.958801 556.322449,942.979858 556.915039,950.007141 
	C558.547791,969.368591 556.868652,988.676147 555.669373,1008.010498 
	C555.160461,1016.215576 556.015625,1024.640625 563.467651,1030.540894 
	C567.424377,1033.673584 572.811523,1033.936279 576.485046,1030.484131 
	C583.120422,1024.248413 586.143799,1016.029846 587.913574,1007.482117 
	C591.973022,987.876282 592.660950,967.830200 595.159729,948.020142 
	C596.021667,941.186646 595.235718,933.556152 600.940430,927.939514 
	C601.314697,927.570984 600.833313,926.333313 600.750000,925.500000 
"/>
<path fill="none" opacity="1.000000" stroke="#000000" stroke-linecap="round" stroke-linejoin="round" stroke-width="7.000000"
	d="
M1284.000000,785.500000 
	C1293.471191,789.374023 1303.372192,790.879700 1313.492676,789.922852 
	C1323.858154,788.942749 1332.828735,784.927612 1341.128052,778.156921 
	C1357.735718,764.607849 1365.199585,747.280457 1362.766357,726.527405 
	C1360.264771,705.190186 1348.562378,689.816711 1327.991943,682.021362 
	C1323.213135,680.210449 1318.352783,678.607605 1313.495605,677.013489 
	C1305.730835,674.465210 1298.257080,676.774475 1291.027100,679.084900 
	C1269.239014,686.047241 1256.842896,701.675659 1252.062378,723.513672 
	C1246.390747,749.421570 1258.696655,770.417786 1279.991943,783.013733 
	C1281.221313,783.740845 1282.333374,784.666687 1283.500000,785.500000 
"/>
<path fill="none" opacity="1.000000" stroke="#000000" stroke-linecap="round" stroke-linejoin="round" stroke-width="7.000000"
	d="
M705.500000,677.500000 
	C714.930481,681.480713 724.630188,683.936462 735.001709,683.546143 
	C746.081055,683.129272 756.859497,680.295166 765.278442,673.716492 
	C777.018066,664.543274 784.807312,652.526794 786.319458,636.530212 
	C787.466736,624.393738 785.944336,613.202942 780.906982,602.543945 
	C769.725830,578.884644 746.204102,568.597351 719.510437,574.546814 
	C698.927917,579.134155 683.983521,591.613159 678.388977,611.608826 
	C671.895203,634.818726 678.610107,659.860962 701.489502,674.516357 
	C702.777283,675.341248 703.913208,676.403137 705.378479,677.558655 
	C700.871582,684.299866 695.769653,690.383484 691.786560,697.378479 
	C683.243896,712.380859 678.301941,728.544800 674.064392,745.016602 
	C671.386047,755.427795 668.517944,765.904358 667.271423,776.531860 
	C666.359619,784.305725 664.051392,792.929810 670.446167,800.048401 
	C671.017761,800.684631 670.833313,802.000000 671.000000,803.000000 
"/>
<path fill="none" opacity="1.000000" stroke="#000000" stroke-linecap="round" stroke-linejoin="round" stroke-width="7.000000"
	d="
M642.500000,856.000000 
	C644.575928,863.358582 644.968079,870.984802 645.942444,878.507446 
	C647.101379,887.454224 647.344543,896.485291 646.951904,905.497925 
	C646.711914,911.009216 645.578613,916.500366 645.583618,921.999939 
	C645.595764,935.368774 647.500549,948.668213 647.849854,962.003906 
	C648.325745,980.174622 650.569580,998.481445 645.991394,1016.497803 
	C643.273682,1027.192993 639.180054,1028.501465 633.500732,1028.564941 
	C626.447388,1028.643677 620.866455,1024.721680 618.568054,1015.982117 
	C616.208252,1007.008972 615.905457,997.690308 615.072693,988.493408 
	C614.219788,979.074280 612.652649,969.796143 611.216797,960.466614 
	C609.819214,951.385620 607.490295,942.530579 606.046265,933.492615 
	C605.575562,930.546509 604.249878,928.562561 601.500000,927.500000 
"/>
<path fill="none" opacity="1.000000" stroke="#000000" stroke-linecap="round" stroke-linejoin="round" stroke-width="7.000000"
	d="
M1194.000000,693.000000 
	C1197.705933,689.093811 1203.017822,687.645508 1207.090088,684.103516 
	C1218.184692,674.453491 1224.247070,662.612183 1226.165649,648.021790 
	C1227.536987,637.593872 1226.417847,627.617065 1221.826294,618.588318 
	C1213.396851,602.012756 1199.146729,592.835083 1181.015381,588.928467 
	C1148.710693,581.968140 1123.318604,605.935608 1118.300415,632.057739 
	C1114.054688,654.159424 1120.951050,673.671387 1140.096924,686.859192 
	C1155.082764,697.181396 1172.062134,698.550659 1189.454346,693.831970 
	C1190.806519,693.465088 1192.133667,693.201355 1193.500000,693.000000 
"/>
<path fill="none" opacity="1.000000" stroke="#000000" stroke-linecap="round" stroke-linejoin="round" stroke-width="6.000000"
	d="
M835.000000,665.000000 
	C832.620850,665.994446 830.387146,667.326294 829.031799,669.519653 
	C818.297607,686.891357 803.677856,700.269714 786.444946,710.910889 
	C784.886780,711.873047 783.676453,713.264709 782.111511,714.122009 
	C783.065857,723.993469 783.644104,734.053406 785.090332,743.986877 
	C787.314758,759.265686 787.518494,774.703552 789.365784,790.016174 
	C791.005310,803.605713 791.417664,817.340149 792.547852,830.996033 
	C792.908691,835.354675 793.833374,839.666687 794.500000,844.000000 
"/>
<path fill="none" opacity="1.000000" stroke="#000000" stroke-linecap="round" stroke-linejoin="round" stroke-width="7.000000"
	d="
M787.500000,920.000000 
	C787.000000,920.000000 786.494629,919.951782 786.000793,920.007019 
	C774.011536,921.349182 768.249756,917.394043 765.008728,905.497620 
	C763.226013,898.954346 762.827271,892.195068 761.851318,885.521729 
	C760.230835,874.441895 757.717712,863.489624 755.484802,852.503113 
	C753.494202,842.708679 751.513916,832.884705 747.939331,823.523193 
	C745.831787,818.003601 743.555115,817.871094 739.993591,822.495056 
	C736.466187,827.074524 735.979126,832.699890 735.108643,838.017761 
	C732.877991,851.645020 731.300293,865.372803 729.164368,879.025696 
	C727.859436,887.366760 727.111145,895.801697 724.963684,903.990479 
	C723.525208,909.475830 721.126770,914.507202 717.541870,919.033142 
	C710.987915,927.307434 700.365662,925.509277 695.897339,917.054260 
	C692.636169,910.883545 692.738037,904.536011 692.995300,897.999817 
	C693.277222,890.836121 692.598389,883.663940 693.371399,876.486145 
	C693.548096,874.844849 692.661560,872.752563 691.000000,871.500000 
"/>
<path fill="none" opacity="1.000000" stroke="#000000" stroke-linecap="round" stroke-linejoin="round" stroke-width="9.000000"
	d="
M981.500000,951.000000 
	C983.718262,949.962891 985.992126,949.489258 988.498901,949.441345 
	C998.501587,949.250305 1008.506653,948.965393 1018.498108,948.462646 
	C1028.340088,947.967346 1038.181641,946.490540 1047.995361,946.709412 
	C1056.163574,946.891418 1064.311890,946.150024 1072.513916,946.833679 
	C1079.948242,947.453491 1087.545044,946.089844 1094.986694,946.670349 
	C1101.753540,947.198181 1108.334839,946.219055 1114.999756,945.993103 
	C1118.491333,945.874817 1119.860840,947.526001 1120.050293,950.997253 
	C1120.950562,967.489685 1120.942749,983.992859 1121.048706,1000.499695 
	C1121.100098,1008.501526 1121.785400,1016.497314 1121.965088,1024.500732 
	C1122.129639,1031.830444 1122.078125,1039.167725 1121.975586,1046.499634 
	C1121.891846,1052.490845 1120.542603,1052.370361 1115.508545,1053.062500 
	C1107.694580,1054.136963 1099.822510,1053.559937 1091.974731,1054.181274 
	C1084.271851,1054.791504 1076.300415,1054.177246 1068.502075,1054.243164 
	C1054.838135,1054.358765 1041.166138,1054.287231 1027.499756,1054.487305 
	C1019.821472,1054.599609 1012.165466,1054.600586 1004.487183,1055.372314 
	C998.176697,1056.006348 991.815247,1054.910034 985.472656,1054.271973 
	C982.177979,1053.940552 978.667297,1055.637695 974.978943,1054.572998 
	C969.392883,1052.960327 963.695801,1051.685913 957.988831,1050.556274 
	C954.672363,1049.899902 954.130249,1048.010132 953.927612,1045.004883 
	C952.322083,1021.188660 953.133362,997.330322 952.480042,973.500549 
	C952.274353,965.997070 951.833313,958.500000 951.500000,951.000000 
"/>
<path fill="none" opacity="1.000000" stroke="#000000" stroke-linecap="round" stroke-linejoin="round" stroke-width="9.000000"
	d="
M1082.000000,841.000000 
	C1081.833374,828.333313 1081.409058,815.662720 1081.604980,803.001648 
	C1081.708008,796.343994 1082.778076,789.703186 1082.513306,782.999451 
	C1081.868286,766.665222 1081.791138,750.311279 1080.579956,733.994080 
	C1080.314697,730.421265 1079.187622,729.084290 1075.503662,728.919373 
	C1060.669312,728.255371 1045.833130,728.438354 1031.000366,728.549988 
	C1020.834534,728.626465 1010.665527,728.663391 1000.497253,728.855469 
	C981.976501,729.205322 963.496582,727.054199 944.995850,726.783142 
	C938.422058,726.686829 931.592896,726.017517 925.014221,727.560547 
	C923.316467,727.958801 921.645020,728.155579 920.004883,727.959351 
	C910.846497,726.863525 901.620911,727.683716 892.504517,727.814514 
	C877.334534,728.032043 862.163940,727.548950 846.999756,727.991028 
	C839.501282,728.209656 831.991394,728.181396 824.506042,728.606384 
	C822.625427,728.713196 820.819641,730.135803 818.878357,730.998657 
	C820.731079,738.101624 819.426758,745.336853 819.824097,752.509766 
	C820.718018,768.645386 820.905945,784.832947 820.928955,801.000122 
	C820.949646,815.565674 823.095154,829.975403 823.500000,844.500000 
"/>
<path fill="none" opacity="1.000000" stroke="#000000" stroke-linecap="round" stroke-linejoin="round" stroke-width="7.000000"
	d="
M1194.000000,693.500000 
	C1197.872925,699.513062 1203.782837,703.780090 1207.580566,709.950378 
	C1215.798218,723.301575 1220.900879,737.702515 1224.072754,752.984924 
	C1226.886353,766.541382 1228.928955,780.144836 1228.970947,794.000061 
	C1228.984863,798.622314 1228.445923,803.144348 1226.580933,807.534363 
	C1225.067627,811.096497 1222.848267,813.237793 1218.999023,813.484131 
	C1215.040161,813.737366 1211.294312,814.246155 1209.341187,809.059814 
	C1207.845581,805.088013 1205.739624,801.600708 1205.901001,796.996521 
	C1206.554199,778.374878 1204.443604,760.159607 1196.500000,743.000000 
"/>
<path fill="none" opacity="1.000000" stroke="#000000" stroke-linecap="round" stroke-linejoin="round" stroke-width="8.000000"
	d="
M994.500000,727.500000 
	C995.015747,716.474243 994.152954,705.458069 993.314636,694.514221 
	C992.375122,682.247925 990.509705,669.928345 985.438293,658.527466 
	C979.926025,646.135681 969.798767,638.991943 956.986816,635.549072 
	C949.340698,633.494324 941.753967,633.965515 934.492920,637.485413 
	C932.498291,638.452271 931.121338,639.518250 930.375061,641.961853 
	C928.834229,647.007263 924.063965,649.934387 921.370789,654.422485 
	C912.313171,669.516357 909.344788,685.690674 910.961182,703.003601 
	C911.690430,710.815552 912.000000,718.666687 912.500000,726.500000 
"/>
<path fill="none" opacity="1.000000" stroke="#000000" stroke-linecap="round" stroke-linejoin="round" stroke-width="6.000000"
	d="
M743.750000,717.500000 
	C741.000000,723.833313 738.234375,730.159973 735.513733,736.505859 
	C734.997192,737.710693 734.197876,738.474487 733.008667,739.018982 
	C728.915955,740.893005 718.963074,737.997314 715.931030,734.560852 
	C712.750244,730.955627 715.540039,727.790955 716.081909,724.513550 
	C716.506470,721.945984 717.622437,719.484131 718.512756,717.004578 
	C719.349426,714.674255 720.292786,712.382324 721.269531,709.866516 
	C715.430237,706.562134 710.815674,709.644409 706.542175,712.561768 
	C693.464478,721.489441 690.747803,741.731079 700.999817,754.000183 
	C701.834473,754.999023 702.666260,756.000305 703.500366,757.000488 
	C697.917236,769.748047 693.456787,782.920654 688.760742,796.003845 
	C688.592285,796.473328 688.757629,797.151611 688.474060,797.477478 
	C683.471741,803.228577 684.324951,811.005432 681.500000,817.500000 
"/>
<path fill="none" opacity="1.000000" stroke="#000000" stroke-linecap="round" stroke-linejoin="round" stroke-width="9.000000"
	d="
M887.000000,952.500000 
	C887.333374,979.666687 887.257751,1006.848572 888.270996,1033.989868 
	C888.543884,1041.300049 886.314697,1044.689819 880.031799,1047.083496 
	C874.050720,1049.362305 868.543335,1053.060791 862.448120,1054.820435 
	C854.375977,1057.150635 845.858948,1057.095215 837.507507,1055.945312 
	C830.522827,1054.983643 823.459534,1055.089722 816.487610,1054.773193 
	C802.028687,1054.116455 787.508057,1053.171387 772.995422,1054.448364 
	C768.192139,1054.870972 767.307434,1053.704956 766.982605,1049.001221 
	C765.441833,1026.692505 765.177307,1004.352783 764.710083,982.006042 
	C764.543945,974.060486 764.709534,965.964844 763.545532,957.993347 
	C762.942139,953.861023 764.296082,952.219788 768.501953,952.047913 
	C777.169006,951.694031 785.854248,952.439941 794.497864,952.331177 
	C807.494019,952.167725 820.507446,952.117126 833.518005,951.279419 
	C839.529480,950.892395 845.865479,950.731750 852.017944,951.905945 
	C853.564697,952.201111 855.352783,951.408875 856.996216,950.985413 
	C861.392212,949.852844 865.743469,951.717834 869.986084,951.342407 
	C877.662720,950.663330 885.330994,951.391296 893.011536,950.614075 
	C903.123840,949.590942 913.391724,951.670166 923.514221,949.568481 
	C923.734253,949.522827 924.166687,950.500000 924.500000,951.000000 
"/>
<path fill="none" opacity="1.000000" stroke="#000000" stroke-linecap="round" stroke-linejoin="round" stroke-width="8.000000"
	d="
M995.500000,224.000000 
	C995.639954,214.332870 995.677856,204.664886 995.859863,194.997360 
	C996.098145,182.341446 995.234619,169.668060 995.056763,156.999207 
	C994.999146,152.892441 992.857056,152.362183 989.498901,152.462326 
	C975.334839,152.884705 961.167053,153.184692 946.999451,153.473480 
	C945.503479,153.503967 944.000000,153.166672 942.500000,153.000000 
"/>
<path fill="none" opacity="1.000000" stroke="#000000" stroke-linecap="round" stroke-linejoin="round" stroke-width="9.000000"
	d="
M909.500000,468.000000 
	C911.263367,479.291260 910.892151,490.615448 910.637207,502.003082 
	C910.268066,518.491089 910.872070,534.999756 910.986145,551.500122 
	C911.059875,562.166260 910.988403,572.833313 911.012024,583.500000 
	C911.015747,585.174561 910.698730,586.896790 911.500000,588.500000 
"/>
<path fill="none" opacity="1.000000" stroke="#000000" stroke-linecap="round" stroke-linejoin="round" stroke-width="5.000000"
	d="
M643.000000,702.500000 
	C634.836060,706.101074 626.816711,703.321289 619.038879,701.346924 
	C610.448608,699.166321 601.877441,696.351074 595.853027,688.948303 
	C592.454712,691.123291 592.602051,694.272339 592.022522,697.004761 
	C587.824280,716.795349 575.823853,730.719421 558.986572,740.978027 
	C554.404297,743.769836 549.205200,744.025940 544.000000,744.000000 
"/>
<path fill="none" opacity="1.000000" stroke="#000000" stroke-linecap="round" stroke-linejoin="round" stroke-width="6.000000"
	d="
M555.000000,695.500000 
	C554.166687,694.666687 552.760559,693.935852 552.590149,692.983887 
	C551.167236,685.034790 545.117493,681.993347 538.466370,680.668823 
	C531.152954,679.212463 524.485413,681.686829 518.988464,686.988037 
	C509.310791,696.321106 507.743530,707.622925 511.056946,719.984741 
	C512.377319,724.910889 514.321106,729.670959 516.002625,734.499084 
	C519.152222,743.542664 519.839233,752.371643 514.567322,761.040955 
	C512.699585,764.112244 513.268066,769.205750 507.500000,768.500000 
"/>
<path fill="none" opacity="1.000000" stroke="#000000" stroke-linecap="round" stroke-linejoin="round" stroke-width="9.000000"
	d="
M939.000000,728.500000 
	C939.036438,746.338867 940.505005,764.150269 940.005127,782.000122 
	C939.645691,794.832703 939.148010,807.665527 939.069702,820.500427 
	C939.022949,828.164795 939.666626,835.833313 939.999939,843.500000 
"/>
<path fill="none" opacity="1.000000" stroke="#000000" stroke-linecap="round" stroke-linejoin="round" stroke-width="8.000000"
	d="
M1026.000000,730.000000 
	C1024.935547,733.166687 1026.000977,736.338318 1026.051392,739.499207 
	C1026.351196,758.336731 1027.091309,777.175415 1027.807861,795.988281 
	C1028.378906,810.982849 1028.317505,826.022949 1029.500000,841.000000 
"/>
<path fill="none" opacity="1.000000" stroke="#000000" stroke-linecap="round" stroke-linejoin="round" stroke-width="8.000000"
	d="
M991.500000,843.500000 
	C992.832642,867.481506 993.999207,891.478271 993.407959,915.497742 
	C993.140930,926.344421 992.885254,937.166687 993.500000,948.000000 
"/>
<path fill="none" opacity="1.000000" stroke="#000000" stroke-linecap="round" stroke-linejoin="round" stroke-width="5.000000"
	d="
M1182.500000,652.000000 
	C1177.538086,649.746582 1172.156372,651.257080 1166.954956,650.227234 
	C1159.450317,648.741394 1151.800781,648.022095 1144.495239,645.513794 
	C1140.161133,644.025696 1138.582764,645.361450 1139.000000,650.000000 
	C1140.500732,666.687073 1158.279175,675.518433 1172.462891,666.442017 
	C1177.573853,663.171448 1182.268921,659.243347 1183.000000,652.500000 
"/>
<path fill="none" opacity="1.000000" stroke="#000000" stroke-linecap="round" stroke-linejoin="round" stroke-width="9.000000"
	d="
M853.000000,952.500000 
	C853.000000,971.333313 852.965271,990.166748 853.011230,1009.000000 
	C853.047058,1023.692932 853.955200,1038.349487 854.952637,1053.003174 
	C855.121216,1055.480347 854.666687,1058.000000 854.500000,1060.500000 
"/>
<path fill="none" opacity="1.000000" stroke="#000000" stroke-linecap="round" stroke-linejoin="round" stroke-width="9.000000"
	d="
M1091.500000,840.500000 
	C1096.106934,857.263916 1095.156372,874.443054 1094.890259,891.498291 
	C1094.608765,909.541199 1097.036499,927.471191 1096.500000,945.500000 
"/>
<path fill="none" opacity="1.000000" stroke="#000000" stroke-linecap="round" stroke-linejoin="round" stroke-width="8.000000"
	d="
M930.500000,639.500000 
	C927.140869,638.004639 923.761536,638.786072 921.051819,640.578369 
	C907.107605,649.801636 897.739197,662.021240 894.324524,678.964661 
	C891.100464,694.962280 891.397888,710.925232 892.000000,727.000000 
"/>
<path fill="none" opacity="1.000000" stroke="#000000" stroke-linecap="round" stroke-linejoin="round" stroke-width="8.000000"
	d="
M1018.500000,466.000000 
	C1022.461365,467.093933 1026.502197,466.391052 1030.500732,466.459564 
	C1037.847534,466.585510 1045.182983,466.689972 1052.503784,467.464630 
	C1056.482300,467.885651 1056.593262,470.890106 1056.421997,473.494873 
	C1055.531372,487.040253 1055.800659,500.530640 1057.479126,514.002625 
	C1057.921997,517.557556 1056.098022,519.613647 1052.501221,519.469727 
	C1038.308716,518.901855 1024.165771,520.134888 1010.000244,520.508606 
	C998.999084,520.798950 987.999756,521.159485 977.000122,521.503784 
	C972.907227,521.631836 970.926514,523.267578 971.037720,526.998901 
	C971.623901,546.667969 972.328186,566.333496 973.017517,585.999390 
	C973.046936,586.837524 973.333313,587.666687 973.499939,588.500000 
"/>
<path fill="none" opacity="1.000000" stroke="#000000" stroke-linecap="round" stroke-linejoin="round" stroke-width="3.000000"
	d="
M1177.500000,798.000000 
	C1178.473999,804.736450 1182.798096,809.926697 1186.120483,815.427185 
	C1199.293579,837.235168 1212.261719,859.152222 1224.524414,881.486572 
	C1226.179565,884.501038 1228.166626,887.333374 1230.000000,890.250000 
"/>
<path fill="none" opacity="1.000000" stroke="#000000" stroke-linecap="round" stroke-linejoin="round" stroke-width="7.000000"
	d="
M544.000000,751.000000 
	C547.480042,757.344360 549.744141,764.290894 554.433472,770.054138 
	C560.536438,777.554871 567.863708,783.853943 576.594727,787.257019 
	C591.028076,792.882751 606.429321,793.976074 620.915833,787.802551 
	C637.923950,780.554321 648.322083,766.799377 652.939453,748.984314 
	C657.096680,732.944946 653.119385,718.452576 644.660828,704.403198 
	C636.933044,691.567444 626.282837,683.685364 612.009644,679.963074 
	C594.403564,675.371704 578.627502,678.643616 563.915710,689.384521 
	C556.262512,694.972107 550.869995,701.956665 547.584229,710.532288 
	C543.723450,720.608643 541.370300,731.047607 542.987488,742.001831 
	C543.403992,744.822876 543.666687,747.666687 544.000000,750.500000 
"/>
<path fill="none" opacity="1.000000" stroke="#000000" stroke-linecap="round" stroke-linejoin="round" stroke-width="6.000000"
	d="
M715.500000,796.000000 
	C716.305847,789.645142 719.835022,784.160339 721.255432,778.001221 
	C721.296143,777.824768 721.477905,777.671326 721.491150,777.499329 
	C722.135559,769.105835 726.901978,765.873718 734.882935,763.156189 
	C755.022644,756.298401 756.853760,735.926086 748.591125,721.946106 
	C747.512695,720.121460 746.068359,719.398071 744.500000,718.500000 
"/>
<path fill="none" opacity="1.000000" stroke="#000000" stroke-linecap="round" stroke-linejoin="round" stroke-width="7.000000"
	d="
M453.500000,424.000000 
	C457.449280,424.131226 460.555328,426.968262 463.309998,428.787659 
	C481.644714,440.897461 501.628784,450.332550 519.130493,463.830780 
	C525.947937,469.088745 532.545349,475.096344 541.000488,477.998627 
	C543.353760,478.806427 544.319519,481.687378 547.000000,482.000000 
"/>
<path fill="none" opacity="1.000000" stroke="#000000" stroke-linecap="round" stroke-linejoin="round" stroke-width="7.000000"
	d="
M545.500000,482.500000 
	C536.042786,489.569031 525.485352,494.921936 515.917175,501.886169 
	C499.550690,513.798584 482.677368,525.015625 465.983795,536.476379 
	C464.271149,537.652161 462.433105,538.892151 460.472260,539.390991 
	C458.460999,539.902588 458.505920,541.059509 458.500000,542.500000 
"/>
<path fill="none" opacity="1.000000" stroke="#000000" stroke-linecap="round" stroke-linejoin="round" stroke-width="6.000000"
	d="
M837.000000,620.000000 
	C832.151978,619.989136 828.971069,622.594543 826.484070,626.489807 
	C821.035889,635.022888 815.659729,643.608704 809.964111,651.975525 
	C800.556030,665.795715 786.458313,672.514648 770.990417,676.966675 
	C769.270630,677.461609 768.077515,676.178345 767.000000,675.000000 
"/>
<path fill="none" opacity="1.000000" stroke="#000000" stroke-linecap="round" stroke-linejoin="round" stroke-width="6.000000"
	d="
M1061.000000,624.000000 
	C1065.877319,623.104309 1067.988770,626.305115 1069.442627,630.022461 
	C1070.523315,632.785522 1070.473511,635.604858 1074.986938,635.800598 
	C1077.628418,635.915161 1079.798340,639.150940 1081.616821,641.923340 
	C1087.411255,650.757507 1091.887207,660.343018 1097.904663,669.065735 
	C1106.564453,681.618469 1118.270752,689.016968 1133.005005,691.975281 
	C1136.463867,692.669739 1139.119507,691.432312 1140.500000,688.000000 
"/>
<path fill="none" opacity="1.000000" stroke="#000000" stroke-linecap="round" stroke-linejoin="round" stroke-width="10.000000"
	d="
M893.500000,224.500000 
	C894.000000,224.166672 894.553406,223.484177 894.992188,223.551270 
	C905.002319,225.081818 914.988403,223.131149 925.002686,223.401291 
	C940.831848,223.828323 956.664612,223.364502 972.510620,224.325226 
	C982.462097,224.928574 992.474548,225.779282 1002.503845,225.053314 
	C1006.536194,224.761429 1007.910645,226.661194 1008.044006,230.498474 
	C1008.785583,251.834991 1009.663574,273.166779 1010.518372,294.499268 
	C1010.538635,295.005127 1010.833313,295.500000 1010.999939,296.000000 
"/>
<path fill="none" opacity="1.000000" stroke="#000000" stroke-linecap="round" stroke-linejoin="round" stroke-width="8.000000"
	d="
M885.500000,406.500000 
	C885.166687,402.166656 884.541565,397.832672 884.551697,393.500122 
	C884.590820,376.833160 884.858398,360.166840 884.986938,343.499908 
	C885.034790,337.294067 884.967285,337.293549 878.500000,337.500031 
	C874.509583,337.627380 872.123230,335.173523 873.036804,331.509186 
	C874.982849,323.703857 873.850647,315.839050 873.714355,308.000610 
	C873.607544,301.856598 871.772278,300.138916 879.999329,299.968750 
	C889.668823,299.768738 899.345032,299.528839 908.997070,298.951050 
	C921.332031,298.212677 933.693237,299.119598 945.993591,298.391266 
	C962.825012,297.394653 979.665527,298.354095 996.515137,297.225739 
	C1009.939514,296.326813 1023.508789,296.596893 1037.000122,297.497620 
	C1043.021729,297.899628 1044.391846,299.380951 1044.507812,305.499847 
	C1044.640625,312.500488 1044.733398,319.504395 1045.040161,326.498230 
	C1045.203979,330.232697 1043.069824,331.509979 1040.001343,331.440765 
	C1034.663208,331.320404 1029.314941,330.382416 1024.004150,330.600098 
	C1014.833008,330.976074 1005.628235,329.552277 996.511597,331.069733 
	C994.150391,331.462738 991.724548,331.370148 989.505188,331.309723 
	C978.295837,331.004517 967.183899,332.866394 956.000671,332.480225 
	C948.605103,332.224884 941.289490,334.171051 934.010620,333.794586 
	C926.389893,333.400421 919.009094,334.813477 911.502380,335.069458 
	C904.002197,335.325226 896.580200,337.130981 888.990906,336.064789 
	C887.351868,335.834534 885.817261,336.922119 884.500000,338.000000 
"/>
<path fill="none" opacity="1.000000" stroke="#000000" stroke-linecap="round" stroke-linejoin="round" stroke-width="3.000000"
	d="
M1189.000000,792.500000 
	C1199.038208,812.485168 1211.125732,831.286377 1222.486084,850.508240 
	C1224.915161,854.618286 1227.076416,858.887817 1229.542847,862.974182 
	C1230.584229,864.699524 1232.110718,866.111938 1234.500000,865.500000 
"/>
<path fill="none" opacity="1.000000" stroke="#000000" stroke-linecap="round" stroke-linejoin="round" stroke-width="9.000000"
	d="
M1026.000000,332.000000 
	C1027.097656,357.327209 1027.540161,382.658722 1026.500000,408.000000 
"/>
<path fill="none" opacity="1.000000" stroke="#000000" stroke-linecap="round" stroke-linejoin="round" stroke-width="8.000000"
	d="
M1339.500000,837.500000 
	C1337.485596,837.485596 1337.219971,839.231201 1336.504150,840.502319 
	C1331.613281,849.186768 1325.310791,856.745178 1318.581909,864.075195 
	C1312.380615,870.830322 1304.393311,872.861450 1296.004150,874.521118 
	C1282.923096,877.109070 1269.656738,875.848816 1256.516235,876.739502 
	C1248.982422,877.250183 1243.526978,875.205261 1238.435547,870.063843 
	C1234.721436,866.313232 1234.399048,861.751892 1238.515015,858.016479 
	C1243.309326,853.665283 1248.719482,851.217651 1255.502686,851.395325 
	C1264.991821,851.643799 1274.503662,851.275391 1283.998657,850.960266 
	C1289.903198,850.764343 1295.223267,848.485962 1298.926025,843.939758 
	C1306.479736,834.665283 1313.369019,824.888733 1318.475464,813.988525 
	C1318.667603,813.578491 1318.500000,813.000000 1318.500000,812.500000 
"/>
<path fill="none" opacity="1.000000" stroke="#000000" stroke-linecap="round" stroke-linejoin="round" stroke-width="8.000000"
	d="
M995.500061,332.000000 
	C995.833374,345.166656 996.277771,358.331757 996.467224,371.500458 
	C996.637756,383.353302 996.545288,395.210846 995.000000,407.000000 
"/>
<path fill="none" opacity="1.000000" stroke="#000000" stroke-linecap="round" stroke-linejoin="round" stroke-width="7.000000"
	d="
M902.500000,225.000000 
	C903.648254,249.493317 901.534363,274.008850 903.000000,298.500000 
"/>
<path fill="none" opacity="1.000000" stroke="#000000" stroke-linecap="round" stroke-linejoin="round" stroke-width="8.000000"
	d="
M949.000000,224.500000 
	C948.873657,247.050064 951.123413,269.494537 951.991577,292.000336 
	C952.055725,293.664520 952.000000,295.333344 952.000000,297.000000 
"/>
<path fill="none" opacity="1.000000" stroke="#000000" stroke-linecap="round" stroke-linejoin="round" stroke-width="9.000000"
	d="
M933.000000,335.000000 
	C933.394653,358.666016 933.789307,382.332031 934.187866,406.231720 
	C935.552490,407.878082 937.648743,407.107849 939.496582,406.957672 
	C946.358765,406.400024 953.165894,406.013458 960.018555,407.409027 
	C962.739014,407.963074 965.668518,407.566467 968.499695,407.488983 
	C984.863342,407.041138 1001.163330,408.781616 1017.500732,408.905212 
	C1026.028320,408.969757 1034.518555,409.332001 1042.995605,410.051697 
	C1047.049927,410.395844 1048.784424,412.720276 1047.963867,416.492126 
	C1045.609619,427.312592 1047.195435,438.152435 1047.420410,449.001648 
	C1047.537842,454.658966 1046.833374,460.333344 1046.500000,466.000000 
"/>
<path fill="none" opacity="1.000000" stroke="#000000" stroke-linecap="round" stroke-linejoin="round" stroke-width="7.000000"
	d="
M936.000000,154.500000 
	C937.754883,154.509796 938.668701,155.509109 939.535156,156.979294 
	C950.823303,176.134003 963.851440,194.106445 976.954102,212.033554 
	C979.304077,215.248764 981.320862,218.792984 981.500000,223.000000 
"/>
<path fill="none" opacity="1.000000" stroke="#000000" stroke-linecap="round" stroke-linejoin="round" stroke-width="9.000000"
	d="
M1038.000000,520.500000 
	C1039.667480,525.071350 1039.058350,529.843079 1038.913940,534.497314 
	C1038.696411,541.507568 1039.509766,548.463867 1039.215088,555.508972 
	C1038.833374,564.638794 1040.047485,573.831177 1040.462646,583.001709 
	C1040.552490,584.990112 1040.166626,587.000000 1040.000000,589.000000 
"/>
<path fill="none" opacity="1.000000" stroke="#000000" stroke-linecap="round" stroke-linejoin="round" stroke-width="8.000000"
	d="
M935.500000,152.500000 
	C932.212097,160.757553 927.193115,168.040405 922.487549,175.492126 
	C914.365723,188.353790 906.102478,201.126633 898.052917,214.033020 
	C896.402344,216.679504 894.504395,219.491974 895.500000,223.000000 
"/>
<path fill="none" opacity="1.000000" stroke="#000000" stroke-linecap="round" stroke-linejoin="round" stroke-width="8.000000"
	d="
M1063.000000,660.000000 
	C1059.761353,667.935974 1062.460327,676.008484 1062.578369,683.998840 
	C1062.792358,698.499207 1064.173462,712.984619 1063.000000,727.500000 
"/>
<path fill="none" opacity="1.000000" stroke="#000000" stroke-linecap="round" stroke-linejoin="round" stroke-width="6.000000"
	d="
M1283.500000,786.000000 
	C1274.449341,798.799255 1266.062012,812.191833 1253.942017,822.431396 
	C1246.823975,828.445007 1238.242432,831.714661 1228.989990,832.923767 
	C1227.555176,833.111206 1226.292480,833.503052 1225.000000,834.000000 
"/>
<path fill="none" opacity="1.000000" stroke="#000000" stroke-linecap="round" stroke-linejoin="round" stroke-width="7.000000"
	d="
M576.500000,838.000000 
	C588.104980,846.683838 600.153687,854.404968 614.473755,858.101685 
	C621.356201,859.878479 627.854309,859.153748 634.504395,857.517944 
	C643.602356,855.280090 651.602051,850.121582 660.536621,847.631348 
	C667.263672,845.756470 673.208618,842.653992 679.001648,839.002625 
	C687.014832,833.951843 688.601379,824.672119 682.546265,818.951050 
	C681.375732,817.845093 680.356201,818.020996 679.005127,817.926758 
	C667.838013,817.147400 658.136536,822.111267 647.974243,825.420959 
	C641.564453,827.508484 635.240112,829.824036 628.565735,831.297729 
	C623.691467,832.373779 619.648132,831.736450 616.077820,829.382019 
	C608.322937,824.268066 600.488220,819.197876 593.500000,813.000000 
"/>
<path fill="none" opacity="1.000000" stroke="#000000" stroke-linecap="round" stroke-linejoin="round" stroke-width="6.000000"
	d="
M1139.750000,286.000000 
	C1135.598877,278.582611 1129.936768,279.868591 1126.022583,283.028015 
	C1120.027710,287.867035 1118.014404,301.272949 1121.982056,308.010529 
	C1125.660645,314.257172 1133.511963,315.977753 1139.434204,309.935455 
	C1140.491089,308.856964 1141.867310,307.459564 1141.500000,305.500000 
"/>
<path fill="none" opacity="1.000000" stroke="#000000" stroke-linecap="round" stroke-linejoin="round" stroke-width="9.000000"
	d="
M372.000000,378.500000 
	C377.054260,376.919159 382.553680,379.360992 387.633270,375.684113 
	C392.322571,372.289764 394.885101,368.215485 393.802856,363.041229 
	C392.600037,357.290405 387.373108,355.603394 381.999207,355.007294 
	C381.505280,354.952515 381.000000,355.000000 380.500000,355.000000 
	C370.352692,355.000000 369.985077,355.352722 370.006805,365.500000 
	C370.016510,370.034027 371.434326,374.895538 370.830933,378.937439 
	C369.821350,385.700195 370.569305,392.342865 370.000000,399.000000 
"/>
<path fill="none" opacity="1.000000" stroke="#000000" stroke-linecap="round" stroke-linejoin="round" stroke-width="9.000000"
	d="
M1091.000000,843.000000 
	C1080.381592,841.121216 1069.667603,843.148743 1058.985718,842.152832 
	C1052.061523,841.507263 1045.000854,842.401978 1037.999878,842.486084 
	C1022.500122,842.672363 1006.986023,842.864075 991.501526,842.762695 
	C976.577393,842.665039 961.833984,845.292542 947.006287,844.807800 
	C937.114380,844.484314 927.377319,845.896606 917.496033,845.702209 
	C898.843140,845.335327 880.167358,846.365112 861.499756,846.429260 
	C849.334351,846.471130 837.166260,845.847534 825.000122,845.495728 
	C814.166199,845.182556 803.330139,844.909119 792.501709,844.458557 
	C788.741272,844.302063 786.963013,845.768555 787.523804,849.496399 
	C788.901001,858.650696 787.747925,867.834290 787.934204,877.001343 
	C788.194824,889.829346 787.870239,902.668396 788.037964,915.499512 
	C788.192627,927.335144 788.666687,939.166687 789.000000,951.000000 
"/>
<path fill="none" opacity="1.000000" stroke="#000000" stroke-linecap="round" stroke-linejoin="round" stroke-width="6.000000"
	d="
M626.000000,786.500000 
	C634.089722,796.770630 645.036316,802.062866 657.482666,805.071716 
	C665.095947,806.912109 672.248657,805.283264 679.506470,803.526733 
	C680.961609,803.174561 682.500000,803.166626 684.000000,803.000000 
"/>
<path fill="none" opacity="1.000000" stroke="#000000" stroke-linecap="round" stroke-linejoin="round" stroke-width="9.000000"
	d="
M921.500000,847.000000 
	C922.565674,859.988464 921.625977,873.004700 922.029846,885.999084 
	C922.475586,900.340637 922.880371,914.682739 923.915649,929.006104 
	C924.406921,935.803894 924.000000,942.666687 924.000000,949.629150 
	C928.763550,951.690796 933.689575,949.901794 938.497803,949.837097 
	C942.508484,949.783203 946.537903,949.136353 950.487427,950.054199 
	C953.378784,950.726196 955.720093,948.796082 958.502869,948.947510 
	C964.660400,949.282715 970.832520,949.393127 977.000305,949.477783 
	C980.757629,949.529419 982.073364,951.405640 982.036926,955.000366 
	C981.932190,965.332642 981.881409,975.668518 982.043152,985.999329 
	C982.144958,992.502930 982.804260,998.996521 982.969177,1005.500793 
	C983.248047,1016.497925 983.080933,1027.512207 983.613647,1038.494507 
	C983.855713,1043.485840 983.355652,1048.614380 985.000000,1053.500000 
"/>
<path fill="none" opacity="1.000000" stroke="#000000" stroke-linecap="round" stroke-linejoin="round" stroke-width="8.000000"
	d="
M856.000000,469.000000 
	C856.166687,482.833344 856.819763,496.682465 856.370850,510.495789 
	C855.865540,526.044128 857.082214,541.514771 857.722839,556.990784 
	C858.171082,567.820984 858.914673,578.647522 859.000000,589.500000 
"/>
<path fill="none" opacity="1.000000" stroke="#000000" stroke-linecap="round" stroke-linejoin="round" stroke-width="8.000000"
	d="
M933.500000,406.500000 
	C928.047729,408.242676 922.470764,406.674469 916.997192,406.732178 
	C906.840332,406.839355 896.676208,407.445129 886.496765,407.350311 
	C879.413025,407.284302 872.170654,407.758728 864.999634,407.987915 
	C862.242737,408.076019 861.894165,409.673248 861.966675,412.001038 
	C862.527161,429.999146 863.000000,448.000000 863.500000,466.000000 
"/>
<path fill="none" opacity="1.000000" stroke="#000000" stroke-linecap="round" stroke-linejoin="round" stroke-width="9.000000"
	d="
M864.500000,889.000000 
	C881.545593,888.903625 898.563416,889.325378 915.506165,891.450623 
	C917.126465,891.653870 918.833313,891.166687 920.500000,891.000000 
"/>
<path fill="none" opacity="1.000000" stroke="#000000" stroke-linecap="round" stroke-linejoin="round" stroke-width="5.000000"
	d="
M1250.500000,877.500000 
	C1250.417969,880.715210 1251.801758,883.423828 1253.513672,885.990845 
	C1254.436890,887.375427 1255.573120,888.618652 1256.486694,890.008728 
	C1259.551147,894.670654 1261.651245,900.026489 1258.334717,904.887207 
	C1254.129150,911.051086 1247.807007,914.896729 1239.999878,914.910095 
	C1236.542847,914.916016 1234.241089,912.461426 1232.479126,909.512512 
	C1224.694214,896.483521 1216.737183,883.555969 1209.107178,870.437683 
	C1208.007446,868.546753 1206.865234,867.301453 1205.000000,866.500000 
"/>
<path fill="none" opacity="1.000000" stroke="#000000" stroke-linecap="round" stroke-linejoin="round" stroke-width="10.000000"
	d="
M1017.750000,464.500000 
	C1018.518616,466.349609 1017.389343,466.631989 1016.001526,466.485596 
	C1008.998230,465.746613 1002.046753,467.681061 994.980957,466.627655 
	C991.255310,466.072205 987.332520,466.993164 983.500122,466.973572 
	C961.499878,466.861176 939.500183,466.628510 917.499939,466.513123 
	C902.326050,466.433563 887.163086,466.894714 871.994995,467.322052 
	C865.462769,467.506104 858.962341,467.432587 852.500000,468.500000 
"/>
<path fill="none" opacity="1.000000" stroke="#000000" stroke-linecap="round" stroke-linejoin="round" stroke-width="8.000000"
	d="
M999.000000,468.000000 
	C999.166687,482.666656 999.290710,497.334076 999.541138,511.999298 
	C999.583801,514.504272 1000.166626,517.000000 1000.499939,519.500000 
"/>
<path fill="none" opacity="1.000000" stroke="#000000" stroke-linecap="round" stroke-linejoin="round" stroke-width="6.000000"
	d="
M766.000000,630.000000 
	C753.118835,641.670593 732.347961,647.050781 717.500000,637.500000 
"/>
<path fill="none" opacity="1.000000" stroke="#000000" stroke-linecap="round" stroke-linejoin="round" stroke-width="5.000000"
	d="
M632.500000,744.500000 
	C637.277588,753.793335 629.009583,763.002197 620.974548,764.891846 
	C612.821655,766.809204 605.295837,765.116394 598.922363,759.081970 
	C597.160034,757.413452 597.163513,755.017151 595.500000,753.500000 
"/>
<path fill="none" opacity="1.000000" stroke="#000000" stroke-linecap="round" stroke-linejoin="round" stroke-width="8.000000"
	d="
M964.000000,408.500000 
	C964.166687,427.500000 964.333374,446.500000 964.500000,465.500000 
"/>
<path fill="none" opacity="1.000000" stroke="#000000" stroke-linecap="round" stroke-linejoin="round" stroke-width="6.000000"
	d="
M1125.000000,355.000000 
	C1128.386475,353.705719 1132.020508,354.968323 1135.547974,353.625916 
	C1139.918091,351.962830 1142.910034,348.712341 1142.500122,344.500000 
	C1141.994629,339.306610 1138.403687,335.705750 1133.499756,335.506989 
	C1132.334961,335.459778 1131.126709,335.307953 1130.008423,335.540619 
	C1127.794067,336.001404 1125.628418,336.696747 1124.000000,337.142487 
	C1124.000000,348.501434 1124.000000,359.500732 1124.000000,370.500000 
"/>
<path fill="none" opacity="1.000000" stroke="#000000" stroke-linecap="round" stroke-linejoin="round" stroke-width="6.000000"
	d="
M1317.500000,755.500000 
	C1311.057129,761.644897 1303.066528,764.048035 1294.503418,763.852722 
	C1288.765259,763.721741 1282.832275,763.546387 1277.445801,760.598938 
	C1275.931396,759.770203 1274.425171,759.365112 1274.000000,757.500000 
"/>
<path fill="none" opacity="1.000000" stroke="#000000" stroke-linecap="round" stroke-linejoin="round" stroke-width="9.000000"
	d="
M112.000000,358.000000 
	C112.166664,372.833344 112.333336,387.666656 112.500000,402.500000 
"/>
<path fill="none" opacity="1.000000" stroke="#000000" stroke-linecap="round" stroke-linejoin="round" stroke-width="9.000000"
	d="
M164.000000,355.000000 
	C157.659851,355.203857 151.319519,354.644623 144.975967,355.876221 
	C141.976990,356.458466 140.555176,358.188141 140.624985,360.496216 
	C140.781235,365.662415 139.474548,370.699310 140.670013,376.073395 
	C141.462234,379.634766 139.912384,383.953613 139.975769,388.000366 
	C140.100067,395.938293 141.103333,397.062469 148.999786,396.979340 
	C154.834213,396.917908 160.666672,396.666656 166.500000,396.500000 
"/>
<path fill="none" opacity="1.000000" stroke="#000000" stroke-linecap="round" stroke-linejoin="round" stroke-width="5.000000"
	d="
M1166.750000,769.500000 
	C1171.030518,768.958740 1175.061523,768.279114 1179.081787,771.394409 
	C1184.924927,775.922119 1189.977539,781.179016 1194.955933,786.540955 
	C1196.570435,788.279907 1198.291504,790.339233 1198.856812,792.536804 
	C1199.756836,796.034607 1201.964600,797.535400 1205.000000,798.500000 
"/>
<path fill="none" opacity="1.000000" stroke="#000000" stroke-linecap="round" stroke-linejoin="round" stroke-width="6.000000"
	d="
M705.500000,827.500000 
	C700.927551,832.826477 700.111450,839.723816 698.134521,846.042114 
	C695.789307,853.537415 692.846985,860.824707 690.798706,868.445923 
	C689.456299,873.440857 684.776306,876.637024 680.440125,879.406250 
	C679.063110,880.285645 677.292969,879.121033 676.000000,878.000000 
"/>
<path fill="none" opacity="1.000000" stroke="#000000" stroke-linecap="round" stroke-linejoin="round" stroke-width="8.000000"
	d="
M315.000000,355.000000 
	C313.728790,365.736023 309.707550,375.856995 307.921295,386.486786 
	C307.653259,388.081757 306.656677,389.878998 305.433746,390.922333 
	C302.764496,393.199585 302.896667,396.040619 303.000000,399.000000 
"/>
<path fill="none" opacity="1.000000" stroke="#000000" stroke-linecap="round" stroke-linejoin="round" stroke-width="5.000000"
	d="
M1252.500000,303.000000 
	C1255.833374,302.666687 1259.244873,302.661987 1262.474365,301.892548 
	C1264.912720,301.311584 1267.486328,299.939941 1266.476196,296.506989 
	C1265.594116,293.509094 1260.725098,291.005615 1258.000000,292.000000 
	C1254.031860,293.447998 1251.978271,297.235291 1251.623169,301.990509 
	C1251.446899,304.349030 1250.352051,306.650177 1251.510620,308.994720 
	C1253.962891,313.957886 1262.327759,316.016846 1267.500000,310.000000 
"/>
<path fill="none" opacity="1.000000" stroke="#000000" stroke-linecap="round" stroke-linejoin="round" stroke-width="6.000000"
	d="
M1224.000000,332.500000 
	C1224.235840,345.165741 1222.438232,357.858276 1224.500000,370.500000 
"/>
<path fill="none" opacity="1.000000" stroke="#000000" stroke-linecap="round" stroke-linejoin="round" stroke-width="8.000000"
	d="
M268.000000,356.500000 
	C271.203766,366.126801 272.514801,376.202332 274.872620,386.030548 
	C275.326935,387.924194 275.900787,389.714325 277.078949,390.923065 
	C279.217255,393.116974 279.275696,395.393311 278.500000,398.000000 
"/>
<path fill="none" opacity="1.000000" stroke="#000000" stroke-linecap="round" stroke-linejoin="round" stroke-width="6.000000"
	d="
M723.500000,807.500000 
	C721.935425,807.731201 721.551697,807.021606 721.449585,805.503418 
	C721.188782,801.624573 720.233948,797.390198 715.968140,796.695740 
	C711.475037,795.964172 707.071777,797.402100 703.970276,801.477417 
	C699.531128,807.310425 699.222107,816.795898 703.500000,823.000000 
	C707.328003,828.551819 712.462158,828.574890 716.489929,822.992737 
	C719.712341,818.526672 721.616272,813.565674 721.750000,808.000000 
"/>
<path fill="none" opacity="1.000000" stroke="#000000" stroke-linecap="round" stroke-linejoin="round" stroke-width="6.000000"
	d="
M1241.000000,277.500000 
	C1240.833374,286.500000 1240.713867,295.501251 1240.474731,304.499329 
	C1240.389282,307.709106 1240.703857,310.856720 1241.250000,314.000000 
"/>
<path fill="none" opacity="1.000000" stroke="#000000" stroke-linecap="round" stroke-linejoin="round" stroke-width="6.000000"
	d="
M632.000000,746.500000 
	C631.166992,746.668213 630.383423,746.438660 629.468506,746.942810 
	C620.752258,751.745300 611.278015,752.908386 601.499329,752.517334 
	C599.781555,752.448608 597.960571,752.136047 596.500000,753.500000 
"/>
<path fill="none" opacity="1.000000" stroke="#000000" stroke-linecap="round" stroke-linejoin="round" stroke-width="8.000000"
	d="
M252.500000,356.000000 
	C251.330200,360.208710 251.066422,364.118408 253.892868,368.076508 
	C255.889908,370.873047 255.358322,374.597290 255.533096,377.998291 
	C255.893173,385.006073 257.327484,391.940887 257.000000,399.000000 
"/>
<path fill="none" opacity="1.000000" stroke="#000000" stroke-linecap="round" stroke-linejoin="round" stroke-width="9.000000"
	d="
M221.750000,354.500000 
	C222.000000,356.666656 222.092499,358.866608 222.541107,360.991333 
	C223.064865,363.472015 223.419250,365.656525 221.068939,367.584045 
	C220.297607,368.216675 219.967651,369.862427 220.057770,370.995392 
	C220.789902,380.199829 218.132690,389.296051 219.250000,398.500000 
"/>
<path fill="none" opacity="1.000000" stroke="#000000" stroke-linecap="round" stroke-linejoin="round" stroke-width="8.000000"
	d="
M861.000000,847.500000 
	C860.970154,857.692749 861.795532,867.853088 862.162109,878.012207 
	C862.324463,882.514282 864.311829,886.928772 863.014954,891.504272 
	C861.803040,895.780212 862.458008,900.181641 862.569153,904.498230 
	C862.865417,916.003479 863.610474,927.496887 863.933228,939.001892 
	C864.031067,942.489807 863.333313,946.000000 863.000000,949.500000 
"/>
<path fill="none" opacity="1.000000" stroke="#000000" stroke-linecap="round" stroke-linejoin="round" stroke-width="6.000000"
	d="
M1186.500000,836.500000 
	C1180.621216,843.307739 1182.684326,853.283691 1190.971802,859.040588 
	C1193.926880,861.093323 1197.026611,861.832092 1200.500000,861.500000 
"/>
<path fill="none" opacity="1.000000" stroke="#000000" stroke-linecap="round" stroke-linejoin="round" stroke-width="6.000000"
	d="
M543.500000,750.500000 
	C539.701416,750.790527 538.188110,753.938171 536.567688,756.542114 
	C532.229675,763.513123 525.153870,765.788696 517.985168,767.950928 
	C516.318115,768.453735 514.546204,767.935608 513.000000,767.000000 
"/>
<path fill="none" opacity="1.000000" stroke="#000000" stroke-linecap="round" stroke-linejoin="round" stroke-width="6.000000"
	d="
M1287.500000,370.500000 
	C1286.957397,364.511627 1288.267700,358.501862 1286.651123,352.459564 
	C1285.747437,349.081757 1284.521729,346.975983 1281.001221,347.053467 
	C1278.292480,347.113068 1274.066162,351.834167 1274.005615,354.500122 
	C1273.903564,359.002716 1275.141846,363.481934 1274.250000,368.000000 
"/>
<path fill="none" opacity="1.000000" stroke="#000000" stroke-linecap="round" stroke-linejoin="round" stroke-width="6.000000"
	d="
M1202.500000,314.500000 
	C1202.579468,310.000000 1203.144165,305.549957 1202.647949,300.983917 
	C1202.262329,297.436890 1202.034668,293.976074 1198.453979,292.621643 
	C1195.502563,291.505310 1193.388916,293.924713 1191.484863,295.986084 
	C1191.088623,296.415161 1190.500000,296.666656 1190.000000,296.999969 
"/>
<path fill="none" opacity="1.000000" stroke="#000000" stroke-linecap="round" stroke-linejoin="round" stroke-width="7.000000"
	d="
M1275.000000,819.500000 
	C1274.767822,828.061523 1272.287598,836.218079 1270.508423,844.501831 
	C1270.117310,846.322693 1269.833252,848.166687 1269.500000,850.000000 
"/>
<path fill="none" opacity="1.000000" stroke="#000000" stroke-linecap="round" stroke-linejoin="round" stroke-width="6.000000"
	d="
M552.000000,693.500000 
	C548.127136,694.495911 543.884094,694.274963 540.957703,697.966492 
	C536.006714,704.211731 538.123169,710.584595 546.000000,712.500000 
"/>
<path fill="none" opacity="1.000000" stroke="#000000" stroke-linecap="round" stroke-linejoin="round" stroke-width="5.000000"
	d="
M666.000000,847.000000 
	C666.879883,848.928467 666.802551,850.733582 665.510071,852.507324 
	C660.407471,859.510681 659.249817,866.808716 664.000000,874.500000 
"/>
<path fill="none" opacity="1.000000" stroke="#000000" stroke-linecap="round" stroke-linejoin="round" stroke-width="8.000000"
	d="
M191.500000,357.000000 
	C194.799240,359.317993 195.863235,362.930450 196.999680,366.500092 
	C198.829742,372.248505 199.762619,378.336517 201.787354,383.895325 
	C203.790527,389.394989 205.739853,394.912781 207.500000,400.500000 
"/>
<path fill="none" opacity="1.000000" stroke="#000000" stroke-linecap="round" stroke-linejoin="round" stroke-width="8.000000"
	d="
M191.500000,352.500000 
	C191.954178,355.161865 190.600632,356.984253 189.084564,359.061707 
	C185.635818,363.787445 184.039993,369.655151 182.835419,375.074554 
	C181.339432,381.805023 177.805084,387.544647 176.017776,394.004913 
	C175.565750,395.638733 175.333328,397.333344 175.000000,399.000000 
"/>
<path fill="none" opacity="1.000000" stroke="#000000" stroke-linecap="round" stroke-linejoin="round" stroke-width="9.000000"
	d="
M411.500000,351.500000 
	C411.333344,357.000000 410.164368,362.703735 411.231445,367.952942 
	C412.893799,376.130768 410.557617,383.996643 410.969818,392.001556 
	C411.149567,395.492310 411.000000,399.000000 411.000000,402.500000 
"/>
<path fill="none" opacity="1.000000" stroke="#000000" stroke-linecap="round" stroke-linejoin="round" stroke-width="8.000000"
	d="
M291.000000,360.500000 
	C291.000000,362.000000 290.814789,363.528168 291.037720,364.994263 
	C291.536285,368.273071 291.145447,371.152863 288.513977,373.515564 
	C284.972687,376.695160 284.893738,381.470917 283.717102,385.562439 
	C282.848694,388.582031 281.601532,390.909698 279.500000,393.000000 
"/>
<path fill="none" opacity="1.000000" stroke="#000000" stroke-linecap="round" stroke-linejoin="round" stroke-width="9.000000"
	d="
M413.500000,376.500000 
	C418.165283,375.281006 421.213348,376.572357 424.182251,380.874237 
	C428.511475,387.147217 433.736389,392.877594 439.500000,398.000000 
"/>
<path fill="none" opacity="1.000000" stroke="#000000" stroke-linecap="round" stroke-linejoin="round" stroke-width="2.000000"
	d="
M1102.500000,1018.499939 
	C1094.500000,1026.166626 1086.500000,1033.833252 1078.500000,1041.500000 
"/>
<path fill="none" opacity="1.000000" stroke="#000000" stroke-linecap="round" stroke-linejoin="round" stroke-width="7.000000"
	d="
M291.500000,371.000000 
	C295.904877,374.636017 296.092560,380.137054 297.379974,385.031555 
	C298.268768,388.410583 299.363403,391.252045 302.500000,393.000000 
"/>
<path fill="none" opacity="1.000000" stroke="#000000" stroke-linecap="round" stroke-linejoin="round" stroke-width="5.000000"
	d="
M1252.000000,885.250000 
	C1244.913086,891.346619 1236.531128,895.552124 1229.000000,901.000000 
"/>
<path fill="none" opacity="1.000000" stroke="#000000" stroke-linecap="round" stroke-linejoin="round" stroke-width="5.000000"
	d="
M1250.500000,364.000000 
	C1245.218140,369.528381 1238.670044,369.449707 1235.074219,363.455505 
	C1232.699829,359.497498 1234.391724,355.438110 1235.958130,351.483398 
	C1237.370483,347.917603 1240.040771,347.034515 1243.499146,346.960327 
	C1246.819214,346.889099 1248.502563,348.910522 1249.413818,351.529999 
	C1250.044189,353.341614 1249.258789,354.898193 1247.012451,355.543457 
	C1243.230713,356.629791 1239.542969,358.107147 1235.500000,357.000000 
"/>
<path fill="none" opacity="1.000000" stroke="#000000" stroke-linecap="round" stroke-linejoin="round" stroke-width="8.000000"
	d="
M251.000000,363.500000 
	C247.647537,364.972321 245.724930,367.978607 244.632782,371.047272 
	C242.915741,375.871643 240.536545,380.151794 237.250000,384.000000 
"/>
<path fill="none" opacity="1.000000" stroke="#000000" stroke-linecap="round" stroke-linejoin="round" stroke-width="5.000000"
	d="
M1213.500000,814.500000 
	C1212.898926,819.737854 1216.468628,823.363281 1219.143677,826.890991 
	C1224.956055,834.555847 1228.270996,843.564636 1233.461426,851.525146 
	C1234.578979,853.238892 1235.316895,855.194824 1237.000000,856.500000 
"/>
<path fill="none" opacity="1.000000" stroke="#000000" stroke-linecap="round" stroke-linejoin="round" stroke-width="8.000000"
	d="
M223.500000,365.000000 
	C228.974426,367.385071 229.654144,373.240082 232.406982,377.559296 
	C233.729950,379.635040 235.244736,381.375519 237.000000,383.000000 
"/>
<path fill="none" opacity="1.000000" stroke="#000000" stroke-linecap="round" stroke-linejoin="round" stroke-width="2.000000"
	d="
M1109.500000,1017.500000 
	C1102.833374,1024.500000 1096.166626,1031.500000 1089.500000,1038.500000 
"/>
<path fill="none" opacity="1.000000" stroke="#000000" stroke-linecap="round" stroke-linejoin="round" stroke-width="8.000000"
	d="
M437.000000,355.500000 
	C432.666656,359.666656 428.334991,363.835052 423.999329,367.999298 
	C421.779114,370.131744 420.193542,372.684601 419.000000,375.500000 
"/>
<path fill="none" opacity="1.000000" stroke="#000000" stroke-linecap="round" stroke-linejoin="round" stroke-width="8.000000"
	d="
M384.500000,378.500000 
	C387.541687,385.589722 392.044678,391.780212 396.500000,398.000000 
"/>
<path fill="none" opacity="1.000000" stroke="#000000" stroke-linecap="round" stroke-linejoin="round" stroke-width="6.000000"
	d="
M1230.000000,302.500000 
	C1229.186890,301.425690 1229.771729,300.129150 1229.469482,299.008240 
	C1228.126343,294.030182 1224.693115,291.936768 1221.498779,292.492859 
	C1215.306396,293.570892 1213.338135,295.911743 1214.000000,301.500000 
"/>
<path fill="none" opacity="1.000000" stroke="#000000" stroke-linecap="round" stroke-linejoin="round" stroke-width="6.000000"
	d="
M1260.000000,344.500000 
	C1261.489136,353.141235 1260.025757,361.839264 1260.500000,370.500000 
"/>
<path fill="none" opacity="1.000000" stroke="#000000" stroke-linecap="round" stroke-linejoin="round" stroke-width="6.000000"
	d="
M1213.000000,357.500000 
	C1212.146606,354.614929 1212.554932,351.464233 1210.091187,348.912018 
	C1208.054688,346.802429 1205.563110,346.338257 1203.569946,347.168030 
	C1200.678345,348.371765 1196.583862,348.923828 1196.505859,353.500092 
	C1196.471680,355.499512 1196.486816,357.500092 1196.502563,359.499969 
	C1196.543945,364.768982 1198.481567,366.977661 1203.500000,367.500000 
	C1208.249146,367.994324 1211.618896,365.406799 1212.477173,360.496002 
	C1212.714844,359.136322 1211.917358,357.222687 1214.500000,357.500000 
"/>
<path fill="none" opacity="1.000000" stroke="#000000" stroke-linecap="round" stroke-linejoin="round" stroke-width="2.000000"
	d="
M1003.500000,1000.500000 
	C998.833313,1005.500000 994.127747,1010.464539 989.523010,1015.520935 
	C988.076050,1017.109924 986.020813,1016.013794 984.500000,1017.000000 
"/>
<path fill="none" opacity="1.000000" stroke="#000000" stroke-linecap="round" stroke-linejoin="round" stroke-width="5.000000"
	d="
M674.499939,877.500000 
	C676.166626,873.333313 678.230164,869.270813 679.361145,864.963562 
	C680.121033,862.069580 677.751221,860.027527 674.985840,859.589600 
	C672.127869,859.137024 669.377258,859.720093 668.996948,863.499695 
	C668.729492,866.157959 668.534851,868.793030 670.500000,871.000000 
"/>
<path fill="none" opacity="1.000000" stroke="#000000" stroke-linecap="round" stroke-linejoin="round" stroke-width="6.000000"
	d="
M1231.500000,302.500000 
	C1229.446045,302.223511 1229.664917,303.589813 1229.455200,304.993286 
	C1228.320312,312.585449 1223.457642,315.169464 1216.500000,312.000031 
	C1212.769897,310.300812 1212.199463,304.311920 1215.500000,301.500000 
"/>
<path fill="none" opacity="1.000000" stroke="#000000" stroke-linecap="round" stroke-linejoin="round" stroke-width="8.000000"
	d="
M161.000000,375.750000 
	C154.500000,376.166656 148.000000,376.583344 141.500000,377.000000 
"/>
<path fill="none" opacity="1.000000" stroke="#000000" stroke-linecap="round" stroke-linejoin="round" stroke-width="6.000000"
	d="
M1189.250000,314.000000 
	C1189.918457,308.821198 1189.394165,303.659210 1188.984009,298.501282 
	C1188.768799,295.796600 1185.281372,292.389160 1183.000000,292.500000 
	C1179.865723,292.652222 1175.634644,296.133118 1175.545532,299.001404 
	C1175.385010,304.163086 1175.500000,309.333344 1175.500000,314.500000 
"/>
<path fill="none" opacity="1.000000" stroke="#000000" stroke-linecap="round" stroke-linejoin="round" stroke-width="4.000000"
	d="
M1247.000000,877.500000 
	C1244.686279,883.272278 1239.304932,885.634277 1234.456055,888.423706 
	C1231.190308,890.302429 1228.104004,892.400818 1225.000000,894.500000 
"/>
<path fill="none" opacity="1.000000" stroke="#000000" stroke-linecap="round" stroke-linejoin="round" stroke-width="9.000000"
	d="
M128.500000,355.750000 
	C119.031059,356.874786 109.498940,356.560059 100.000450,357.009460 
	C97.830757,357.112091 95.666664,357.333313 93.500000,357.500000 
"/>
<path fill="none" opacity="1.000000" stroke="#000000" stroke-linecap="round" stroke-linejoin="round" stroke-width="2.000000"
	d="
M1095.500000,1014.500000 
	C1089.833374,1020.500000 1084.166626,1026.500000 1078.500000,1032.500000 
"/>
<path fill="none" opacity="1.000000" stroke="#000000" stroke-linecap="round" stroke-linejoin="round" stroke-width="8.000000"
	d="
M182.000000,382.500000 
	C187.958237,384.170380 193.977295,383.650726 200.000000,383.000000 
"/>
<path fill="none" opacity="1.000000" stroke="#000000" stroke-linecap="round" stroke-linejoin="round" stroke-width="6.000000"
	d="
M1197.000000,332.500000 
	C1196.815674,338.197113 1195.076660,343.985687 1198.000000,349.500000 
"/>
<path fill="none" opacity="1.000000" stroke="#000000" stroke-linecap="round" stroke-linejoin="round" stroke-width="2.000000"
	d="
M1108.500000,1037.500000 
	C1106.178955,1040.368774 1103.916260,1043.215454 1100.532349,1045.059448 
	C1097.469482,1046.728638 1097.217407,1049.852417 1097.500000,1053.000000 
"/>
<path fill="none" opacity="1.000000" stroke="#000000" stroke-linecap="round" stroke-linejoin="round" stroke-width="7.000000"
	d="
M1151.250000,347.000000 
	C1153.325562,353.934814 1151.342163,361.014557 1152.000000,368.000000 
"/>
<path fill="none" opacity="1.000000" stroke="#000000" stroke-linecap="round" stroke-linejoin="round" stroke-width="2.000000"
	d="
M1012.500061,1035.500122 
	C1007.500061,1039.833374 1002.500061,1044.166748 997.500061,1048.500122 
"/>
<path fill="none" opacity="1.000000" stroke="#000000" stroke-linecap="round" stroke-linejoin="round" stroke-width="5.000000"
	d="
M1191.500000,785.000000 
	C1188.493774,787.660400 1186.131348,790.910217 1183.125854,793.638672 
	C1178.652954,797.699463 1173.196777,797.703247 1168.000000,799.000000 
"/>
<path fill="none" opacity="1.000000" stroke="#000000" stroke-linecap="round" stroke-linejoin="round" stroke-width="2.000000"
	d="
M1009.499939,969.499939 
	C1004.499939,974.166626 999.499939,978.833252 994.499939,983.499939 
"/>
<path fill="none" opacity="1.000000" stroke="#000000" stroke-linecap="round" stroke-linejoin="round" stroke-width="2.000000"
	d="
M835.500000,912.500000 
	C830.833313,917.500000 826.166626,922.500000 821.500000,927.500000 
"/>
<path fill="none" opacity="1.000000" stroke="#000000" stroke-linecap="round" stroke-linejoin="round" stroke-width="6.000000"
	d="
M1214.500000,312.000000 
	C1212.516602,316.377777 1213.995361,321.011993 1213.500000,325.500000 
"/>
<path fill="none" opacity="1.000000" stroke="#000000" stroke-linecap="round" stroke-linejoin="round" stroke-width="6.000000"
	d="
M1160.500000,755.500000 
	C1162.833374,759.833313 1165.166748,764.166626 1167.500000,768.500000 
"/>
<path fill="none" opacity="1.000000" stroke="#000000" stroke-linecap="round" stroke-linejoin="round" stroke-width="2.000000"
	d="
M997.500000,993.500000 
	C993.513855,997.429810 990.912842,1003.074585 984.500000,1004.000000 
"/>
<path fill="none" opacity="1.000000" stroke="#000000" stroke-linecap="round" stroke-linejoin="round" stroke-width="2.000000"
	d="
M862.500000,910.500000 
	C857.849670,909.882263 853.904053,911.378845 850.500000,914.500000 
"/>
<path fill="none" opacity="1.000000" stroke="#000000" stroke-linecap="round" stroke-linejoin="round" stroke-width="2.000000"
	d="
M1111.500000,1040.500000 
	C1109.333008,1044.249878 1105.783936,1047.481445 1107.000000,1052.500000 
"/>
<path fill="none" opacity="1.000000" stroke="#000000" stroke-linecap="round" stroke-linejoin="round" stroke-width="5.000000"
	d="
M1293.500000,292.000000 
	C1290.621704,291.435730 1289.581787,293.783844 1288.579346,295.545166 
	C1287.135132,298.082428 1283.611206,299.148773 1283.537231,302.500824 
	C1283.460938,305.955658 1286.973511,307.062653 1288.519409,309.487640 
	C1289.412598,310.889008 1290.500000,312.166656 1291.500000,313.499969 
"/>
<path fill="none" opacity="1.000000" stroke="#000000" stroke-linecap="round" stroke-linejoin="round" stroke-width="2.000000"
	d="
M1031.500122,1024.500122 
	C1027.833374,1028.500122 1024.166748,1032.500122 1020.500061,1036.500122 
"/>
<path fill="none" opacity="1.000000" stroke="#000000" stroke-linecap="round" stroke-linejoin="round" stroke-width="2.000000"
	d="
M830.500000,893.500000 
	C827.166626,897.166626 823.833313,900.833313 820.500000,904.500000 
"/>
<path fill="none" opacity="1.000000" stroke="#000000" stroke-linecap="round" stroke-linejoin="round" stroke-width="5.000000"
	d="
M1283.500000,304.500000 
	C1279.549072,306.623749 1277.877197,310.726654 1275.250000,314.000000 
"/>
<path fill="none" opacity="1.000000" stroke="#000000" stroke-linecap="round" stroke-linejoin="round" stroke-width="2.000000"
	d="
M1002.000000,1034.000000 
	C998.178040,1037.178101 994.530945,1040.530884 991.500000,1044.500000 
"/>
<path fill="none" opacity="1.000000" stroke="#000000" stroke-linecap="round" stroke-linejoin="round" stroke-width="2.000000"
	d="
M1023.500000,956.500000 
	C1019.833313,959.833313 1016.166687,963.166687 1012.500000,966.500000 
"/>
<path fill="none" opacity="1.000000" stroke="#000000" stroke-linecap="round" stroke-linejoin="round" stroke-width="5.000000"
	d="
M1162.500000,349.500000 
	C1162.409058,345.687073 1159.539185,347.599548 1158.581665,348.143616 
	C1156.756958,349.180359 1155.050293,350.397705 1153.000000,351.000000 
"/>
<path fill="none" opacity="1.000000" stroke="#000000" stroke-linecap="round" stroke-linejoin="round" stroke-width="2.000000"
	d="
M1030.499878,974.499939 
	C1027.166626,977.499939 1023.833252,980.499939 1020.499939,983.499939 
"/>
<path fill="none" opacity="1.000000" stroke="#000000" stroke-linecap="round" stroke-linejoin="round" stroke-width="8.000000"
	d="
M1304.500000,720.500000 
	C1303.210815,725.773621 1303.541626,731.148438 1303.500000,736.500000 
"/>
<path fill="none" opacity="1.000000" stroke="#000000" stroke-linecap="round" stroke-linejoin="round" stroke-width="2.000000"
	d="
M1089.500000,1044.500000 
	C1087.311279,1046.719482 1085.932251,1049.293335 1086.000000,1052.500000 
"/>
<path fill="none" opacity="1.000000" stroke="#000000" stroke-linecap="round" stroke-linejoin="round" stroke-width="2.000000"
	d="
M998.500000,1021.500000 
	C996.340271,1022.673584 994.773987,1024.477051 993.520813,1026.512817 
	C991.299988,1030.120605 988.101379,1031.473267 984.000000,1031.000000 
"/>
<path fill="none" opacity="1.000000" stroke="#000000" stroke-linecap="round" stroke-linejoin="round" stroke-width="2.000000"
	d="
M1236.500000,869.500000 
	C1235.098511,871.833313 1236.017334,874.166687 1236.500000,876.500000 
"/>
<path fill="none" opacity="1.000000" stroke="#000000" stroke-linecap="round" stroke-linejoin="round" stroke-width="5.000000"
	d="
M1274.000000,351.500000 
	C1269.140747,346.129730 1269.140747,346.129730 1261.500000,350.000000 
"/>
<path fill="none" opacity="1.000000" stroke="#000000" stroke-linecap="round" stroke-linejoin="round" stroke-width="3.000000"
	d="
M1066.500000,651.500000 
	C1067.716187,653.459045 1066.427734,655.190369 1066.000000,657.000000 
"/>
<path fill="none" opacity="1.000000" stroke="#000000" stroke-linecap="round" stroke-linejoin="round" stroke-width="2.000000"
	d="
M1003.500000,949.500000 
	C1001.991394,950.829895 1004.426819,953.737366 1001.500000,954.500000 
"/>
<path fill="none" opacity="1.000000" stroke="#000000" stroke-linecap="round" stroke-linejoin="round" stroke-width="2.000000"
	d="
M990.500000,963.500000 
	C988.910034,964.171448 987.956299,965.988037 986.000000,966.000000 
"/>
<path fill="none" opacity="1.000000" stroke="#000000" stroke-linecap="round" stroke-linejoin="round" stroke-width="2.000000"
	d="
M1072.000000,636.000000 
	C1071.250366,637.297546 1071.271362,638.485046 1072.516113,639.513306 
	C1071.172363,640.178040 1069.836182,640.838989 1068.500000,641.500000 
"/>
<path fill="none" opacity="1.000000" stroke="#000000" stroke-linecap="round" stroke-linejoin="round" stroke-width="5.000000"
	d="
M1177.000000,347.000000 
	C1171.319946,349.981812 1168.196533,357.670197 1170.500000,363.000000 
	C1173.307129,369.495117 1179.190552,370.435608 1183.967896,364.971863 
	C1187.355469,361.097656 1187.022827,356.686829 1185.583862,351.974396 
	C1184.261963,347.645325 1181.231445,346.962952 1177.500000,347.000000 
"/>
<path fill="none" opacity="1.000000" stroke="#000000" stroke-linecap="round" stroke-linejoin="round" stroke-width="8.000000"
	d="
M339.500000,355.500000 
	C329.823578,358.155334 327.418640,366.154907 326.123535,374.519135 
	C325.382599,379.304596 325.752289,384.324890 327.527863,388.989410 
	C329.536072,394.265137 333.071686,397.960083 339.002411,398.471954 
	C345.122162,399.000183 348.900696,395.403900 351.455719,390.477020 
	C356.089264,381.542053 356.586761,372.356873 352.523590,362.989777 
	C350.105865,357.415985 345.658417,355.513763 340.000000,355.500000 
"/>
<path fill="none" opacity="1.000000" stroke="#000000" stroke-linecap="round" stroke-linejoin="round" stroke-width="6.000000"
	d="
M1156.500000,292.500000 
	C1150.425659,295.497467 1147.035034,302.408386 1149.667969,307.919769 
	C1150.732910,310.148926 1151.561279,313.493561 1155.498047,313.585846 
	C1159.197388,313.672607 1162.158447,312.952667 1164.001587,309.500854 
	C1167.284668,303.352570 1166.296509,292.251923 1157.000000,292.500000 
"/>
</svg>