<svg version="1.1" xmlns="http://www.w3.org/2000/svg" viewBox="0 0 1060.000000000001 840" width="2120.000000000002" height="1680">
  <!-- svg-source:excalidraw -->
  
  <defs>
    <style>
      @font-face {
        font-family: "Virgil";
        src: url("https://excalidraw.com/Virgil.woff2");
      }
      @font-face {
        font-family: "Cascadia";
        src: url("https://excalidraw.com/Cascadia.woff2");
      }
    </style>
  </defs>
  <g stroke-linecap="round"><g transform="translate(290 352.75330293923616) rotate(0 -101.59247422032058 -31.45103698875755)"><path d="M-3.21 -1.42 C-27.68 0.74, -50.48 1.77, -120.06 -3.47 M-1.37 0.3 C-33.62 -0.71, -67.84 -3.94, -119.58 0.54 M-122.57 -0.31 C-119.59 -15.06, -122.28 -33.81, -117.02 -63.44 M-118.92 -0.16 C-120.4 -20.21, -118.04 -42.18, -120.36 -61.28 M-118.6 -60.53 C-141.03 -61.75, -164.26 -59.58, -196.13 -60.83 M-120.37 -60.92 C-146.26 -61.91, -169.44 -59.2, -201.82 -60.95" stroke="#000000" stroke-width="4" fill="none"></path></g></g><g stroke-linecap="round"><g transform="translate(290.5050245206803 534.3707230510672) rotate(0 -100.08620892185718 28.876662414794964)"><path d="M-1.01 1.49 C-24.12 1.37, -54.06 -5.06, -101.02 -1.55 M0.84 1.3 C-20.66 -1.98, -43.1 0.15, -101.11 0.31 M-98.94 -0.5 C-102.4 18.09, -98.3 37.26, -97.91 56.45 M-101.49 0.06 C-98.47 14.56, -100.21 26.24, -101.39 56.45 M-101.1 56.74 C-133.23 58.64, -155.34 57.29, -200.05 56.81 M-101.85 57.14 C-125.93 58.93, -153.96 56.51, -201.01 60.34" stroke="#000000" stroke-width="4" fill="none"></path></g></g><g stroke-linecap="round"><g transform="translate(290 432.75330293923616) rotate(0 -80.23633462563157 -0.10871386155486107)"><path d="M2.86 2.52 C-42.39 -2.28, -85.17 1.26, -163.34 -2.73 M1.09 -1.94 C-50.02 2.61, -101.48 4, -158.95 -1.28" stroke="#000000" stroke-width="4" fill="none"></path></g></g><g stroke-linecap="round" transform="translate(330 230) rotate(0 199.99999999999994 200)"><path d="M-0.04 -1.97 C134.61 -2.81, 267.9 -4.4, 400.35 0.95 M0.24 0.31 C145.57 5.49, 292.42 3.67, 399.91 0.44 M401.69 -1.95 C400.2 130.1, 397.43 263.63, 399.82 398.89 M399.8 -0.73 C402.63 152.54, 403.06 307.65, 399.85 399.83 M402.19 399.53 C296.69 399.7, 191.9 400.17, -1.04 398.48 M398.97 399.46 C304.59 404.44, 210.27 402.96, 0.6 400.62 M-0.68 397.92 C-6.6 290.63, -5.13 177.79, 2.11 2.21 M-0.33 399.9 C4.07 293.61, 4.51 187.41, 0.34 0.24" stroke="#000000" stroke-width="4" fill="none"></path></g><g transform="translate(410 310) rotate(0 120 124.36363636363626)"><text x="119.99999999999999" y="199.72727272727263" font-family="Cascadia, Segoe UI Emoji" font-size="205.1973893806315px" fill="#000000" text-anchor="middle" style="white-space: pre;" direction="ltr">{}</text></g><g stroke-linecap="round" transform="translate(10 250) rotate(0 40 40)"><path d="M50.21 1.92 C57.25 3, 63.22 7.23, 68.27 12.89 C73.32 18.55, 79.49 28.28, 80.51 35.9 C81.54 43.53, 78.08 52.24, 74.42 58.66 C70.77 65.09, 65.31 71.15, 58.59 74.44 C51.87 77.72, 42.19 79.31, 34.1 78.38 C26.01 77.45, 15.7 74.45, 10.06 68.85 C4.42 63.25, 0.91 52.42, 0.26 44.77 C-0.39 37.12, 2.3 29.77, 6.17 22.97 C10.05 16.17, 17.06 7.87, 23.5 3.98 C29.94 0.08, 40.51 -0.01, 44.82 -0.42 C49.13 -0.83, 47.72 0.91, 49.36 1.5 C51 2.08, 54.56 2.58, 54.64 3.1 M9.5 13.74 C13.75 7.17, 22.47 1.7, 30.07 -0.29 C37.67 -2.27, 48.09 -1.13, 55.11 1.81 C62.12 4.76, 67.95 10.13, 72.17 17.37 C76.4 24.62, 81.2 37.45, 80.48 45.28 C79.76 53.11, 73.11 58.27, 67.87 64.34 C62.64 70.41, 55.92 79.73, 49.07 81.72 C42.21 83.7, 33.58 79.31, 26.74 76.25 C19.89 73.19, 12.56 69.24, 7.99 63.35 C3.42 57.46, -1.24 49.11, -0.68 40.92 C-0.12 32.72, 10.01 19.27, 11.35 14.19 C12.7 9.11, 7.27 10.65, 7.37 10.44 C7.47 10.23, 11.35 11.52, 11.96 12.92" stroke="#000000" stroke-width="4" fill="none"></path></g><g stroke-linecap="round" transform="translate(50 390) rotate(0 40 40)"><path d="M26.77 1.67 C33.46 -1.13, 45.84 0.24, 53.34 2.58 C60.85 4.93, 67.1 9.84, 71.79 15.75 C76.48 21.66, 81.13 30.31, 81.49 38.04 C81.84 45.78, 78.86 55.36, 73.92 62.17 C68.99 68.98, 59.46 76.39, 51.86 78.91 C44.26 81.44, 35.32 79.51, 28.34 77.33 C21.36 75.14, 14.44 71.85, 9.99 65.79 C5.54 59.74, 2.38 49.14, 1.63 40.99 C0.87 32.84, 1.73 23.31, 5.46 16.88 C9.2 10.45, 16.04 4.93, 24.02 2.42 C32.01 -0.1, 45.46 -0.52, 53.38 1.8 C61.3 4.12, 72.17 15.62, 71.56 16.34 M71.77 16.07 C76.42 21.56, 79.73 31.74, 79.44 39.42 C79.14 47.09, 74.47 55.29, 70 62.11 C65.53 68.93, 60.16 77.94, 52.62 80.35 C45.08 82.76, 32.4 78.88, 24.79 76.58 C17.17 74.27, 10.84 72.73, 6.93 66.53 C3.03 60.32, 1.05 47.33, 1.38 39.33 C1.71 31.34, 4.78 24.28, 8.92 18.58 C13.06 12.87, 18.67 8.06, 26.2 5.09 C33.72 2.12, 46.97 -0.48, 54.08 0.76 C61.2 2.01, 65.54 9.98, 68.89 12.57 C72.24 15.16, 73.97 14.98, 74.18 16.31 C74.39 17.64, 70.43 20.19, 70.16 20.57" stroke="#000000" stroke-width="4" fill="none"></path></g><g stroke-linecap="round" transform="translate(10 550) rotate(0 40 40)"><path d="M60.9 5.99 C67.68 9.14, 72.65 16.21, 75.95 22.92 C79.24 29.64, 81.93 38.71, 80.68 46.29 C79.43 53.87, 74.6 62.65, 68.45 68.4 C62.31 74.15, 51.75 79.82, 43.79 80.78 C35.82 81.73, 27.05 77.81, 20.69 74.13 C14.34 70.46, 8.72 65.64, 5.64 58.74 C2.56 51.83, 1.36 40.76, 2.21 32.72 C3.06 24.68, 5.79 15.9, 10.76 10.51 C15.73 5.11, 24.03 1.39, 32.04 0.33 C40.06 -0.74, 51.22 -0.41, 58.87 4.1 C66.52 8.62, 75.47 18.57, 77.94 27.43 C80.4 36.28, 73.92 56.96, 73.65 57.22 M44.03 -1.12 C51.29 -0.91, 58.94 2.71, 64.89 8.53 C70.83 14.36, 78.21 26.17, 79.71 33.85 C81.22 41.53, 77.26 47.36, 73.92 54.61 C70.58 61.86, 65.66 73.3, 59.66 77.34 C53.65 81.38, 45.25 79.76, 37.89 78.87 C30.54 77.98, 21.77 76.41, 15.52 71.99 C9.27 67.56, 2.06 60.31, 0.4 52.32 C-1.26 44.34, 3 32.27, 5.58 24.09 C8.16 15.9, 9.55 7.39, 15.89 3.22 C22.23 -0.95, 39.18 -0.91, 43.61 -0.94 C48.04 -0.97, 41.82 2.89, 42.46 3.06 C43.09 3.22, 47.64 -0.29, 47.42 0.06" stroke="#000000" stroke-width="4" fill="none"></path></g><g stroke-linecap="round" transform="translate(150 409.9999999999991) rotate(90 160 20)"><path d="M12.11 -2.57 L309.69 1.57 L315.49 -0.5 L317.92 8.6 L316.56 32.59 L315.57 35.21 L312.17 39.69 L8.03 43.36 L5.27 40.71 L-0.71 27.44 L-1.15 1.77 L2.24 3.9 L9.47 -0.59" stroke="none" stroke-width="0" fill="#ced4da"></path><path d="M10 0 M10 0 C90.52 -1.19, 165.7 -1.73, 310 0 M10 0 C86.47 1.11, 165.21 3.1, 310 0 M310 0 C313.03 -1.9, 318.99 7.26, 320 10 M310 0 C318.78 -1.5, 322.44 5.87, 320 10 M320 10 C319.18 11.84, 316.44 22.67, 320 30 M320 10 C321.67 14.66, 317.74 21.26, 320 30 M320 30 C318.84 36.33, 315.18 40.85, 310 40 M320 30 C320.07 39.44, 318.06 40.96, 310 40 M310 40 C201.41 44.95, 96.65 42.05, 10 40 M310 40 C245.69 40.75, 182.54 38.43, 10 40 M10 40 C5.22 36.91, 2.46 37.54, 0 30 M10 40 C5.92 40.05, 2.65 39.81, 0 30 M0 30 C1.79 24.42, -2.67 16.72, 0 10 M0 30 C1.53 23.35, 1.57 19.62, 0 10 M0 10 C3.67 5.51, 6.73 1.65, 10 0 M0 10 C-1.21 -0.21, 5.18 -0.84, 10 0" stroke="#000000" stroke-width="4" fill="none"></path></g><g stroke-linecap="round"><g transform="translate(749.2677073235957 771.2305655460805) rotate(180 -58.942531706735394 -48.436538483947515)"><path d="M-1.12 -1.46 C3.1 -13.87, 3.12 -22.78, -0.9 -33.47 M1.38 1.6 C0.4 -11.72, 0.27 -22.78, 1.25 -34.94 M-1.99 -35.12 C-11.78 -54.18, -32.4 -72.13, -60.29 -96.38 M1.78 -34.18 C-14.87 -52.58, -28.8 -64.91, -57.7 -96.29 M-54.76 -92.1 C-81.01 -99.61, -104.93 -94.29, -119.97 -98.48 M-60.6 -95.03 C-82.78 -96.21, -106.54 -95.62, -118.59 -94.44" stroke="#000000" stroke-width="4" fill="none"></path></g></g><g stroke-linecap="round"><g transform="translate(246.67579201792176 751.8164781947944) rotate(180 94.47881432624062 -41.5484670717899)"><path d="M2.98 -3.44 C3.43 -14.42, -0.82 -22.82, 1.6 -40.08 M-0.36 -1.28 C-0.68 -16.6, 0.81 -28.61, 1.65 -38.41 M5.78 -38.94 C13.4 -50.15, 21.63 -59.67, 40.07 -80.8 M0.09 -39.06 C10.76 -46.25, 21.69 -58.37, 42.97 -77.01 M40.7 -81.78 C77.53 -79.89, 119.76 -85.24, 189.36 -77.38 M41.33 -78.28 C79.54 -79.41, 118.63 -79.48, 186.24 -80.86" stroke="#000000" stroke-width="4" fill="none"></path></g></g><g stroke-linecap="round"><g transform="translate(527.526199253276 753.6159157194197) rotate(180 1.9103622614054814 -42.239264249801636)"><path d="M2.59 -1.93 C-3.13 -19.13, -0.81 -44.58, 4.71 -78.1 M-0.89 -1.93 C0.67 -30.03, 1.05 -61.77, 0.53 -82.55" stroke="#000000" stroke-width="4" fill="none"></path></g></g><g stroke-linecap="round" transform="translate(750 730) rotate(180 40 40)"><path d="M62.32 7.12 C69.22 10.57, 75.78 17.08, 78.35 23.85 C80.93 30.62, 80.04 40.08, 77.78 47.72 C75.52 55.35, 70.24 64.35, 64.78 69.65 C59.32 74.94, 52.48 78.78, 45.03 79.5 C37.57 80.23, 27.19 77.74, 20.02 74 C12.86 70.26, 4.91 64.06, 2.02 57.07 C-0.88 50.08, 0.87 39.88, 2.65 32.06 C4.43 24.25, 7.52 15.53, 12.71 10.19 C17.89 4.85, 26.22 1.15, 33.74 0 C41.25 -1.15, 52.46 1.49, 57.79 3.3 C63.12 5.11, 63.16 8.9, 65.7 10.84 C68.24 12.78, 73.43 14.6, 73.03 14.94 M74.83 19.4 C79.04 25.88, 79.33 36.85, 79.25 44.2 C79.17 51.54, 79.44 58.29, 74.37 63.48 C69.29 68.67, 56.47 73.12, 48.78 75.34 C41.1 77.57, 35.51 78.39, 28.26 76.83 C21.01 75.27, 9.49 72.3, 5.27 65.96 C1.05 59.63, 3.03 46.89, 2.93 38.8 C2.82 30.71, 0.72 23.6, 4.66 17.43 C8.59 11.26, 18.85 4.27, 26.54 1.78 C34.23 -0.72, 43.22 -0.21, 50.8 2.45 C58.38 5.11, 68.11 15.09, 72 17.74 C75.89 20.39, 73.77 17.84, 74.14 18.37 C74.51 18.89, 74.46 20.96, 74.23 20.9" stroke="#000000" stroke-width="4" fill="none"></path></g><g stroke-linecap="round" transform="translate(490 750) rotate(180 40 40)"><path d="M22.71 4.39 C28.48 0.04, 36.82 -1.6, 43.94 -0.55 C51.06 0.51, 59.44 5.28, 65.44 10.71 C71.45 16.13, 78.17 24.5, 79.95 32.01 C81.72 39.53, 79.72 48.64, 76.09 55.8 C72.46 62.96, 64.55 71.05, 58.17 74.98 C51.79 78.91, 45.23 80.35, 37.81 79.37 C30.4 78.39, 19.95 74.28, 13.67 69.13 C7.4 63.97, 2.05 56.12, 0.15 48.44 C-1.76 40.76, -0.72 30.08, 2.25 23.05 C5.22 16.02, 11.16 10.38, 17.94 6.24 C24.73 2.1, 35.93 -1.82, 42.95 -1.79 C49.97 -1.76, 60.01 5.28, 60.07 6.41 M26.46 5 C33.47 1.69, 47.25 -0.45, 54.35 0.85 C61.45 2.15, 64.58 6.63, 69.06 12.8 C73.54 18.96, 80.89 29.12, 81.22 37.85 C81.54 46.59, 75.09 58.75, 71.01 65.19 C66.94 71.64, 64.21 74.14, 56.78 76.52 C49.34 78.9, 34.52 81.42, 26.39 79.48 C18.26 77.53, 12.58 70.96, 8 64.86 C3.43 58.76, -0.77 50.3, -1.05 42.88 C-1.34 35.46, 1.79 26.9, 6.3 20.33 C10.81 13.77, 22.26 6.08, 26.02 3.5 C29.78 0.91, 28.14 5.25, 28.86 4.81 C29.57 4.38, 30.24 0.71, 30.31 0.88" stroke="#000000" stroke-width="4" fill="none"></path></g><g stroke-linecap="round" transform="translate(170 710) rotate(180 40 40)"><path d="M64.22 8.29 C69.67 12.63, 74.46 22.09, 76.76 29.72 C79.06 37.34, 80.56 46.91, 78.05 54.06 C75.54 61.2, 68.58 68.23, 61.69 72.59 C54.8 76.96, 44.08 80.48, 36.68 80.23 C29.28 79.98, 23.1 76.06, 17.3 71.09 C11.49 66.13, 4.48 57.89, 1.84 50.44 C-0.81 42.98, -0.96 33.78, 1.43 26.35 C3.82 18.92, 9.87 10.19, 16.18 5.86 C22.49 1.54, 31.11 0.38, 39.28 0.4 C47.46 0.42, 58.79 1.08, 65.22 6 C71.66 10.92, 75.74 21.59, 77.89 29.94 C80.04 38.29, 78.71 55.66, 78.11 56.08 M63.6 5.02 C69.84 7.45, 71.37 14.42, 74.14 21.58 C76.91 28.73, 81.85 39.41, 80.22 47.95 C78.58 56.48, 69.87 67.67, 64.31 72.81 C58.76 77.95, 54.77 78.34, 46.89 78.8 C39.01 79.26, 24.41 79.33, 17.04 75.56 C9.67 71.8, 5.58 63.36, 2.68 56.22 C-0.21 49.09, -2.02 40.04, -0.33 32.76 C1.35 25.48, 6.76 17.84, 12.79 12.53 C18.81 7.23, 27.85 1.78, 35.84 0.95 C43.82 0.11, 56.03 7.02, 60.69 7.52 C65.35 8.02, 63.7 4.1, 63.81 3.94 C63.91 3.77, 62.49 6.07, 61.29 6.54" stroke="#000000" stroke-width="4" fill="none"></path></g><g stroke-linecap="round" transform="translate(369.9999999999943 629.9999999999991) rotate(180 160 20)"><path d="M8.03 3.36 L312.77 3.21 L313.66 -1.94 L317.6 1.77 L319.74 31.4 L316.97 36.91 L308.36 36.63 L10.52 43.87 L1.67 37.96 L-1.57 28.33 L-0.11 3.79 L-0.19 0.01 L10.8 2.93" stroke="none" stroke-width="0" fill="#ced4da"></path><path d="M10 0 M10 0 C75.61 2.46, 134.51 2.67, 310 0 M10 0 C117.83 -4.68, 221.72 -5.68, 310 0 M310 0 C318.31 -1.35, 317.17 7.06, 320 10 M310 0 C321.15 -1.54, 315.45 4.74, 320 10 M320 10 C320.81 15.49, 322.37 22.05, 320 30 M320 10 C322.13 15.09, 320.73 22.79, 320 30 M320 30 C317.08 33.18, 313.93 39.89, 310 40 M320 30 C318.63 39.4, 317.56 35.47, 310 40 M310 40 C206.47 44.36, 101.69 44.4, 10 40 M310 40 C198.54 42.52, 89.73 40.88, 10 40 M10 40 C4.94 38.81, -3.69 38.01, 0 30 M10 40 C6 37.13, 2.77 37.65, 0 30 M0 30 C1.43 21.11, -3.3 15.94, 0 10 M0 30 C-0.65 23.96, 1.01 19.02, 0 10 M0 10 C-1.78 0.19, 4.4 1.33, 10 0 M0 10 C-3.96 0.59, 5.74 -0.19, 10 0" stroke="#000000" stroke-width="4" fill="none"></path></g><g stroke-linecap="round"><g transform="translate(430 190) rotate(360 -78.79777863435444 -62.212606058456004)"><path d="M0.77 -3.94 C2.79 -20.03, 3.92 -32.98, 4.13 -56.87 M0.82 -1.34 C0.87 -19.45, -0.68 -39.93, 1.29 -58.76 M4.29 -56.06 C-15.81 -76.54, -36.72 -98.12, -61.05 -123.08 M0.75 -57.71 C-19.34 -77.99, -39.71 -101.2, -61.57 -119.47 M-57.91 -120.16 C-93.33 -124.44, -123.26 -117.33, -161.89 -120.47 M-59.45 -120.79 C-89.85 -122.03, -123.63 -120.84, -159.11 -120.54" stroke="#000000" stroke-width="4" fill="none"></path></g></g><g stroke-linecap="round"><g transform="translate(633.9417064227164 190.27898037433442) rotate(360 95.82478469051422 -39.69258474885419)"><path d="M-3.94 1.89 C-3.54 -19.4, 0.95 -41.47, 1.95 -78.56 M-1.34 0.98 C0.47 -31.05, 1.04 -60.17, 0.06 -80.19 M2.76 -77.19 C32.72 -78.42, 60.82 -82.88, 78.82 -79.25 M1.11 -81.27 C25.29 -79.67, 46.08 -81.53, 82.44 -80.2 M81.75 -80.88 C103.09 -78.55, 134.63 -83.69, 195.59 -79.69 M81.12 -79.25 C117.49 -82.01, 156.12 -80.22, 195.52 -78.76" stroke="#000000" stroke-width="4" fill="none"></path></g></g><g stroke-linecap="round"><g transform="translate(529.1671063561029 190.6631556786615) rotate(360 1.2243630916463957 -49.286504209042505)"><path d="M1.89 -3.09 C2.37 -35.28, 2.46 -72.28, 3.14 -97.93 M0.98 0.93 C-1.77 -36.65, -0.8 -76.76, 1.5 -99.51" stroke="#000000" stroke-width="4" fill="none"></path></g></g><g stroke-linecap="round" transform="translate(190 30) rotate(360 40 40)"><path d="M63.14 8.51 C69.63 12.39, 76.52 21.47, 79.18 28.41 C81.85 35.35, 81.43 42.77, 79.14 50.13 C76.84 57.5, 71.91 67.49, 65.41 72.6 C58.91 77.71, 48.15 80.97, 40.12 80.78 C32.08 80.58, 23.35 75.68, 17.2 71.43 C11.05 67.17, 6.07 62, 3.23 55.23 C0.38 48.46, -1.85 38.19, 0.13 30.8 C2.11 23.4, 8.71 15.69, 15.13 10.85 C21.54 6.02, 30.78 2.65, 38.61 1.78 C46.44 0.9, 57.39 3.79, 62.1 5.6 C66.81 7.41, 65.25 10.77, 66.88 12.66 C68.5 14.54, 72.25 16.7, 71.84 16.9 M30.66 -1.55 C37.71 -3.46, 50.27 1.22, 57.16 4.49 C64.05 7.77, 67.96 11.56, 72 18.1 C76.04 24.64, 81.7 36.08, 81.38 43.72 C81.07 51.35, 75.05 57.55, 70.09 63.91 C65.13 70.27, 59.43 79.74, 51.62 81.86 C43.81 83.97, 30.77 79.92, 23.24 76.59 C15.71 73.26, 10.33 68.31, 6.43 61.9 C2.53 55.48, -0.44 45.59, -0.18 38.1 C0.08 30.6, 3.46 23.23, 8 16.93 C12.54 10.62, 23.23 2.72, 27.07 0.26 C30.9 -2.21, 30.3 1.55, 31.01 2.15 C31.72 2.75, 31.53 3.9, 31.35 3.87" stroke="#000000" stroke-width="4" fill="none"></path></g><g stroke-linecap="round" transform="translate(490 10) rotate(360 40 40)"><path d="M49.83 2.32 C57.21 3.53, 66.5 8.43, 71.27 14.16 C76.04 19.9, 77.69 29.34, 78.43 36.72 C79.17 44.11, 79.2 51.99, 75.72 58.49 C72.24 64.99, 65.07 72.16, 57.54 75.73 C50.01 79.31, 38.14 81.53, 30.56 79.94 C22.98 78.36, 16.91 71.92, 12.08 66.22 C7.25 60.53, 2.49 53.1, 1.56 45.78 C0.63 38.46, 2.78 29.12, 6.51 22.32 C10.25 15.52, 17.38 8.86, 23.96 4.97 C30.54 1.08, 38.87 -1.7, 45.98 -1.01 C53.09 -0.32, 61.7 4.9, 66.63 9.08 C71.56 13.27, 76.26 23.6, 75.56 24.1 M54.23 4.4 C61.27 6.76, 71.74 10.65, 75.7 17.53 C79.66 24.4, 78.98 37.49, 78 45.65 C77.02 53.82, 75.08 60.53, 69.82 66.51 C64.55 72.5, 53.5 80.06, 46.41 81.54 C39.33 83.03, 34.15 78.81, 27.33 75.43 C20.51 72.05, 9.91 67.73, 5.51 61.29 C1.11 54.84, 0.17 44.77, 0.95 36.75 C1.73 28.72, 4.91 19.51, 10.17 13.13 C15.43 6.75, 25.28 0.37, 32.5 -1.52 C39.72 -3.42, 49.25 1.03, 53.49 1.75 C57.72 2.47, 57.08 2.84, 57.92 2.79 C58.76 2.75, 59.49 0.56, 58.53 1.48" stroke="#000000" stroke-width="4" fill="none"></path></g><g stroke-linecap="round" transform="translate(830 70) rotate(360 40 40)"><path d="M62.68 7.59 C69.35 10.66, 75.01 16.48, 77.87 23.6 C80.74 30.72, 82.03 42.39, 79.86 50.31 C77.69 58.23, 71.01 66.49, 64.86 71.1 C58.71 75.72, 50.37 77.25, 42.94 78 C35.52 78.74, 27.11 79.04, 20.3 75.58 C13.5 72.13, 5.3 64.29, 2.13 57.29 C-1.04 50.28, -0.71 41.06, 1.3 33.54 C3.3 26.01, 8.33 17.77, 14.15 12.14 C19.96 6.5, 28.9 0.8, 36.18 -0.26 C43.47 -1.31, 50.94 1.3, 57.86 5.83 C64.78 10.36, 74.8 18.93, 77.69 26.93 C80.58 34.94, 75.86 53.38, 75.22 53.85 M46.44 1.39 C53.62 1.99, 59.36 4.14, 65.1 9.33 C70.84 14.53, 79.05 25.03, 80.89 32.57 C82.74 40.11, 79.34 47.03, 76.2 54.57 C73.05 62.11, 69.05 73.69, 62.03 77.83 C55 81.97, 42.12 80.62, 34.05 79.39 C25.97 78.16, 19.14 75.5, 13.57 70.47 C8 65.44, 2.52 56.57, 0.62 49.23 C-1.28 41.89, -0.54 33.88, 2.16 26.43 C4.85 18.99, 10.06 8.73, 16.77 4.57 C23.49 0.41, 37.77 1.8, 42.45 1.49 C47.13 1.17, 44.79 3.19, 44.83 2.67 C44.87 2.16, 42.46 -2.29, 42.68 -1.58" stroke="#000000" stroke-width="4" fill="none"></path></g><g stroke-linecap="round" transform="translate(370.00000000000773 190) rotate(360 160 20)"><path d="M6.91 2.46 L310.87 2.25 L314.42 2.93 L322.11 8.51 L321.64 27.32 L319.45 39.36 L307.49 41.6 L8.81 36.31 L3.84 39.82 L-2.49 32.4 L1.48 9.3 L4.68 5.9 L11.65 -1.05" stroke="none" stroke-width="0" fill="#ced4da"></path><path d="M10 0 M10 0 C75.76 -0.86, 142.56 0.22, 310 0 M10 0 C111.67 2.35, 216.14 0.7, 310 0 M310 0 C314.28 2.09, 319.84 3.32, 320 10 M310 0 C312.94 3.89, 324.45 1.16, 320 10 M320 10 C319.7 16.87, 318.48 24.76, 320 30 M320 10 C320.75 13.61, 321.38 16.4, 320 30 M320 30 C316.3 38.04, 320.09 38.88, 310 40 M320 30 C317.96 37.34, 319.74 39.64, 310 40 M310 40 C195.39 38.75, 85.96 36.79, 10 40 M310 40 C244.76 36.66, 176.27 39.04, 10 40 M10 40 C1.94 40.79, 3.56 35.95, 0 30 M10 40 C7.76 44.56, -1.15 34.66, 0 30 M0 30 C2.16 26.99, 1.33 22.18, 0 10 M0 30 C-0.14 22.78, 0.92 15.42, 0 10 M0 10 C0.39 5.85, 0.5 -2.36, 10 0 M0 10 C2.24 7.74, 2.16 -2.71, 10 0" stroke="#000000" stroke-width="4" fill="none"></path></g><g stroke-linecap="round"><g transform="translate(966.2309493739172 572.6264511998756) rotate(180 -98.1154746869579 -29.93657413031906)"><path d="M3.36 -0.89 C-37.35 -2.54, -77.9 2.87, -121.04 1.75 M-1.09 1.65 C-43.64 0.13, -84.31 0.62, -121.78 1.99 M-117.25 -3.51 C-120.68 -12.39, -118.71 -33.44, -117.72 -58.42 M-120.5 0.94 C-117.93 -17.57, -119.25 -39.1, -118.21 -59.33 M-119.7 -61.61 C-144.76 -62.36, -179.75 -60.12, -197.43 -61.87 M-121.54 -60.59 C-144.12 -58.18, -168.16 -58.63, -199.59 -59.27" stroke="#000000" stroke-width="4" fill="none"></path></g></g><g stroke-linecap="round"><g transform="translate(970.2177834492172 269.48059078053757) rotate(180 -100.36140398494899 29.450994553816145)"><path d="M-0.89 1.84 C-40.46 1.58, -71.75 -0.54, -98.76 0.67 M1.65 -0.78 C-38.15 -0.29, -75.33 -4.09, -98.51 -2.51 M-104.01 -1.44 C-98.04 22.81, -103.77 45.23, -98.93 59.34 M-99.57 0.15 C-99.42 15.32, -101.51 33.15, -99.84 59.43 M-102.12 61.79 C-135.43 55.13, -164.57 61.1, -202.37 58.53 M-101.09 58.57 C-121.44 57.29, -144.46 57.25, -199.77 58.97" stroke="#000000" stroke-width="4" fill="none"></path></g></g><g stroke-linecap="round"><g transform="translate(929.046432049945 433.4593979607689) rotate(180 -79.5232160249725 -0.3530475107654638)"><path d="M1.84 -3.75 C-55.58 0.95, -113.17 1.03, -157.71 2.99 M-0.78 -0.48 C-50.65 2.65, -105.91 4.64, -160.89 1.43" stroke="#000000" stroke-width="4" fill="none"></path></g></g><g stroke-linecap="round" transform="translate(970.0000000000009 530.0000000000005) rotate(180 40 40)"><path d="M45.74 1.44 C53.25 1.97, 63.22 5.74, 68.61 11.1 C74 16.46, 76.89 26.12, 78.08 33.58 C79.27 41.03, 78.5 48.99, 75.75 55.82 C73 62.64, 68.46 70.22, 61.58 74.55 C54.7 78.88, 42.58 82.31, 34.45 81.82 C26.32 81.32, 18.52 76.79, 12.82 71.58 C7.12 66.36, 2.2 58.32, 0.27 50.53 C-1.65 42.74, -2.07 32.05, 1.28 24.81 C4.62 17.58, 13.69 11.03, 20.35 7.1 C27.02 3.17, 36.44 2.18, 41.27 1.23 C46.1 0.28, 47.64 1.38, 49.33 1.4 C51.01 1.42, 51.74 0.62, 51.39 1.35 M70.57 17.29 C75.38 22.8, 80.29 31.29, 80.92 38.97 C81.55 46.65, 78.6 57.23, 74.35 63.37 C70.11 69.5, 62.28 73.63, 55.44 75.78 C48.61 77.94, 41.37 78.02, 33.34 76.27 C25.31 74.52, 12.47 70.94, 7.26 65.28 C2.05 59.61, 2.37 50.26, 2.1 42.3 C1.82 34.35, 1.94 24.41, 5.6 17.55 C9.27 10.69, 17.14 3.87, 24.08 1.13 C31.02 -1.61, 39.28 -0.96, 47.25 1.11 C55.23 3.19, 67.68 11.25, 71.93 13.6 C76.17 15.96, 72.8 14.82, 72.71 15.22 C72.62 15.62, 72.37 15.23, 71.39 16" stroke="#000000" stroke-width="4" fill="none"></path></g><g stroke-linecap="round" transform="translate(930.0000000000009 390.0000000000018) rotate(180 40 40)"><path d="M57.26 4.88 C64.41 7.04, 70.91 12.25, 74.95 18.57 C78.99 24.89, 82.35 34.63, 81.49 42.8 C80.63 50.96, 75.15 61.83, 69.8 67.55 C64.44 73.27, 56.5 75.68, 49.35 77.11 C42.2 78.54, 33.87 78.92, 26.9 76.15 C19.93 73.38, 11.8 67.22, 7.56 60.49 C3.32 53.77, 1.19 43.17, 1.45 35.78 C1.71 28.39, 4.23 22.14, 9.1 16.18 C13.97 10.21, 22.97 2.13, 30.65 -0.01 C38.34 -2.15, 49.1 1.7, 55.2 3.34 C61.31 4.98, 64.36 7.01, 67.29 9.81 C70.22 12.62, 73.17 19.28, 72.8 20.15 M74.76 17.11 C79.75 22.84, 81.5 32.07, 81.56 39.72 C81.61 47.37, 79.97 56.23, 75.09 62.99 C70.2 69.74, 60.36 78.08, 52.23 80.23 C44.1 82.38, 33.73 78.14, 26.29 75.89 C18.86 73.63, 12.24 72.36, 7.63 66.7 C3.02 61.04, -0.8 49.96, -1.36 41.92 C-1.92 33.88, 0.17 25.16, 4.26 18.47 C8.36 11.79, 15.54 4.29, 23.21 1.83 C30.88 -0.63, 42.24 1.35, 50.27 3.74 C58.29 6.13, 67.64 13.93, 71.38 16.17 C75.11 18.42, 72.54 17.3, 72.7 17.2 C72.85 17.1, 72.51 15.71, 72.32 15.57" stroke="#000000" stroke-width="4" fill="none"></path></g><g stroke-linecap="round" transform="translate(970 230) rotate(180 40 40)"><path d="M31.17 1.86 C37.84 -0.48, 46.16 1.65, 53.06 4.24 C59.96 6.83, 67.82 11.18, 72.54 17.39 C77.26 23.59, 81.84 33.28, 81.39 41.47 C80.93 49.65, 74.98 60.11, 69.84 66.49 C64.69 72.88, 57.79 77.66, 50.5 79.77 C43.21 81.88, 33.59 81.94, 26.1 79.16 C18.61 76.39, 9.66 69.54, 5.55 63.14 C1.45 56.73, 1.34 48.33, 1.47 40.73 C1.6 33.12, 1.84 23.9, 6.32 17.53 C10.8 11.15, 20.17 5.06, 28.34 2.47 C36.5 -0.13, 47.7 -1.34, 55.3 1.96 C62.9 5.25, 73.83 21.09, 73.94 22.23 M49.93 2.57 C57.38 3.62, 65.4 10.36, 70.41 15.73 C75.43 21.1, 78.89 27.86, 80.03 34.8 C81.16 41.73, 81.56 50.54, 77.22 57.32 C72.87 64.1, 61.14 72.06, 53.95 75.47 C46.76 78.89, 41.26 79.56, 34.08 77.82 C26.9 76.09, 16.43 70.89, 10.86 65.06 C5.29 59.22, 1.8 50.08, 0.64 42.79 C-0.52 35.49, -0.14 27.62, 3.92 21.28 C7.97 14.93, 17.53 8.05, 24.97 4.71 C32.41 1.36, 44.39 1.66, 48.56 1.19 C52.74 0.72, 50.17 1.35, 50.03 1.89 C49.89 2.44, 48.43 3.95, 47.74 4.45" stroke="#000000" stroke-width="4" fill="none"></path></g><g stroke-linecap="round" transform="translate(590 410.00000000000273) rotate(270 160 20)"><path d="M6.25 0.49 L311.66 -1.04 L316.12 2.91 L322.36 6.64 L317.81 33.3 L315.95 36.54 L312.82 40.02 L6.44 43.99 L0.72 40.36 L-1.58 32.75 L-2.88 5.8 L5.44 4.65 L7.21 2.28" stroke="none" stroke-width="0" fill="#ced4da"></path><path d="M10 0 M10 0 C109.92 0.37, 215.02 3.7, 310 0 M10 0 C129.23 0.99, 246.6 0.7, 310 0 M310 0 C319.59 0.3, 318.39 6.74, 320 10 M310 0 C312.6 -3.91, 318.52 6.29, 320 10 M320 10 C320.44 11.99, 318.84 20.5, 320 30 M320 10 C320.5 18.38, 320.68 24.62, 320 30 M320 30 C323.54 33.79, 316.62 37.21, 310 40 M320 30 C318.57 37.16, 314.92 41.95, 310 40 M310 40 C235.32 38.83, 162.73 43.41, 10 40 M310 40 C246.46 40.66, 181.5 41.64, 10 40 M10 40 C1.51 43.03, 2.1 38.71, 0 30 M10 40 C0.28 39.03, -1.95 32.79, 0 30 M0 30 C-3.86 24.99, -2.52 20.65, 0 10 M0 30 C-1.49 21.04, -0.35 17.88, 0 10 M0 10 C1.23 3.2, 1.45 0.57, 10 0 M0 10 C0.05 1.76, -1.11 3.15, 10 0" stroke="#000000" stroke-width="4" fill="none"></path></g></svg>