<svg version="1.1" xmlns="http://www.w3.org/2000/svg" viewBox="0 0 370.3118422050994 543.7225047383454" width="740.6236844101988" height="1087.4450094766908">
  <!-- svg-source:excalidraw -->
  
  <defs>
    <style>
      @font-face {
        font-family: "Virgil";
        src: url("https://excalidraw.com/Virgil.woff2");
      }
      @font-face {
        font-family: "Cascadia";
        src: url("https://excalidraw.com/Cascadia.woff2");
      }
    </style>
  </defs>
  <g stroke-linecap="round"><g transform="translate(214.618121253891 330) rotate(0 -29.46220015134128 100.30645721364726)"><path d="M0.86 -2.72 C24.36 27.64, 174.05 150.32, 140.93 180.96 C107.82 211.6, -160.84 210.97, -197.83 181.12 C-234.82 151.28, -100.97 31.96, -80.99 1.9 M-2.12 1.98 C21.1 31.57, 171.93 147.43, 139.2 176.47 C106.48 205.51, -161.77 206.13, -198.46 176.2 C-235.15 146.27, -100.64 25.91, -80.95 -3.11" stroke="#000000" stroke-width="4" fill="none"></path></g></g><g stroke-linecap="round"><g transform="translate(214.618121253891 330) rotate(0 29.046267423646214 -100.94275447390964)"><path d="M2.05 0.74 C1.77 -26.28, -12.01 -126.35, -2.66 -160.24 C6.68 -194.14, 47.92 -195.94, 58.11 -202.63 M-0.29 -1.33 C0.35 -28.06, -8.4 -123.47, 2.3 -156.74 C12.99 -190.01, 54.59 -194.07, 63.91 -200.94" stroke="#000000" stroke-width="4" fill="none"></path></g></g><g stroke-linecap="round"><g transform="translate(134.618121253891 330) rotate(0 -27.473178111349057 -100.86290738917887)"><path d="M1.76 -0.18 C2.23 -26.85, 10.31 -125.71, 0.19 -159.27 C-9.93 -192.84, -48.69 -194.35, -58.95 -201.55 M-0.74 -2.74 C-0.38 -30.37, 7.97 -131.13, -1.94 -163.89 C-11.85 -196.65, -50.26 -193.05, -60.19 -199.28" stroke="#000000" stroke-width="4" fill="none"></path></g></g><g stroke-linecap="round"><g transform="translate(154.618121253891 350) rotate(0 34.288665209370606 80.2865155887971)" fill-rule="evenodd"><path d="M-2.18 0.73 L-78.47 74.01 L-105.57 114.61 L-116.52 127.2 L-116.27 139.68 L-115.25 148.4 L-112.64 154.15 L-89.95 163.03 L-59.22 162.48 L39.42 170.77 L132.54 163.11 L169.69 163.68 L189.83 153.31 L187.72 143.19 L192.81 141.11 L181.64 117.52 L162.85 97.38 L106.03 52.13 L28.69 -7.35 L16.44 -14.32 L-2.45 1.33" stroke="none" stroke-width="0" fill="#82c91e" fill-rule="evenodd"></path><path d="M-0.13 2.34 C-19.75 26.95, -146.6 124.26, -115.6 149.3 C-84.61 174.33, 159.61 177.51, 185.84 152.55 C212.06 127.58, 72.71 25.21, 41.72 -0.49 C10.74 -26.19, 6.57 -2.16, -0.09 -1.65 M-3.64 1.14 C-22.61 25.84, -141.67 125.67, -110.47 151.47 C-79.27 177.27, 157.92 180.9, 183.54 155.96 C209.16 131.02, 74.43 28.11, 43.24 1.85 C12.05 -24.42, 4.02 -1.56, -3.61 -1.63" stroke="#000000" stroke-width="4" fill="none"></path></g></g><g stroke-linecap="round" transform="translate(134.618121253891 110) rotate(0 10 10)"><path d="M8.68 -1.59 C10.52 -1.44, 13.63 2.23, 15.26 3.95 C16.89 5.67, 18.16 6.77, 18.45 8.71 C18.74 10.64, 17.92 14.04, 17 15.55 C16.09 17.06, 15.08 17.26, 12.95 17.75 C10.81 18.24, 5.97 18.8, 4.19 18.5 C2.41 18.19, 3 17.49, 2.26 15.89 C1.52 14.3, -0.56 11.49, -0.24 8.93 C0.09 6.37, 1.01 1.52, 4.2 0.54 C7.38 -0.44, 16.24 0.43, 18.86 3.05 C21.48 5.68, 20.43 16.07, 19.91 16.28 M7.12 -0.93 C8.42 -2.9, 8.79 -3.53, 10.75 -2.91 C12.7 -2.3, 17.49 0.62, 18.83 2.78 C20.16 4.94, 18.59 7.58, 18.74 10.05 C18.89 12.52, 20.93 15.98, 19.73 17.61 C18.52 19.23, 14.3 19.66, 11.53 19.8 C8.76 19.93, 4.45 19.55, 3.1 18.4 C1.74 17.25, 4.08 15.18, 3.41 12.89 C2.73 10.59, -1.6 6.24, -0.94 4.64 C-0.28 3.04, 6.08 3.84, 7.38 3.27 C8.67 2.71, 6.97 1.67, 6.84 1.25" stroke="none" stroke-width="0" fill="#82c91e"></path><path d="M12.14 -0.68 C14.29 -0.15, 17.1 1.78, 18.12 3.37 C19.13 4.95, 18.31 6.63, 18.23 8.83 C18.15 11.04, 18.91 14.64, 17.63 16.58 C16.34 18.51, 12.7 20.08, 10.51 20.44 C8.31 20.8, 5.86 19.63, 4.48 18.71 C3.1 17.79, 2.82 16.77, 2.23 14.9 C1.64 13.04, 0.25 9.84, 0.93 7.52 C1.61 5.2, 3.64 1.65, 6.29 0.95 C8.95 0.26, 14.7 2.97, 16.85 3.37 C19.01 3.76, 19.58 3.3, 19.22 3.32 M3.19 5.18 C4.24 4.12, 8.49 -0.02, 10.38 -0.5 C12.26 -0.99, 12.91 1.28, 14.51 2.27 C16.1 3.27, 19.02 3.47, 19.94 5.48 C20.87 7.49, 20.69 11.92, 20.04 14.34 C19.38 16.76, 18.05 19.48, 16.01 20 C13.97 20.52, 10.63 18.46, 7.8 17.44 C4.98 16.42, 0.57 15.25, -0.95 13.86 C-2.46 12.47, -1.77 11.06, -1.3 9.11 C-0.83 7.15, 0.91 3.23, 1.88 2.15 C2.85 1.07, 3.97 2.84, 4.52 2.63" stroke="#000000" stroke-width="4" fill="none"></path></g><g stroke-linecap="round" transform="translate(174.618121253891 90) rotate(0 20 20)"><path d="M10.77 1.56 C13.82 -1.38, 17.93 -2.6, 22.07 -1.85 C26.2 -1.1, 32.75 2.53, 35.6 6.05 C38.44 9.58, 38.88 14.78, 39.14 19.28 C39.4 23.78, 39.68 29.68, 37.17 33.05 C34.65 36.42, 28.7 38.77, 24.07 39.51 C19.44 40.25, 12.85 39.56, 9.4 37.5 C5.94 35.45, 4.93 31.34, 3.35 27.19 C1.78 23.03, -1.86 16.67, -0.06 12.58 C1.74 8.5, 11.25 4.68, 14.13 2.66 C17.01 0.65, 17.24 0.56, 17.22 0.5 M33.45 7.59 C36.7 11.04, 41.49 17.55, 42 21.5 C42.52 25.46, 40.11 28.7, 36.55 31.33 C33 33.97, 25.45 36.36, 20.68 37.33 C15.9 38.3, 11.43 38.8, 7.89 37.15 C4.36 35.5, 0.63 31.57, -0.55 27.43 C-1.74 23.29, -1.32 16.68, 0.77 12.31 C2.87 7.94, 8.23 2.78, 12.01 1.23 C15.78 -0.32, 19.79 2.26, 23.42 3.01 C27.05 3.75, 31.38 4.78, 33.79 5.69 C36.21 6.6, 38.12 8.05, 37.91 8.47" stroke="none" stroke-width="0" fill="#82c91e"></path><path d="M6.68 6.75 C9.31 4.13, 15.86 0.05, 19.98 -0.33 C24.09 -0.72, 28.07 2.01, 31.36 4.46 C34.65 6.92, 38.54 10.26, 39.71 14.4 C40.88 18.55, 40.19 25.21, 38.37 29.32 C36.56 33.44, 32.85 37.72, 28.82 39.1 C24.8 40.48, 18.82 39.18, 14.23 37.58 C9.64 35.98, 3.79 32.85, 1.29 29.48 C-1.2 26.11, -3.82 22.3, -0.71 17.36 C2.4 12.41, 14.02 1.6, 19.96 -0.19 C25.9 -1.99, 34.67 6.49, 34.94 6.6 M20.93 0.3 C24.08 -0.09, 28.49 -0.03, 31.27 3.24 C34.06 6.51, 37.13 15.26, 37.64 19.93 C38.16 24.59, 36.74 27.96, 34.36 31.22 C31.97 34.48, 27.1 38.77, 23.33 39.49 C19.56 40.21, 15.8 37.54, 11.75 35.56 C7.7 33.58, 0.62 30.71, -0.96 27.62 C-2.53 24.53, 0.89 20.74, 2.31 17.04 C3.73 13.35, 4.31 8.66, 7.56 5.45 C10.82 2.23, 19.48 -0.94, 21.86 -2.23 C24.23 -3.52, 21.64 -3.51, 21.82 -2.3" stroke="#000000" stroke-width="4" fill="none"></path></g><g stroke-linecap="round" transform="translate(114.61812125389099 10) rotate(0 30 30)"><path d="M25.45 -0.52 C31.84 -1.75, 40.51 2.2, 46.2 5.63 C51.89 9.07, 57.62 14.45, 59.57 20.1 C61.53 25.75, 60.53 33.18, 57.9 39.52 C55.28 45.86, 49.63 55, 43.84 58.16 C38.06 61.31, 29.69 59.74, 23.18 58.46 C16.67 57.18, 8.47 55.13, 4.79 50.48 C1.11 45.82, 0.69 37.12, 1.1 30.55 C1.51 23.98, 2.54 15.83, 7.25 11.04 C11.97 6.24, 24.84 3.6, 29.41 1.77 C33.98 -0.05, 34.75 -0.15, 34.7 0.09 M46.9 3.89 C51.31 6.83, 55.4 15.57, 56.97 22.01 C58.55 28.46, 58.88 36.65, 56.36 42.54 C53.85 48.44, 47.97 54.4, 41.9 57.36 C35.83 60.32, 26.41 62.27, 19.95 60.29 C13.49 58.31, 5.96 51.53, 3.14 45.48 C0.31 39.43, 2.1 29.84, 2.98 23.99 C3.85 18.14, 3.9 14.58, 8.41 10.35 C12.91 6.13, 23.37 -0.95, 30 -1.38 C36.63 -1.8, 45.62 6.31, 48.17 7.81 C50.72 9.31, 45.96 7.78, 45.29 7.63" stroke="none" stroke-width="0" fill="#82c91e"></path><path d="M35.81 0.65 C41.65 1.79, 47.65 6.76, 51.62 12.01 C55.6 17.26, 59.43 25.77, 59.67 32.17 C59.91 38.57, 57.46 46.09, 53.06 50.4 C48.66 54.72, 39.87 57.32, 33.3 58.04 C26.73 58.77, 18.84 57.97, 13.63 54.74 C8.42 51.52, 4.02 44.51, 2.05 38.7 C0.07 32.88, -0.45 25.56, 1.79 19.86 C4.04 14.15, 6.61 5.04, 15.5 4.48 C24.4 3.91, 47.95 10.14, 55.14 16.45 C62.33 22.76, 58.9 42.09, 58.66 42.32 M8.78 8.77 C12.76 3.82, 18.44 -0.79, 24.47 -1.62 C30.5 -2.46, 39.82 0.77, 44.97 3.78 C50.12 6.8, 53.35 10.16, 55.39 16.47 C57.42 22.78, 58.55 35.22, 57.19 41.66 C55.83 48.1, 52.28 52.04, 47.21 55.1 C42.14 58.16, 33.81 60.88, 26.76 60.02 C19.72 59.16, 9.86 54.61, 4.94 49.94 C0.03 45.27, -3.56 38.97, -2.74 31.97 C-1.93 24.98, 8.41 11.7, 9.81 7.97 C11.2 4.25, 5.49 8.54, 5.64 9.61" stroke="#000000" stroke-width="4" fill="none"></path></g></svg>