<svg version="1.1" xmlns="http://www.w3.org/2000/svg" viewBox="0 0 740.1116470527277 540.0000000000001" width="1480.2232941054554" height="1080.0000000000002">
  <!-- svg-source:excalidraw -->
  
  <defs>
    <style>
      @font-face {
        font-family: "Virgil";
        src: url("https://excalidraw.com/Virgil.woff2");
      }
      @font-face {
        font-family: "Cascadia";
        src: url("https://excalidraw.com/Cascadia.woff2");
      }
    </style>
  </defs>
  <g stroke-linecap="round"><g transform="translate(11.023475256189613 350.174091533199) rotate(0 0.06383975724691027 -169.83828588463365)"><path d="M0.56 0.5 C0.52 -56.3, -0.73 -283.28, -1.02 -340.17 M-0.6 -0.29 C-0.22 -56.95, 0.87 -282.11, 1.15 -338.73" stroke="#000000" stroke-width="2" fill="none"></path></g><g transform="translate(11.023475256189613 350.174091533199) rotate(0 0.06383975724691027 -169.83828588463365)"><path d="M12.1 -312.19 C8.43 -319.13, 4.85 -325.28, 2.5 -340.23 M11.81 -311.17 C8.76 -317.85, 5.46 -324.89, 0.52 -339.01" stroke="#000000" stroke-width="2" fill="none"></path></g><g transform="translate(11.023475256189613 350.174091533199) rotate(0 0.06383975724691027 -169.83828588463365)"><path d="M-8.42 -312.29 C-7.2 -319.3, -5.89 -325.43, 2.5 -340.23 M-8.71 -311.27 C-6.15 -318.1, -3.83 -325.12, 0.52 -339.01" stroke="#000000" stroke-width="2" fill="none"></path></g></g><g stroke-linecap="round"><g transform="translate(10.700421089343763 353.6132044057375) rotate(0 229.2125331440568 -1.866003581705172)"><path d="M0.5 -1.02 C76.92 -1.91, 382.8 -4.22, 459.13 -4.79 M-0.7 1.05 C75.5 0.21, 381.16 -3.1, 458.09 -3.86" stroke="#000000" stroke-width="2" fill="none"></path></g></g><g stroke-linecap="round"><g transform="translate(11.023475256189613 190.17409153319898) rotate(0 9.950285367025117 -30.524236056581117)"><path d="M-1.02 -0.17 C2.02 -10.4, 15.46 -51.04, 18.83 -60.87 M0.64 -1.31 C3.98 -11.46, 17.42 -49.83, 20.92 -59.8" stroke="#000000" stroke-width="1" fill="none"></path></g></g><g stroke-linecap="round"><g transform="translate(31.023475256189613 130.17409153319988) rotate(0 9.826947917230427 39.55346935236821)"><path d="M-0.17 -1.17 C2.93 12.19, 15.63 65.8, 19.13 79.18 M-1.72 0.83 C1.71 14.41, 17.68 67.09, 21.38 80.28" stroke="#000000" stroke-width="1" fill="none"></path></g></g><g stroke-linecap="round"><g transform="translate(51.02347525618961 210.17409153319898) rotate(0 10.140733994943957 -19.80165693206709)"><path d="M-1.17 -0.87 C2.19 -7.38, 15.8 -32.61, 19.18 -39.19 M0.41 1.28 C4.25 -5.54, 17.94 -34.14, 21.45 -40.88" stroke="#000000" stroke-width="1" fill="none"></path></g></g><g stroke-linecap="round"><g transform="translate(71.02347525618961 170.17409153319898) rotate(0 9.96880814097824 -9.771584858205188)"><path d="M-0.87 -0.82 C2.62 -4.11, 17.39 -17.6, 20.81 -20.9 M0.87 1.36 C4.29 -1.7, 17.31 -16.34, 20.29 -19.83" stroke="#000000" stroke-width="1" fill="none"></path></g></g><g stroke-linecap="round"><g transform="translate(91.02347525618961 150.17409153319898) rotate(0 10.257637381507152 40.624389932025224)"><path d="M-0.82 0.81 C2.55 14.24, 15.73 66.31, 19.1 79.68 M0.94 0.19 C4.8 13.87, 18.45 67.88, 21.34 81.06" stroke="#000000" stroke-width="1" fill="none"></path></g></g><g stroke-linecap="round"><g transform="translate(111.02347525618961 230.17409153319898) rotate(0 9.731762945409855 -9.680862120445795)"><path d="M0.81 -0.9 C4.24 -4.2, 16.31 -17.53, 19.68 -20.6 M-0.22 1.24 C3.1 -1.83, 15.06 -15.62, 18.57 -19.38" stroke="#000000" stroke-width="1" fill="none"></path></g></g><g stroke-linecap="round"><g transform="translate(131.0234752561896 210.17409153319898) rotate(0 10.445370984477904 -40.427208266211665)"><path d="M-0.9 -0.32 C2.47 -13.61, 15.8 -65.54, 19.4 -78.96 M0.83 -1.53 C4.67 -15.21, 18.56 -67.47, 21.79 -80.54" stroke="#000000" stroke-width="1" fill="none"></path></g></g><g stroke-linecap="round"><g transform="translate(251.0234752561896 130.17409153319988) rotate(0 9.121289408458438 20.31103569527147)"><path d="M0.13 0.33 C3.28 7.33, 16.31 34.6, 19.5 41.16 M-1.25 -0.54 C1.63 6.23, 14.45 32.76, 18.28 39.65" stroke="#000000" stroke-width="1" fill="none"></path></g></g><g stroke-linecap="round"><g transform="translate(271.0234752561896 170.17409153319898) rotate(0 10.104268303271283 39.28529786538343)"><path d="M0.33 -0.5 C4 12.68, 17.94 65.96, 21.16 79.24 M-0.95 -1.81 C2.73 11.5, 17.54 66.73, 20.82 80.38" stroke="#000000" stroke-width="1" fill="none"></path></g></g><g stroke-linecap="round"><g transform="translate(291.0234752561896 250.17409153319898) rotate(0 10.527385270400032 -29.58679882027218)"><path d="M-0.5 1.16 C2.68 -8.95, 15.96 -50.16, 19.24 -60.33 M1.43 0.72 C4.99 -9.24, 18.18 -49.1, 21.56 -58.97" stroke="#000000" stroke-width="1" fill="none"></path></g></g><g stroke-linecap="round"><g transform="translate(311.0234752561896 190.17409153319898) rotate(0 9.988088762666962 -9.657337299790242)"><path d="M1.16 -0.76 C4.38 -4.14, 16.51 -17.62, 19.67 -20.77 M0.31 1.46 C3.32 -1.74, 15.36 -16.37, 18.54 -19.64" stroke="#000000" stroke-width="1" fill="none"></path></g></g><g stroke-linecap="round"><g transform="translate(331.0234752561896 170.17409153319898) rotate(0 10.386732876552287 10.08235575364904)"><path d="M-0.76 -0.33 C2.53 2.83, 15.71 16.74, 19.23 20.12 M1.05 -1.55 C4.76 2.33, 18.41 17.92, 21.53 21.72" stroke="#000000" stroke-width="1" fill="none"></path></g></g><g stroke-linecap="round"><g transform="translate(351.0234752561896 190.17409153319898) rotate(0 9.89275088571003 -20.092633074410173)"><path d="M-0.33 -0.77 C2.83 -7.26, 16.74 -33.16, 20.12 -39.67 M1.69 1.43 C4.6 -5.36, 16.32 -34.98, 19.23 -41.62" stroke="#000000" stroke-width="1" fill="none"></path></g></g><g stroke-linecap="round"><g transform="translate(470.7748230006546 9.881064597144814) rotate(0 -0.47350679201338153 169.7002898735925)"><path d="M-0.77 0.12 C-0.68 56.72, -0.25 282.83, -0.17 339.28" stroke="#000000" stroke-width="1.5" fill="none" stroke-dasharray="8 9"></path></g></g><g transform="translate(430 370.0000000000001) rotate(0 33 21.5)"><text x="33" y="30" font-family="Helvetica, Segoe UI Emoji" font-size="36px" fill="#000000" text-anchor="middle" style="white-space: pre;" direction="ltr">now</text></g><g stroke-linecap="round"><g transform="translate(470 350.0000000000001) rotate(0 129.2913029398769 0.2605309852214077)"><path d="M-0.05 0.17 C43.29 0.11, 216.53 -0.15, 260.11 0 M-1.53 -0.79 C41.59 -0.7, 215.12 1.34, 258.9 1.31" stroke="#000000" stroke-width="2" fill="none"></path></g><g transform="translate(470 350.0000000000001) rotate(0 129.2913029398769 0.2605309852214077)"><path d="M28.42 -10.97 C18.7 -5.52, 11.74 -2.31, -1.95 -0.55 M27.51 -10.28 C18.21 -6.26, 9.68 -2.79, -0.95 0.74" stroke="#000000" stroke-width="2" fill="none"></path></g><g transform="translate(470 350.0000000000001) rotate(0 129.2913029398769 0.2605309852214077)"><path d="M28.44 9.56 C18.66 8.64, 11.69 5.49, -1.95 -0.55 M27.53 10.24 C18.17 7.36, 9.63 3.92, -0.95 0.74" stroke="#000000" stroke-width="2" fill="none"></path></g><g transform="translate(470 350.0000000000001) rotate(0 129.2913029398769 0.2605309852214077)"><path d="M230.93 10.55 C238.64 9.7, 249.17 6.59, 256.99 0.59 M230.02 11.24 C239.65 8.45, 250.1 5.06, 257.99 1.88" stroke="#000000" stroke-width="2" fill="none"></path></g><g transform="translate(470 350.0000000000001) rotate(0 129.2913029398769 0.2605309852214077)"><path d="M231.06 -9.97 C238.79 -4.46, 249.27 -1.21, 256.99 0.59 M230.14 -9.29 C239.79 -5.17, 250.21 -1.65, 257.99 1.88" stroke="#000000" stroke-width="2" fill="none"></path></g></g><g transform="translate(550 310.0000000000001) rotate(0 45.5 21.5)"><text x="45.5" y="30" font-family="Helvetica, Segoe UI Emoji" font-size="36px" fill="#000000" text-anchor="middle" style="white-space: pre;" direction="ltr">future</text></g><g stroke-linecap="round"><g transform="translate(371.0234752561896 150.17409153319898) rotate(0 10.17396973632276 19.455388732347615)"><path d="M-0.51 -0.44 C2.98 6.3, 17.29 34.07, 20.85 40.62 M1.43 -1.71 C4.83 4.66, 17.17 31.95, 20.36 38.83" stroke="#000000" stroke-width="1" fill="none"></path></g></g><g stroke-linecap="round"><g transform="translate(390.43790983222425 189.74250867290436) rotate(0 9.874187119863905 30.689465575497593)"><path d="M-0.44 0.85 C2.9 11.13, 17.04 51.29, 20.19 61.12 M1.53 0.26 C4.75 10.24, 16.37 49.34, 19.57 59.45" stroke="#000000" stroke-width="1" fill="none"></path></g></g><g stroke-linecap="round"><g transform="translate(410 250.0000000000001) rotate(0 10.865690148044337 -20.171912677027308)"><path d="M0.85 0.62 C4.59 -6.13, 18.6 -34.3, 21.89 -40.97 M-0.16 -0.09 C3.54 -6.71, 18.1 -33.13, 21.39 -40.03" stroke="#000000" stroke-width="1" fill="none"></path></g></g><g transform="translate(30 310.0000000000001) rotate(0 34 21.5)"><text x="34" y="30" font-family="Helvetica, Segoe UI Emoji" font-size="36px" fill="#000000" text-anchor="middle" style="white-space: pre;" direction="ltr">past</text></g><g stroke-linecap="round"><g transform="translate(170.94676765458667 331.0595741663129) rotate(0 29.374325129790236 0.1808038860643819)"><path d="M0.34 -1.06 C10.39 -0.92, 49.57 -0.2, 59.7 -0.08 M-0.95 1 C8.98 1.42, 48.28 1.44, 58.59 1.41" stroke="#000000" stroke-width="1" fill="none"></path></g></g><g stroke-linecap="round"><g transform="translate(251.1386409785598 129.78009621663034) rotate(0 -10.642931030131876 100.27287591124878)"><path d="M0.99 0.83 C-2.9 34.1, -18.78 166.25, -22.28 199.28 M0.05 0.22 C-3.58 33.64, -16.8 167.07, -20.16 200.33" stroke="#000000" stroke-width="1" fill="none"></path></g></g><g stroke-linecap="round"><g transform="translate(150.34536022972316 129.58364896643923) rotate(0 10.168995994329407 100.90564227700224)"><path d="M0.73 0.96 C4.04 34.71, 17.47 168.31, 20.68 201.39 M-0.35 0.42 C2.83 33.95, 16.98 166.48, 20.28 199.79" stroke="#000000" stroke-width="1" fill="none"></path></g></g><g stroke-linecap="round"><g transform="translate(431.68230932490906 210.84447130300111) rotate(0 8.580557093340872 49.962176217893216)"><path d="M-0.15 -0.84 C3.06 15.82, 15.91 82.61, 18.84 99.21 M-1.68 1.33 C1.44 18.26, 14.58 84.35, 18.17 100.77" stroke="#000000" stroke-width="1" fill="none"></path></g></g><g stroke-linecap="round"><g transform="translate(451.04562561772764 310.36233325339856) rotate(0 10.294633534355057 0.3217367079109863)"><path d="M-1.05 1.01 C2.13 0.91, 15.62 -0.08, 19.29 -0.36 M0.61 0.49 C4.15 0.55, 18.27 1.02, 21.63 0.98" stroke="#000000" stroke-width="1" fill="none"></path></g></g><g stroke-linecap="round" transform="translate(130 310.0000000000001) rotate(0 70 20)"><path d="M66.38 0.79 C77.29 0.36, 90.25 1.64, 100.62 3.02 C110.99 4.41, 121.95 6.53, 128.59 9.1 C135.24 11.67, 139.67 15.11, 140.49 18.44 C141.31 21.76, 138.75 26.07, 133.51 29.06 C128.28 32.04, 119.04 34.37, 109.07 36.35 C99.11 38.32, 85.6 40.77, 73.7 40.91 C61.8 41.05, 47.96 38.87, 37.69 37.19 C27.41 35.51, 18.27 33.59, 12.05 30.82 C5.83 28.06, 0.99 23.89, 0.36 20.57 C-0.28 17.25, 3.14 13.77, 8.24 10.91 C13.33 8.05, 19.75 5.37, 30.93 3.42 C42.12 1.48, 66.18 -0.38, 75.35 -0.77 C84.52 -1.17, 85.98 0.65, 85.96 1.06" stroke="#c92a2a" stroke-width="2.5" fill="none" stroke-dasharray="8 10"></path></g><g transform="translate(190 150.0000000000001) rotate(0 19 80.5)"><text x="19" y="113" font-family="Virgil, Segoe UI Emoji" font-size="127.05882352941178px" fill="#c92a2a" text-anchor="middle" style="white-space: pre;" direction="ltr">!</text></g><g stroke-linecap="round" transform="translate(410 290.0000000000001) rotate(0 50 20)"><path d="M69.44 2.05 C78.25 3.24, 88.37 6.12, 93.5 9.48 C98.63 12.83, 101.08 18.13, 100.22 22.2 C99.35 26.28, 95.05 31.02, 88.31 33.94 C81.58 36.85, 69.63 39.04, 59.78 39.71 C49.93 40.37, 38.17 39.42, 29.2 37.93 C20.22 36.44, 10.67 34.03, 5.92 30.75 C1.18 27.47, -0.37 22.26, 0.73 18.23 C1.82 14.21, 6.21 9.5, 12.47 6.62 C18.73 3.74, 27.76 1.7, 38.28 0.94 C48.8 0.17, 68.58 1.42, 75.58 2.05 C82.58 2.69, 80.46 4.46, 80.27 4.75" stroke="#c92a2a" stroke-width="2.5" fill="none" stroke-dasharray="8 10"></path></g><g transform="translate(450 130.0000000000001) rotate(0 19 80.5)"><text x="19" y="113" font-family="Virgil, Segoe UI Emoji" font-size="127.05882352941178px" fill="#c92a2a" text-anchor="middle" style="white-space: pre;" direction="ltr">!</text></g><g stroke-linecap="round" transform="translate(230 450.0000000000001) rotate(0 90 40)"><path d="M-0.07 1.59 C65.87 0.14, 132.44 1.92, 179.47 -0.72 M-0.76 -0.77 C60.38 -0.07, 120.65 0.77, 179.59 0.09 M179.77 -1.42 C181.03 29.3, 181.75 56.53, 181.82 81.23 M180.43 -0.77 C180.23 27.42, 179.82 53.72, 179.94 80.11 M181.85 79.18 C142.33 79.92, 99.41 80.22, -0.18 81.07 M179.04 80.68 C143.7 80.04, 108.02 79.72, -0.84 80.37 M0.84 80.81 C1.95 56.6, 0.72 36.08, 0.2 0.09 M-0.72 79.98 C1.18 62.63, 1.46 44.25, 0.15 0.36" stroke="#000000" stroke-width="2" fill="none"></path></g><g transform="translate(270 470.0000000000001) rotate(0 49 21.5)"><text x="49" y="30" font-family="Helvetica, Segoe UI Emoji" font-size="36px" fill="#000000" text-anchor="middle" style="white-space: pre;" direction="ltr">model</text></g><g stroke-linecap="round"><g transform="translate(290 450.0000000000001) rotate(0 -39.59176238157784 -49.40192114508716)"><path d="M-0.91 -0.93 C-14.17 -17.54, -66.21 -83.66, -79.23 -100 M0.82 1.2 C-12.6 -15.24, -66.62 -82.37, -80 -98.82" stroke="#c92a2a" stroke-width="2" fill="none"></path></g><g transform="translate(290 450.0000000000001) rotate(0 -39.59176238157784 -49.40192114508716)"><path d="M-55.85 -82.79 C-63.81 -87.69, -70.56 -94.51, -79.82 -97.61 M-55.01 -82.76 C-61.1 -86.75, -69.1 -91.12, -79.38 -98.43" stroke="#c92a2a" stroke-width="2" fill="none"></path></g><g transform="translate(290 450.0000000000001) rotate(0 -39.59176238157784 -49.40192114508716)"><path d="M-71.8 -69.88 C-74.51 -78.89, -76.03 -89.94, -79.82 -97.61 M-70.97 -69.85 C-72.48 -77.43, -76.01 -85.41, -79.38 -98.43" stroke="#c92a2a" stroke-width="2" fill="none"></path></g></g><g stroke-linecap="round"><g transform="translate(347.5034739356802 449.0000000000001) rotate(0 42.434427684827256 -58.77490959471572)"><path d="M0.13 -0.96 C14.24 -20.73, 69.65 -99.03, 84 -118.69 M-1.26 1.14 C13.26 -18.43, 71.58 -97.43, 86.13 -117.27" stroke="#c92a2a" stroke-width="2" fill="none"></path></g><g transform="translate(347.5034739356802 449.0000000000001) rotate(0 42.434427684827256 -58.77490959471572)"><path d="M76.07 -90.33 C79.43 -93.78, 81.06 -100.89, 86.37 -118.78 M76.7 -88.03 C80.27 -98.91, 83.91 -107.22, 86.51 -116.35" stroke="#c92a2a" stroke-width="2" fill="none"></path></g><g transform="translate(347.5034739356802 449.0000000000001) rotate(0 42.434427684827256 -58.77490959471572)"><path d="M59.54 -102.49 C66.99 -102.95, 72.72 -107.04, 86.37 -118.78 M60.18 -100.19 C69.15 -107.18, 78.2 -111.51, 86.51 -116.35" stroke="#c92a2a" stroke-width="2" fill="none"></path></g></g></svg>