<svg version="1.1" xmlns="http://www.w3.org/2000/svg" viewBox="0 0 999.9122895624489 460" width="1999.8245791248978" height="920">
  <!-- svg-source:excalidraw -->
  
  <defs>
    <style>
      @font-face {
        font-family: "Virgil";
        src: url("https://excalidraw.com/Virgil.woff2");
      }
      @font-face {
        font-family: "Cascadia";
        src: url("https://excalidraw.com/Cascadia.woff2");
      }
    </style>
  </defs>
  <g stroke-linecap="round"><g transform="translate(282.5800752207402 274.45195486755586) rotate(0 57.419924779259844 -34.451954867555884)"><path d="M0 0 C19.14 -11.48, 95.7 -57.42, 114.84 -68.9 M0 0 C19.14 -11.48, 95.7 -57.42, 114.84 -68.9" stroke="#000000" stroke-width="2" fill="none"></path></g><g transform="translate(282.5800752207402 274.45195486755586) rotate(0 57.419924779259844 -34.451954867555884)"><path d="M18.89 -23.3 C11.65 -14.37, 4.41 -5.44, 0 0 M18.89 -23.3 C12 -14.8, 5.11 -6.3, 0 0" stroke="#000000" stroke-width="2" fill="none"></path></g><g transform="translate(282.5800752207402 274.45195486755586) rotate(0 57.419924779259844 -34.451954867555884)"><path d="M29.45 -5.71 C18.16 -3.52, 6.87 -1.33, 0 0 M29.45 -5.71 C18.71 -3.62, 7.96 -1.54, 0 0" stroke="#000000" stroke-width="2" fill="none"></path></g><g transform="translate(282.5800752207402 274.45195486755586) rotate(0 57.419924779259844 -34.451954867555884)"><path d="M95.95 -45.6 C103.19 -54.53, 110.43 -63.47, 114.84 -68.9 M95.95 -45.6 C102.84 -54.1, 109.73 -62.61, 114.84 -68.9" stroke="#000000" stroke-width="2" fill="none"></path></g><g transform="translate(282.5800752207402 274.45195486755586) rotate(0 57.419924779259844 -34.451954867555884)"><path d="M85.39 -63.2 C96.68 -65.39, 107.97 -67.57, 114.84 -68.9 M85.39 -63.2 C96.13 -65.28, 106.88 -67.36, 114.84 -68.9" stroke="#000000" stroke-width="2" fill="none"></path></g></g><g stroke-linecap="round"><g transform="translate(737.4199247792599 274.45195486755586) rotate(0 -57.419924779259816 -34.45195486755587)"><path d="M0 0 C-19.14 -11.48, -95.7 -57.42, -114.84 -68.9 M0 0 C-19.14 -11.48, -95.7 -57.42, -114.84 -68.9" stroke="#000000" stroke-width="2" fill="none"></path></g><g transform="translate(737.4199247792599 274.45195486755586) rotate(0 -57.419924779259816 -34.45195486755587)"><path d="M-29.45 -5.71 C-21.19 -4.11, -12.93 -2.51, 0 0 M-29.45 -5.71 C-20.71 -4.01, -11.96 -2.32, 0 0" stroke="#000000" stroke-width="2" fill="none"></path></g><g transform="translate(737.4199247792599 274.45195486755586) rotate(0 -57.419924779259816 -34.45195486755587)"><path d="M-18.89 -23.3 C-13.6 -16.77, -8.3 -10.23, 0 0 M-18.89 -23.3 C-13.28 -16.38, -7.67 -9.46, 0 0" stroke="#000000" stroke-width="2" fill="none"></path></g><g transform="translate(737.4199247792599 274.45195486755586) rotate(0 -57.419924779259816 -34.45195486755587)"><path d="M-85.39 -63.2 C-93.65 -64.8, -101.91 -66.4, -114.84 -68.9 M-85.39 -63.2 C-94.13 -64.89, -102.88 -66.59, -114.84 -68.9" stroke="#000000" stroke-width="2" fill="none"></path></g><g transform="translate(737.4199247792599 274.45195486755586) rotate(0 -57.419924779259816 -34.45195486755587)"><path d="M-95.95 -45.6 C-101.24 -52.14, -106.54 -58.67, -114.84 -68.9 M-95.95 -45.6 C-101.56 -52.52, -107.17 -59.44, -114.84 -68.9" stroke="#000000" stroke-width="2" fill="none"></path></g></g><g stroke-linecap="round"><g transform="translate(290 350) rotate(0 220 0)"><path d="M0 0 C73.33 0, 366.67 0, 440 0 M0 0 C73.33 0, 366.67 0, 440 0" stroke="#000000" stroke-width="2" fill="none"></path></g><g transform="translate(290 350) rotate(0 220 0)"><path d="M28.19 -10.26 C21.14 -7.7, 14.09 -5.13, 0 0 M28.19 -10.26 C18.17 -6.61, 8.15 -2.97, 0 0" stroke="#000000" stroke-width="2" fill="none"></path></g><g transform="translate(290 350) rotate(0 220 0)"><path d="M28.19 10.26 C21.14 7.7, 14.09 5.13, 0 0 M28.19 10.26 C18.17 6.61, 8.15 2.97, 0 0" stroke="#000000" stroke-width="2" fill="none"></path></g><g transform="translate(290 350) rotate(0 220 0)"><path d="M411.81 10.26 C418.86 7.7, 425.91 5.13, 440 0 M411.81 10.26 C421.83 6.61, 431.85 2.97, 440 0" stroke="#000000" stroke-width="2" fill="none"></path></g><g transform="translate(290 350) rotate(0 220 0)"><path d="M411.81 -10.26 C418.86 -7.7, 425.91 -5.13, 440 0 M411.81 -10.26 C421.83 -6.61, 431.85 -2.97, 440 0" stroke="#000000" stroke-width="2" fill="none"></path></g></g><g stroke-linecap="round"><g transform="translate(490 330) rotate(0 20 20)"><path d="M0 0 C6.67 6.67, 33.33 33.33, 40 40 M0 0 C6.67 6.67, 33.33 33.33, 40 40" stroke="#c92a2a" stroke-width="4" fill="none"></path></g></g><g stroke-linecap="round"><g transform="translate(490 370) rotate(0 20 -20)"><path d="M0 0 C6.67 -6.67, 33.33 -33.33, 40 -40 M0 0 C6.67 -6.67, 33.33 -33.33, 40 -40" stroke="#c92a2a" stroke-width="4" fill="none"></path></g></g><g transform="translate(701.4285714285716 287.57142857142844) rotate(0 -195.71428571428578 -29.642857142856997)" stroke="none" fill="#c92a2a"><path d="M -1.89,2.64 Q -1.89,2.64 -4.80,0.65 -7.72,-1.34 -10.58,-3.14 -13.43,-4.95 -17.10,-7.75 -20.76,-10.54 -26.34,-14.38 -31.91,-18.22 -35.69,-20.69 -39.47,-23.16 -44.73,-26.26 -49.99,-29.36 -54.92,-32.36 -59.86,-35.36 -64.95,-38.03 -70.04,-40.71 -74.18,-42.43 -78.32,-44.16 -81.38,-45.64 -84.43,-47.12 -89.26,-48.76 -94.09,-50.40 -99.52,-52.18 -104.95,-53.97 -109.30,-55.36 -113.65,-56.74 -118.05,-57.72 -122.46,-58.70 -127.06,-59.76 -131.66,-60.81 -136.86,-61.87 -142.07,-62.94 -145.84,-63.30 -149.60,-63.66 -155.08,-64.08 -160.57,-64.50 -165.19,-64.89 -169.82,-65.29 -175.41,-65.46 -180.99,-65.63 -187.85,-65.50 -194.71,-65.37 -199.97,-65.53 -205.24,-65.68 -211.28,-65.54 -217.33,-65.41 -222.14,-65.15 -226.96,-64.89 -231.62,-64.37 -236.28,-63.86 -240.38,-62.85 -244.48,-61.83 -249.58,-60.57 -254.68,-59.31 -258.59,-57.98 -262.50,-56.65 -267.23,-55.62 -271.95,-54.59 -278.76,-52.75 -285.57,-50.91 -289.92,-49.72 -294.28,-48.52 -300.25,-45.82 -306.23,-43.12 -311.82,-39.94 -317.41,-36.77 -321.61,-34.00 -325.81,-31.24 -330.08,-28.41 -334.36,-25.57 -337.39,-23.59 -340.42,-21.62 -342.63,-20.04 -344.85,-18.47 -348.33,-16.47 -351.81,-14.46 -355.00,-12.11 -358.20,-9.76 -361.81,-7.60 -365.41,-5.43 -367.48,-3.66 -369.54,-1.89 -372.91,0.15 -376.28,2.20 -378.72,4.07 -381.16,5.94 -383.09,7.35 -385.02,8.76 -386.56,10.31 -388.10,11.85 -388.66,12.23 -389.22,12.60 -389.86,12.78 -390.51,12.96 -391.18,12.92 -391.85,12.88 -392.47,12.63 -393.10,12.38 -393.61,11.94 -394.12,11.51 -394.46,10.93 -394.81,10.36 -394.95,9.70 -395.09,9.04 -395.02,8.38 -394.94,7.71 -394.66,7.10 -394.37,6.49 -393.91,6.01 -393.45,5.52 -392.85,5.21 -392.26,4.90 -391.60,4.79 -390.93,4.68 -390.27,4.79 -389.61,4.90 -389.02,5.22 -388.43,5.54 -387.97,6.02 -387.51,6.51 -387.23,7.12 -386.95,7.73 -386.87,8.40 -386.80,9.07 -386.95,9.72 -387.10,10.38 -387.44,10.95 -387.79,11.53 -388.31,11.96 -388.82,12.39 -389.44,12.64 -390.07,12.89 -390.74,12.92 -391.41,12.95 -392.05,12.77 -392.70,12.59 -393.26,12.21 -393.81,11.83 -394.21,11.30 -394.62,10.76 -394.83,10.13 -395.04,9.49 -395.04,8.82 -395.04,8.15 -394.82,7.51 -394.61,6.88 -394.20,6.34 -393.79,5.81 -393.79,5.81 -393.79,5.81 -391.53,3.89 -389.27,1.97 -387.34,0.97 -385.41,-0.01 -382.64,-1.86 -379.87,-3.71 -376.77,-5.58 -373.67,-7.44 -371.15,-9.09 -368.62,-10.74 -365.31,-12.76 -361.99,-14.78 -358.55,-17.44 -355.12,-20.09 -351.70,-22.15 -348.27,-24.20 -345.84,-25.41 -343.41,-26.62 -340.34,-28.28 -337.26,-29.95 -332.98,-32.79 -328.70,-35.63 -324.35,-38.49 -320.01,-41.34 -314.20,-44.63 -308.39,-47.92 -302.03,-50.75 -295.68,-53.59 -291.31,-54.79 -286.95,-56.00 -280.00,-57.87 -273.06,-59.75 -268.63,-60.70 -264.19,-61.65 -260.07,-63.03 -255.95,-64.42 -250.84,-65.69 -245.74,-66.96 -241.30,-68.03 -236.86,-69.11 -232.05,-69.64 -227.25,-70.18 -222.35,-70.45 -217.45,-70.72 -211.27,-70.87 -205.09,-71.02 -199.95,-70.88 -194.81,-70.74 -187.83,-70.89 -180.84,-71.04 -175.11,-70.89 -169.38,-70.74 -164.77,-70.39 -160.17,-70.04 -154.56,-69.66 -148.95,-69.29 -144.98,-68.75 -141.01,-68.22 -135.73,-67.17 -130.46,-66.12 -125.87,-65.10 -121.29,-64.08 -116.64,-63.09 -111.99,-62.09 -107.59,-60.76 -103.20,-59.43 -97.71,-57.72 -92.23,-56.01 -86.85,-54.26 -81.46,-52.52 -78.85,-50.85 -76.23,-49.19 -71.86,-47.40 -67.50,-45.61 -62.23,-42.89 -56.97,-40.18 -52.03,-37.27 -47.10,-34.35 -41.69,-31.28 -36.28,-28.20 -32.37,-25.80 -28.45,-23.39 -22.68,-19.64 -16.91,-15.88 -13.21,-13.37 -9.52,-10.85 -6.64,-8.86 -3.77,-6.87 -0.94,-4.75 1.89,-2.64 2.18,-2.38 2.47,-2.11 2.68,-1.79 2.90,-1.46 3.03,-1.09 3.17,-0.72 3.21,-0.33 3.25,0.05 3.20,0.44 3.14,0.82 3.00,1.19 2.85,1.55 2.62,1.87 2.40,2.19 2.10,2.45 1.80,2.70 1.45,2.88 1.10,3.06 0.72,3.14 0.33,3.23 -0.05,3.22 -0.44,3.22 -0.82,3.12 -1.20,3.02 -1.54,2.83 -1.89,2.64 -1.89,2.64 L -1.89,2.64 Z"></path></g><g transform="translate(705.4761359921561 289.77237725407235) rotate(0 -8.214285714285552 -1.7857142857143344)" stroke="none" fill="#c92a2a"><path d="M -4.01,2.87 Q -4.01,2.87 -5.97,-0.07 -7.93,-3.01 -9.30,-4.82 -10.67,-6.63 -11.79,-9.83 -12.90,-13.02 -13.02,-12.12 -13.14,-11.22 -13.23,-11.84 -13.32,-12.47 -13.26,-13.10 -13.20,-13.72 -12.99,-14.32 -12.78,-14.92 -12.43,-15.44 -12.09,-15.97 -11.62,-16.40 -11.16,-16.83 -10.61,-17.14 -10.06,-17.44 -9.45,-17.61 -8.84,-17.77 -8.20,-17.79 -7.57,-17.80 -6.96,-17.67 -6.34,-17.53 -5.77,-17.25 -5.21,-16.97 -4.73,-16.56 -4.24,-16.15 -3.87,-15.64 -3.50,-15.13 -3.26,-14.55 -3.03,-13.96 -1.21,-11.66 0.59,-9.35 2.46,-6.65 4.33,-3.96 5.82,-1.86 7.31,0.23 8.64,1.90 9.97,3.57 10.99,4.93 12.02,6.30 12.25,7.06 12.49,7.82 12.54,8.61 12.59,9.40 12.45,10.19 12.31,10.97 11.98,11.70 11.66,12.42 11.17,13.05 10.68,13.68 10.05,14.17 9.43,14.66 8.70,14.99 7.98,15.32 7.19,15.46 6.41,15.61 5.62,15.56 4.82,15.51 4.06,15.28 3.30,15.04 2.62,14.63 1.94,14.22 1.38,13.66 0.81,13.10 0.40,12.42 -0.00,11.74 3.73,13.23 7.47,14.73 5.06,14.94 2.65,15.15 -0.09,13.28 -2.85,11.42 -4.83,10.17 -6.80,8.92 -9.16,7.69 -11.52,6.46 -14.34,5.95 -17.16,5.43 -20.45,4.93 -23.73,4.43 -24.72,4.02 -25.70,3.60 -26.50,2.89 -27.30,2.19 -27.83,1.26 -28.36,0.33 -28.57,-0.70 -28.78,-1.75 -28.64,-2.81 -28.51,-3.87 -28.04,-4.83 -27.57,-5.79 -26.82,-6.55 -26.07,-7.31 -25.12,-7.79 -24.17,-8.27 -23.11,-8.43 -22.05,-8.58 -21.00,-8.38 -19.95,-8.19 -19.02,-7.67 -18.08,-7.15 -17.36,-6.36 -16.65,-5.57 -16.22,-4.59 -15.79,-3.61 -15.69,-2.55 -15.60,-1.49 -15.85,-0.45 -16.10,0.58 -16.67,1.48 -17.24,2.39 -18.07,3.06 -18.90,3.74 -19.90,4.11 -20.90,4.49 -21.96,4.52 -23.03,4.56 -24.05,4.25 -25.08,3.95 -25.95,3.33 -26.82,2.71 -27.45,1.85 -28.08,0.99 -28.40,-0.02 -28.72,-1.04 -28.70,-2.11 -28.68,-3.18 -28.31,-4.18 -27.95,-5.19 -27.29,-6.02 -26.63,-6.86 -25.73,-7.44 -24.83,-8.02 -23.80,-8.29 -22.76,-8.55 -21.70,-8.47 -20.63,-8.39 -20.63,-8.39 -20.64,-8.39 -19.63,-8.09 -18.63,-7.78 -15.11,-7.33 -11.59,-6.88 -8.53,-5.87 -5.48,-4.86 -2.97,-3.43 -0.46,-2.00 1.86,0.80 4.19,3.61 8.10,4.95 12.02,6.30 12.25,7.06 12.49,7.82 12.54,8.61 12.59,9.40 12.45,10.19 12.31,10.97 11.98,11.70 11.66,12.42 11.17,13.05 10.68,13.68 10.05,14.17 9.43,14.66 8.70,14.99 7.98,15.32 7.20,15.46 6.41,15.61 5.62,15.56 4.82,15.51 4.06,15.28 3.30,15.04 2.62,14.63 1.94,14.22 1.38,13.66 0.81,13.10 0.40,12.42 -0.00,11.74 -0.42,11.33 -0.84,10.91 -2.41,8.56 -3.99,6.20 -5.11,4.14 -6.24,2.09 -7.48,-0.17 -8.71,-2.44 -9.98,-4.83 -11.25,-7.22 -12.19,-9.22 -13.14,-11.22 -13.23,-11.84 -13.32,-12.47 -13.26,-13.09 -13.20,-13.72 -12.99,-14.32 -12.78,-14.91 -12.43,-15.44 -12.09,-15.97 -11.62,-16.40 -11.16,-16.83 -10.61,-17.14 -10.06,-17.44 -9.45,-17.61 -8.84,-17.77 -8.21,-17.79 -7.57,-17.80 -6.96,-17.67 -6.34,-17.53 -5.77,-17.25 -5.21,-16.97 -4.73,-16.56 -4.24,-16.15 -3.87,-15.64 -3.50,-15.13 -3.26,-14.55 -3.03,-13.96 -2.85,-13.09 -2.67,-12.21 -1.47,-10.35 -0.27,-8.48 1.86,-5.67 4.01,-2.87 4.30,-2.34 4.58,-1.82 4.74,-1.24 4.89,-0.67 4.90,-0.07 4.91,0.51 4.77,1.09 4.64,1.67 4.37,2.20 4.10,2.73 3.72,3.19 3.33,3.64 2.84,3.98 2.36,4.33 1.81,4.55 1.25,4.77 0.66,4.85 0.07,4.93 -0.51,4.87 -1.10,4.81 -1.66,4.61 -2.22,4.40 -2.72,4.07 -3.21,3.74 -3.61,3.30 -4.01,2.87 -4.01,2.87 L -4.01,2.87 Z"></path></g><g transform="translate(309.7618502778703 293.3438058255008) rotate(0 13.928571428571445 -8.928571428571445)" stroke="none" fill="#c92a2a"><path d="M -3.93,-3.49 Q -3.93,-3.49 -2.30,-5.35 -0.67,-7.22 1.10,-9.75 2.88,-12.28 3.72,-14.38 4.57,-16.48 4.89,-18.21 5.20,-19.94 5.40,-20.66 5.59,-21.38 5.96,-22.04 6.32,-22.69 6.83,-23.24 7.34,-23.79 7.97,-24.20 8.59,-24.61 9.30,-24.86 10.01,-25.10 10.75,-25.18 11.50,-25.25 12.24,-25.14 12.98,-25.03 13.67,-24.75 14.36,-24.47 14.97,-24.03 15.57,-23.59 16.06,-23.02 16.54,-22.44 16.87,-21.77 17.20,-21.10 17.36,-20.37 17.52,-19.64 17.51,-18.89 17.49,-18.14 16.65,-15.95 15.81,-13.76 15.25,-11.27 14.68,-8.79 13.92,-6.09 13.16,-3.39 11.97,-0.90 10.77,1.58 9.14,3.61 7.52,5.63 8.49,4.73 9.46,3.84 9.15,4.60 8.84,5.36 8.35,6.02 7.87,6.69 7.24,7.22 6.61,7.75 5.88,8.11 5.14,8.48 4.34,8.65 3.53,8.83 2.71,8.81 1.89,8.79 1.10,8.57 0.31,8.36 -0.40,7.96 -1.12,7.56 -1.72,7.00 -2.32,6.44 -2.77,5.75 -3.23,5.06 -3.50,4.29 -3.77,3.51 -3.85,2.69 -3.93,1.88 -3.81,1.06 -3.69,0.25 0.07,-2.62 3.85,-5.50 7.01,-6.58 10.17,-7.66 12.97,-8.47 15.76,-9.28 18.47,-10.12 21.18,-10.97 24.47,-11.13 27.77,-11.29 28.89,-11.11 30.01,-10.93 31.02,-10.40 32.02,-9.87 32.80,-9.05 33.58,-8.22 34.06,-7.19 34.54,-6.17 34.66,-5.04 34.79,-3.91 34.54,-2.80 34.30,-1.69 33.72,-0.72 33.13,0.24 32.27,0.98 31.41,1.71 30.35,2.13 29.30,2.56 28.17,2.62 27.03,2.68 25.94,2.38 24.85,2.08 23.91,1.44 22.97,0.81 22.28,-0.09 21.59,-0.99 21.23,-2.06 20.86,-3.14 20.86,-4.27 20.86,-5.41 21.22,-6.48 21.58,-7.56 22.27,-8.46 22.96,-9.37 23.89,-10.00 24.83,-10.64 25.92,-10.95 27.02,-11.25 28.15,-11.19 29.28,-11.13 30.34,-10.71 31.39,-10.29 32.26,-9.56 33.12,-8.83 33.71,-7.86 34.30,-6.88 34.54,-5.78 34.79,-4.67 34.66,-3.54 34.54,-2.41 34.07,-1.38 33.59,-0.35 32.81,0.46 32.03,1.29 31.03,1.82 30.03,2.35 28.91,2.54 27.79,2.72 27.79,2.72 27.79,2.72 25.71,2.55 23.64,2.38 21.24,3.26 18.85,4.14 16.64,4.82 14.42,5.50 11.94,4.67 9.46,3.83 9.15,4.60 8.84,5.36 8.35,6.02 7.87,6.69 7.24,7.22 6.61,7.75 5.88,8.11 5.14,8.47 4.34,8.65 3.53,8.83 2.71,8.81 1.89,8.79 1.10,8.57 0.31,8.36 -0.40,7.96 -1.12,7.56 -1.72,7.00 -2.32,6.44 -2.77,5.75 -3.22,5.06 -3.50,4.29 -3.77,3.51 -3.85,2.69 -3.93,1.88 -3.81,1.06 -3.69,0.25 -3.67,0.19 -3.65,0.12 -2.34,-1.65 -1.03,-3.44 0.36,-6.40 1.76,-9.35 2.47,-12.01 3.18,-14.66 4.19,-17.30 5.20,-19.94 5.40,-20.66 5.59,-21.38 5.96,-22.04 6.32,-22.69 6.83,-23.24 7.34,-23.79 7.97,-24.20 8.59,-24.61 9.30,-24.86 10.00,-25.10 10.75,-25.18 11.49,-25.25 12.24,-25.14 12.98,-25.03 13.67,-24.75 14.36,-24.47 14.97,-24.03 15.57,-23.59 16.06,-23.02 16.54,-22.44 16.87,-21.77 17.20,-21.10 17.36,-20.37 17.52,-19.64 17.51,-18.89 17.49,-18.14 17.42,-17.98 17.35,-17.81 16.35,-14.72 15.35,-11.64 14.18,-9.33 13.02,-7.01 11.56,-5.25 10.10,-3.48 8.67,-1.82 7.25,-0.17 5.59,1.66 3.93,3.49 3.45,3.91 2.98,4.33 2.41,4.62 1.85,4.92 1.24,5.07 0.62,5.22 -0.00,5.22 -0.64,5.22 -1.25,5.06 -1.87,4.91 -2.43,4.62 -2.99,4.32 -3.47,3.90 -3.94,3.48 -4.30,2.95 -4.66,2.43 -4.88,1.84 -5.11,1.25 -5.18,0.62 -5.26,-0.00 -5.18,-0.63 -5.10,-1.26 -4.88,-1.86 -4.65,-2.45 -4.29,-2.97 -3.93,-3.49 -3.93,-3.49 L -3.93,-3.49 Z"></path></g><g transform="translate(150 330) rotate(0 21 22)"><text x="21" y="35" font-family="Cascadia, Segoe UI Emoji" font-size="36px" fill="#c92a2a" text-anchor="middle" style="white-space: pre;" direction="ltr">#1</text></g><g transform="translate(490 110) rotate(0 21 22)"><text x="21" y="35" font-family="Cascadia, Segoe UI Emoji" font-size="36px" fill="#c92a2a" text-anchor="middle" style="white-space: pre;" direction="ltr">#3</text></g><g transform="translate(810 330) rotate(0 21 22)"><text x="21" y="35" font-family="Cascadia, Segoe UI Emoji" font-size="36px" fill="#c92a2a" text-anchor="middle" style="white-space: pre;" direction="ltr">#2</text></g><g stroke-linecap="round" transform="translate(450 430) rotate(0 10 10)"><path d="M3.46 -1.93 L20.14 2.96 L18.19 5.73 L18.74 17.53 L13.4 20.77 L-0.33 17.79 L1.41 16.31 L-1.69 3.65 L4.06 0.42" stroke="none" stroke-width="0" fill="#fa5252"></path><path d="M5 0 M5 0 C8.88 -0.64, 11.75 0.72, 15 0 M5 0 C8.61 0.23, 12.33 -0.08, 15 0 M15 0 C16.88 0.31, 20.88 2.74, 20 5 M15 0 C19.08 -0.55, 21.17 1.39, 20 5 M20 5 C19.8 8.8, 20.58 11.03, 20 15 M20 5 C20.15 7.05, 19.83 9.7, 20 15 M20 15 C19.23 18.99, 19.59 19.11, 15 20 M20 15 C21.23 17.99, 20.13 19.27, 15 20 M15 20 C10.69 20.18, 8.42 20.17, 5 20 M15 20 C12 20.15, 8.56 20.04, 5 20 M5 20 C1.6 19.83, -1.24 19.6, 0 15 M5 20 C1.72 18.24, -0.14 16.99, 0 15 M0 15 C0.5 11.02, 0.07 9.19, 0 5 M0 15 C-0.25 12.27, 0.24 10.13, 0 5 M0 5 C0.15 1.53, 3.23 -1.3, 5 0 M0 5 C0.31 0.94, 2.75 -0.94, 5 0" stroke="#495057" stroke-width="2" fill="none"></path></g><g stroke-linecap="round" transform="translate(481 410) rotate(0 10 20)"><path d="M5 0 M5 0 C9.06 0.09, 11.78 -0.71, 15 0 M5 0 C8.74 0.38, 11.28 0.26, 15 0 M15 0 C17.39 0.42, 20.6 0.16, 20 5 M15 0 C16.87 1.35, 18.38 2.02, 20 5 M20 5 C18.77 15.24, 20.88 25.97, 20 35 M20 5 C20.22 13.62, 20.11 20.92, 20 35 M20 35 C21.02 38.09, 18.95 40.18, 15 40 M20 35 C18.25 37.84, 19.48 41.32, 15 40 M15 40 C12.71 40.2, 9.65 39.56, 5 40 M15 40 C12.15 39.81, 8.94 39.96, 5 40 M5 40 C3.23 39.37, 1.43 36.4, 0 35 M5 40 C-0.55 38.63, 0.63 40.3, 0 35 M0 35 C-1.48 25.42, 0.89 14.07, 0 5 M0 35 C-0.61 25.97, 0.03 14.92, 0 5 M0 5 C-0.13 0.5, 2.08 -0.62, 5 0 M0 5 C-1.28 2.74, -0.11 0.09, 5 0" stroke="#495057" stroke-width="2" fill="none"></path></g><g stroke-linecap="round" transform="translate(511 390) rotate(0 10 30)"><path d="M5 0 M5 0 C7.57 0.45, 10.94 -0.42, 15 0 M5 0 C8.91 -0.14, 12.51 0.25, 15 0 M15 0 C16.83 -1.27, 21.17 0.26, 20 5 M15 0 C18.69 1.51, 21.82 2.72, 20 5 M20 5 C18.83 15.71, 18.36 27.96, 20 55 M20 5 C20.03 22.71, 20.15 39.7, 20 55 M20 55 C20.18 56.81, 17.91 61, 15 60 M20 55 C21.32 57, 16.75 62.18, 15 60 M15 60 C11.33 60.11, 8.35 60.28, 5 60 M15 60 C11.3 60.44, 7.59 60.41, 5 60 M5 60 C-0.27 58.07, -1.2 58.88, 0 55 M5 60 C3.63 60.61, 0.11 59.71, 0 55 M0 55 C-1.4 44.09, -0.12 32.14, 0 5 M0 55 C-1.08 43.03, -0.9 31.4, 0 5 M0 5 C-0.62 0.55, 2.6 -1.55, 5 0 M0 5 C0.09 3.06, 0.89 -1.05, 5 0" stroke="#495057" stroke-width="2" fill="none"></path></g><g stroke-linecap="round" transform="translate(541 370) rotate(0 10 40)"><path d="M5 0 M5 0 C6.72 0.78, 10.05 -0.92, 15 0 M5 0 C8.57 -0.4, 11.52 0.27, 15 0 M15 0 C16.93 0.31, 21.32 3.25, 20 5 M15 0 C19.39 -1.69, 19.16 2.4, 20 5 M20 5 C20.1 23.44, 20.86 40.78, 20 75 M20 5 C20.66 24.43, 19.59 43.47, 20 75 M20 75 C21 79.48, 17.17 78.62, 15 80 M20 75 C22.18 78.63, 18.57 78.81, 15 80 M15 80 C12.87 80.59, 9.63 80.49, 5 80 M15 80 C12.51 79.49, 8.82 79.67, 5 80 M5 80 C2.22 81.71, 0.53 78.43, 0 75 M5 80 C3.04 78.32, 0.24 79.37, 0 75 M0 75 C-0.32 57.47, 1.11 42.47, 0 5 M0 75 C0.25 59.04, -0.51 44.15, 0 5 M0 5 C-1.55 1.75, 2.88 -0.68, 5 0 M0 5 C-1.05 0.59, 0.29 -0.31, 5 0" stroke="#495057" stroke-width="2" fill="none"></path></g><g stroke-linecap="round" transform="translate(690 190) rotate(0 10 10)"><path d="M4.12 1.44 L16.84 3.03 L21.96 4.15 L18.9 20.37 L16.06 20.11 L2.25 17.1 L-0.89 16.06 L-1.35 2.75 L5.33 1.73" stroke="none" stroke-width="0" fill="#40c057"></path><path d="M5 0 M5 0 C6.6 0.96, 9.12 0.38, 15 0 M5 0 C7.48 0.35, 10.71 -0.23, 15 0 M15 0 C17.17 -0.35, 21.2 3.43, 20 5 M15 0 C19.21 -1.78, 18.84 -0.33, 20 5 M20 5 C19.38 8.39, 20.83 9.52, 20 15 M20 5 C20.09 7.64, 20.44 9.14, 20 15 M20 15 C19.22 19.97, 19.93 19.67, 15 20 M20 15 C20.33 18.58, 18.33 21.35, 15 20 M15 20 C11.38 19.04, 8.98 19.29, 5 20 M15 20 C12.19 20.23, 9.32 19.94, 5 20 M5 20 C2.43 21.17, -0.82 16.58, 0 15 M5 20 C1.49 20.53, 0.19 19.06, 0 15 M0 15 C0.13 13.59, -0.31 10.85, 0 5 M0 15 C0.25 13.43, 0.38 10.44, 0 5 M0 5 C0.58 0.56, 0.91 -0.23, 5 0 M0 5 C-1.42 -0.27, 2.38 2.09, 5 0" stroke="#495057" stroke-width="2" fill="none"></path></g><g stroke-linecap="round" transform="translate(721 170) rotate(0 10 20)"><path d="M6.44 -1.91 L18.97 2.27 L18.83 2.96 L21.62 36.06 L17.29 40.68 L1.16 38.8 L1.38 35.52 L-0.06 5.33 L2.98 -0.35 L3.33 0.46" stroke="none" stroke-width="0" fill="#40c057"></path><path d="M5 0 M5 0 C7.8 -0.03, 8.95 0.6, 15 0 M5 0 C6.9 -0.25, 9.05 0.34, 15 0 M15 0 C20.09 0.76, 18.45 0.66, 20 5 M15 0 C16.34 -0.78, 21.81 1.76, 20 5 M20 5 C18.62 10.37, 19.83 20.51, 20 35 M20 5 C19.56 14.28, 21.06 25.13, 20 35 M20 35 C19.67 38.62, 18.55 40, 15 40 M20 35 C21.35 38.01, 19.41 39.58, 15 40 M15 40 C12.06 39.92, 9.83 40.51, 5 40 M15 40 C11.59 40.24, 8.7 39.84, 5 40 M5 40 C-0.09 39.85, 0.46 38.5, 0 35 M5 40 C2.4 37.81, -1.41 39.64, 0 35 M0 35 C-0.3 23.91, -1.48 14.65, 0 5 M0 35 C-1.19 25.16, -0.84 14.36, 0 5 M0 5 C-0.23 0.43, -0.02 0.62, 5 0 M0 5 C2.09 0.77, 3.32 0.93, 5 0" stroke="#495057" stroke-width="2" fill="none"></path></g><g stroke-linecap="round" transform="translate(751 150) rotate(0 10 30)"><path d="M3.09 1.78 L19.14 -0.54 L19.83 4.44 L21.06 55.11 L18.18 58.04 L1.92 60.75 L-1.35 57.13 L0.33 6.73 L-0.35 -0.42 L5.46 -1.21" stroke="none" stroke-width="0" fill="#40c057"></path><path d="M5 0 M5 0 C8.93 -0.89, 13.53 -0.97, 15 0 M5 0 C8.53 -0.05, 12.95 0.47, 15 0 M15 0 C19.1 -1.55, 18.99 -0.07, 20 5 M15 0 C17.55 1.81, 20.09 0.05, 20 5 M20 5 C18.85 23.24, 22.1 42.69, 20 55 M20 5 C20.07 24.82, 21.25 42.84, 20 55 M20 55 C20.29 58.55, 18.33 61.17, 15 60 M20 55 C19.67 59.41, 17.91 58.25, 15 60 M15 60 C12.9 59.24, 11.43 60.23, 5 60 M15 60 C11.83 60.27, 8.07 59.54, 5 60 M5 60 C1.52 60.46, 0.17 58.97, 0 55 M5 60 C-0.53 58.59, 1.31 58.48, 0 55 M0 55 C-1.71 35.52, -1.78 19.36, 0 5 M0 55 C-0.02 34.64, -0.69 15.28, 0 5 M0 5 C-1.24 -0.02, 2.29 1.81, 5 0 M0 5 C-0.89 3.32, 2.6 0.35, 5 0" stroke="#495057" stroke-width="2" fill="none"></path></g><g stroke-linecap="round" transform="translate(781 130) rotate(0 10 40)"><path d="M6.78 1.96 L16.33 0.46 L21.62 6.06 L20.11 76 L17.1 77.86 L16.06 78.34 L2.75 80.02 L1.73 73.4 L-1.67 5.46 L0.04 3.21 L4.44 0.8" stroke="none" stroke-width="0" fill="#40c057"></path><path d="M5 0 M5 0 C7.02 0.77, 10.52 -0.4, 15 0 M5 0 C7.86 0.13, 9.45 -0.31, 15 0 M15 0 C16.6 -0.68, 21.57 1.75, 20 5 M15 0 C16.72 1.67, 21.73 -0.17, 20 5 M20 5 C20.31 22.26, 21.69 34.97, 20 75 M20 5 C20.41 23.43, 20.68 41.57, 20 75 M20 75 C21.17 78.05, 19.27 79.63, 15 80 M20 75 C18.25 76.16, 17.62 78.4, 15 80 M15 80 C12.34 80.42, 9.54 79.82, 5 80 M15 80 C11.18 79.92, 8.35 80, 5 80 M5 80 C2.3 78.09, -1.23 79.47, 0 75 M5 80 C1.81 81.47, -0.85 78.21, 0 75 M0 75 C1.2 62.55, 1.69 44.44, 0 5 M0 75 C0.27 51.35, -0.46 29.26, 0 5 M0 5 C1.81 0.89, 3.11 0.81, 5 0 M0 5 C0.35 2.14, 1.09 0.9, 5 0" stroke="#495057" stroke-width="2" fill="none"></path></g><g stroke-linecap="round" transform="translate(210 190) rotate(0 10 10)"><path d="M3.62 1.08 L19.34 1.97 L20.9 4.54 L19.52 19.92 L14.18 18.25 L1.1 19.21 L0.17 15.64 L-1.59 1.59 L6.14 0.13" stroke="none" stroke-width="0" fill="#40c057"></path><path d="M5 0 M5 0 C7.69 -0.64, 11.3 0.38, 15 0 M5 0 C9.11 -0.19, 12.73 0.03, 15 0 M15 0 C17.1 -1.69, 20.62 3.48, 20 5 M15 0 C17.44 1.66, 20.93 2.01, 20 5 M20 5 C19.07 8.87, 19.82 11.93, 20 15 M20 5 C19.87 7.45, 20.19 10.21, 20 15 M20 15 C18.03 18.83, 16.46 18.51, 15 20 M20 15 C19.34 17.21, 18.74 20.63, 15 20 M15 20 C11.9 19.54, 11.12 19.35, 5 20 M15 20 C12.19 19.58, 8 19.75, 5 20 M5 20 C1.32 19, -1.62 19.21, 0 15 M5 20 C3.87 18.85, 0.33 17.04, 0 15 M0 15 C0.43 12.32, -0.49 11.01, 0 5 M0 15 C-0.09 11.32, -0.15 8.04, 0 5 M0 5 C-0.04 0.47, 1 1.1, 5 0 M0 5 C-2.21 3.93, 0.83 -0.62, 5 0" stroke="#495057" stroke-width="2" fill="none"></path></g><g stroke-linecap="round" transform="translate(241 170) rotate(0 10 20)"><path d="M6.08 0.59 L17.91 1.22 L19.23 3.58 L21.17 34.18 L15.43 39.54 L3.27 39.85 L0.95 35.28 L-1.23 6.14 L1.38 2.53 L4.26 -0.11" stroke="none" stroke-width="0" fill="#40c057"></path><path d="M5 0 M5 0 C7.43 1.06, 9.73 -0.81, 15 0 M5 0 C8.23 -0.27, 11.16 0.19, 15 0 M15 0 C20.15 -0.78, 21.44 2.48, 20 5 M15 0 C18.68 0.48, 19.42 2.56, 20 5 M20 5 C21.23 10.74, 19.65 16.77, 20 35 M20 5 C19.37 12.4, 20.08 20.84, 20 35 M20 35 C18.51 37.76, 17.35 40.35, 15 40 M20 35 C20.63 36.52, 16.37 39.06, 15 40 M15 40 C12.28 40.33, 11.45 39.63, 5 40 M15 40 C10.87 39.82, 6.89 39.5, 5 40 M5 40 C2.55 41.92, -1 38.62, 0 35 M5 40 C0.37 38.79, -0.72 40.28, 0 35 M0 35 C1.99 26.03, 1.24 15.2, 0 5 M0 35 C0.57 26.15, -0.56 17.01, 0 5 M0 5 C1.1 -0.25, 3.63 -0.73, 5 0 M0 5 C-0.62 1.35, 1.29 -1.25, 5 0" stroke="#495057" stroke-width="2" fill="none"></path></g><g stroke-linecap="round" transform="translate(271 150) rotate(0 10 30)"><path d="M5.59 0.72 L18.09 -0.15 L20.45 3.98 L19.18 53.25 L17.04 60.15 L2.98 60.32 L-1.59 55.96 L1.14 5.13 L2.53 0.51 L4.89 -1.89" stroke="none" stroke-width="0" fill="#40c057"></path><path d="M5 0 M5 0 C8.32 0.58, 8.81 0.25, 15 0 M5 0 C7.14 -0.41, 10.05 0.46, 15 0 M15 0 C17.56 1.44, 20.81 1.97, 20 5 M15 0 C18.81 -0.58, 20.9 -0.4, 20 5 M20 5 C19.36 22.75, 19.09 41.19, 20 55 M20 5 C19.23 17.53, 19.28 28.82, 20 55 M20 55 C19.43 57.35, 18.69 60.55, 15 60 M20 55 C18.18 56.37, 17.39 57.95, 15 60 M15 60 C12.69 60.61, 9.42 60.87, 5 60 M15 60 C12.67 59.71, 10.11 60.18, 5 60 M5 60 C3.58 59, 0.29 57.21, 0 55 M5 60 C0.46 59.28, 1.95 59.25, 0 55 M0 55 C1.49 42.21, 0.85 26.95, 0 5 M0 55 C0.07 40.1, -0.24 26.94, 0 5 M0 5 C-1.92 3.63, 0.94 -0.54, 5 0 M0 5 C-0.31 1.29, 0.42 -1.34, 5 0" stroke="#495057" stroke-width="2" fill="none"></path></g><g stroke-linecap="round" transform="translate(301 130) rotate(0 10 40)"><path d="M5 0 M5 0 C8.75 0.61, 11.31 -0.85, 15 0 M5 0 C8.08 -0.48, 10.54 0.28, 15 0 M15 0 C18.46 1.28, 19.26 1.56, 20 5 M15 0 C16.16 -1.48, 17.74 2.53, 20 5 M20 5 C21.01 31.62, 19.68 60.22, 20 75 M20 5 C20.32 21.28, 20.13 38.74, 20 75 M20 75 C20.3 78.75, 17.83 80.78, 15 80 M20 75 C17.93 79.85, 17.97 81.19, 15 80 M15 80 C12.08 79.41, 10 79.5, 5 80 M15 80 C12.61 79.76, 10.73 79.99, 5 80 M5 80 C2.21 78.42, -1.71 77.51, 0 75 M5 80 C-0.38 79.03, 1.25 76.93, 0 75 M0 75 C1.4 50.59, -2.31 28.39, 0 5 M0 75 C0.79 56.18, -0.15 35.59, 0 5 M0 5 C-1.12 0.62, 1.04 1.69, 5 0 M0 5 C0.92 1.19, 0.47 2.22, 5 0" stroke="#495057" stroke-width="2" fill="none"></path></g><g stroke-linecap="round" transform="translate(430 71.3823848157935) rotate(0 80 60)"><path d="M30 0 M30 0 C70.09 -0.61, 109.32 -1.95, 130 0 M30 0 C63.09 -0.34, 95.14 -0.18, 130 0 M130 0 C150.85 -0.18, 161.44 9.98, 160 30 M130 0 C150.33 0.48, 160.07 7.74, 160 30 M160 30 C160.75 46.33, 160.88 65.9, 160 90 M160 30 C160.42 42.99, 160.67 55.8, 160 90 M160 90 C161.74 110.38, 150.32 120.16, 130 120 M160 90 C158.37 107.92, 151.05 118.7, 130 120 M130 120 C93.73 119.25, 59.92 120.88, 30 120 M130 120 C100.96 120.23, 70.91 119.7, 30 120 M30 120 C10.86 118.45, -1.13 111.84, 0 90 M30 120 C11.49 118.32, -0.07 112.03, 0 90 M0 90 C-2.48 74.82, -0.06 59.27, 0 30 M0 90 C0.32 67.21, 0.5 43.14, 0 30 M0 30 C-0.88 8.13, 11.34 -0.76, 30 0 M0 30 C0.69 7.97, 9.79 0.52, 30 0" stroke="#343a40" stroke-width="2" fill="none"></path></g><g stroke-linecap="round"><g transform="translate(590 131.3823848157935) rotate(0 19.18995028483681 -0.19745844382927658)"><path d="M0.1 0.11 C6.54 -0.16, 32.98 -0.75, 39.68 -0.69 M-1.3 -0.87 C4.85 -1.09, 31.73 0.61, 38.57 0.49" stroke="#343a40" stroke-width="2" fill="none"></path></g></g><g stroke-linecap="round"><g transform="translate(630 131.3823848157935) rotate(0 0.18865036312490702 -40.96240510983395)"><path d="M0.11 -0.32 C-0.16 -13.61, -0.75 -66.47, -0.69 -79.66 M-1.28 -1.53 C-1.25 -15.21, 1.45 -68.27, 1.66 -81.61" stroke="#343a40" stroke-width="2" fill="none"></path></g></g><g stroke-linecap="round"><g transform="translate(630 51.3823848157935) rotate(0 -19.35782434703782 -19.90905586270617)"><path d="M-0.32 -0.69 C-6.94 -7.29, -33.13 -33.02, -39.66 -39.51 M1.72 1.56 C-5.05 -5.41, -33.48 -34.76, -40.43 -41.38" stroke="#343a40" stroke-width="2" fill="none"></path></g></g><g stroke-linecap="round"><g transform="translate(630 51.3823848157935) rotate(0 19.89838261269034 -20.498506939392513)"><path d="M-0.69 0.34 C6.04 -6.19, 33.65 -32.78, 40.49 -39.48 M1.15 -0.53 C7.75 -7.39, 33.36 -35, 39.79 -41.33" stroke="#343a40" stroke-width="2" fill="none"></path></g></g><g stroke-linecap="round" transform="translate(90 291.08441620729866) rotate(0 80 60)"><path d="M30 0 M30 0 C62.81 1.39, 92.32 -0.03, 130 0 M30 0 C61.26 0.34, 92.19 1.8, 130 0 M130 0 C149.85 -0.45, 159.33 11.55, 160 30 M130 0 C151.1 -0.17, 160.38 11.07, 160 30 M160 30 C158.34 50.13, 158.31 67.4, 160 90 M160 30 C160.36 54.4, 159.96 77.96, 160 90 M160 90 C158.92 108.08, 150.22 120.5, 130 120 M160 90 C160.09 111.97, 150.91 118.52, 130 120 M130 120 C93.24 119.86, 56.96 122.07, 30 120 M130 120 C103.73 119.34, 77.36 119.27, 30 120 M30 120 C8.78 119.08, -0.99 110.75, 0 90 M30 120 C10.58 122.08, 2.27 108.92, 0 90 M0 90 C-0.02 66.35, 0.99 42.15, 0 30 M0 90 C-0.46 76.2, -1.05 62.42, 0 30 M0 30 C1.58 10.95, 8.17 1.83, 30 0 M0 30 C1.88 11.37, 8.58 -1.16, 30 0" stroke="#343a40" stroke-width="2" fill="none"></path></g><g stroke-linecap="round"><g transform="translate(49.77252294661477 351.82663872925565) rotate(0 20.228741261837996 -0.3918610355537382)"><path d="M1.11 1.04 C7.7 1, 33.73 0.51, 40.23 0.19 M0.23 0.54 C6.63 0.08, 32.88 -1.74, 39.4 -1.83" stroke="#343a40" stroke-width="2" fill="none"></path></g></g><g stroke-linecap="round"><g transform="translate(50.80044706555083 351.08441620729866) rotate(0 0.17377949588700403 -39.836604347452514)"><path d="M1.04 0.23 C1 -13.27, 0.51 -66.35, 0.19 -79.9 M0.13 -0.69 C-0.09 -13.47, -0.9 -65.04, -0.65 -78.31" stroke="#343a40" stroke-width="2" fill="none"></path></g></g><g stroke-linecap="round"><g transform="translate(50.80044706555083 271.08441620729866) rotate(0 -20.285220797630018 -20.328455880656833)"><path d="M0.23 0.19 C-6.6 -6.79, -33.02 -34.24, -39.9 -40.85 M-1.11 -0.75 C-8.19 -7.08, -34.53 -32.97, -40.8 -39.76" stroke="#343a40" stroke-width="2" fill="none"></path></g></g><g stroke-linecap="round"><g transform="translate(50.80044706555083 271.08441620729866) rotate(0 20.12551268551499 -20.493815186247232)"><path d="M0.19 0.1 C6.55 -6.79, 32.42 -34.29, 39.15 -41.08 M-1.16 -0.9 C5.47 -7.69, 34.54 -33.65, 41.41 -40.12" stroke="#343a40" stroke-width="2" fill="none"></path></g></g><g stroke-linecap="round" transform="translate(750 290.27053103111683) rotate(0 80 60)"><path d="M30 0 M30 0 C59.81 1.62, 92.11 1.87, 130 0 M30 0 C68.63 1, 108.42 0.15, 130 0 M130 0 C150.33 0.93, 160.42 9.53, 160 30 M130 0 C148.64 -1.75, 160.99 8.22, 160 30 M160 30 C159.09 44.54, 162.31 58.33, 160 90 M160 30 C159.79 53.79, 159.71 77.93, 160 90 M160 90 C160.79 108.72, 151.12 120.69, 130 120 M160 90 C161.7 108.65, 148.99 117.85, 130 120 M130 120 C91.56 120.12, 57.1 119.76, 30 120 M130 120 C97.96 119.92, 67.16 120.45, 30 120 M30 120 C11.97 119.06, 1.65 109.43, 0 90 M30 120 C10.55 119.77, -0.8 110.94, 0 90 M0 90 C-0.65 77.48, 0.83 64.15, 0 30 M0 90 C-1.39 70.21, 0.34 49.19, 0 30 M0 30 C-1.23 8.99, 10.95 1.21, 30 0 M0 30 C1.56 11.99, 7.81 -2.14, 30 0" stroke="#343a40" stroke-width="2" fill="none"></path></g><g stroke-linecap="round"><g transform="translate(910 350.27053103111683) rotate(0 20.298456495134246 -0.16376192235163956)"><path d="M-1.08 0.55 C5.45 0.8, 32.3 0.8, 39.32 0.7 M0.55 -0.21 C7.47 -0.23, 34.96 -1.29, 41.68 -1.06" stroke="#343a40" stroke-width="2" fill="none"></path></g></g><g stroke-linecap="round"><g transform="translate(950 350.27053103111683) rotate(0 0.06822790813976098 -39.44866900656373)"><path d="M0.55 -0.68 C0.8 -13.65, 0.8 -65.66, 0.7 -78.92 M-0.63 1.58 C-0.39 -11.61, 0.16 -67.03, 0.12 -80.48" stroke="#343a40" stroke-width="2" fill="none"></path></g></g><g stroke-linecap="round"><g transform="translate(950 270.27053103111683) rotate(0 -19.068171755988146 -19.694914070144307)"><path d="M-0.68 0.7 C-6.98 -6.07, -32.32 -33.24, -38.92 -40.09 M1.17 0.02 C-5.11 -6.6, -32.25 -32.04, -39.31 -38.6" stroke="#343a40" stroke-width="2" fill="none"></path></g></g><g stroke-linecap="round"><g transform="translate(950 270.27053103111683) rotate(0 19.758710668217418 -19.59707993529736)"><path d="M0.7 1.08 C7.26 -5.52, 33.43 -33.58, 39.91 -40.27 M-0.39 0.6 C5.95 -5.76, 32.42 -31.96, 38.92 -38.88" stroke="#343a40" stroke-width="2" fill="none"></path></g></g></svg>