<svg version="1.1" xmlns="http://www.w3.org/2000/svg" viewBox="0 0 1090.3636366579465 912.9681531232054" width="1090.3636366579465" height="912.9681531232054">
  <!-- svg-source:excalidraw -->
  
  <defs>
    <style>
      @font-face {
        font-family: "Virgil";
        src: url("https://excalidraw.com/Virgil.woff2");
      }
      @font-face {
        font-family: "Cascadia";
        src: url("https://excalidraw.com/Cascadia.woff2");
      }
    </style>
  </defs>
  <rect x="0" y="0" width="1090.3636366579465" height="912.9681531232054" fill="#ffffff"></rect><g stroke-linecap="round" transform="translate(595.2598447952257 336.6751995869199) rotate(0 60 60)"><path d="M23.96 11.56 C23.96 11.56, 23.96 11.56, 23.96 11.56 M23.96 11.56 C23.96 11.56, 23.96 11.56, 23.96 11.56 M7.42 36.55 C18.73 25.55, 26.5 14.48, 32.47 9.77 M7.05 35.41 C17.38 25.4, 25.9 16.08, 32.92 8.08 M7.4 45.49 C15.61 35.13, 21.21 26.59, 40.66 3.65 M6.56 43.06 C18.58 29.01, 31.03 14.12, 41.4 4.78 M5.7 52.64 C17.88 33.17, 32.54 18.4, 49.18 1.38 M5.8 52.5 C21.99 33.74, 38.02 15.04, 48.16 0.98 M-0.28 61.77 C12.68 51.22, 22.87 39.83, 54.6 3.31 M0.88 62.72 C15.65 45.2, 32.51 26.26, 53.03 2.45 M3.73 65.64 C19.56 49.31, 32.44 33.81, 58.71 2.72 M1.47 67.75 C23.54 42.27, 45.64 18.72, 57.26 2.46 M1.64 73.12 C17.83 58.07, 27.78 44.5, 61.8 2.73 M3.04 72.36 C19.05 53.69, 34.65 36.59, 62.22 3.22 M4.27 76.58 C28.08 46.96, 54.63 19.36, 67.52 2.5 M3.65 75.83 C30.57 49.12, 55.59 20.8, 67.85 2.51 M5.2 81.15 C28.5 54.27, 52.97 29.99, 73.24 2.95 M5.27 81.84 C27.33 55.39, 51.4 29.11, 72.48 3.99 M5.73 84.01 C32.32 58.3, 56.19 30.19, 77.04 3.78 M6.28 86.17 C32.84 56.24, 59.79 27.26, 77.31 4.68 M10.51 90.13 C35.03 60.55, 57.3 35.11, 84.08 5.24 M8.59 88.95 C35.91 58.6, 62.85 26.75, 82.29 5.19 M10.6 93.73 C37.06 62.87, 65.93 31.6, 86.89 7.6 M12.18 92.68 C29.91 72.06, 47.29 49.93, 85.93 7.77 M15.77 97.85 C39.01 62.47, 68.36 34.07, 87.7 8.91 M14.91 96.21 C44.3 62.83, 73.6 27.99, 89.09 10.49 M16.87 100.02 C40.81 71.78, 66.99 43.35, 90.8 12.5 M16.38 99.03 C44.76 69.05, 70.42 38.32, 92.88 11.32 M21.45 100.6 C36.42 81.36, 53.23 63.19, 97.56 12.48 M19.11 101.95 C37.17 83.12, 52.53 63.62, 95.15 14.05 M22.75 105.44 C45.95 72.73, 72.01 45.54, 98.69 16.76 M22.92 104.4 C50.39 73.22, 77.99 41.88, 100.26 15.86 M26.11 108.18 C46.63 80.28, 72.15 51.97, 104.64 17.25 M24.96 107.19 C42.3 87.8, 59.49 67.59, 103.01 18.03 M29.23 109.26 C51.66 80.9, 79.66 50.7, 106.62 20.67 M27.35 109.97 C54.84 79.42, 82.11 46.67, 107.08 21.2 M32.52 114.13 C52.4 89.95, 72.7 66.53, 108.17 24.75 M31.14 113.99 C57.11 81.76, 83.5 51.78, 108.19 24.11 M33.46 114.53 C52.09 93.46, 72.47 72.38, 111.57 28.03 M34.11 115.88 C61.72 83.13, 91.54 50.75, 109.98 27.88 M39.57 115.72 C66.08 84.36, 92.41 52.7, 114.13 33.29 M39.24 115.36 C64 87.57, 88.74 58.19, 111.75 31.96 M42.78 118.27 C63.16 95.59, 82.18 73.73, 115.9 36.37 M42.61 117.55 C59.75 99.9, 76.12 80.42, 115.76 35.43 M46.37 118.5 C69.37 94.81, 87.98 70.15, 116.66 40.88 M47.8 119.88 C67.44 96.99, 88.72 74.11, 115.64 38.23 M51.37 118.79 C65.44 102.98, 79.73 86.31, 120.23 41.73 M51.83 120.92 C72.9 95.56, 95.36 69.72, 118.23 43.16 M54.18 121.52 C80.68 95.49, 100.51 67.12, 117.49 50.6 M56.25 120.83 C73.87 102.02, 91.95 80.76, 118.14 49.87 M62.88 120.6 C78.6 100.27, 92.31 85.13, 116.01 57.42 M62.97 119.37 C72.94 108.05, 85.54 92.71, 118.79 56.88 M66.34 117.27 C85.73 101.71, 99.02 82.35, 117.76 61.45 M68.88 118.22 C87.97 96.64, 105.68 75.37, 117.69 61.03 M75.13 118.26 C89.9 100.14, 102.48 85, 117.44 68.96 M74.2 117.6 C84.58 106.52, 95.81 94.65, 118.28 67.84 M83.18 114.34 C95.99 103.08, 108.28 86.3, 118.77 72.23 M81.69 115.37 C95.41 99.19, 110.45 82.68, 119.67 72.87 M85.54 119.33 C94.02 109.29, 98.14 100.06, 111.03 87.17 M85.95 118.53 C93.14 107.58, 102.2 98.71, 112.68 87.89" stroke="#228be6" stroke-width="0.5" fill="none"></path><path d="M79.31 2.8 C88 4.63, 97.18 11.33, 103.6 18.09 C110.02 24.85, 115.45 34.39, 117.83 43.36 C120.21 52.32, 119.97 62.82, 117.88 71.87 C115.79 80.92, 111.13 90.38, 105.29 97.64 C99.45 104.9, 91.16 111.61, 82.84 115.45 C74.52 119.28, 64.5 121.46, 55.37 120.67 C46.24 119.88, 35.88 115.87, 28.07 110.71 C20.26 105.55, 13.08 97.73, 8.52 89.71 C3.96 81.69, 1.21 71.8, 0.72 62.59 C0.23 53.37, 1.7 42.93, 5.59 34.41 C9.48 25.89, 16.51 17.15, 24.04 11.47 C31.57 5.79, 41.37 1.61, 50.78 0.31 C60.18 -0.99, 75.12 2.68, 80.48 3.66 C85.84 4.64, 83.26 5.37, 82.92 6.2" stroke="#000000" stroke-width="1.5" fill="none" stroke-dasharray="1.5 7"></path></g><g stroke-linecap="round" transform="translate(837.6995212389329 744.1286664054969) rotate(357.6027222807585 80 60)"><path d="M30 0 M30 0 C50.17 -1.54, 70.21 -1.73, 130 0 M30 0 C68.34 0.24, 106.57 1.61, 130 0 M130 0 C149.62 0.65, 159.29 9.79, 160 30 M130 0 C149.23 0.73, 161.19 11.02, 160 30 M160 30 C162.35 52.28, 158.92 76.87, 160 90 M160 30 C160.32 48.89, 159.47 65.96, 160 90 M160 90 C161.49 109.8, 149.03 119.12, 130 120 M160 90 C160.37 108.19, 150.09 120.59, 130 120 M130 120 C99.49 119.01, 69.4 119.12, 30 120 M130 120 C92.79 120.25, 53.33 119.1, 30 120 M30 120 C10.51 120.71, 1.58 108.43, 0 90 M30 120 C8.01 121.66, -0.36 110.74, 0 90 M0 90 C0.54 67.27, 1.5 48.63, 0 30 M0 90 C-0.17 69.4, -1.05 47.7, 0 30 M0 30 C1.85 11.51, 10.29 -1.81, 30 0 M0 30 C1.92 11.72, 8.3 1.65, 30 0" stroke="#343a40" stroke-width="2" fill="none"></path></g><g stroke-linecap="round"><g transform="translate(997.6061213973244 799.9312873234412) rotate(357.6027222807585 20.350898850453063 -0.1332738127621269)"><path d="M-0.47 -1.06 C5.86 -1.21, 32.07 -1.35, 38.99 -1.18 M1.49 0.99 C8.09 0.97, 34.61 -0.31, 41.17 -0.26" stroke="#343a40" stroke-width="2" fill="none"></path></g></g><g stroke-linecap="round"><g transform="translate(1035.9328909925334 799.1496574256162) rotate(357.6027222807585 -0.13398223633748785 -39.727419024789924)"><path d="M-1.06 -1.01 C-1.21 -14.09, -1.35 -65.64, -1.18 -78.95 M0.58 1.07 C0.8 -12.29, 1.15 -67.01, 0.92 -80.52" stroke="#343a40" stroke-width="2" fill="none"></path></g></g><g stroke-linecap="round"><g transform="translate(1033.4452080732678 720.0057019936648) rotate(357.6027222807585 -19.346921774214138 -19.603262801734672)"><path d="M-1.01 -1.18 C-7.43 -7.67, -32.31 -33.47, -38.95 -40.02 M0.66 0.82 C-5.78 -5.38, -32.84 -31.8, -39.35 -38.5" stroke="#343a40" stroke-width="2" fill="none"></path></g></g><g stroke-linecap="round"><g transform="translate(1033.39847606761 718.3853083565264) rotate(357.6027222807585 19.398771315813065 -19.90981438755989)"><path d="M-1.18 1.05 C5.66 -5.59, 33.19 -33.93, 39.98 -40.87 M0.4 0.55 C7.18 -5.87, 32.66 -33.1, 39.01 -39.79" stroke="#343a40" stroke-width="2" fill="none"></path></g></g><g stroke-linecap="round" transform="translate(336.4244366177311 760.050602301224) rotate(358.8730471569084 80 60)"><path d="M30 0 M30 0 C51.52 -2.32, 72.32 -1.84, 130 0 M30 0 C51.37 -0.16, 71.98 -0.14, 130 0 M130 0 C150.63 1.04, 160.89 11.93, 160 30 M130 0 C151.78 0.87, 162.17 8.25, 160 30 M160 30 C159.33 42.25, 160.7 58, 160 90 M160 30 C159.58 45.14, 159.24 61.41, 160 90 M160 90 C158.42 110.08, 150.51 120.23, 130 120 M160 90 C160.54 108.77, 150.76 119.48, 130 120 M130 120 C91.39 119.35, 54.46 122.77, 30 120 M130 120 C104.62 121.04, 77.74 119.39, 30 120 M30 120 C11.44 119.69, 0.64 111.18, 0 90 M30 120 C10.24 121.5, 0.69 108.65, 0 90 M0 90 C-0.26 65.87, -0.71 46.11, 0 30 M0 90 C0.53 77.98, -1.13 66.5, 0 30 M0 30 C1.5 8.52, 11.43 0.59, 30 0 M0 30 C-2 9.81, 11.77 -0.65, 30 0" stroke="#343a40" stroke-width="2" fill="none"></path></g><g stroke-linecap="round"><g transform="translate(496.409465602198 818.1031822482219) rotate(358.8730471569084 19.013715817523234 0.2125882493728568)"><path d="M-0.02 -0.87 C6.76 -1.14, 33.03 -0.9, 39.52 -0.58 M-1.5 1.29 C5.19 1.69, 31.2 0.99, 38.33 0.66" stroke="#343a40" stroke-width="2" fill="none"></path></g></g><g stroke-linecap="round"><g transform="translate(535.599180041468 817.6900595053376) rotate(358.8730471569084 0.4218904626013682 -40.77551648020744)"><path d="M-0.87 -0.48 C-1.14 -13.98, -0.9 -67.78, -0.58 -81.07 M0.88 -1.77 C0.92 -15.17, 1.83 -67.22, 1.83 -80.1" stroke="#343a40" stroke-width="2" fill="none"></path></g></g><g stroke-linecap="round"><g transform="translate(534.4504324854016 738.0991167986103) rotate(358.8730471569084 -19.80008142988663 -19.382013889635346)"><path d="M-0.48 -0.58 C-7.32 -6.92, -34.45 -32.43, -41.07 -38.93 M1.47 1.73 C-5.01 -4.85, -31.83 -33.25, -38.93 -40.5" stroke="#343a40" stroke-width="2" fill="none"></path></g></g><g stroke-linecap="round"><g transform="translate(534.4378526961206 737.3115868974237) rotate(358.8730471569084 20.24398390650748 -19.62780151662082)"><path d="M-0.58 -1.07 C6.41 -7.7, 34.24 -33.67, 41.07 -40.23 M1.32 0.98 C8.32 -5.42, 34.26 -32.1, 40.68 -38.81" stroke="#343a40" stroke-width="2" fill="none"></path></g></g><g stroke-linecap="round" transform="translate(817.0711176038149 103.04504071606425) rotate(358.23378794838356 80 60)"><path d="M30 0 M30 0 C57.81 0.51, 82.71 0.19, 130 0 M30 0 C59.46 0.13, 88.84 0.46, 130 0 M130 0 C150.76 1.89, 158.48 8.45, 160 30 M130 0 C149.17 0.09, 159.48 8.73, 160 30 M160 30 C159.32 52.23, 160.18 70.51, 160 90 M160 30 C160.14 45.61, 160.21 60.95, 160 90 M160 90 C158.93 110.66, 149.55 121.74, 130 120 M160 90 C159.61 111.87, 150.09 118.31, 130 120 M130 120 C90.54 120.08, 52.46 121.15, 30 120 M130 120 C107.68 121.04, 86.26 120.83, 30 120 M30 120 C11.3 120.6, -1.18 111.56, 0 90 M30 120 C12 121.28, 0.3 108.34, 0 90 M0 90 C0.3 74.41, 1.06 55.41, 0 30 M0 90 C-1.24 78.16, -0.21 64.01, 0 30 M0 30 C-0.16 11.54, 9.44 1.1, 30 0 M0 30 C-1.39 7.77, 8.3 -0.2, 30 0" stroke="#343a40" stroke-width="2" fill="none"></path></g><g stroke-linecap="round"><g transform="translate(977.0156850222656 159.9544762382393) rotate(358.23378794838356 20.277444626730812 -0.25280392983040656)"><path d="M1.07 -0.23 C7.89 -0.12, 33.92 -0.4, 40.39 -0.42 M0.17 -1.4 C6.92 -1.03, 33.16 0.54, 39.64 0.89" stroke="#343a40" stroke-width="2" fill="none"></path></g></g><g stroke-linecap="round"><g transform="translate(1015.785742009723 159.39651510196927) rotate(358.23378794838356 -1.008801998925037 -39.86991799473799)"><path d="M-0.23 0.39 C-0.12 -13.14, -0.4 -66.79, -0.42 -80.13 M-1.81 -0.45 C-1.8 -13.28, -1.67 -65.11, -1.59 -78.66" stroke="#343a40" stroke-width="2" fill="none"></path></g></g><g stroke-linecap="round"><g transform="translate(1013.9289707842827 80.02224283806208) rotate(358.23378794838356 -20.377367317187577 -20.411523979901176)"><path d="M0.39 -0.42 C-6.48 -7.12, -33.46 -33.91, -40.13 -40.4 M-0.87 -1.69 C-8 -8.2, -34.59 -32.46, -41.14 -39.07" stroke="#343a40" stroke-width="2" fill="none"></path></g></g><g stroke-linecap="round"><g transform="translate(1013.8969078107159 78.79064379584815) rotate(358.23378794838356 19.5884760200978 -20.835762423839697)"><path d="M-0.42 -0.13 C6.22 -6.8, 32.76 -33.06, 39.6 -39.62 M1.56 -1.24 C8.02 -8.31, 32 -34.83, 38.44 -41.54" stroke="#343a40" stroke-width="2" fill="none"></path></g></g><g stroke-linecap="round" transform="translate(436.5803662296196 101.65863491717755) rotate(358.71982019114233 80 60)"><path d="M30 0 M30 0 C62.56 0.74, 97.5 0.99, 130 0 M30 0 C70.6 -1.14, 108.54 -0.74, 130 0 M130 0 C150.08 -0.45, 158.89 10.91, 160 30 M130 0 C151.48 -0.91, 158.77 11.71, 160 30 M160 30 C160.03 45.81, 159.79 65.29, 160 90 M160 30 C160.47 48.47, 161.01 67.23, 160 90 M160 90 C161.62 110.08, 148.53 121.83, 130 120 M160 90 C162.25 109.02, 149.61 120.58, 130 120 M130 120 C94.71 120.66, 62.58 119.86, 30 120 M130 120 C94.38 120.06, 58.94 121.52, 30 120 M30 120 C11.11 120.26, -1.44 109.81, 0 90 M30 120 C11.7 117.76, 0.86 112.13, 0 90 M0 90 C1.58 68.98, -1.56 46.4, 0 30 M0 90 C1.29 69.94, 1.07 49.85, 0 30 M0 30 C-1.94 8.52, 9.82 1.47, 30 0 M0 30 C-1.08 11.93, 10.84 1.64, 30 0" stroke="#343a40" stroke-width="2" fill="none"></path></g><g stroke-linecap="round"><g transform="translate(596.5467101422482 159.4220928697505) rotate(358.71982019114233 20.11143038868903 -0.3879795235061465)"><path d="M-0.4 0.38 C6.44 0.49, 33.7 0.44, 40.62 0.53 M1.59 -0.47 C8.37 -0.7, 33.43 -1.23, 40 -1.31" stroke="#343a40" stroke-width="2" fill="none"></path></g></g><g stroke-linecap="round"><g transform="translate(635.659787246866 158.99148749159576) rotate(358.71982019114233 -0.17371814306358146 -39.866182541069065)"><path d="M0.38 0.62 C0.49 -12.45, 0.44 -65.48, 0.53 -78.84 M-0.88 -0.1 C-0.87 -13.44, -0.39 -66.76, -0.13 -80.36" stroke="#343a40" stroke-width="2" fill="none"></path></g></g><g stroke-linecap="round"><g transform="translate(634.31915799997 79.43335716670845) rotate(358.71982019114233 -19.27891789849383 -20.085878195133773)"><path d="M0.62 0.53 C-5.78 -6.04, -32.15 -32.5, -38.84 -39.07 M-0.51 -0.23 C-6.94 -7.16, -32.59 -33.97, -39.18 -40.71" stroke="#343a40" stroke-width="2" fill="none"></path></g></g><g stroke-linecap="round"><g transform="translate(634.3082256013867 78.55265081462858) rotate(358.71982019114233 20.141837717932674 -20.134795538600883)"><path d="M0.53 1.16 C7.29 -5.54, 34.16 -32.53, 40.93 -39.54 M-0.65 0.72 C6 -6.39, 33.54 -34.63, 40.47 -41.43" stroke="#343a40" stroke-width="2" fill="none"></path></g></g><g stroke-linecap="round" transform="translate(35.75634026216966 116.44702217379381) rotate(0.4767685854974868 80 60)"><path d="M30 0 M30 0 C66.74 -0.21, 102.26 -2.49, 130 0 M30 0 C52.03 -0.59, 74.97 0.6, 130 0 M130 0 C149.21 -1.07, 161.49 9.8, 160 30 M130 0 C148.88 -1.01, 160.37 8.19, 160 30 M160 30 C160.62 47.17, 160.81 66.02, 160 90 M160 30 C159.94 52.48, 160.81 77.4, 160 90 M160 90 C159.15 109.66, 150.51 120.71, 130 120 M160 90 C161.82 108.2, 148.01 121.66, 130 120 M130 120 C101.75 121.9, 73.69 119.42, 30 120 M130 120 C92.32 119.83, 54.29 121.29, 30 120 M30 120 C8.05 120.75, 1.85 111.51, 0 90 M30 120 C10.33 117.92, 1.92 111.72, 0 90 M0 90 C-2.17 76.26, 1.11 62.29, 0 30 M0 90 C-0.38 68.6, 1.1 46.91, 0 30 M0 30 C1.67 10.73, 11.42 1.07, 30 0 M0 30 C0.24 8.41, 9.7 1.35, 30 0" stroke="#343a40" stroke-width="2" fill="none"></path></g><g stroke-linecap="round"><g transform="translate(195.7547607484001 177.2836724262088) rotate(0.4767685854974868 20.544855050486518 -0.22850777506937447)"><path d="M0.93 0.46 C7.7 0.11, 34.77 -0.76, 41.13 -0.91 M-0.04 -0.35 C6.62 -0.06, 33.86 -0.02, 40.78 0.15" stroke="#343a40" stroke-width="2" fill="none"></path></g></g><g stroke-linecap="round"><g transform="translate(236.08418009712938 177.44863534077012) rotate(0.4767685854974868 0.20448894564529496 -39.89881032109224)"><path d="M0.46 1.13 C0.11 -12.51, -0.76 -67.42, -0.91 -80.93 M-0.77 0.68 C-0.84 -12.92, 1.43 -66.66, 1.32 -79.88" stroke="#343a40" stroke-width="2" fill="none"></path></g></g><g stroke-linecap="round"><g transform="translate(236.5816983148958 97.28342115347186) rotate(0.4767685854974868 -19.89881032109261 -19.60522979792586)"><path d="M1.13 -0.91 C-5.85 -7.73, -34.08 -33.87, -40.93 -40.43 M0.27 1.22 C-6.42 -5.46, -31.88 -32.4, -38.7 -39.12" stroke="#343a40" stroke-width="2" fill="none"></path></g></g><g stroke-linecap="round"><g transform="translate(236.57843579795662 97.60981447466838) rotate(0.4767685854974868 19.32699053883553 -19.376354962107143)"><path d="M-0.91 -0.93 C5.61 -7.78, 32.79 -33.33, 39.57 -39.95 M0.81 1.2 C7.09 -4.93, 32.05 -31.57, 38.39 -38.39" stroke="#343a40" stroke-width="2" fill="none"></path></g></g><g stroke-linecap="round" transform="translate(36.30157168617018 736.2002029902178) rotate(1.0066174165036306 80 60)"><path d="M30 0 M30 0 C68.7 0.86, 108.4 -0.33, 130 0 M30 0 C64.03 1.14, 99.03 -0.09, 130 0 M130 0 C149.12 0.32, 158.42 10.08, 160 30 M130 0 C150.59 0.27, 160.54 8.77, 160 30 M160 30 C159.52 51.61, 159.94 68.5, 160 90 M160 30 C160.42 53.73, 160.94 77.74, 160 90 M160 90 C158.43 108.27, 151.44 119.69, 130 120 M160 90 C160.74 111.36, 150.24 121.5, 130 120 M130 120 C98.73 121.89, 64.24 119.34, 30 120 M130 120 C101.31 119.95, 72.62 119.17, 30 120 M30 120 C8.19 121.67, 1.5 108.52, 0 90 M30 120 C11.65 120.68, -2 109.81, 0 90 M0 90 C-1.04 65.44, -1.31 44.57, 0 30 M0 90 C0.65 68.32, 0.82 45.31, 0 30 M0 30 C-1.38 9.74, 11.17 0.95, 30 0 M0 30 C0.93 11.13, 11.04 -2.06, 30 0" stroke="#343a40" stroke-width="2" fill="none"></path></g><g stroke-linecap="round"><g transform="translate(196.2900951115946 797.9508340565299) rotate(1.0066174165036306 19.647558432817448 -0.22209578641741246)"><path d="M-0.43 0.05 C6.34 0.09, 32.9 -0.78, 39.73 -0.66 M1.54 -0.97 C8.21 -0.7, 32.22 0.56, 38.64 0.53" stroke="#343a40" stroke-width="2" fill="none"></path></g></g><g stroke-linecap="round"><g transform="translate(236.99942876178915 798.3174252098725) rotate(1.0066174165036306 0.15840146415868617 -40.77900140446036)"><path d="M0.05 -0.27 C0.09 -13.44, -0.78 -66.08, -0.66 -79.45 M-1.38 -1.46 C-0.86 -14.95, 1.4 -68.3, 1.7 -81.29" stroke="#343a40" stroke-width="2" fill="none"></path></g></g><g stroke-linecap="round"><g transform="translate(238.03703874107015 717.9870879557784) rotate(1.0066174165036306 -19.162426346307626 -19.67216261514477)"><path d="M-0.27 -0.66 C-6.77 -7.21, -32.75 -32.57, -39.45 -39.23 M1.79 1.6 C-4.79 -5.29, -32.9 -34.07, -40.11 -40.95" stroke="#343a40" stroke-width="2" fill="none"></path></g></g><g stroke-linecap="round"><g transform="translate(238.03610925429416 718.6760777261843) rotate(1.0066174165036306 20.0537224471569 -19.963753288984663)"><path d="M-0.66 0.55 C6.12 -6.15, 34.1 -33.87, 40.77 -40.48 M1.19 -0.21 C7.88 -6.72, 34.05 -32.39, 40.23 -39.19" stroke="#343a40" stroke-width="2" fill="none"></path></g></g><g stroke-linecap="round"><g transform="translate(318.3209688600451 60.07158798563614) rotate(89.32596310201549 -1.623882087211939 101.27794557554444)"><path d="M0.55 0.77 C0.16 34.42, -2.3 167.73, -2.6 201.23 M-0.62 0.13 C-1.19 33.98, -3.65 168.61, -3.8 202.43" stroke="#343a40" stroke-width="1" fill="none"></path></g><g transform="translate(318.3209688600451 60.07158798563614) rotate(89.32596310201549 -1.623882087211939 101.27794557554444)"><path d="M11.64 28.33 C6.72 22.79, 4.86 12.47, -0.33 1.09 M10.47 29.36 C7.64 23.21, 5.78 17.48, 0.38 1.58" stroke="#343a40" stroke-width="1" fill="none"></path></g><g transform="translate(318.3209688600451 60.07158798563614) rotate(89.32596310201549 -1.623882087211939 101.27794557554444)"><path d="M-8.88 28 C-8.11 22.46, -4.27 12.22, -0.33 1.09 M-10.05 29.03 C-8.34 22.9, -5.67 17.24, 0.38 1.58" stroke="#343a40" stroke-width="1" fill="none"></path></g><g transform="translate(318.3209688600451 60.07158798563614) rotate(89.32596310201549 -1.623882087211939 101.27794557554444)"><path d="M-12.42 173.32 C-12.18 183.41, -8.57 188.8, -4.68 202.75 M-13.59 174.34 C-12.04 180.68, -9.54 187.48, -3.97 203.24" stroke="#343a40" stroke-width="1" fill="none"></path></g><g transform="translate(318.3209688600451 60.07158798563614) rotate(89.32596310201549 -1.623882087211939 101.27794557554444)"><path d="M8.1 173.57 C2.65 183.69, 0.57 189.01, -4.68 202.75 M6.93 174.6 C3.94 180.93, 1.9 187.67, -3.97 203.24" stroke="#343a40" stroke-width="1" fill="none"></path></g></g><g stroke-linecap="round"><g transform="translate(695.3726365686751 265.66818514699116) rotate(89.32596310201549 3.670986331479412 -100.96557496697824)"><path d="M0.77 -0.48 C1.76 -33.87, 4.42 -166.33, 5.25 -199.8 M-0.28 -1.77 C1.16 -35.54, 6.76 -168.37, 7.63 -201.46" stroke="#343a40" stroke-width="1" fill="none"></path></g><g transform="translate(695.3726365686751 265.66818514699116) rotate(89.32596310201549 3.670986331479412 -100.96557496697824)"><path d="M-9.64 -29.96 C-4.88 -22.2, -4.98 -15.93, 1.09 -2.05 M-8.62 -29.42 C-5.52 -20.49, -2.06 -11.8, 1.58 -0.44" stroke="#343a40" stroke-width="1" fill="none"></path></g><g transform="translate(695.3726365686751 265.66818514699116) rotate(89.32596310201549 3.670986331479412 -100.96557496697824)"><path d="M10.87 -29.5 C10.61 -21.72, 5.49 -15.56, 1.09 -2.05 M11.9 -28.96 C8.75 -20.15, 5.98 -11.59, 1.58 -0.44" stroke="#343a40" stroke-width="1" fill="none"></path></g><g transform="translate(695.3726365686751 265.66818514699116) rotate(89.32596310201549 3.670986331479412 -100.96557496697824)"><path d="M16.09 -173.99 C15.97 -180.05, 11.25 -187.71, 7.95 -203.03 M17.11 -173.45 C14.33 -181.81, 12.05 -190.43, 8.44 -201.42" stroke="#343a40" stroke-width="1" fill="none"></path></g><g transform="translate(695.3726365686751 265.66818514699116) rotate(89.32596310201549 3.670986331479412 -100.96557496697824)"><path d="M-4.42 -174.71 C0.49 -180.73, 0.78 -188.21, 7.95 -203.03 M-3.39 -174.18 C0.05 -182.34, 4.01 -190.74, 8.44 -201.42" stroke="#343a40" stroke-width="1" fill="none"></path></g></g><g stroke-linecap="round"><g transform="translate(-125.1883880795159 481.7980374517465) rotate(89.32596310201549 229.4582231141801 5.314758987948153)"><path d="M0.89 -0.12 C77.07 1.75, 380.53 8.88, 456.61 10.6 M-0.1 -1.23 C76.53 0.86, 382.88 9.82, 459.01 11.86" stroke="#343a40" stroke-width="1" fill="none"></path></g><g transform="translate(-125.1883880795159 481.7980374517465) rotate(89.32596310201549 229.4582231141801 5.314758987948153)"><path d="M29.11 -10.68 C20.98 -6.68, 12.89 -4.43, 1.4 0.11 M29.09 -8.84 C19.9 -5.71, 10.92 -4.15, 1.81 0.86" stroke="#343a40" stroke-width="1" fill="none"></path></g><g transform="translate(-125.1883880795159 481.7980374517465) rotate(89.32596310201549 229.4582231141801 5.314758987948153)"><path d="M28.63 9.83 C20.74 8.49, 12.76 5.4, 1.4 0.11 M28.61 11.67 C19.68 8.17, 10.86 3.1, 1.81 0.86" stroke="#343a40" stroke-width="1" fill="none"></path></g><g transform="translate(-125.1883880795159 481.7980374517465) rotate(89.32596310201549 229.4582231141801 5.314758987948153)"><path d="M430.34 20.35 C437.13 18.97, 443.84 16.26, 459.52 12.1 M430.32 22.19 C439.63 18.98, 449.05 14.38, 459.93 12.84" stroke="#343a40" stroke-width="1" fill="none"></path></g><g transform="translate(-125.1883880795159 481.7980374517465) rotate(89.32596310201549 229.4582231141801 5.314758987948153)"><path d="M430.92 -0.16 C437.45 3.8, 444.01 6.44, 459.52 12.1 M430.9 1.68 C439.91 5.1, 449.14 7.13, 459.93 12.84" stroke="#343a40" stroke-width="1" fill="none"></path></g></g><g stroke-linecap="round"><g transform="translate(668.142607123804 653.8177258101314) rotate(89.32596310201549 -1.3886840600872006 150.8588814790237)"><path d="M-0.95 0.05 C-1.32 50.2, -2.44 251.04, -2.75 301.08 M0.76 -0.97 C0.3 49.37, -2.84 252.32, -3.53 302.69" stroke="#343a40" stroke-width="1" fill="none"></path></g><g transform="translate(668.142607123804 653.8177258101314) rotate(89.32596310201549 -1.3886840600872006 150.8588814790237)"><path d="M9.22 28.81 C6.75 21.46, 2.87 14.42, -1.4 1.78 M8.41 29.21 C7.04 19.89, 3.04 12.57, -0.59 0.84" stroke="#343a40" stroke-width="1" fill="none"></path></g><g transform="translate(668.142607123804 653.8177258101314) rotate(89.32596310201549 -1.3886840600872006 150.8588814790237)"><path d="M-11.3 28.69 C-8.52 21.53, -7.15 14.52, -1.4 1.78 M-12.11 29.09 C-7.68 19.79, -5.87 12.51, -0.59 0.84" stroke="#343a40" stroke-width="1" fill="none"></path></g><g transform="translate(668.142607123804 653.8177258101314) rotate(89.32596310201549 -1.3886840600872006 150.8588814790237)"><path d="M-13.3 274.86 C-10.58 282.15, -9.36 289.6, -3.99 304.43 M-14.11 275.27 C-9.39 281.94, -7.75 290.64, -3.18 303.48" stroke="#343a40" stroke-width="1" fill="none"></path></g><g transform="translate(668.142607123804 653.8177258101314) rotate(89.32596310201549 -1.3886840600872006 150.8588814790237)"><path d="M7.22 275.16 C4.68 282.21, 0.65 289.58, -3.99 304.43 M6.4 275.57 C5.32 282.16, 1.16 290.77, -3.18 303.48" stroke="#343a40" stroke-width="1" fill="none"></path></g></g><g stroke-linecap="round"><g transform="translate(654.7969370712735 474.68401631023517) rotate(89.32596310201549 239.33611555368333 1.4054998747269565)"><path d="M0.05 0.31 C80.03 1.03, 400.19 2.86, 480.06 3.39 M-1.39 -0.58 C78.43 -0.15, 399.26 1.09, 479.18 1.41" stroke="#343a40" stroke-width="1" fill="none"></path></g><g transform="translate(654.7969370712735 474.68401631023517) rotate(89.32596310201549 239.33611555368333 1.4054998747269565)"><path d="M28.82 -9.54 C19.76 -7.64, 11.02 -3.84, 1.78 -0.04 M29.22 -8.79 C17.11 -6.3, 7.02 -1.94, 0.84 -0.48" stroke="#343a40" stroke-width="1" fill="none"></path></g><g transform="translate(654.7969370712735 474.68401631023517) rotate(89.32596310201549 239.33611555368333 1.4054998747269565)"><path d="M28.68 10.98 C19.83 6.39, 11.14 3.7, 1.78 -0.04 M29.08 11.73 C17.02 6.39, 6.98 2.94, 0.84 -0.48" stroke="#343a40" stroke-width="1" fill="none"></path></g><g transform="translate(654.7969370712735 474.68401631023517) rotate(89.32596310201549 239.33611555368333 1.4054998747269565)"><path d="M451.46 11.8 C460.42 7.28, 469.54 4.68, 480.92 1.07 M451.87 12.54 C461.29 7.73, 472.73 4.39, 479.97 0.63" stroke="#343a40" stroke-width="1" fill="none"></path></g><g transform="translate(654.7969370712735 474.68401631023517) rotate(89.32596310201549 239.33611555368333 1.4054998747269565)"><path d="M451.54 -8.72 C460.32 -6.76, 469.41 -2.87, 480.92 1.07 M451.95 -7.98 C461.34 -4.97, 472.75 -0.49, 479.97 0.63" stroke="#343a40" stroke-width="1" fill="none"></path></g></g><g stroke-linecap="round"><g transform="translate(260.7548775269951 854.8387278872906) rotate(89.32596310201549 5.830864650667252 -49.95717323880672)"><path d="M0.31 0.14 C2.57 -16.54, 10.58 -83.42, 12.65 -100.05 M-0.99 -0.83 C1.22 -17.37, 9.65 -82.57, 11.85 -98.85" stroke="#343a40" stroke-width="1" fill="none"></path></g><g transform="translate(260.7548775269951 854.8387278872906) rotate(89.32596310201549 5.830864650667252 -49.95717323880672)"><path d="M-6.18 -28.63 C-5.99 -21.99, -3.89 -14.45, -0.04 1.76 M-5.44 -29.52 C-4.76 -20.02, -2.19 -10.6, -0.48 -0.73" stroke="#343a40" stroke-width="1" fill="none"></path></g><g transform="translate(260.7548775269951 854.8387278872906) rotate(89.32596310201549 5.830864650667252 -49.95717323880672)"><path d="M14.18 -26.11 C9.87 -19.98, 7.47 -12.99, -0.04 1.76 M14.93 -27.01 C9.44 -18.08, 5.82 -9.43, -0.48 -0.73" stroke="#343a40" stroke-width="1" fill="none"></path></g><g transform="translate(260.7548775269951 854.8387278872906) rotate(89.32596310201549 5.830864650667252 -49.95717323880672)"><path d="M18.57 -69.1 C15.83 -75.36, 15.01 -80.76, 11.51 -97.23 M19.32 -69.99 C16.42 -78.15, 14.97 -86.51, 11.07 -99.72" stroke="#343a40" stroke-width="1" fill="none"></path></g><g transform="translate(260.7548775269951 854.8387278872906) rotate(89.32596310201549 5.830864650667252 -49.95717323880672)"><path d="M-1.77 -71.78 C-0.02 -77.5, 3.66 -82.31, 11.51 -97.23 M-1.03 -72.67 C2.23 -80.2, 6.97 -87.75, 11.07 -99.72" stroke="#343a40" stroke-width="1" fill="none"></path></g></g><g stroke-linecap="round" transform="translate(104.90259838235596 -73.55502176115988) rotate(89.32596310201549 440.27921994661904 530.0390983227644)"><path d="M0.32 -0.41 C184.14 2.19, 367.26 3.36, 880.8 -0.75 M-0.31 0.02 C296.28 -3.09, 593.09 -3.12, 880.55 0.07 M881 0.29 C877.66 394.46, 879.1 786.64, 880.11 1059.32 M880.62 -0.38 C882.01 260.62, 882.36 522.18, 880.44 1060.15 M880.32 1060.06 C630.57 1058.04, 380.82 1058.61, 0.78 1060.21 M880.29 1059.88 C575.99 1059.65, 271.92 1060.24, 0.22 1060.4 M-0.25 1060.67 C2.52 721.8, 3.59 382.89, 0.61 -0.77 M0.39 1059.98 C3.53 648.38, 3.09 237.72, -0.19 -0.22" stroke="#000000" stroke-width="1" fill="none"></path></g><g stroke-linecap="round"><g transform="translate(636.2346892943707 378.28797379829484) rotate(89.32596310201549 19.12046159186002 18.76170267071575)"><path d="M-0.51 -0.2 C5.76 6.08, 32.1 32.59, 38.75 38.88 M1.42 -1.35 C7.47 5.07, 31.68 30.36, 37.96 36.98" stroke="#c92a2a" stroke-width="4" fill="none"></path></g></g><g stroke-linecap="round"><g transform="translate(636.8885025762403 415.2984132767997) rotate(89.32596310201549 18.21060466117092 -19.093020100479407)"><path d="M-0.2 0.3 C5.97 -5.76, 32.02 -30.34, 38.19 -36.86 M-1.77 -0.58 C4.18 -6.92, 30.63 -32.24, 37.46 -38.49" stroke="#c92a2a" stroke-width="4" fill="none"></path></g></g><g stroke-opacity="0" fill-opacity="0" stroke-linecap="round" transform="translate(615.2598447952257 376.6751995869199) rotate(0 50 40)"><path d="M60.57 1.28 C69.22 2.2, 79.59 6.82, 85.83 11.76 C92.07 16.7, 96.1 23.88, 98.03 30.92 C99.95 37.97, 100.36 47.16, 97.38 54.03 C94.39 60.91, 87.55 67.85, 80.12 72.18 C72.69 76.51, 61.98 79.53, 52.82 80.01 C43.65 80.49, 32.99 78.73, 25.14 75.08 C17.28 71.42, 9.91 64.61, 5.67 58.08 C1.43 51.55, -0.97 43, -0.31 35.89 C0.35 28.79, 4.07 20.93, 9.62 15.44 C15.17 9.95, 23.21 5.05, 32.97 2.96 C42.74 0.87, 61.53 2.4, 68.21 2.9 C74.89 3.41, 73.51 5.32, 73.07 5.99" stroke="#000000" stroke-width="1.5" fill="none" stroke-dasharray="1.5 7"></path></g><g stroke-linecap="round"><g transform="translate(195.25984479522572 236.67519958691992) rotate(0 229.60249964594843 79.06040957570076)"><path d="M-1.18 -0.86 C75.72 25.82, 383.5 132.31, 460.38 158.98" stroke="#c92a2a" stroke-width="1.5" fill="none" stroke-dasharray="8 9"></path></g></g><g stroke-linecap="round"><g transform="translate(515.2598447952257 216.67519958691992) rotate(0 70.10651518702508 89.59459288716243)"><path d="M-0.21 -0.11 C23.06 29.83, 117.06 149.21, 140.42 179.3" stroke="#c92a2a" stroke-width="1.5" fill="none" stroke-dasharray="8 9"></path></g></g><g stroke-linecap="round"><g transform="translate(835.2598447952257 236.67519958691992) rotate(0 -89.59551388621333 79.74919859766851)"><path d="M0.83 -0.86 C-29.25 25.96, -150.01 133.66, -180.02 160.36" stroke="#c92a2a" stroke-width="1.5" fill="none" stroke-dasharray="8 9"></path></g></g><g stroke-linecap="round"><g transform="translate(855.2598447952257 736.6751995869199) rotate(0 -100.11921154856685 -169.26066086888386)"><path d="M-1.1 0.95 C-34.21 -55.77, -166.06 -282.67, -199.14 -339.47" stroke="#c92a2a" stroke-width="1.5" fill="none" stroke-dasharray="8 9"></path></g></g><g stroke-linecap="round"><g transform="translate(435.2598447952257 756.6751995869199) rotate(0 109.45924246907236 -180.50677540898323)"><path d="M-1.18 -0.35 C35.66 -60.27, 183.04 -300.76, 220.1 -360.66" stroke="#c92a2a" stroke-width="1.5" fill="none" stroke-dasharray="8 9"></path></g></g><g stroke-linecap="round"><g transform="translate(195.25984479522572 736.6751995869199) rotate(0 230.08020747303962 -169.50506890416182)"><path d="M-0.78 0.63 C76.23 -56.02, 384.29 -282.95, 460.94 -339.64" stroke="#c92a2a" stroke-width="1.5" fill="none" stroke-dasharray="8 9"></path></g></g></svg>