<svg version="1.1" xmlns="http://www.w3.org/2000/svg" viewBox="0 0 1111 920" width="2222" height="1840">
  <!-- svg-source:excalidraw -->
  
  <defs>
    <style>
      @font-face {
        font-family: "Virgil";
        src: url("https://excalidraw.com/Virgil.woff2");
      }
      @font-face {
        font-family: "Cascadia";
        src: url("https://excalidraw.com/Cascadia.woff2");
      }
    </style>
  </defs>
  <g stroke-linecap="round" transform="translate(450 450) rotate(0 80 60)"><path d="M30 0 M30 0 C50.4 1.93, 68.81 2.87, 130 0 M30 0 C63.44 -0.1, 97.1 -0.66, 130 0 M130 0 C150.14 -0.08, 159.67 9.05, 160 30 M130 0 C152.11 1.04, 161.93 8.45, 160 30 M160 30 C161.44 46.52, 160.56 62.01, 160 90 M160 30 C160.57 52.42, 160.49 74.08, 160 90 M160 90 C159.4 109.03, 150.51 121.29, 130 120 M160 90 C160.63 112.08, 147.91 120.04, 130 120 M130 120 C96.79 121.09, 62.89 120.18, 30 120 M130 120 C92.69 119.62, 57.27 120.11, 30 120 M30 120 C11.57 120.56, -0.11 110.85, 0 90 M30 120 C11.69 117.91, -1.13 112.21, 0 90 M0 90 C1.38 67.53, 0.71 49.93, 0 30 M0 90 C-0.14 74.46, 0.7 60.42, 0 30 M0 30 C1.25 11.82, 9.6 -1.72, 30 0 M0 30 C-0.33 11.96, 8.52 -1.14, 30 0" stroke="#343a40" stroke-width="2" fill="none"></path></g><g stroke-linecap="round"><g transform="translate(610 510) rotate(0 19.944796637324657 0.38515959724395543)"><path d="M0.1 0.6 C6.4 0.98, 32.29 1.25, 39.01 1.16 M-1.31 -0.14 C5.26 0.04, 34.33 -0.61, 41.2 -0.35" stroke="#343a40" stroke-width="2" fill="none"></path></g></g><g stroke-linecap="round"><g transform="translate(650 510) rotate(0 0.3149792182070996 -40.19482250629949)"><path d="M0.6 -0.99 C0.98 -14.28, 1.25 -66.35, 1.16 -79.58 M-0.55 1.1 C-0.13 -12.56, 0.84 -68.1, 0.83 -81.49" stroke="#343a40" stroke-width="2" fill="none"></path></g></g><g stroke-linecap="round"><g transform="translate(650 430) rotate(0 -19.814325255723702 -19.37726537063736)"><path d="M-0.99 1.16 C-7.61 -5.59, -33.02 -33.05, -39.58 -39.92 M0.68 0.73 C-6.06 -5.86, -33.31 -31.76, -40.31 -38.34" stroke="#343a40" stroke-width="2" fill="none"></path></g></g><g stroke-linecap="round"><g transform="translate(650 430) rotate(0 20.1988032115205 -19.976706027239743)"><path d="M1.16 0.42 C7.75 -6.15, 33.61 -33.55, 40.08 -40.37 M0.32 -0.41 C6.69 -6.71, 32.7 -32.52, 39.18 -39.03" stroke="#343a40" stroke-width="2" fill="none"></path></g></g><g stroke-linecap="round" transform="translate(830 250) rotate(0 80 60)"><path d="M7.33 7.7 C7.33 7.7, 7.33 7.7, 7.33 7.7 M7.33 7.7 C7.33 7.7, 7.33 7.7, 7.33 7.7 M2.87 25.02 C8.47 19.92, 14.04 11.97, 20.58 4.64 M2.87 25.02 C8.52 18.91, 11.95 14.87, 20.58 4.64 M3 37.06 C10.93 26.21, 20.86 18.33, 33.18 2.34 M3 37.06 C12.58 26.32, 21.76 15.25, 33.18 2.34 M3.14 49.1 C15.19 35.93, 30.12 18.93, 43.81 2.31 M3.14 49.1 C12.24 40.09, 20.3 29.48, 43.81 2.31 M2.61 61.9 C18.94 43.88, 38.6 21.09, 54.44 2.28 M2.61 61.9 C19.98 43.04, 36.68 21.87, 54.44 2.28 M2.75 73.94 C19.25 58.38, 34.73 40.86, 65.07 2.24 M2.75 73.94 C21.66 53.32, 37.75 34.16, 65.07 2.24 M2.88 85.98 C15.76 70.6, 33.25 52.52, 75.05 2.96 M2.88 85.98 C20.34 64.62, 38.22 45.69, 75.05 2.96 M2.36 98.77 C32.39 62.57, 62.52 29.35, 85.68 2.93 M2.36 98.77 C31.59 65.46, 59.74 32.85, 85.68 2.93 M4.46 108.55 C43.15 68.12, 77.87 27.03, 96.31 2.89 M4.46 108.55 C33.72 74.89, 62.81 42.63, 96.31 2.89 M9.84 114.55 C34.06 91.05, 53.03 65.42, 106.94 2.86 M9.84 114.55 C41.44 75.9, 73.51 39.92, 106.94 2.86 M17.19 118.29 C47.62 82.86, 81.37 45.7, 117.57 2.82 M17.19 118.29 C53.28 76.44, 91.26 32.88, 117.57 2.82 M26.51 119.77 C47.92 95.18, 73.04 66.06, 130.16 0.52 M26.51 119.77 C50.52 93.22, 73.54 66.69, 130.16 0.52 M33.86 123.51 C61.97 92.32, 93.24 58.89, 139.48 2 M33.86 123.51 C56.43 97.8, 80.5 71.79, 139.48 2 M44.49 123.47 C77.2 85.63, 109.28 48.24, 146.83 5.74 M44.49 123.47 C72.07 90.4, 99.99 58.5, 146.83 5.74 M55.12 123.44 C76.81 99.29, 100.77 70.83, 154.18 9.48 M55.12 123.44 C76.19 99.42, 97.76 73.56, 154.18 9.48 M65.75 123.4 C85.33 101.28, 106 75.56, 158.25 16.99 M65.75 123.4 C84.22 100.91, 104.29 78.99, 158.25 16.99 M76.38 123.37 C95.85 100.01, 113.3 76.56, 159.7 27.52 M76.38 123.37 C100.38 96.55, 124.84 67.88, 159.7 27.52 M87.01 123.34 C111.25 94.13, 135.93 66.88, 164.42 34.28 M87.01 123.34 C104.11 104.32, 119.7 85.91, 164.42 34.28 M97.64 123.3 C112.33 103.68, 128.45 87.02, 164.56 46.32 M97.64 123.3 C121.35 97.52, 141.98 71.82, 164.56 46.32 M108.27 123.27 C122.17 108.54, 132.98 93.12, 164.69 58.36 M108.27 123.27 C125.75 101.98, 143.49 80.62, 164.69 58.36 M118.9 123.23 C130.87 109.47, 145.53 96.19, 164.17 71.16 M118.9 123.23 C127.93 112.57, 137.4 102.45, 164.17 71.16 M131.5 120.93 C141.93 107.96, 153.99 95.29, 164.3 83.2 M131.5 120.93 C140.9 111.29, 149.11 100.61, 164.3 83.2 M144.09 118.63 C146.6 113.91, 152.11 110.28, 161.15 99.01 M144.09 118.63 C149.71 112.72, 156.24 105.41, 161.15 99.01" stroke="#868e96" stroke-width="1" fill="none"></path><path d="M30 0 M30 0 C56.5 1.86, 83.73 -0.98, 130 0 M30 0 C51.7 0.4, 74.21 -0.1, 130 0 M130 0 C150.97 -0.25, 161.07 10.78, 160 30 M130 0 C147.99 0.81, 159.43 9.7, 160 30 M160 30 C160.54 40.82, 158.72 54.28, 160 90 M160 30 C159.17 48.76, 158.87 64.98, 160 90 M160 90 C158.88 108.5, 151.32 121.47, 130 120 M160 90 C159.41 109.24, 149.14 120.57, 130 120 M130 120 C103.76 120.21, 72.55 120.86, 30 120 M130 120 C103.38 120.44, 76.68 119.9, 30 120 M30 120 C10.42 119.92, 0.63 111.03, 0 90 M30 120 C11.53 118.41, -1.21 109.52, 0 90 M0 90 C-1.32 67.39, -1.82 42.29, 0 30 M0 90 C-0.29 76.7, 0.32 63.49, 0 30 M0 30 C-1.09 9.49, 9.19 -1.37, 30 0 M0 30 C-1.44 9.42, 10.19 2.17, 30 0" stroke="#343a40" stroke-width="2" fill="none"></path></g><g stroke-linecap="round"><g transform="translate(990 310) rotate(0 19.315087488065444 -0.4128278165962911)"><path d="M0.08 -0.37 C6.55 -0.52, 33.28 -0.36, 39.97 -0.49 M-1.34 -1.61 C4.87 -1.64, 32.19 0.59, 39 0.78" stroke="#343a40" stroke-width="2" fill="none"></path></g></g><g stroke-linecap="round"><g transform="translate(1030 310) rotate(0 -0.032330566020732476 -39.9243692047894)"><path d="M-0.37 -0.03 C-0.52 -13.35, -0.36 -66.5, -0.49 -79.81 M1.64 -1.1 C1.25 -14.2, -1.62 -65.27, -1.7 -78.18" stroke="#343a40" stroke-width="2" fill="none"></path></g></g><g stroke-linecap="round"><g transform="translate(1030 230) rotate(0 -20.34965157308153 -20.82588438913217)"><path d="M-0.03 -0.49 C-6.68 -7.29, -33.17 -34.57, -39.81 -41.16 M-1.51 -1.8 C-8.31 -8.46, -34.14 -34.07, -40.66 -40.23" stroke="#343a40" stroke-width="2" fill="none"></path></g></g><g stroke-linecap="round"><g transform="translate(1030 230) rotate(0 20.226180425449286 -19.865347803383884)"><path d="M-0.49 0.19 C6.04 -6.46, 32.1 -33.19, 38.84 -39.92 M1.45 -0.76 C8.37 -7.19, 34.66 -31.96, 40.95 -38.34" stroke="#343a40" stroke-width="2" fill="none"></path></g></g><g stroke-linecap="round" transform="translate(850 610) rotate(0 80 60)"><path d="M7.33 7.7 C7.33 7.7, 7.33 7.7, 7.33 7.7 M7.33 7.7 C7.33 7.7, 7.33 7.7, 7.33 7.7 M2.87 25.02 C7.32 17.91, 13.32 13.37, 20.58 4.64 M2.87 25.02 C7.58 19.48, 10.44 15.27, 20.58 4.64 M3 37.06 C14.41 23.86, 22.46 15.06, 33.18 2.34 M3 37.06 C10.04 28.8, 16.61 21.51, 33.18 2.34 M3.14 49.1 C19.84 31.23, 36.81 14.27, 43.81 2.31 M3.14 49.1 C17.24 32.67, 29.35 19.19, 43.81 2.31 M2.61 61.9 C21.97 39.37, 39.29 21.9, 54.44 2.28 M2.61 61.9 C15.64 46.74, 29.64 32.8, 54.44 2.28 M2.75 73.94 C22.96 47.79, 48.99 20.79, 65.07 2.24 M2.75 73.94 C18.81 56.78, 33.14 39.46, 65.07 2.24 M2.88 85.98 C28.93 55.98, 56.51 21.62, 75.05 2.96 M2.88 85.98 C22.62 63.69, 42.57 39.21, 75.05 2.96 M2.36 98.77 C34.77 60.38, 68.1 22.8, 85.68 2.93 M2.36 98.77 C19.67 76.94, 39.47 56.54, 85.68 2.93 M4.46 108.55 C30.42 76.09, 60.49 41.33, 96.31 2.89 M4.46 108.55 C34.33 73.96, 66.98 38.97, 96.31 2.89 M9.84 114.55 C36.84 85.38, 62.06 51.8, 106.94 2.86 M9.84 114.55 C33.57 86.99, 56.28 60.45, 106.94 2.86 M17.19 118.29 C47 83.73, 74.45 51.76, 117.57 2.82 M17.19 118.29 C54.14 76.17, 89.89 35.26, 117.57 2.82 M26.51 119.77 C64.99 76.39, 104.18 33.31, 130.16 0.52 M26.51 119.77 C59.34 81.38, 92.35 44.29, 130.16 0.52 M33.86 123.51 C68.32 82.92, 103.06 43.45, 139.48 2 M33.86 123.51 C72.59 78.67, 112.37 32.32, 139.48 2 M44.49 123.47 C86.23 78.99, 124.88 32.01, 146.83 5.74 M44.49 123.47 C66.5 97.67, 89.36 71.77, 146.83 5.74 M55.12 123.44 C86.9 88.1, 118.85 51.61, 154.18 9.48 M55.12 123.44 C81.9 94.67, 106.08 66.73, 154.18 9.48 M65.75 123.4 C88.5 98.11, 109.21 71.87, 158.25 16.99 M65.75 123.4 C96.29 89.99, 125.81 55, 158.25 16.99 M76.38 123.37 C95.53 103.22, 113.21 84.4, 159.7 27.52 M76.38 123.37 C108.81 86.35, 142.37 47.08, 159.7 27.52 M87.01 123.34 C116.23 92.36, 147.46 57.49, 164.42 34.28 M87.01 123.34 C114.52 91.19, 141.65 59.34, 164.42 34.28 M97.64 123.3 C109.3 108.14, 126.52 91.55, 164.56 46.32 M97.64 123.3 C115.5 105.15, 131.74 85.97, 164.56 46.32 M108.27 123.27 C120.25 111.45, 130.48 96.28, 164.69 58.36 M108.27 123.27 C123.57 105.97, 138.18 89.56, 164.69 58.36 M118.9 123.23 C137.2 104.67, 153.61 83.99, 164.17 71.16 M118.9 123.23 C135.85 103.08, 152.16 84.09, 164.17 71.16 M131.5 120.93 C142.75 110.56, 154.57 97.76, 164.3 83.2 M131.5 120.93 C143.81 107.69, 153.93 94.55, 164.3 83.2 M144.09 118.63 C147.09 112.41, 153.64 108.07, 161.15 99.01 M144.09 118.63 C150.88 110.64, 157.41 103.97, 161.15 99.01" stroke="#868e96" stroke-width="1" fill="none"></path><path d="M30 0 M30 0 C59.68 -0.05, 85.57 0.76, 130 0 M30 0 C62.69 0.05, 96.03 -1.36, 130 0 M130 0 C150.7 -0.49, 159.74 8.04, 160 30 M130 0 C151.23 2.21, 160.25 8.51, 160 30 M160 30 C158.37 44.78, 159.35 58.33, 160 90 M160 30 C158.88 44.87, 160.36 58.17, 160 90 M160 90 C159.34 109.26, 150.5 119.64, 130 120 M160 90 C159.31 111.57, 152.26 119.45, 130 120 M130 120 C106.24 119.25, 80.37 120.94, 30 120 M130 120 C101.84 120.53, 74.27 120.87, 30 120 M30 120 C8.62 118.95, -0.42 111.89, 0 90 M30 120 C10.05 119.07, -1.5 111.23, 0 90 M0 90 C1.62 75.8, 0.44 65.39, 0 30 M0 90 C-0.62 66.96, -1.05 44.1, 0 30 M0 30 C-0.5 10.16, 11.89 0.89, 30 0 M0 30 C2.24 12.12, 11.76 0.09, 30 0" stroke="#343a40" stroke-width="2" fill="none"></path></g><g stroke-linecap="round"><g transform="translate(1010 670) rotate(0 19.396182847768102 0.15783368689017152)"><path d="M-1.16 0.08 C5.58 0.02, 33.19 -0.37, 39.95 -0.2 M0.44 -0.92 C7.06 -0.81, 32.65 1.19, 38.98 1.23" stroke="#343a40" stroke-width="2" fill="none"></path></g></g><g stroke-linecap="round"><g transform="translate(1050 670) rotate(0 -0.7222400872456092 -40.310313605517194)"><path d="M0.08 -0.05 C0.02 -13.29, -0.37 -67.34, -0.2 -80.57 M-1.33 -1.12 C-1.59 -14.1, -1.63 -65.93, -1.25 -79.33" stroke="#343a40" stroke-width="2" fill="none"></path></g></g><g stroke-linecap="round"><g transform="translate(1050 590) rotate(0 -20.934159428910334 -20.31979293161544)"><path d="M-0.05 -0.2 C-6.62 -6.7, -34 -32.43, -40.57 -38.9 M-1.54 -1.35 C-8.21 -8.16, -35.42 -33.86, -41.82 -40.44" stroke="#343a40" stroke-width="2" fill="none"></path></g></g><g stroke-linecap="round"><g transform="translate(1050 590) rotate(0 19.67010509885381 -19.775665295710724)"><path d="M-0.2 -0.57 C6.64 -7.14, 34.24 -32.75, 41.1 -39.46 M-1.76 1.74 C5 -5.18, 33.65 -34.35, 40.73 -41.3" stroke="#343a40" stroke-width="2" fill="none"></path></g></g><g stroke-linecap="round" transform="translate(590 90) rotate(0 80 60)"><path d="M7.33 7.7 C7.33 7.7, 7.33 7.7, 7.33 7.7 M7.33 7.7 C7.33 7.7, 7.33 7.7, 7.33 7.7 M2.87 25.02 C11.56 17.36, 18.03 8.04, 20.58 4.64 M2.87 25.02 C8.4 19.74, 13.44 13.06, 20.58 4.64 M3 37.06 C13.26 26.99, 21.57 16.01, 33.18 2.34 M3 37.06 C10.55 26.23, 19.76 17.58, 33.18 2.34 M3.14 49.1 C17.78 32.44, 34.48 12.38, 43.81 2.31 M3.14 49.1 C12.66 37.54, 23.71 24.62, 43.81 2.31 M2.61 61.9 C18.57 41.42, 35.59 22.31, 54.44 2.28 M2.61 61.9 C21.2 40.43, 37.63 19.54, 54.44 2.28 M2.75 73.94 C27.74 44.69, 52.53 19.37, 65.07 2.24 M2.75 73.94 C17.24 55.75, 31.29 39.81, 65.07 2.24 M2.88 85.98 C21.74 67.34, 38.75 48.11, 75.05 2.96 M2.88 85.98 C28.38 56.59, 53.97 26.69, 75.05 2.96 M2.36 98.77 C27.95 73.05, 50.56 42.87, 85.68 2.93 M2.36 98.77 C35.12 61.47, 65.73 24.39, 85.68 2.93 M4.46 108.55 C30.85 77, 54.71 49.22, 96.31 2.89 M4.46 108.55 C39.89 67.72, 76.12 26.79, 96.31 2.89 M9.84 114.55 C37.28 85.84, 62.99 55.83, 106.94 2.86 M9.84 114.55 C31.43 90.4, 52.93 64.72, 106.94 2.86 M17.19 118.29 C44.77 83.32, 73.87 50.61, 117.57 2.82 M17.19 118.29 C40.86 87.95, 66.76 59.42, 117.57 2.82 M26.51 119.77 C62.71 77.82, 97.56 36.5, 130.16 0.52 M26.51 119.77 C49.88 91.47, 72.5 64.93, 130.16 0.52 M33.86 123.51 C63 90.82, 89.89 59.77, 139.48 2 M33.86 123.51 C72.81 77.07, 113.33 32.72, 139.48 2 M44.49 123.47 C73.48 91.2, 98.86 61.38, 146.83 5.74 M44.49 123.47 C68.97 92.5, 94.75 64.07, 146.83 5.74 M55.12 123.44 C75.17 97.04, 99.93 72.51, 154.18 9.48 M55.12 123.44 C80.75 92.67, 107.24 62.97, 154.18 9.48 M65.75 123.4 C89.12 95.3, 113.54 70.73, 158.25 16.99 M65.75 123.4 C94.9 90.07, 125.6 56.18, 158.25 16.99 M76.38 123.37 C103.64 89.67, 131.64 58.06, 159.7 27.52 M76.38 123.37 C102.05 92.09, 128.63 64.03, 159.7 27.52 M87.01 123.34 C117.19 86.74, 147.29 51.43, 164.42 34.28 M87.01 123.34 C104.17 105.72, 119.25 87.09, 164.42 34.28 M97.64 123.3 C123.45 91.94, 152.54 63.88, 164.56 46.32 M97.64 123.3 C120.87 97.7, 143.58 71.85, 164.56 46.32 M108.27 123.27 C122.59 104.59, 140.24 85.84, 164.69 58.36 M108.27 123.27 C124.24 104.16, 139.57 87.89, 164.69 58.36 M118.9 123.23 C134.59 106.29, 149.62 86.96, 164.17 71.16 M118.9 123.23 C131.19 108.53, 144.04 95.52, 164.17 71.16 M131.5 120.93 C143.64 104.89, 158.32 90.92, 164.3 83.2 M131.5 120.93 C139.39 112.83, 145.14 103.97, 164.3 83.2 M144.09 118.63 C147.81 112.14, 153.87 106.41, 161.15 99.01 M144.09 118.63 C147.95 112.52, 154.04 107.56, 161.15 99.01" stroke="#868e96" stroke-width="1" fill="none"></path><path d="M30 0 M30 0 C56.27 0.68, 84.38 0.79, 130 0 M30 0 C63.66 -0.48, 96.84 0.18, 130 0 M130 0 C151.92 0.22, 158.71 8.4, 160 30 M130 0 C150.06 -0.08, 158.1 11.81, 160 30 M160 30 C159.34 44.89, 159.08 63.35, 160 90 M160 30 C159.47 52.66, 159.67 74.51, 160 90 M160 90 C161.37 111.97, 149.53 118.95, 130 120 M160 90 C160.21 109.21, 151.15 119.53, 130 120 M130 120 C100.72 120.23, 70.94 120.44, 30 120 M130 120 C94.3 119.1, 60.6 119.33, 30 120 M30 120 C9.19 118.69, 1.07 108.19, 0 90 M30 120 C9.6 118.3, 1.74 108.13, 0 90 M0 90 C1.05 69.9, -0.67 51.17, 0 30 M0 90 C0.46 77.05, 0.82 63.18, 0 30 M0 30 C1.85 11.53, 10.07 1.56, 30 0 M0 30 C1.53 9.35, 10.85 -1.88, 30 0" stroke="#343a40" stroke-width="2" fill="none"></path></g><g stroke-linecap="round"><g transform="translate(750 150) rotate(0 20.613998389909966 -0.13331398889431512)"><path d="M1.1 0.54 C7.97 0.5, 34.56 -0.9, 41.01 -0.81 M0.22 -0.22 C7.04 -0.07, 34.13 0.38, 40.58 0.3" stroke="#343a40" stroke-width="2" fill="none"></path></g></g><g stroke-linecap="round"><g transform="translate(790 150) rotate(0 0.33450583176215787 -39.59955791309494)"><path d="M0.54 1.01 C0.5 -12.55, -0.9 -66.61, -0.81 -80.2 M-0.63 0.49 C-0.24 -12.36, 1.22 -65.44, 1.48 -78.77" stroke="#343a40" stroke-width="2" fill="none"></path></g></g><g stroke-linecap="round"><g transform="translate(790 70) rotate(0 -20.127163419802628 -19.540624417653362)"><path d="M1.01 -0.81 C-5.88 -7.38, -33.28 -32.47, -40.2 -38.91 M0.07 1.38 C-7.08 -5.55, -34.32 -33.31, -41.26 -40.46" stroke="#343a40" stroke-width="2" fill="none"></path></g></g><g stroke-linecap="round"><g transform="translate(790 70) rotate(0 20.13997700288894 -20.37009354904285)"><path d="M-0.81 -0.2 C5.95 -7.13, 34.2 -33.86, 41.09 -40.54 M0.97 -1.36 C7.61 -7.6, 34.2 -32.99, 40.71 -39.28" stroke="#343a40" stroke-width="2" fill="none"></path></g></g><g stroke-linecap="round" transform="translate(190 150) rotate(0 80 60)"><path d="M7.33 7.7 C7.33 7.7, 7.33 7.7, 7.33 7.7 M7.33 7.7 C7.33 7.7, 7.33 7.7, 7.33 7.7 M2.87 25.02 C8.95 17.69, 18.07 9.83, 20.58 4.64 M2.87 25.02 C10.32 16.38, 17.52 9.2, 20.58 4.64 M3 37.06 C14.09 27.76, 21.35 12.86, 33.18 2.34 M3 37.06 C13.49 25.94, 22.37 14.9, 33.18 2.34 M3.14 49.1 C20.67 32.77, 33.48 15.09, 43.81 2.31 M3.14 49.1 C19.04 31.58, 32.67 14.54, 43.81 2.31 M2.61 61.9 C18.47 46.92, 32.37 29.3, 54.44 2.28 M2.61 61.9 C13.13 48.21, 25.12 35, 54.44 2.28 M2.75 73.94 C26.98 49.75, 48.52 20.8, 65.07 2.24 M2.75 73.94 C16.24 57.17, 32.15 41.07, 65.07 2.24 M2.88 85.98 C24.62 59.61, 49.34 30.89, 75.05 2.96 M2.88 85.98 C21.57 63.63, 40.97 43.81, 75.05 2.96 M2.36 98.77 C23.5 75.42, 43.99 52.52, 85.68 2.93 M2.36 98.77 C19.2 78.94, 37.46 57.43, 85.68 2.93 M4.46 108.55 C24.71 85.08, 42.84 64.2, 96.31 2.89 M4.46 108.55 C33.13 73.5, 64.55 39.44, 96.31 2.89 M9.84 114.55 C44.1 77.79, 76.64 42, 106.94 2.86 M9.84 114.55 C47.52 73.06, 83.5 29.31, 106.94 2.86 M17.19 118.29 C52.92 81.04, 84.02 39.19, 117.57 2.82 M17.19 118.29 C45.15 86.18, 73.08 53.85, 117.57 2.82 M26.51 119.77 C55.75 90.27, 82.71 56.9, 130.16 0.52 M26.51 119.77 C58.92 84.48, 91 47.44, 130.16 0.52 M33.86 123.51 C68 83.57, 102.72 40.3, 139.48 2 M33.86 123.51 C68.83 82.18, 105.11 41.26, 139.48 2 M44.49 123.47 C75.59 90.66, 102.4 54.57, 146.83 5.74 M44.49 123.47 C70.03 94.79, 93.84 65.49, 146.83 5.74 M55.12 123.44 C95.74 78.5, 132.72 33.73, 154.18 9.48 M55.12 123.44 C88 86.09, 121.43 47.14, 154.18 9.48 M65.75 123.4 C97.71 83.67, 129.65 47.4, 158.25 16.99 M65.75 123.4 C98.12 87.54, 128.66 50.24, 158.25 16.99 M76.38 123.37 C93.42 102.4, 112.55 76.73, 159.7 27.52 M76.38 123.37 C98.42 96.89, 121.19 69.46, 159.7 27.52 M87.01 123.34 C106.88 98.35, 129.55 77.13, 164.42 34.28 M87.01 123.34 C103.22 102.93, 119.6 83.69, 164.42 34.28 M97.64 123.3 C124.32 91.3, 150.44 63.79, 164.56 46.32 M97.64 123.3 C120.13 96.25, 142.71 69.6, 164.56 46.32 M108.27 123.27 C125.41 106.1, 142.96 83.57, 164.69 58.36 M108.27 123.27 C129.06 99.54, 150.48 74.93, 164.69 58.36 M118.9 123.23 C133.55 106.82, 148.38 88.63, 164.17 71.16 M118.9 123.23 C133.94 106.13, 148.11 87.87, 164.17 71.16 M131.5 120.93 C143.59 107.17, 156.76 94.1, 164.3 83.2 M131.5 120.93 C138.88 113.96, 144.81 104.78, 164.3 83.2 M144.09 118.63 C150.72 112.54, 152.88 105.57, 161.15 99.01 M144.09 118.63 C150.66 111.48, 156.65 104.21, 161.15 99.01" stroke="#868e96" stroke-width="1" fill="none"></path><path d="M30 0 M30 0 C56.99 0.31, 86.97 -0.65, 130 0 M30 0 C50.29 -1.61, 69.57 -0.93, 130 0 M130 0 C149.93 -1.65, 161.57 9.34, 160 30 M130 0 C152.2 -1.45, 158.58 8.71, 160 30 M160 30 C159.88 42.84, 159.65 57.5, 160 90 M160 30 C160.8 46.68, 159.3 63.93, 160 90 M160 90 C159.31 111, 149.59 119.9, 130 120 M160 90 C161.47 109.57, 150.24 120.48, 130 120 M130 120 C101.71 119.13, 69.7 120.1, 30 120 M130 120 C89.88 120.13, 50.16 119.42, 30 120 M30 120 C8.52 121.51, -1.63 110.34, 0 90 M30 120 C10.6 121.78, 1.39 108.75, 0 90 M0 90 C-1.01 73.03, 0.4 58.96, 0 30 M0 90 C0.18 69.38, 0.2 49.35, 0 30 M0 30 C-0.57 10.74, 8.36 -0.61, 30 0 M0 30 C0.89 11.14, 11.94 0.55, 30 0" stroke="#343a40" stroke-width="2" fill="none"></path></g><g stroke-linecap="round"><g transform="translate(350 210) rotate(0 20.370597860230987 0.6485765934121446)"><path d="M1.09 -0.54 C7.98 -0.55, 34.05 -0.17, 40.54 -0.28 M0.2 1.8 C7.05 1.98, 33.37 1.49, 39.87 1.11" stroke="#343a40" stroke-width="2" fill="none"></path></g></g><g stroke-linecap="round"><g transform="translate(390 210) rotate(0 0.00547292872329308 -39.726011966913575)"><path d="M-0.54 0.54 C-0.55 -12.97, -0.17 -66.72, -0.28 -79.99 M1.38 -0.22 C1.21 -13.02, -1.33 -64.99, -1.37 -78.45" stroke="#343a40" stroke-width="2" fill="none"></path></g></g><g stroke-linecap="round"><g transform="translate(390 130) rotate(0 -20.197822332517262 -20.72365490272614)"><path d="M0.54 -0.28 C-6.31 -7.05, -33.38 -34.42, -39.99 -41.17 M-0.64 -1.47 C-7.74 -8.09, -34.48 -33.85, -40.94 -40.25" stroke="#343a40" stroke-width="2" fill="none"></path></g></g><g stroke-linecap="round"><g transform="translate(390 130) rotate(0 20.32545170269441 -20.370859238202684)"><path d="M-0.28 0.01 C6.28 -6.6, 32.25 -32.29, 38.83 -39.1 M1.78 -1.03 C8.73 -8.01, 34.27 -34.25, 40.93 -40.75" stroke="#343a40" stroke-width="2" fill="none"></path></g></g><g stroke-linecap="round" transform="translate(10 530) rotate(0 80 60)"><path d="M7.33 7.7 C7.33 7.7, 7.33 7.7, 7.33 7.7 M7.33 7.7 C7.33 7.7, 7.33 7.7, 7.33 7.7 M2.87 25.02 C7.46 17.47, 16.42 8.65, 20.58 4.64 M2.87 25.02 C9.13 17.36, 16.35 11.11, 20.58 4.64 M3 37.06 C10.68 30.12, 19.34 20.93, 33.18 2.34 M3 37.06 C10.83 26.13, 21.58 16.87, 33.18 2.34 M3.14 49.1 C12.59 36.46, 27.08 21.99, 43.81 2.31 M3.14 49.1 C14.03 37.16, 26.17 24.69, 43.81 2.31 M2.61 61.9 C22.72 40.73, 41.98 14.72, 54.44 2.28 M2.61 61.9 C20.28 41.49, 37.82 23.45, 54.44 2.28 M2.75 73.94 C24.21 50.31, 41.32 28.18, 65.07 2.24 M2.75 73.94 C24.9 49.29, 44.86 24.75, 65.07 2.24 M2.88 85.98 C19.26 66.34, 36.45 45, 75.05 2.96 M2.88 85.98 C26.45 59.29, 51.45 30.5, 75.05 2.96 M2.36 98.77 C35.78 61.31, 66.92 24.61, 85.68 2.93 M2.36 98.77 C28.54 71.35, 54.31 41.06, 85.68 2.93 M4.46 108.55 C33.88 75.2, 58.93 42.4, 96.31 2.89 M4.46 108.55 C35.47 71.59, 67.52 36.41, 96.31 2.89 M9.84 114.55 C47.44 69.19, 87.72 26.56, 106.94 2.86 M9.84 114.55 C39.6 79.57, 70.49 46.59, 106.94 2.86 M17.19 118.29 C37.67 96.11, 58.35 72.29, 117.57 2.82 M17.19 118.29 C48.24 82.24, 80.57 47.61, 117.57 2.82 M26.51 119.77 C68.31 71.41, 111.13 25.99, 130.16 0.52 M26.51 119.77 C67.28 73.78, 106.56 27.65, 130.16 0.52 M33.86 123.51 C58.47 96.02, 80.55 68.73, 139.48 2 M33.86 123.51 C76.08 75.78, 118.07 29.12, 139.48 2 M44.49 123.47 C73.47 91.58, 101.13 61.35, 146.83 5.74 M44.49 123.47 C70.97 92.43, 98.15 62.36, 146.83 5.74 M55.12 123.44 C88.5 84.46, 120.74 48.28, 154.18 9.48 M55.12 123.44 C84.94 90.05, 113.05 55.92, 154.18 9.48 M65.75 123.4 C87.2 99.41, 109.97 75.92, 158.25 16.99 M65.75 123.4 C91.05 95.81, 114.11 68.11, 158.25 16.99 M76.38 123.37 C95.49 106.2, 110.54 86.25, 159.7 27.52 M76.38 123.37 C99.79 95.61, 123.4 68.4, 159.7 27.52 M87.01 123.34 C112.99 96.5, 137.62 64.14, 164.42 34.28 M87.01 123.34 C108.21 100.04, 128.26 75.59, 164.42 34.28 M97.64 123.3 C124.1 93.81, 147.24 64.55, 164.56 46.32 M97.64 123.3 C111.42 106.97, 126.05 91.94, 164.56 46.32 M108.27 123.27 C130.92 99.12, 151.26 75.5, 164.69 58.36 M108.27 123.27 C125.99 101.49, 144.95 80.62, 164.69 58.36 M118.9 123.23 C133.53 110.26, 145.65 94.8, 164.17 71.16 M118.9 123.23 C131.45 107.9, 144 94.3, 164.17 71.16 M131.5 120.93 C142.8 107.35, 156.03 95.68, 164.3 83.2 M131.5 120.93 C139.19 111.62, 148.13 102.65, 164.3 83.2 M144.09 118.63 C147.43 113.32, 152.27 109.79, 161.15 99.01 M144.09 118.63 C148.76 114.19, 151.57 109.3, 161.15 99.01" stroke="#868e96" stroke-width="1" fill="none"></path><path d="M30 0 M30 0 C58.6 2.9, 85.27 -0.31, 130 0 M30 0 C51.19 0.82, 73.69 0.99, 130 0 M130 0 C148.74 -1.24, 158.88 8.5, 160 30 M130 0 C151.52 1.69, 159.41 9.24, 160 30 M160 30 C159.55 47.14, 162.12 61.06, 160 90 M160 30 C160.56 44.65, 160 60.36, 160 90 M160 90 C159.62 110.21, 150.42 119.92, 130 120 M160 90 C160.72 111.19, 151.53 118.41, 130 120 M130 120 C105.31 120.13, 79.23 122.02, 30 120 M130 120 C109.81 118.45, 88.27 119.52, 30 120 M30 120 C11.55 121.21, -1.09 109.49, 0 90 M30 120 C9.07 118.43, -1.44 109.42, 0 90 M0 90 C1.38 73.36, 0.96 53.11, 0 30 M0 90 C-0.03 66.5, -0.71 45.02, 0 30 M0 30 C0.99 11.69, 10.47 -1.94, 30 0 M0 30 C0.73 7.92, 10.84 -1.06, 30 0" stroke="#343a40" stroke-width="2" fill="none"></path></g><g stroke-linecap="round"><g transform="translate(170 590) rotate(0 20.182539135138427 0.015814615041108482)"><path d="M-1.17 0.9 C5.42 0.75, 32.17 -0.7, 39.23 -0.87 M0.42 0.33 C7.41 0.31, 34.77 0.07, 41.53 0.21" stroke="#343a40" stroke-width="2" fill="none"></path></g></g><g stroke-linecap="round"><g transform="translate(210 590) rotate(0 0.25971860335675956 -39.468483313499064)"><path d="M0.9 -0.77 C0.75 -13.72, -0.7 -65.82, -0.87 -78.85 M-0.09 1.44 C0.14 -11.71, 1.52 -66.68, 1.39 -80.37" stroke="#343a40" stroke-width="2" fill="none"></path></g></g><g stroke-linecap="round"><g transform="translate(210 510) rotate(0 -19.08798606292339 -19.400182208563137)"><path d="M-0.77 -0.87 C-7.05 -7.7, -32.49 -33.39, -38.85 -40.09 M1.02 1.29 C-5.21 -5.42, -32.5 -31.66, -39.2 -38.6" stroke="#343a40" stroke-width="2" fill="none"></path></g></g><g stroke-linecap="round"><g transform="translate(210 510) rotate(0 19.520554734021403 -19.68856653267062)"><path d="M-0.87 1.15 C5.63 -5.22, 33.28 -32.03, 39.91 -38.95 M0.88 0.7 C7.13 -5.91, 32.19 -33.87, 38.91 -40.52" stroke="#343a40" stroke-width="2" fill="none"></path></g></g><g stroke-linecap="round" transform="translate(330 790) rotate(0 80 60)"><path d="M7.33 7.7 C7.33 7.7, 7.33 7.7, 7.33 7.7 M7.33 7.7 C7.33 7.7, 7.33 7.7, 7.33 7.7 M2.87 25.02 C9.13 18.57, 14.55 10.84, 20.58 4.64 M2.87 25.02 C8.22 17.93, 15.64 11.01, 20.58 4.64 M3 37.06 C15.17 25.41, 23.92 9.82, 33.18 2.34 M3 37.06 C15.16 24, 25.92 9.91, 33.18 2.34 M3.14 49.1 C17.64 30.88, 33.52 14.85, 43.81 2.31 M3.14 49.1 C18.5 29.63, 34.42 13.1, 43.81 2.31 M2.61 61.9 C13.18 49.02, 27.69 32.44, 54.44 2.28 M2.61 61.9 C21.25 38.51, 42.11 15.9, 54.44 2.28 M2.75 73.94 C17.97 58.24, 32.62 42.46, 65.07 2.24 M2.75 73.94 C15.79 58.7, 28.31 43.83, 65.07 2.24 M2.88 85.98 C25.2 61.75, 43.07 42.03, 75.05 2.96 M2.88 85.98 C29.12 54.23, 55.59 24.72, 75.05 2.96 M2.36 98.77 C21 73.25, 43.43 53.23, 85.68 2.93 M2.36 98.77 C32.89 64.56, 63.33 29.47, 85.68 2.93 M4.46 108.55 C26.13 85.13, 46.45 59.16, 96.31 2.89 M4.46 108.55 C41.34 66.92, 76.7 24.44, 96.31 2.89 M9.84 114.55 C44.93 72.23, 82.35 27.46, 106.94 2.86 M9.84 114.55 C41.78 76.82, 75.61 39.08, 106.94 2.86 M17.19 118.29 C45.15 84.38, 73.76 50.71, 117.57 2.82 M17.19 118.29 C55.88 71.41, 96.37 25.05, 117.57 2.82 M26.51 119.77 C61.54 78.51, 98.32 38.13, 130.16 0.52 M26.51 119.77 C52.49 89.59, 80.68 57.5, 130.16 0.52 M33.86 123.51 C67.14 83.36, 102.72 43.74, 139.48 2 M33.86 123.51 C74.11 75.69, 116.97 27.78, 139.48 2 M44.49 123.47 C84.1 79.08, 125.49 30.06, 146.83 5.74 M44.49 123.47 C85.03 76.6, 126.52 28.86, 146.83 5.74 M55.12 123.44 C79.04 95.33, 106.54 65.31, 154.18 9.48 M55.12 123.44 C83.25 93.21, 110.64 61.88, 154.18 9.48 M65.75 123.4 C99.59 82.37, 135.73 43.91, 158.25 16.99 M65.75 123.4 C83.93 101.18, 105.51 79.48, 158.25 16.99 M76.38 123.37 C98.88 95, 122.78 66.02, 159.7 27.52 M76.38 123.37 C96.68 100.33, 115.79 80.2, 159.7 27.52 M87.01 123.34 C108.49 99.85, 133.14 73.43, 164.42 34.28 M87.01 123.34 C116.19 90.86, 144.92 57.84, 164.42 34.28 M97.64 123.3 C116.2 102.17, 134.63 80.2, 164.56 46.32 M97.64 123.3 C117.52 98.8, 140.42 73.66, 164.56 46.32 M108.27 123.27 C125.27 104.39, 140.02 84.09, 164.69 58.36 M108.27 123.27 C123.45 105.61, 140.37 88.16, 164.69 58.36 M118.9 123.23 C133.49 106.31, 150.27 85.1, 164.17 71.16 M118.9 123.23 C132.95 106.22, 146.2 91.22, 164.17 71.16 M131.5 120.93 C141.64 108.24, 152.73 95.07, 164.3 83.2 M131.5 120.93 C143.18 107.67, 155.97 92.32, 164.3 83.2 M144.09 118.63 C150.08 112.63, 155.27 107.82, 161.15 99.01 M144.09 118.63 C147.52 113.52, 151.82 111.29, 161.15 99.01" stroke="#868e96" stroke-width="1" fill="none"></path><path d="M30 0 M30 0 C61.14 0.73, 90.51 2.37, 130 0 M30 0 C56.07 0.07, 82.63 1.29, 130 0 M130 0 C151.47 -0.52, 159.34 9.26, 160 30 M130 0 C150.57 -0.41, 159.31 11.57, 160 30 M160 30 C160.04 53.22, 160.86 77.4, 160 90 M160 30 C160.49 47.91, 160.35 65.71, 160 90 M160 90 C161.03 111.33, 148.62 118.95, 130 120 M160 90 C159.52 112.18, 150.05 119.07, 130 120 M130 120 C106.19 117.61, 84.59 117.47, 30 120 M130 120 C98.92 120.23, 66.37 120.37, 30 120 M30 120 C8.63 118.75, -0.5 110.16, 0 90 M30 120 C12.17 121.02, 2.24 112.12, 0 90 M0 90 C1.31 66.84, 0.72 43.18, 0 30 M0 90 C0.61 74.07, -1.2 57.98, 0 30 M0 30 C-1.81 10.73, 9.08 1.15, 30 0 M0 30 C-0.2 10, 8.82 1.99, 30 0" stroke="#343a40" stroke-width="2" fill="none"></path></g><g stroke-linecap="round"><g transform="translate(490 850) rotate(0 19.720384718803757 0.3441644065080709)"><path d="M-0.09 1.05 C6.54 0.8, 32.32 -0.24, 38.9 -0.36 M-1.6 0.55 C5.46 0.98, 34.38 0.78, 41.04 0.99" stroke="#343a40" stroke-width="2" fill="none"></path></g></g><g stroke-linecap="round"><g transform="translate(530 850) rotate(0 -0.2243269053893755 -39.820871241237)"><path d="M1.05 -1.1 C0.8 -14.51, -0.24 -67.56, -0.36 -80.58 M0.14 0.94 C-0.4 -12.31, -1.42 -65.67, -1.5 -79.35" stroke="#343a40" stroke-width="2" fill="none"></path></g></g><g stroke-linecap="round"><g transform="translate(530 770) rotate(0 -20.02763863323719 -21.008290316998227)"><path d="M-1.1 -0.36 C-7.85 -7.15, -34.23 -33.14, -40.58 -39.69 M0.53 -1.59 C-5.81 -8.25, -31.49 -35.56, -38.18 -41.66" stroke="#343a40" stroke-width="2" fill="none"></path></g></g><g stroke-linecap="round"><g transform="translate(530 770) rotate(0 19.972805558890173 -19.605961241116802)"><path d="M-0.36 -0.58 C6.18 -6.94, 33.52 -32.84, 40.31 -39.22 M1.65 1.73 C7.97 -4.87, 33.17 -33.87, 39.52 -40.94" stroke="#343a40" stroke-width="2" fill="none"></path></g></g><g stroke-linecap="round"><g transform="translate(270 290) rotate(0 -89.22546399054113 109.87332522025781)"><path d="M-0.58 0.31 C-30.27 37.09, -149.5 183.89, -179.22 220.33 M1.31 -0.58 C-28.37 35.86, -149.69 181.67, -179.76 218.38" stroke="#343a40" stroke-width="1" fill="none"></path></g><g transform="translate(270 290) rotate(0 -89.22546399054113 109.87332522025781)"><path d="M-9.87 29.96 C-7.7 24.61, -8.02 16.92, 0.1 -1.04 M-10.52 28.44 C-6.21 19.27, -3.9 7.14, -0.36 0.37" stroke="#343a40" stroke-width="1" fill="none"></path></g><g transform="translate(270 290) rotate(0 -89.22546399054113 109.87332522025781)"><path d="M-25.8 17.03 C-20.36 14.45, -17.35 9.46, 0.1 -1.04 M-26.46 15.51 C-16.35 11, -8.25 3.56, -0.36 0.37" stroke="#343a40" stroke-width="1" fill="none"></path></g><g transform="translate(270 290) rotate(0 -89.22546399054113 109.87332522025781)"><path d="M-169.21 191.4 C-171.35 197.77, -175.81 201.89, -179.08 217.03 M-169.87 189.88 C-172.7 201.32, -177.59 209.74, -179.54 218.44" stroke="#343a40" stroke-width="1" fill="none"></path></g><g transform="translate(270 290) rotate(0 -89.22546399054113 109.87332522025781)"><path d="M-153.39 204.47 C-158.79 208.03, -166.55 209.43, -179.08 217.03 M-154.05 202.95 C-162.63 209.68, -173.27 213.36, -179.54 218.44" stroke="#343a40" stroke-width="1" fill="none"></path></g></g><g stroke-linecap="round"><g transform="translate(570 150) rotate(0 -80.07241229631472 20.61292783186309)"><path d="M0.31 0.78 C-26.25 7.72, -132.77 34.55, -159.67 41.09 M-0.99 0.14 C-27.64 6.82, -134.15 32.67, -160.45 39.54" stroke="#343a40" stroke-width="1" fill="none"></path></g><g transform="translate(570 150) rotate(0 -80.07241229631472 20.61292783186309)"><path d="M-23.21 18.19 C-15.91 11.21, -10.99 9.15, -1.04 2.04 M-24.73 18.28 C-15.92 11.84, -10.07 7.44, 0.37 1.49" stroke="#343a40" stroke-width="1" fill="none"></path></g><g transform="translate(570 150) rotate(0 -80.07241229631472 20.61292783186309)"><path d="M-28.25 -1.7 C-19.69 -3.33, -13.4 -0.01, -1.04 2.04 M-29.77 -1.61 C-19.35 -1.87, -11.93 -0.11, 0.37 1.49" stroke="#343a40" stroke-width="1" fill="none"></path></g><g transform="translate(570 150) rotate(0 -80.07241229631472 20.61292783186309)"><path d="M-134.31 23.27 C-140.58 25.51, -149.06 32.55, -161.8 40.8 M-135.82 23.37 C-142.34 27.3, -151.89 33.34, -160.38 40.25" stroke="#343a40" stroke-width="1" fill="none"></path></g><g transform="translate(570 150) rotate(0 -80.07241229631472 20.61292783186309)"><path d="M-129.32 43.18 C-136.84 40.06, -146.67 41.72, -161.8 40.8 M-130.84 43.28 C-138.94 41.02, -150.04 40.89, -160.38 40.25" stroke="#343a40" stroke-width="1" fill="none"></path></g></g><g stroke-linecap="round"><g transform="translate(550 430) rotate(0 60.4061604398629 -100.3822801478209)"><path d="M0.78 0.33 C21.05 -33.24, 101.21 -167.77, 121.09 -201.09 M-0.28 -0.55 C19.99 -34.03, 100.79 -166.6, 120.71 -200.13" stroke="#343a40" stroke-width="1" fill="none"></path></g><g transform="translate(550 430) rotate(0 60.4061604398629 -100.3822801478209)"><path d="M6.98 -27.32 C3.27 -21.65, 4.34 -15.63, 2.04 0.53 M7.07 -28.21 C3.95 -20.54, 2.95 -10.03, 1.49 1.11" stroke="#343a40" stroke-width="1" fill="none"></path></g><g transform="translate(550 430) rotate(0 60.4061604398629 -100.3822801478209)"><path d="M24.59 -16.8 C16.42 -13.66, 13.07 -10.28, 2.04 0.53 M24.69 -17.68 C15.89 -13.45, 9.2 -6.35, 1.49 1.11" stroke="#343a40" stroke-width="1" fill="none"></path></g><g transform="translate(550 430) rotate(0 60.4061604398629 -100.3822801478209)"><path d="M115.49 -168.87 C114.5 -178.09, 118.45 -186.88, 121.97 -199.92 M115.58 -169.76 C116.24 -181.1, 118.94 -189.64, 121.43 -199.34" stroke="#343a40" stroke-width="1" fill="none"></path></g><g transform="translate(550 430) rotate(0 60.4061604398629 -100.3822801478209)"><path d="M97.91 -179.47 C101.37 -186.13, 109.74 -192.26, 121.97 -199.92 M98.01 -180.35 C104.34 -188.23, 112.71 -193.34, 121.43 -199.34" stroke="#343a40" stroke-width="1" fill="none"></path></g></g><g stroke-linecap="round"><g transform="translate(450 430) rotate(0 -50.382280147820666 -69.44501545354751)"><path d="M0.33 1.09 C-16.57 -22.37, -84.44 -116.33, -101.09 -139.98 M-0.96 0.61 C-17.53 -22.71, -82.42 -115.01, -98.95 -138.43" stroke="#343a40" stroke-width="1" fill="none"></path></g><g transform="translate(450 430) rotate(0 -50.382280147820666 -69.44501545354751)"><path d="M-22.67 -17.61 C-16.26 -9.68, -9.57 -3.61, 0.53 1.55 M-23.55 -16.39 C-18.35 -10.91, -10.3 -5.61, 1.11 1.37" stroke="#343a40" stroke-width="1" fill="none"></path></g><g transform="translate(450 430) rotate(0 -50.382280147820666 -69.44501545354751)"><path d="M-6.02 -29.6 C-4.95 -17.73, -3.68 -7.75, 0.53 1.55 M-6.9 -28.39 C-6.48 -19.38, -3.17 -10.65, 1.11 1.37" stroke="#343a40" stroke-width="1" fill="none"></path></g><g transform="translate(450 430) rotate(0 -50.382280147820666 -69.44501545354751)"><path d="M-72.52 -123.11 C-82.42 -126.12, -91.81 -131.12, -98.75 -137.96 M-73.4 -121.89 C-82.22 -125.8, -88.27 -130.19, -98.17 -138.15" stroke="#343a40" stroke-width="1" fill="none"></path></g><g transform="translate(450 430) rotate(0 -50.382280147820666 -69.44501545354751)"><path d="M-89.29 -111.29 C-93.81 -118.19, -97.75 -127.04, -98.75 -137.96 M-90.18 -110.08 C-94.19 -117.46, -95.45 -125.22, -98.17 -138.15" stroke="#343a40" stroke-width="1" fill="none"></path></g></g><g stroke-linecap="round"><g transform="translate(170 670) rotate(0 70.11084149630278 59.65904182121153)"><path d="M1.09 -1.09 C24.3 18.92, 117.01 100.1, 140.02 120.41 M0.2 0.95 C23.18 20.57, 115.51 98.86, 139.09 118.5" stroke="#343a40" stroke-width="1" fill="none"></path></g><g transform="translate(170 670) rotate(0 70.11084149630278 59.65904182121153)"><path d="M27.25 9.76 C19.52 4.69, 9.89 2.29, 1.55 -1.39 M28.47 8.81 C21.46 7.05, 14.18 4.76, 1.37 -1.15" stroke="#343a40" stroke-width="1" fill="none"></path></g><g transform="translate(170 670) rotate(0 70.11084149630278 59.65904182121153)"><path d="M13.75 25.22 C10.9 14.38, 6.2 6.35, 1.55 -1.39 M14.97 24.27 C11.61 18.09, 8.08 11.51, 1.37 -1.15" stroke="#343a40" stroke-width="1" fill="none"></path></g><g transform="translate(170 670) rotate(0 70.11084149630278 59.65904182121153)"><path d="M109.09 108.24 C121.9 110.35, 132.75 115.66, 139.55 118.2 M110.31 107.29 C119.02 110.86, 127.34 114.44, 139.37 118.44" stroke="#343a40" stroke-width="1" fill="none"></path></g><g transform="translate(170 670) rotate(0 70.11084149630278 59.65904182121153)"><path d="M122.31 92.54 C130.33 100.5, 136.37 111.53, 139.55 118.2 M123.52 91.59 C128.67 99.64, 133.32 107.58, 139.37 118.44" stroke="#343a40" stroke-width="1" fill="none"></path></g></g><g stroke-linecap="round"><g transform="translate(230 570) rotate(0 99.65904182121164 -20.39224829599266)"><path d="M-1.09 0.02 C32.26 -6.96, 166.77 -34.16, 200.41 -40.81 M0.54 -1.01 C33.73 -7.34, 166.37 -33.45, 199.68 -39.69" stroke="#343a40" stroke-width="1" fill="none"></path></g><g transform="translate(230 570) rotate(0 99.65904182121164 -20.39224829599266)"><path d="M24.53 -14.97 C14.92 -9.5, 8.09 -5.16, -1.39 -0.43 M23.58 -15.43 C15.39 -9.38, 6.8 -4.12, -1.15 0.45" stroke="#343a40" stroke-width="1" fill="none"></path></g><g transform="translate(230 570) rotate(0 99.65904182121164 -20.39224829599266)"><path d="M28.62 5.14 C17.49 4, 9.33 1.75, -1.39 -0.43 M27.67 4.68 C17.81 3.38, 7.72 1.33, -1.15 0.45" stroke="#343a40" stroke-width="1" fill="none"></path></g><g transform="translate(230 570) rotate(0 99.65904182121164 -20.39224829599266)"><path d="M173.97 -23.6 C180.87 -27.83, 190.84 -33.67, 199.38 -40.14 M173.02 -24.06 C183.23 -29.02, 193.31 -35.07, 199.62 -39.27" stroke="#343a40" stroke-width="1" fill="none"></path></g><g transform="translate(230 570) rotate(0 99.65904182121164 -20.39224829599266)"><path d="M170.09 -43.75 C178.44 -41.35, 189.68 -40.6, 199.38 -40.14 M169.14 -44.21 C180.95 -41.81, 192.44 -40.52, 199.62 -39.27" stroke="#343a40" stroke-width="1" fill="none"></path></g></g><g stroke-linecap="round"><g transform="translate(410 770) rotate(0 40.02822925212797 -90.28033733481084)"><path d="M0.02 0.41 C13.04 -29.28, 65.84 -149.22, 79.19 -179.24 M-1.42 -0.42 C11.88 -30.36, 68.01 -151.33, 81.48 -180.97" stroke="#343a40" stroke-width="1" fill="none"></path></g><g transform="translate(410 770) rotate(0 40.02822925212797 -90.28033733481084)"><path d="M2.67 -30.87 C2.21 -17.63, 0.65 -6.44, -0.43 1.69 M2.21 -29.46 C1.75 -17, 0.54 -6.08, 0.45 1.14" stroke="#343a40" stroke-width="1" fill="none"></path></g><g transform="translate(410 770) rotate(0 40.02822925212797 -90.28033733481084)"><path d="M21.45 -22.6 C13.73 -12.59, 4.83 -4.62, -0.43 1.69 M20.99 -21.19 C13.21 -12.15, 4.62 -4.48, 0.45 1.14" stroke="#343a40" stroke-width="1" fill="none"></path></g><g transform="translate(410 770) rotate(0 40.02822925212797 -90.28033733481084)"><path d="M79.71 -152.42 C81.52 -162.55, 81.68 -174.73, 81.03 -179.69 M79.25 -151 C80.89 -162.01, 81.42 -174.6, 81.9 -180.24" stroke="#343a40" stroke-width="1" fill="none"></path></g><g transform="translate(410 770) rotate(0 40.02822925212797 -90.28033733481084)"><path d="M61.07 -160.99 C70.08 -167.77, 77.52 -176.6, 81.03 -179.69 M60.61 -159.57 C69.52 -167.04, 77.37 -176.26, 81.9 -180.24" stroke="#343a40" stroke-width="1" fill="none"></path></g></g><g stroke-linecap="round"><g transform="translate(830 670) rotate(0 -99.69307269223498 -49.24730268999474)"><path d="M0.41 -0.81 C-32.62 -17.46, -165.89 -83.32, -199.24 -99.88 M-0.84 1.38 C-33.86 -15.05, -166.54 -81.55, -199.8 -98.28" stroke="#343a40" stroke-width="1" fill="none"></path></g><g transform="translate(830 670) rotate(0 -99.69307269223498 -49.24730268999474)"><path d="M-30.75 -2.89 C-22.97 -3.09, -17.23 -3.3, 1.69 1.05 M-29.34 -3.44 C-21.51 -3.14, -15.21 -2.19, 1.14 -1.72" stroke="#343a40" stroke-width="1" fill="none"></path></g><g transform="translate(830 670) rotate(0 -99.69307269223498 -49.24730268999474)"><path d="M-21.62 -21.27 C-15.75 -17.6, -11.92 -13.97, 1.69 1.05 M-20.21 -21.82 C-14.74 -17.1, -10.62 -11.75, 1.14 -1.72" stroke="#343a40" stroke-width="1" fill="none"></path></g><g transform="translate(830 670) rotate(0 -99.69307269223498 -49.24730268999474)"><path d="M-171.34 -93.54 C-176.03 -94.96, -182.76 -96.6, -198.52 -96.42 M-169.93 -94.08 C-176.32 -95.29, -184.29 -95.98, -199.06 -99.19" stroke="#343a40" stroke-width="1" fill="none"></path></g><g transform="translate(830 670) rotate(0 -99.69307269223498 -49.24730268999474)"><path d="M-180.55 -75.2 C-183.31 -80.49, -188.11 -85.96, -198.52 -96.42 M-179.13 -75.74 C-183.15 -81.36, -188.92 -86.44, -199.06 -99.19" stroke="#343a40" stroke-width="1" fill="none"></path></g></g><g stroke-linecap="round"><g transform="translate(670 470) rotate(0 69.65737021043901 -50.470655421851916)"><path d="M-0.81 0.76 C22.54 -15.93, 116.68 -82.88, 140.12 -99.72 M0.97 0.11 C24.17 -17, 116.24 -85.16, 139.24 -101.7" stroke="#343a40" stroke-width="1" fill="none"></path></g><g transform="translate(670 470) rotate(0 69.65737021043901 -50.470655421851916)"><path d="M17.46 -23.76 C11.61 -16.91, 5.57 -7.87, 1.05 -0.45 M16.92 -23.18 C12.98 -18.84, 9.58 -12.89, -1.72 0.26" stroke="#343a40" stroke-width="1" fill="none"></path></g><g transform="translate(670 470) rotate(0 69.65737021043901 -50.470655421851916)"><path d="M29.37 -7.04 C19.87 -5.32, 10.23 -1.33, 1.05 -0.45 M28.82 -6.46 C22.37 -5.61, 16.47 -3.15, -1.72 0.26" stroke="#343a40" stroke-width="1" fill="none"></path></g><g transform="translate(670 470) rotate(0 69.65737021043901 -50.470655421851916)"><path d="M123.8 -76.57 C127.96 -84.48, 132.09 -90.43, 141.09 -102.91 M123.26 -75.99 C126.25 -82.05, 129.88 -86.46, 138.33 -102.19" stroke="#343a40" stroke-width="1" fill="none"></path></g><g transform="translate(670 470) rotate(0 69.65737021043901 -50.470655421851916)"><path d="M111.69 -93.14 C119.56 -95.97, 127.34 -96.91, 141.09 -102.91 M111.14 -92.56 C116.7 -95.16, 122.86 -96.12, 138.33 -102.19" stroke="#343a40" stroke-width="1" fill="none"></path></g></g><g stroke-linecap="round"><g transform="translate(910 390) rotate(0 0.11660922072360336 100.20288186551079)"><path d="M0.76 0.12 C0.73 33.56, 0.45 166.38, 0.28 199.82 M-0.31 -0.86 C-0.5 32.84, -0.38 167.98, -0.52 201.27" stroke="#343a40" stroke-width="1" fill="none"></path></g><g transform="translate(910 390) rotate(0 0.11660922072360336 100.20288186551079)"><path d="M11.16 28.8 C7.44 18.52, 5.61 11.4, -0.45 -1.7 M11.74 28.61 C7.6 19.74, 5.1 9.32, 0.26 1.08" stroke="#343a40" stroke-width="1" fill="none"></path></g><g transform="translate(910 390) rotate(0 0.11660922072360336 100.20288186551079)"><path d="M-9.36 28.76 C-6.22 18.37, -1.2 11.26, -0.45 -1.7 M-8.78 28.57 C-6.31 19.57, -2.2 9.16, 0.26 1.08" stroke="#343a40" stroke-width="1" fill="none"></path></g><g transform="translate(910 390) rotate(0 0.11660922072360336 100.20288186551079)"><path d="M-10.54 173.52 C-7.82 181.97, -2.82 193.7, -1.73 199.44 M-9.96 173.34 C-7.49 182.5, -3.4 190.25, -1.02 202.23" stroke="#343a40" stroke-width="1" fill="none"></path></g><g transform="translate(910 390) rotate(0 0.11660922072360336 100.20288186551079)"><path d="M9.98 173.55 C5.85 182.12, 3.99 193.84, -1.73 199.44 M10.56 173.37 C6.42 182.67, 3.89 190.41, -1.02 202.23" stroke="#343a40" stroke-width="1" fill="none"></path></g></g><g stroke-linecap="round"><g transform="translate(770 210) rotate(0 19.2742053252598 30.25331260127041)"><path d="M0.12 0.28 C6.89 10.11, 33.05 49.59, 39.82 59.73 M-1.27 -0.62 C5.4 9.32, 31.83 51.13, 38.78 61.13" stroke="#343a40" stroke-width="1" fill="none"></path></g><g transform="translate(770 210) rotate(0 19.2742053252598 30.25331260127041)"><path d="M24.79 17.71 C18.13 15.19, 14.8 8.57, -1.7 0.72 M24.6 17.95 C17.19 13.5, 8.44 6.83, 1.08 0.75" stroke="#343a40" stroke-width="1" fill="none"></path></g><g transform="translate(770 210) rotate(0 19.2742053252598 30.25331260127041)"><path d="M7.73 29.12 C4.97 23.92, 5.61 14.65, -1.7 0.72 M7.54 29.36 C5.29 21.27, 1.76 11.1, 1.08 0.75" stroke="#343a40" stroke-width="1" fill="none"></path></g><g transform="translate(770 210) rotate(0 19.2742053252598 30.25331260127041)"><path d="M15.17 42.94 C19.97 48.65, 27.88 50.33, 36.96 61.57 M14.98 43.18 C22.64 49.27, 28.69 53.53, 39.74 61.6" stroke="#343a40" stroke-width="1" fill="none"></path></g><g transform="translate(770 210) rotate(0 19.2742053252598 30.25331260127041)"><path d="M32.3 31.64 C33.19 40.01, 37.11 44.31, 36.96 61.57 M32.12 31.89 C34.6 41.57, 35.4 49.3, 39.74 61.6" stroke="#343a40" stroke-width="1" fill="none"></path></g></g><g stroke-linecap="round"><g transform="translate(550 810) rotate(0 139.34848822511276 -50.565036104912906)"><path d="M0.28 -0.18 C46.77 -16.74, 232.92 -82.47, 279.73 -99.23 M-1.03 -1.32 C45.21 -18.23, 231.65 -84.54, 278.64 -100.95" stroke="#343a40" stroke-width="1" fill="none"></path></g><g transform="translate(550 810) rotate(0 139.34848822511276 -50.565036104912906)"><path d="M23.13 -19.71 C16.32 -10.42, 5.43 -7.18, 0.72 -0.04 M23.37 -18.84 C15.71 -13.01, 5.87 -4.05, 0.75 -0.41" stroke="#343a40" stroke-width="1" fill="none"></path></g><g transform="translate(550 810) rotate(0 139.34848822511276 -50.565036104912906)"><path d="M29.98 -0.37 C20.67 1.91, 7.29 -1.86, 0.72 -0.04 M30.22 0.51 C19.86 -0.84, 7.48 0.93, 0.75 -0.41" stroke="#343a40" stroke-width="1" fill="none"></path></g><g transform="translate(550 810) rotate(0 139.34848822511276 -50.565036104912906)"><path d="M255.18 -82.34 C265.15 -87.01, 271.06 -97.61, 279.09 -100.82 M255.42 -81.47 C264.67 -89.95, 272.06 -95.17, 279.11 -101.18" stroke="#343a40" stroke-width="1" fill="none"></path></g><g transform="translate(550 810) rotate(0 139.34848822511276 -50.565036104912906)"><path d="M248.35 -101.69 C260.81 -99.35, 269.21 -102.92, 279.09 -100.82 M248.59 -100.82 C260.53 -102.13, 270.46 -100.15, 279.11 -101.18" stroke="#343a40" stroke-width="1" fill="none"></path></g></g><g stroke-linecap="round"><g transform="translate(491.1735885891396 549.0313377183193) rotate(180.1138456143103 39.20453747128602 -0.49122456778195556)"><path d="M-0.18 -0.27 C13.16 -0.23, 67 0.75, 80.14 0.51 M-1.73 -1.46 C11.5 -1.75, 65.78 -1.11, 79.6 -1.02" stroke="#e67700" stroke-width="4" fill="none"></path></g></g><g stroke-linecap="round"><g transform="translate(548.5377109736492 471.7927594181965) rotate(180.1138456143103 10.422539841383696 40.2774528873058)"><path d="M-0.27 0.77 C3.2 14.01, 17.92 66.02, 21.11 79.27 M1.79 0.13 C5.18 13.52, 17.51 66.83, 20.75 80.43" stroke="#e67700" stroke-width="4" fill="none"></path></g></g><g stroke-linecap="round"><g transform="translate(550.0786545336857 469.71568754724285) rotate(180.1138456143103 -29.505022916207054 40.108106867801325)"><path d="M0.77 1.11 C-9.17 14.26, -49.85 65.49, -59.78 78.6 M-0.29 0.65 C-9.82 13.93, -47.59 66.15, -57.45 79.56" stroke="#e67700" stroke-width="4" fill="none"></path></g></g><g transform="translate(527 480) rotate(0 9.5 41.5)"><text x="9.5" y="58" font-family="Virgil, Segoe UI Emoji" font-size="65.45454545454575px" fill="#e67700" text-anchor="middle" style="white-space: pre;" direction="ltr">!</text></g><g stroke-linecap="round"><g transform="translate(710 390) rotate(0 29.769963193684816 30.283287207246758)"><path d="M-0.73 -1.09 C9.19 8.73, 50 49.74, 60.27 60.08 M1.09 0.95 C10.81 11.5, 49.55 51.97, 59.46 61.66" stroke="#c92a2a" stroke-width="4" fill="none"></path></g></g><g stroke-linecap="round"><g transform="translate(710 450) rotate(0 29.786084258370124 -30.208967529195434)"><path d="M-1.09 0.27 C8.83 -9.45, 50.23 -49.05, 60.67 -59.01 M0.53 -0.64 C10.21 -10.62, 49.64 -50.51, 59.76 -60.68" stroke="#c92a2a" stroke-width="4" fill="none"></path></g></g><g stroke-linecap="round"><g transform="translate(581 302) rotate(0 29.90396239937752 30.00898035070395)"><path d="M0.27 0.08 C10.53 10.42, 50.85 50.96, 60.86 60.94 M-1.05 -0.92 C9.19 9.19, 50.23 48.96, 60.36 59.31" stroke="#c92a2a" stroke-width="4" fill="none"></path></g></g><g stroke-linecap="round"><g transform="translate(581 362) rotate(0 30.094974857303328 -30.31184128041832)"><path d="M0.08 0.86 C10.52 -9.11, 51.45 -49.5, 61.53 -59.54 M-1.34 0.27 C9.12 -10.1, 50.9 -51.2, 61.07 -61.48" stroke="#c92a2a" stroke-width="4" fill="none"></path></g></g><g stroke-linecap="round"><g transform="translate(375 340) rotate(0 30.094962196662095 30.911147627653463)"><path d="M0.86 0.94 C10.87 10.92, 50.39 49.94, 60.34 59.93 M-0.15 0.39 C9.71 10.55, 49.54 51.67, 59.56 61.43" stroke="#c92a2a" stroke-width="4" fill="none"></path></g></g><g stroke-linecap="round"><g transform="translate(375 400) rotate(0 30.246189582380453 -30.442817858713624)"><path d="M0.94 0.34 C11.01 -9.7, 50.43 -49.15, 60.52 -59.37 M-0.03 -0.53 C9.88 -11.01, 49.34 -51.27, 59.53 -61.22" stroke="#c92a2a" stroke-width="4" fill="none"></path></g></g><g stroke-linecap="round"><g transform="translate(310 518) rotate(0 29.780956395878434 29.866185448975102)"><path d="M0.34 -0.07 C10.28 9.92, 50.75 50.97, 60.51 60.88 M-0.95 -1.15 C8.81 8.43, 49.46 48.96, 59.83 59.22" stroke="#c92a2a" stroke-width="4" fill="none"></path></g></g><g stroke-linecap="round"><g transform="translate(310 578) rotate(0 29.952179955574707 -30.228960677795158)"><path d="M-0.07 0.51 C10.02 -9.71, 51.46 -51.09, 61.47 -60.97 M-1.56 -0.27 C8.36 -10.41, 50.9 -49.97, 60.98 -60" stroke="#c92a2a" stroke-width="4" fill="none"></path></g></g><g stroke-linecap="round"><g transform="translate(422 650) rotate(0 30.181641095308578 30.467311640800972)"><path d="M0.51 0.88 C10.27 10.79, 48.8 49.46, 58.91 59.41 M-0.68 0.3 C9.41 10.37, 50.77 50.93, 61.05 60.64" stroke="#c92a2a" stroke-width="4" fill="none"></path></g></g><g stroke-linecap="round"><g transform="translate(422 710) rotate(0 31.140570789976096 -29.644314677668717)"><path d="M0.88 -1.09 C10.89 -10.96, 49.95 -48.88, 59.99 -58.72 M-0.12 0.95 C10.3 -9.27, 52.26 -50.25, 62.4 -60.24" stroke="#c92a2a" stroke-width="4" fill="none"></path></g></g><g stroke-linecap="round"><g transform="translate(691.0299313914031 591.0299313914029) rotate(0 30.03087539747355 29.986311446875334)"><path d="M-1.09 -0.59 C9.02 9.36, 51.02 50.39, 61.15 60.56 M0.54 1.71 C10.54 11.23, 51.1 49.3, 60.81 58.74" stroke="#c92a2a" stroke-width="4" fill="none"></path></g></g><g stroke-linecap="round"><g transform="translate(691.0299313914031 651.0299313914029) rotate(0 30.2790733454749 -29.497458192519844)"><path d="M-0.59 1.15 C9.45 -8.69, 50.88 -50.1, 61.15 -60.15 M1.3 0.71 C11.16 -8.85, 50.63 -48.46, 60.5 -58.75" stroke="#c92a2a" stroke-width="4" fill="none"></path></g></g><g stroke-linecap="round" transform="translate(450 70) rotate(0 10 10)"><path d="M6.08 -0.73 L18.01 1.6 L19.29 3.89 L19.78 20.03 L13.68 19.37 L-0.58 17.89 L-1.52 16.28 L1.38 4.67 L4.21 0.9" stroke="none" stroke-width="0" fill="#40c057"></path><path d="M5 0 M5 0 C6.79 -0.86, 9.4 0.12, 15 0 M5 0 C8.36 0.01, 12.14 -0.26, 15 0 M15 0 C18.2 -1.13, 20.65 1.53, 20 5 M15 0 C17.27 0.14, 21.53 2.46, 20 5 M20 5 C20.46 8.03, 19.41 13.34, 20 15 M20 5 C20.11 7.31, 19.96 9.56, 20 15 M20 15 C20.22 16.97, 18.13 18.82, 15 20 M20 15 C17.91 19, 19.31 21.9, 15 20 M15 20 C12.17 20.6, 8.85 20.68, 5 20 M15 20 C11.73 19.59, 7.4 19.92, 5 20 M5 20 C1.39 19.24, -1.14 17.26, 0 15 M5 20 C3.85 19.89, -0.04 18.56, 0 15 M0 15 C0.83 11.85, -0.28 10.27, 0 5 M0 15 C0.31 12.05, 0.46 10.04, 0 5 M0 5 C-1.45 0.31, 1.47 0.77, 5 0 M0 5 C0.13 3.03, 0.09 2.08, 5 0" stroke="#495057" stroke-width="2" fill="none"></path></g><g stroke-linecap="round" transform="translate(481 50) rotate(0 10 20)"><path d="M4.27 -0.74 L17.54 -0.4 L18.58 3.84 L21.28 33.68 L16.56 37.86 L1.95 38.17 L1.6 38.26 L1.86 4.21 L2.15 0.65 L4.05 -1.29" stroke="none" stroke-width="0" fill="#40c057"></path><path d="M5 0 M5 0 C7.15 0.48, 10 -0.03, 15 0 M5 0 C7.68 -0.11, 10.63 0.09, 15 0 M15 0 C18.2 -0.93, 20.12 2.99, 20 5 M15 0 C19.13 2.21, 17.86 2.93, 20 5 M20 5 C20.55 14.21, 18.47 26.81, 20 35 M20 5 C20.04 15.16, 19.34 25, 20 35 M20 35 C18.82 36.52, 18.91 40.85, 15 40 M20 35 C21.9 39.15, 16.17 39.45, 15 40 M15 40 C12.18 40.68, 8.2 40.64, 5 40 M15 40 C11.16 39.86, 7.4 39.64, 5 40 M5 40 C0.59 41.9, -0.1 38.3, 0 35 M5 40 C1.89 38.57, -1.09 38.25, 0 35 M0 35 C0.27 22.68, -1.31 11.37, 0 5 M0 35 C0.43 23.86, -0.42 14.08, 0 5 M0 5 C0.77 1.78, 2.85 -1.37, 5 0 M0 5 C2.08 1.89, 2.43 0.85, 5 0" stroke="#495057" stroke-width="2" fill="none"></path></g><g stroke-linecap="round" transform="translate(511 30) rotate(0 10 30)"><path d="M4.26 0.35 L16.48 -0.79 L20.71 4.09 L18.68 54.37 L15.36 58.83 L1.3 60.97 L1.38 59.05 L-0.79 5.9 L0.65 0.3 L3.71 -1.82" stroke="none" stroke-width="0" fill="#40c057"></path><path d="M5 0 M5 0 C7.46 0.82, 9.03 -0.05, 15 0 M5 0 C7.96 -0.23, 11.14 0.02, 15 0 M15 0 C17.41 0.12, 21.33 2.36, 20 5 M15 0 C20.55 -2.14, 21.26 2.94, 20 5 M20 5 C18.3 14.1, 20.23 26.41, 20 55 M20 5 C20.13 19.63, 19.92 35.03, 20 55 M20 55 C18.18 58.91, 19.18 61.65, 15 60 M20 55 C20.82 56.17, 17.79 61.21, 15 60 M15 60 C12 60.33, 8.34 60.77, 5 60 M15 60 C12.87 59.78, 10.6 59.7, 5 60 M5 60 C3.56 59.9, -0.04 58.53, 0 55 M5 60 C0.24 58.91, -0.09 60.14, 0 55 M0 55 C-0.8 42.32, -0.74 33.66, 0 5 M0 55 C-1.11 43.64, -0.49 34.02, 0 5 M0 5 C0.11 2.85, 0.29 1.81, 5 0 M0 5 C0.22 2.43, 2.52 0.59, 5 0" stroke="#495057" stroke-width="2" fill="none"></path></g><g stroke-linecap="round" transform="translate(541 10) rotate(0 10 40)"><path d="M5.35 -0.71 L16.08 1.34 L21.28 3.68 L19.37 73.17 L17.89 77.23 L16.28 81.07 L4.67 78.9 L0.9 74.4 L-0.95 3.71 L-0.57 -0.59 L3.01 0.12" stroke="none" stroke-width="0" fill="#40c057"></path><path d="M5 0 M5 0 C8.34 0, 12.51 -0.54, 15 0 M5 0 C7.9 -0.26, 10.9 0.3, 15 0 M15 0 C19.02 1.93, 18.14 2.76, 20 5 M15 0 C19.61 -2.14, 18.85 2.62, 20 5 M20 5 C20.26 21.05, 19.64 36.89, 20 75 M20 5 C18.93 25.86, 19.81 48.95, 20 75 M20 75 C21.65 79.05, 16.45 79.53, 15 80 M20 75 C21.21 79.76, 19.63 81.62, 15 80 M15 80 C12.08 79.11, 7.05 79.78, 5 80 M15 80 C11.87 80.42, 9.25 79.93, 5 80 M5 80 C1.86 78.76, -0.95 78.26, 0 75 M5 80 C3.48 78.22, -0.76 78.38, 0 75 M0 75 C1.48 55.63, 2.08 40.06, 0 5 M0 75 C0.86 59.14, 1.07 42.48, 0 5 M0 5 C1.81 1.86, 2.33 0.74, 5 0 M0 5 C0.59 2.42, 3.37 -2.12, 5 0" stroke="#495057" stroke-width="2" fill="none"></path></g><g stroke-linecap="round" transform="translate(109.99999999999955 829.9999999999995) rotate(0 10 10)"><path d="M6.93 -1.86 L19.85 2.36 L18.14 4 L19.58 17.3 L13.75 20.48 L1.95 18.87 L0.08 15.04 L0.53 1.45 L4.79 -1.18" stroke="none" stroke-width="0" fill="#40c057"></path><path d="M5 0 M5 0 C7.92 0.31, 8.24 -0.28, 15 0 M5 0 C8.88 0.25, 12.19 0.23, 15 0 M15 0 C19.74 -1.89, 18.6 1.12, 20 5 M15 0 C18.02 -0.87, 18.68 0.43, 20 5 M20 5 C20.09 8.33, 19.52 12.86, 20 15 M20 5 C19.93 8.55, 19.54 12.35, 20 15 M20 15 C20.94 16.61, 19.88 20.34, 15 20 M20 15 C18.33 16.77, 18.1 20.89, 15 20 M15 20 C12.85 20.03, 9.22 20.3, 5 20 M15 20 C11.28 20.49, 8.16 20.52, 5 20 M5 20 C1.9 21.72, -1.22 19.65, 0 15 M5 20 C3.52 20.95, 0.85 20.2, 0 15 M0 15 C0.99 12.59, -0.34 9.78, 0 5 M0 15 C0.41 12.37, -0.22 10.04, 0 5 M0 5 C-0.64 0.91, 0.34 1.31, 5 0 M0 5 C-0.32 2.5, 2.86 0.3, 5 0" stroke="#495057" stroke-width="2" fill="none"></path></g><g stroke-linecap="round" transform="translate(140.99999999999955 809.9999999999995) rotate(0 10 20)"><path d="M3.14 1.1 L18.3 -1.55 L18.69 3.64 L18.55 33.75 L17.67 40.39 L2.94 39.77 L0.35 37.41 L-1.36 4.79 L0.07 -0.57 L5.58 0.85" stroke="none" stroke-width="0" fill="#40c057"></path><path d="M5 0 M5 0 C8.59 0.62, 13.27 0.66, 15 0 M5 0 C9 0.33, 11.94 -0.38, 15 0 M15 0 C17.78 -0.27, 19.24 0.52, 20 5 M15 0 C17.1 2.18, 19.89 1.63, 20 5 M20 5 C19.74 15.87, 18.27 22.93, 20 35 M20 5 C19.4 14.53, 18.99 23.9, 20 35 M20 35 C20.34 36.88, 16.97 39.8, 15 40 M20 35 C20.89 38.46, 19.7 38.42, 15 40 M15 40 C11.47 40.29, 7.52 40.77, 5 40 M15 40 C13.36 39.99, 11.27 39.63, 5 40 M5 40 C2.98 41.61, 0.83 39.07, 0 35 M5 40 C3.53 37.98, -1.37 37.97, 0 35 M0 35 C-1.86 22.1, -0.17 12.63, 0 5 M0 35 C-0.04 23.28, -0.27 11.54, 0 5 M0 5 C1.31 1.39, 2.39 1.04, 5 0 M0 5 C0.3 -0.22, 0.9 -2.29, 5 0" stroke="#495057" stroke-width="2" fill="none"></path></g><g stroke-linecap="round" transform="translate(170.99999999999955 789.9999999999995) rotate(0 10 30)"><path d="M6.1 1.11 L15.33 -0.69 L20.51 1.36 L18.75 55.48 L17.89 59.81 L2.89 59.73 L0.53 55.83 L-0.21 3.82 L-0.57 1.83 L5.85 1.65" stroke="none" stroke-width="0" fill="#40c057"></path><path d="M5 0 M5 0 C8.88 0.65, 12.28 0.73, 15 0 M5 0 C8.97 -0.53, 11.9 -0.2, 15 0 M15 0 C18.06 -0.76, 18.86 0.59, 20 5 M15 0 C20.51 -0.11, 19.96 1.89, 20 5 M20 5 C21.34 15.34, 19.1 28.82, 20 55 M20 5 C20.08 16.74, 20.39 30.37, 20 55 M20 55 C18.55 56.97, 18.13 60.77, 15 60 M20 55 C20.13 59.7, 16.75 62.08, 15 60 M15 60 C12.16 60.36, 9.55 59.12, 5 60 M15 60 C11.23 60.52, 7.03 60.42, 5 60 M5 60 C3.27 60.83, 0.74 59.96, 0 55 M5 60 C-0.35 58.63, -0.36 60.47, 0 55 M0 55 C-0.91 41.17, 1.4 29.45, 0 5 M0 55 C-0.09 41.44, -0.43 29.29, 0 5 M0 5 C-0.28 2.39, 2.71 0.26, 5 0 M0 5 C-1.88 0.9, -0.62 -1.68, 5 0" stroke="#495057" stroke-width="2" fill="none"></path></g><g stroke-linecap="round" transform="translate(200.99999999999955 769.9999999999995) rotate(0 10 40)"><path d="M5 0 M5 0 C8.97 -0.68, 11.48 0.29, 15 0 M5 0 C8.36 0.05, 11.36 -0.06, 15 0 M15 0 C17.15 -1.82, 20.58 2.52, 20 5 M15 0 C20.23 0.82, 17.84 1.12, 20 5 M20 5 C21.85 30.94, 20.96 55.56, 20 75 M20 5 C19.06 30.79, 18.96 56.27, 20 75 M20 75 C18.92 80.23, 18.24 79.96, 15 80 M20 75 C20.23 76.9, 17.25 79.91, 15 80 M15 80 C11.23 79.49, 6.66 79.51, 5 80 M15 80 C11.61 79.71, 7.72 80.03, 5 80 M5 80 C2.44 80.11, 1.19 76.96, 0 75 M5 80 C3.74 80.22, 0.76 79.18, 0 75 M0 75 C-2.07 53.87, -1.55 31.18, 0 5 M0 75 C0.06 53.99, -0.19 31.74, 0 5 M0 5 C1.62 -0.09, 0.48 -0.31, 5 0 M0 5 C2.14 1.01, 0.75 -2.23, 5 0" stroke="#495057" stroke-width="2" fill="none"></path></g><g stroke-linecap="round" transform="translate(990 470) rotate(0 10 10)"><path d="M5.83 -1.45 L17.5 1.73 L20.7 5.12 L18.83 18.79 L15.22 18.64 L1.04 17.57 L-1.82 15.58 L1.16 4.46 L5.71 -1.88" stroke="none" stroke-width="0" fill="#40c057"></path><path d="M5 0 M5 0 C8.33 0.64, 11.15 0.2, 15 0 M5 0 C8.23 -0.04, 12.09 -0.09, 15 0 M15 0 C17.19 -1.08, 21.9 1.57, 20 5 M15 0 C18.29 0.23, 18.57 0.58, 20 5 M20 5 C19.75 7.98, 19.6 10.15, 20 15 M20 5 C20.43 7.63, 19.68 9.75, 20 15 M20 15 C19.8 19.11, 18.45 21.19, 15 20 M20 15 C18.42 20.41, 18.55 20.76, 15 20 M15 20 C12.37 19.11, 9.09 19.37, 5 20 M15 20 C10.81 20.42, 7.64 20.29, 5 20 M5 20 C2.4 21.62, -1.75 17.15, 0 15 M5 20 C1.31 22.14, -0.66 17.42, 0 15 M0 15 C0.66 13.77, -0.31 10.48, 0 5 M0 15 C-0.3 12.47, -0.04 9.47, 0 5 M0 5 C1.04 1.93, 0.03 -0.67, 5 0 M0 5 C-2.29 -0.01, -0.32 0.42, 5 0" stroke="#495057" stroke-width="2" fill="none"></path></g><g stroke-linecap="round" transform="translate(1021 450) rotate(0 10 20)"><path d="M3.55 -1.25 L17.67 1.01 L19.81 2.89 L20.04 35.22 L15.83 39.48 L1.63 37.87 L0.89 38.04 L1.65 5.71 L-0.63 0.78 L6.06 1.24" stroke="none" stroke-width="0" fill="#40c057"></path><path d="M5 0 M5 0 C8.83 0.52, 12.83 -1.01, 15 0 M5 0 C7.11 -0.27, 9.33 0.49, 15 0 M15 0 C18.24 -0.04, 20.2 0.42, 20 5 M15 0 C17.25 -0.09, 21.81 -0.11, 20 5 M20 5 C18.47 12.1, 20.95 19.29, 20 35 M20 5 C19.37 16.22, 20.44 27.69, 20 35 M20 35 C21.19 36.96, 20.14 40.19, 15 40 M20 35 C20.76 39.18, 18.92 40.75, 15 40 M15 40 C10.6 40.97, 7.64 40.94, 5 40 M15 40 C12.82 40.26, 10.63 39.64, 5 40 M5 40 C0.48 39.69, 1.86 37.76, 0 35 M5 40 C0.75 37.77, -1.27 38.04, 0 35 M0 35 C-1.15 23.91, -0.88 12.63, 0 5 M0 35 C0.16 28.51, -0.06 20.15, 0 5 M0 5 C-0.67 -0.32, 0.2 -1.73, 5 0 M0 5 C0.42 0.23, 3.71 2.03, 5 0" stroke="#495057" stroke-width="2" fill="none"></path></g><g stroke-linecap="round" transform="translate(1051 430) rotate(0 10 30)"><path d="M3.75 0.48 L17.89 0.44 L19.77 2.85 L20.22 53.64 L16.98 58.5 L0.99 60.26 L1.16 58.84 L0.71 3.12 L0.78 2.31 L6.24 1.13" stroke="none" stroke-width="0" fill="#40c057"></path><path d="M5 0 M5 0 C9.29 0.68, 11.47 -0.73, 15 0 M5 0 C7.44 -0.23, 10.92 0.01, 15 0 M15 0 C18.3 0.2, 18.76 0.72, 20 5 M15 0 C18.25 1.81, 18.22 0.91, 20 5 M20 5 C18.85 21.05, 18.03 36.76, 20 55 M20 5 C19.54 21.23, 19.69 37.27, 20 55 M20 55 C18.63 60.14, 18.52 60.66, 15 60 M20 55 C20.85 58.92, 19.09 61.7, 15 60 M15 60 C13.8 60.05, 11.7 59.32, 5 60 M15 60 C11.53 60.45, 7.25 59.74, 5 60 M5 60 C1.35 61.86, -0.57 57.54, 0 55 M5 60 C-0.57 58.73, -0.3 59.72, 0 55 M0 55 C-0.11 35.37, -0.58 15.68, 0 5 M0 55 C0.59 36.86, -0.75 18.13, 0 5 M0 5 C-1.99 0.2, -0.06 0.37, 5 0 M0 5 C-1.44 3.71, 3.69 -1.35, 5 0" stroke="#495057" stroke-width="2" fill="none"></path></g><g stroke-linecap="round" transform="translate(1081 410) rotate(0 10 40)"><path d="M5 0 M5 0 C8.28 0.01, 11.59 -0.69, 15 0 M5 0 C8.04 0.3, 11.2 0.27, 15 0 M15 0 C16.45 -0.47, 21.06 2.91, 20 5 M15 0 C19.63 1.62, 21.43 2.27, 20 5 M20 5 C19.09 29.51, 20.22 54.37, 20 75 M20 5 C19.58 21.97, 19.72 38.36, 20 75 M20 75 C19.05 78.26, 19.91 78.46, 15 80 M20 75 C19.24 78.38, 17.23 78.23, 15 80 M15 80 C13.23 80.08, 9.18 79.23, 5 80 M15 80 C12.4 79.66, 9.65 80.05, 5 80 M5 80 C2.33 80.74, 0.51 78.99, 0 75 M5 80 C3.37 77.88, 1.91 76.82, 0 75 M0 75 C-1.31 49.14, 1.53 21.46, 0 5 M0 75 C-1.16 51.27, 0.36 27.56, 0 5 M0 5 C-0.8 -0.27, 0.56 -0.26, 5 0 M0 5 C1.38 3.51, 0.83 -1.05, 5 0" stroke="#495057" stroke-width="2" fill="none"></path></g><g stroke-linecap="round" transform="translate(690 850) rotate(0 10 10)"><path d="M5.26 -1.64 L18.08 -0.74 L18.54 3.27 L19.12 17.5 L16.78 21.76 L0.07 20.46 L-0.69 13.45 L-0.31 1.49 L5.16 1.28" stroke="none" stroke-width="0" fill="#fd7e14"></path><path d="M5 0 M5 0 C7.44 0.91, 11.53 -0.89, 15 0 M5 0 C8.84 0.44, 12.4 0.06, 15 0 M15 0 C16.54 0.5, 19.39 3.26, 20 5 M15 0 C18.34 -0.1, 21.41 0.95, 20 5 M20 5 C19.21 7.89, 19.4 12.35, 20 15 M20 5 C20.49 7.96, 19.78 11.85, 20 15 M20 15 C19.61 18.06, 18.5 20.46, 15 20 M20 15 C18.29 17.57, 17.73 19.63, 15 20 M15 20 C11.67 20.32, 9.99 20.41, 5 20 M15 20 C11.42 19.75, 7.57 20.47, 5 20 M5 20 C2.3 18.05, -1.79 17.6, 0 15 M5 20 C-0.24 20.97, 1.29 18.19, 0 15 M0 15 C-0.57 11.41, 0.67 8.2, 0 5 M0 15 C-0.21 11.56, -0.57 7.48, 0 5 M0 5 C0.99 1.83, 0.57 -0.37, 5 0 M0 5 C-1.88 2.94, -0.16 2.12, 5 0" stroke="#495057" stroke-width="2" fill="none"></path></g><g stroke-linecap="round" transform="translate(721 830) rotate(0 10 20)"><path d="M3.36 -0.67 L15.2 -1.15 L17.96 3.18 L18.75 36.78 L18.95 38.51 L4.52 39 L-1.23 36.56 L-1.32 5.16 L2.53 1.64 L3.73 1.03" stroke="none" stroke-width="0" fill="#fd7e14"></path><path d="M5 0 M5 0 C6.41 0.8, 10.33 -0.49, 15 0 M5 0 C8.07 -0.41, 11.25 -0.11, 15 0 M15 0 C19.93 0.01, 19.91 2.89, 20 5 M15 0 C17.62 0.79, 20.72 2.99, 20 5 M20 5 C21.19 12.32, 21.57 19.76, 20 35 M20 5 C19.87 16.26, 19.6 27.98, 20 35 M20 35 C20.46 36.84, 17.67 39.48, 15 40 M20 35 C19.63 37.47, 19.07 42.28, 15 40 M15 40 C13.02 40.62, 9.61 40.52, 5 40 M15 40 C12.38 40.11, 8.45 39.51, 5 40 M5 40 C0.93 38.34, 0.84 39.46, 0 35 M5 40 C1.52 41.04, 0.5 37.04, 0 35 M0 35 C0.24 28.7, 1.9 19.86, 0 5 M0 35 C-0.98 27.19, 0.03 17.84, 0 5 M0 5 C-0.37 0.03, 2.78 -1.59, 5 0 M0 5 C2.12 0.69, 3.01 -1.78, 5 0" stroke="#495057" stroke-width="2" fill="none"></path></g><g stroke-linecap="round" transform="translate(751 810) rotate(0 10 30)"><path d="M5 0 M5 0 C6.8 0.26, 9.7 0.96, 15 0 M5 0 C8.71 -0.47, 12.61 -0.42, 15 0 M15 0 C18.49 1.28, 20.39 0.4, 20 5 M15 0 C19.52 -1.75, 22.2 1.99, 20 5 M20 5 C19.45 15.96, 21.97 25.8, 20 55 M20 5 C19.24 20.88, 19.55 35.11, 20 55 M20 55 C21.23 57.71, 19.02 60.62, 15 60 M20 55 C21.32 56.44, 17.28 58.55, 15 60 M15 60 C12.19 60.9, 6.81 59.47, 5 60 M15 60 C11.91 60.1, 8.37 59.82, 5 60 M5 60 C1.14 59.67, -0.75 58.97, 0 55 M5 60 C3.94 58.38, 0.51 58.88, 0 55 M0 55 C0.7 38.5, -1.49 20.95, 0 5 M0 55 C-1.05 35.46, -0.99 17.07, 0 5 M0 5 C1.12 1.54, 2.57 0.43, 5 0 M0 5 C-1.3 0.4, 1.33 1.59, 5 0" stroke="#495057" stroke-width="2" fill="none"></path></g><g stroke-linecap="round" transform="translate(781 790) rotate(0 10 40)"><path d="M5 0 M5 0 C7.19 -0.54, 9.9 0.97, 15 0 M5 0 C7.03 -0.12, 9.49 0.07, 15 0 M15 0 C19.61 0.39, 18.73 2.7, 20 5 M15 0 C16.59 2.2, 20.33 -0.25, 20 5 M20 5 C20.72 33.23, 19.73 58.37, 20 75 M20 5 C20.97 19.71, 20.13 35.03, 20 75 M20 75 C19.38 79.02, 18.96 81.15, 15 80 M20 75 C18.11 77.28, 16.89 81.53, 15 80 M15 80 C12.42 79.22, 7.59 80.21, 5 80 M15 80 C12.31 79.64, 9.22 79.88, 5 80 M5 80 C1.34 79.25, 0.64 80.31, 0 75 M5 80 C0.05 80.51, 0.55 79.06, 0 75 M0 75 C0.63 48.61, -0.35 26.26, 0 5 M0 75 C0.32 50.96, 1.1 29.15, 0 5 M0 5 C-0.12 2.57, 2.1 -1.13, 5 0 M0 5 C-1.27 1.33, 3.25 0.23, 5 0" stroke="#495057" stroke-width="2" fill="none"></path></g><g stroke-linecap="round" transform="translate(830 170) rotate(0 10 10)"><path d="M5.64 1.98 L17.34 1.69 L20.48 5.63 L19.95 17.14 L16 20.07 L0.06 17.84 L1.67 15.63 L-1.64 1.02 L4.27 -1.66" stroke="none" stroke-width="0" fill="#40c057"></path><path d="M5 0 M5 0 C8.87 0.22, 11.28 -0.54, 15 0 M5 0 C8.12 0.45, 10.6 -0.13, 15 0 M15 0 C18.69 -1.9, 18.14 2.66, 20 5 M15 0 C18.52 -1.27, 19.58 -0.21, 20 5 M20 5 C19.5 9.14, 19.15 13.05, 20 15 M20 5 C20.03 8.6, 20.24 12.01, 20 15 M20 15 C20.5 16.52, 17.65 19.47, 15 20 M20 15 C22.17 19.78, 20.29 22.02, 15 20 M15 20 C13.17 20.36, 10.06 19.11, 5 20 M15 20 C11.64 19.54, 7.48 19.94, 5 20 M5 20 C0 19.06, -0.27 17.11, 0 15 M5 20 C0.88 18.71, 1.42 19.29, 0 15 M0 15 C0.01 11.62, 0.95 9.51, 0 5 M0 15 C-0.28 11.57, -0.15 9.14, 0 5 M0 5 C-0.38 0.24, 1.6 -1.6, 5 0 M0 5 C2.23 2.51, 0.28 2.28, 5 0" stroke="#495057" stroke-width="2" fill="none"></path></g><g stroke-linecap="round" transform="translate(861 150) rotate(0 10 20)"><path d="M6.98 -1.41 L17.63 0.79 L20.32 4.01 L18.39 36 L17.25 38.5 L1.9 41.36 L0.94 35.24 L-1.79 4.27 L-0.41 2.09 L6.12 -0.12" stroke="none" stroke-width="0" fill="#40c057"></path><path d="M5 0 M5 0 C7.9 -0.09, 12.59 0.16, 15 0 M5 0 C8.41 0.11, 11.58 -0.44, 15 0 M15 0 C19.32 0.16, 18.9 1.3, 20 5 M15 0 C16.45 1.28, 18.17 3.78, 20 5 M20 5 C22.05 13.26, 19.78 21.02, 20 35 M20 5 C21.17 14.52, 19.3 23.21, 20 35 M20 35 C19.47 40.22, 19.59 41.7, 15 40 M20 35 C22.02 36.85, 16.61 40.8, 15 40 M15 40 C10.55 40.64, 8.31 39.8, 5 40 M15 40 C11.36 39.54, 7.56 39.89, 5 40 M5 40 C0.44 39.31, -1.13 39.57, 0 35 M5 40 C2.63 39.11, 0.43 40.59, 0 35 M0 35 C-0.3 26.1, -1 18.5, 0 5 M0 35 C0.87 27.87, -0.51 21.08, 0 5 M0 5 C-1.6 3.6, 2.4 -1.21, 5 0 M0 5 C2.28 2.12, 1.25 -1.51, 5 0" stroke="#495057" stroke-width="2" fill="none"></path></g><g stroke-linecap="round" transform="translate(891 130) rotate(0 10 30)"><path d="M3.59 0.44 L17.66 0.94 L20.89 1.2 L21 55.07 L16 58.78 L4.48 60.32 L-1.64 55.4 L-0.73 3.34 L2.09 2.37 L4.88 0.9" stroke="none" stroke-width="0" fill="#40c057"></path><path d="M5 0 M5 0 C8.07 0.74, 11.53 0.58, 15 0 M5 0 C9.02 -0.45, 12.39 0.27, 15 0 M15 0 C18.49 -1.1, 19.63 0.03, 20 5 M15 0 C19.61 -1.83, 22.12 0.69, 20 5 M20 5 C20.14 22.52, 20.18 41.01, 20 55 M20 5 C20.51 22.48, 19.91 41.51, 20 55 M20 55 C21.88 59.59, 20.03 61.75, 15 60 M20 55 C18.51 56.61, 19.13 61.21, 15 60 M15 60 C12.34 60.26, 8.17 60.51, 5 60 M15 60 C12.48 59.76, 10.72 59.69, 5 60 M5 60 C0.98 58.87, 1.23 59.17, 0 55 M5 60 C0.77 60.43, 2.26 58.4, 0 55 M0 55 C-0.3 42.59, 1.19 31.27, 0 5 M0 55 C0.02 42.64, 0.18 30.91, 0 5 M0 5 C1.94 2.4, 0.46 1.98, 5 0 M0 5 C0.45 1.25, 0.15 1.08, 5 0" stroke="#495057" stroke-width="2" fill="none"></path></g><g stroke-linecap="round" transform="translate(921 110) rotate(0 10 40)"><path d="M5.44 0.48 L17.82 1.51 L18.39 6 L20.07 73.81 L17.84 80.42 L15.63 78.05 L1.02 78.95 L-1.66 75.84 L1.12 4.88 L2.15 1.68 L3.87 -1.1" stroke="none" stroke-width="0" fill="#40c057"></path><path d="M5 0 M5 0 C8.38 0.92, 10.49 -0.24, 15 0 M5 0 C8.43 0.13, 11.08 0, 15 0 M15 0 C16.7 1.11, 18.41 3.51, 20 5 M15 0 C17.36 1.34, 18.22 3.83, 20 5 M20 5 C20.05 29.21, 20.89 52.63, 20 75 M20 5 C19.1 28.69, 20 51.34, 20 75 M20 75 C21.75 77.04, 16.84 80.7, 15 80 M20 75 C21.21 79.08, 17.8 77.87, 15 80 M15 80 C11.94 79.09, 7.28 79.9, 5 80 M15 80 C12.53 79.81, 10.38 80.3, 5 80 M5 80 C2.5 79.22, 0.37 80.3, 0 75 M5 80 C1.74 78.24, 2.24 77.73, 0 75 M0 75 C-0.94 51.99, -0.42 33, 0 5 M0 75 C-0.3 56.3, 0.87 35.06, 0 5 M0 5 C1.98 2.06, 1.31 -1.32, 5 0 M0 5 C1.08 2.93, 1.04 -0.14, 5 0" stroke="#495057" stroke-width="2" fill="none"></path></g><g stroke-linecap="round" transform="translate(30 370) rotate(0 10 10)"><path d="M6.17 -1.54 L20.63 1.78 L19.61 5.56 L18.93 20.11 L16.02 21.94 L1.75 16.94 L-0.68 14.47 L2.2 4.07 L6.7 1.75" stroke="none" stroke-width="0" fill="#40c057"></path><path d="M5 0 M5 0 C7.88 0.29, 9.47 -0.96, 15 0 M5 0 C8.96 -0.43, 12.12 -0.02, 15 0 M15 0 C16.67 -0.94, 19.73 0.44, 20 5 M15 0 C17.54 -1.29, 21.42 2.63, 20 5 M20 5 C20.05 6.85, 20.99 9.96, 20 15 M20 5 C19.6 7.76, 19.72 11.53, 20 15 M20 15 C19.62 16.91, 18.27 18.4, 15 20 M20 15 C22.23 19.18, 16.95 22.28, 15 20 M15 20 C12.27 20.48, 8.34 19.87, 5 20 M15 20 C12.11 19.58, 8.81 19.65, 5 20 M5 20 C3.53 21.64, -0.36 17.83, 0 15 M5 20 C3.7 20.15, 0.95 16.6, 0 15 M0 15 C0.23 10.91, 0.24 8.19, 0 5 M0 15 C-0.24 12.2, -0.04 8.51, 0 5 M0 5 C-0.51 2.74, 0.48 1.77, 5 0 M0 5 C-1.77 1.12, 2.56 -0.63, 5 0" stroke="#495057" stroke-width="2" fill="none"></path></g><g stroke-linecap="round" transform="translate(61 350) rotate(0 10 20)"><path d="M3.46 1.88 L17.72 -0.08 L20.25 3 L21.36 36.02 L19.12 40.19 L1 39 L-0.22 39.07 L1.26 6.7 L3 -0.04 L3.51 0.7" stroke="none" stroke-width="0" fill="#40c057"></path><path d="M5 0 M5 0 C7.6 0.68, 12.41 -0.15, 15 0 M5 0 C8.56 -0.38, 11.97 -0.03, 15 0 M15 0 C17.11 -0.69, 18.87 2.9, 20 5 M15 0 C19.29 -0.89, 20.43 3.92, 20 5 M20 5 C19.24 14.28, 18.54 24.86, 20 35 M20 5 C20.47 11.75, 19.08 18.86, 20 35 M20 35 C18.4 40.27, 19.07 38.79, 15 40 M20 35 C22.28 38.78, 17.92 38.49, 15 40 M15 40 C11.47 39.86, 8.81 39, 5 40 M15 40 C11.76 40.38, 9.43 39.83, 5 40 M5 40 C1.16 41.77, 0.13 39.16, 0 35 M5 40 C-0.07 41.39, 1.7 38.96, 0 35 M0 35 C0.95 25.22, -0.48 15.4, 0 5 M0 35 C-0.86 27.37, 0.38 19.66, 0 5 M0 5 C1.77 0.13, 1.19 0.78, 5 0 M0 5 C-0.63 0.61, 3.37 -1.15, 5 0" stroke="#495057" stroke-width="2" fill="none"></path></g><g stroke-linecap="round" transform="translate(91 330) rotate(0 10 30)"><path d="M6.88 0.53 L16.79 0.87 L19.87 4.17 L21.02 56.94 L17.69 57.87 L2.13 59.16 L2.2 58.45 L1.7 6.75 L-0.04 -0.24 L5.7 1.05" stroke="none" stroke-width="0" fill="#40c057"></path><path d="M5 0 M5 0 C8.99 0.45, 11.48 0.7, 15 0 M5 0 C6.69 -0.23, 9.15 -0.3, 15 0 M15 0 C17.65 -1.13, 21.23 2.5, 20 5 M15 0 C17.44 0.43, 22.26 1.74, 20 5 M20 5 C20.68 14.95, 22.17 25.98, 20 55 M20 5 C19.6 15.93, 19.75 27.49, 20 55 M20 55 C21.94 59.07, 17.13 61.98, 15 60 M20 55 C20.45 57.92, 16.82 61.08, 15 60 M15 60 C11.34 60.74, 6.93 59.98, 5 60 M15 60 C13.11 60.36, 10.2 59.82, 5 60 M5 60 C3.44 60.13, 0.82 56.83, 0 55 M5 60 C3.06 61.7, 0.63 59.03, 0 55 M0 55 C-0.02 41.81, 0.06 28.78, 0 5 M0 55 C-0.18 37.88, -0.52 20.57, 0 5 M0 5 C-1.54 1.19, 2.44 -0.55, 5 0 M0 5 C-1.06 3.37, 0.52 1.19, 5 0" stroke="#495057" stroke-width="2" fill="none"></path></g><g stroke-linecap="round" transform="translate(121 310) rotate(0 10 40)"><path d="M5 0 M5 0 C8.36 0.65, 12.04 0.94, 15 0 M5 0 C8.12 0.51, 11.81 0.46, 15 0 M15 0 C20.09 -1.29, 18.51 2.36, 20 5 M15 0 C19.54 0.75, 19.46 -0.46, 20 5 M20 5 C21.46 28.84, 19.45 56.1, 20 75 M20 5 C19.06 19.83, 19.11 35.97, 20 75 M20 75 C20.83 77.56, 18.71 81.96, 15 80 M20 75 C20.07 76.58, 20.57 79.39, 15 80 M15 80 C11.22 79.41, 8.38 80.76, 5 80 M15 80 C11.79 80.48, 9.56 79.7, 5 80 M5 80 C3.65 80.39, -0.36 77.02, 0 75 M5 80 C2.74 81.26, -0.62 78.2, 0 75 M0 75 C-0.55 53.5, -2.2 33.56, 0 5 M0 75 C-0.83 48.35, -0.51 20.35, 0 5 M0 5 C-1.51 2.88, 3.14 0.55, 5 0 M0 5 C0.7 0.55, 2.38 0.93, 5 0" stroke="#495057" stroke-width="2" fill="none"></path></g></svg>