<svg version="1.1" xmlns="http://www.w3.org/2000/svg" viewBox="0 0 380 300" width="760" height="600">
  <!-- svg-source:excalidraw -->
  
  <defs>
    <style>
      @font-face {
        font-family: "Virgil";
        src: url("https://excalidraw.com/Virgil.woff2");
      }
      @font-face {
        font-family: "Cascadia";
        src: url("https://excalidraw.com/Cascadia.woff2");
      }
    </style>
  </defs>
  <g stroke-linecap="round"><g transform="translate(270 150) rotate(0 39.73070515766739 -29.733309755748905)"><path d="M-0.36 -1.18 C12.81 -11.37, 66.61 -50.3, 79.82 -60.28 M1.65 0.82 C14.57 -9.27, 65.52 -48.7, 78.78 -58.9" stroke="#495057" stroke-width="1" fill="none"></path></g></g><g stroke-linecap="round"><g transform="translate(270 150) rotate(0 39.268665762990736 -0.7223952268718676)"><path d="M-1.18 -0.18 C11.97 -0.3, 66.37 -1.04, 79.72 -1.09 M0.4 -1.31 C13.29 -1.3, 65.15 -0.44, 78.62 -0.13" stroke="#495057" stroke-width="1" fill="none"></path></g></g><g stroke-linecap="round"><g transform="translate(270 150) rotate(0 39.658102023703975 29.182786214696534)"><path d="M-0.18 -0.28 C13.04 9.73, 65.63 48.78, 78.91 58.89 M-1.73 -1.48 C11.87 8.74, 67.68 49.89, 81.04 59.85" stroke="#495057" stroke-width="1" fill="none"></path></g></g><g stroke-linecap="round"><g transform="translate(270 150) rotate(0 40.36762975830118 59.836062956792375)"><path d="M-0.28 -1.09 C13.06 18.85, 65.44 99.25, 78.89 119.49 M1.77 0.95 C15.57 21.07, 68.01 101.22, 81.02 120.77" stroke="#495057" stroke-width="1" fill="none"></path></g></g><g stroke-linecap="round"><g transform="translate(270 230) rotate(0 39.20015834942461 -70.29746960784314)"><path d="M-1.09 -1.11 C12.18 -24.33, 65.92 -116.57, 79.49 -139.6 M0.53 0.92 C13.62 -22.64, 65.07 -117.82, 78.28 -141.52" stroke="#495057" stroke-width="1" fill="none"></path></g></g><g stroke-linecap="round"><g transform="translate(270 230) rotate(0 39.643685074895586 -41.04704766924942)"><path d="M-1.11 -0.51 C12.34 -13.6, 66.76 -66.31, 80.4 -79.65 M0.51 -1.82 C13.86 -15.19, 66.36 -68.64, 79.66 -81.59" stroke="#495057" stroke-width="1" fill="none"></path></g></g><g stroke-linecap="round"><g transform="translate(270 230) rotate(0 39.922250286489714 -10.336480572498658)"><path d="M-0.51 0.4 C13.07 -2.64, 67.02 -16.1, 80.35 -19.31 M1.43 -0.44 C14.97 -3.72, 66.75 -17.71, 79.59 -21.07" stroke="#495057" stroke-width="1" fill="none"></path></g></g><g stroke-linecap="round"><g transform="translate(270 230) rotate(0 39.918161175879675 20.107034149849824)"><path d="M0.4 0.35 C14.03 7.01, 67.23 32.94, 80.69 39.47 M-0.85 -0.51 C12.78 6.35, 66.46 33.87, 80.1 40.73" stroke="#495057" stroke-width="1" fill="none"></path></g></g><g stroke-linecap="round"><g transform="translate(350 30) rotate(0 -39.664402626403614 20.66174356971851)"><path d="M-0.56 0.42 C-14.17 7.3, -67.42 33.71, -80.68 40.12 M1.35 -0.4 C-11.95 6.79, -64.61 35.05, -78.33 41.72" stroke="#495057" stroke-width="1" fill="none"></path></g></g><g stroke-linecap="round"><g transform="translate(350 30) rotate(0 -39.160228773471886 60.17566737421794)"><path d="M1.15 0.62 C-11.84 20.51, -65.4 99.48, -79.03 119.29 M0.29 -0.11 C-12.67 19.94, -65.8 100.35, -79.47 120.46" stroke="#495057" stroke-width="1" fill="none"></path></g></g><g stroke-linecap="round"><g transform="translate(350 30) rotate(0 -40.15391749974805 100.0188609518109)"><path d="M-0.92 -0.64 C-14.51 33, -67.99 167.26, -81.11 200.68 M0.8 1.64 C-12.48 35.04, -65.48 165.67, -78.98 198.91" stroke="#495057" stroke-width="1" fill="none"></path></g></g><g stroke-linecap="round"><g transform="translate(350 90) rotate(0 -40.05220448280221 -11.156068110740762)"><path d="M-1.06 -0.5 C-14.7 -3.71, -67.55 -16.72, -80.69 -19.8 M0.59 -1.81 C-12.76 -5.36, -64.81 -18.65, -78.35 -21.81" stroke="#495057" stroke-width="1" fill="none"></path></g></g><g stroke-linecap="round"><g transform="translate(350 270) rotate(0 -40.32364905253053 -99.62726879830961)"><path d="M0.4 1.14 C-13.24 -32.1, -67.46 -165.23, -81.05 -198.87 M-0.85 0.69 C-14.2 -32.91, -65.88 -166.99, -78.88 -200.39" stroke="#495057" stroke-width="1" fill="none"></path></g></g><g stroke-linecap="round"><g transform="translate(350 210) rotate(0 -40.11657729521397 -70.30591411795012)"><path d="M0.89 1.17 C-12.73 -22.24, -67.75 -116.1, -81.13 -139.78 M-0.1 0.74 C-13.42 -23.11, -65.73 -118.33, -79.01 -141.79" stroke="#495057" stroke-width="1" fill="none"></path></g></g><g stroke-linecap="round"><g transform="translate(350 150) rotate(0 -39.728907961496134 -40.709346202761026)"><path d="M-0.39 -0.43 C-13.87 -13.76, -67.95 -67.67, -81.06 -80.98 M1.6 -1.71 C-11.51 -14.83, -65.42 -67.05, -78.91 -79.96" stroke="#495057" stroke-width="1" fill="none"></path></g></g><g stroke-linecap="round"><g transform="translate(190 190) rotate(0 39.71225858782884 -20.165297368913798)"><path d="M0.82 0.85 C13.98 -5.91, 66.47 -34.32, 79.64 -41.18 M-0.21 0.25 C12.71 -6.36, 65.3 -33.7, 78.5 -40.26" stroke="#495057" stroke-width="1" fill="none"></path></g></g><g stroke-linecap="round"><g transform="translate(190 190) rotate(0 40.374329415922944 19.83523601838351)"><path d="M0.85 -0.36 C14.09 6.14, 65.68 33.28, 78.82 39.82 M-0.17 -1.6 C13.48 5.02, 67.75 34.39, 80.92 41.27" stroke="#495057" stroke-width="1" fill="none"></path></g></g><g stroke-linecap="round"><g transform="translate(270 70) rotate(0 -39.44607471028809 21.052197190271272)"><path d="M0.93 0.94 C-12.39 7.45, -65.61 33.79, -79.26 40.12 M-0.04 0.39 C-13.51 7.63, -66.73 35.17, -79.82 41.71" stroke="#495057" stroke-width="1" fill="none"></path></g></g><g stroke-linecap="round"><g transform="translate(270 70) rotate(0 -39.82582949528938 61.12551110540517)"><path d="M0.25 1.12 C-12.81 21.31, -66.12 100.11, -79.31 120.03 M-1.08 0.66 C-14.15 21.15, -66.9 101.92, -79.9 121.59" stroke="#495057" stroke-width="1" fill="none"></path></g></g><g stroke-linecap="round"><g transform="translate(270 150) rotate(0 -39.89523130218032 -20.387598208338204)"><path d="M-0.16 -0.39 C-13.36 -7.1, -65.9 -33.65, -79.14 -40.39 M-1.7 -1.64 C-15 -8.17, -66.56 -32.67, -79.63 -39.05" stroke="#495057" stroke-width="1" fill="none"></path></g></g><g stroke-linecap="round"><g transform="translate(270 230) rotate(0 -39.76846383680589 -60.56068728593664)"><path d="M-0.93 -0.28 C-14.16 -20.05, -66.23 -99.36, -79.59 -119.16 M0.78 -1.48 C-12.55 -21.53, -67.07 -100.93, -80.32 -120.84" stroke="#495057" stroke-width="1" fill="none"></path></g></g><g stroke-linecap="round"><g transform="translate(110 150) rotate(0 40.163930128864024 20.115701504797016)"><path d="M0.64 -0.62 C14.09 6.12, 67.65 34.27, 80.82 40.85 M-0.49 1.68 C12.87 8.03, 67.1 32.86, 80.3 39.17" stroke="#495057" stroke-width="1" fill="none"></path></g></g><g stroke-linecap="round"><g transform="translate(110 230) rotate(0 40.11570150479676 -19.77266195639959)"><path d="M-0.62 0.82 C12.78 -6.02, 67.61 -33.53, 80.85 -40.36 M1.26 0.2 C14.54 -6.52, 67.04 -32.49, 80.34 -39.02" stroke="#495057" stroke-width="1" fill="none"></path></g></g><g stroke-linecap="round"><g transform="translate(110 70) rotate(0 39.72531631025953 19.980448581064138)"><path d="M0.81 0.46 C14.12 7.06, 66.53 32.48, 79.68 39.19 M-0.23 -0.35 C12.92 6.42, 65.39 33.79, 78.57 40.31" stroke="#495057" stroke-width="1" fill="none"></path></g></g><g stroke-linecap="round"><g transform="translate(110 70) rotate(0 40.235576649755274 59.73076130707295)"><path d="M-0.26 -0.25 C13.07 20.04, 67.16 100.99, 80.73 120.9 M1.8 -1.43 C14.97 18.61, 66.97 99, 80.17 119.24" stroke="#495057" stroke-width="1" fill="none"></path></g></g><g stroke-linecap="round"><g transform="translate(110 150) rotate(0 40.095778628438694 -19.128233116674437)"><path d="M-0.47 -0.63 C13.16 -7.1, 67.36 -33.25, 80.67 -39.91 M1.48 1.65 C15.12 -4.51, 67.28 -31.45, 80.07 -38.32" stroke="#495057" stroke-width="1" fill="none"></path></g></g><g stroke-linecap="round"><g transform="translate(110 230) rotate(0 40.069388018450695 -59.9896086039671)"><path d="M-1.2 -0.67 C12.06 -20.69, 65.59 -99.84, 79.1 -119.64 M0.37 1.59 C14.05 -18.84, 68.23 -101.05, 81.34 -121.57" stroke="#495057" stroke-width="1" fill="none"></path></g></g><g stroke-linecap="round"><g transform="translate(31.286710737990234 90.61403352568868) rotate(0 39.23065346722956 30.27950929974213)"><path d="M0.11 0.28 C13.55 10.29, 66.29 49.74, 79.75 59.76 M-1.29 -0.61 C12.05 9.61, 65.03 51.36, 78.67 61.17" stroke="#495057" stroke-width="1" fill="none"></path></g></g><g stroke-linecap="round"><g transform="translate(30 150) rotate(0 39.366749246451064 -0.32009681704130344)"><path d="M0.28 -0.25 C13.63 -0.13, 66.41 0.8, 79.76 0.86 M-1.03 -1.43 C12.17 -1.65, 65.21 -1.3, 78.69 -0.82" stroke="#495057" stroke-width="1" fill="none"></path></g></g><g stroke-linecap="round"><g transform="translate(30 210) rotate(0 40.30182277336718 -30.86575027016488)"><path d="M-0.25 -0.24 C13.21 -10.22, 67.46 -49.7, 80.86 -59.59 M1.82 -1.41 C15.18 -11.78, 67.43 -51.45, 80.36 -61.49" stroke="#495057" stroke-width="1" fill="none"></path></g></g><g stroke-linecap="round"><g transform="translate(30 270) rotate(0 39.29480387750547 -59.52382927760482)"><path d="M-0.24 0.86 C13.12 -19.09, 66.96 -99.87, 80.41 -119.9 M-1.82 0.26 C11.38 -19.45, 66.06 -98.04, 79.68 -118.32" stroke="#495057" stroke-width="1" fill="none"></path></g></g><g stroke-linecap="round"><g transform="translate(110 230) rotate(0 -39.972464697160746 -10.503396646953206)"><path d="M0.86 0.41 C-12.42 -2.8, -66.53 -16.03, -79.9 -19.54 M-0.15 -0.42 C-13.56 -3.98, -67.53 -18.22, -80.8 -21.42" stroke="#495057" stroke-width="1" fill="none"></path></g></g><g stroke-linecap="round"><g transform="translate(30 270) rotate(0 39.81581527087371 -20.527983303028122)"><path d="M0.41 0.1 C13.86 -6.61, 67.3 -32.82, 80.46 -39.36 M-0.83 -0.9 C12.52 -8.03, 66.57 -34.45, 79.75 -41.15" stroke="#495057" stroke-width="1" fill="none"></path></g></g><g stroke-linecap="round"><g transform="translate(30 150) rotate(0 39.66217295323966 40.12768931900155)"><path d="M0.1 0.46 C13.39 13.62, 67.18 65.99, 80.64 79.38 M-1.31 -0.34 C11.81 12.93, 66.39 67.38, 80.02 80.6" stroke="#495057" stroke-width="1" fill="none"></path></g></g><g stroke-linecap="round"><g transform="translate(30 90) rotate(0 40.50818656957708 70.37069752086427)"><path d="M0.46 0.64 C13.62 24.09, 65.99 117.65, 79.38 140.82 M-0.76 -0.08 C12.77 23.04, 68.23 115.65, 81.77 139.12" stroke="#495057" stroke-width="1" fill="none"></path></g></g><g stroke-linecap="round"><g transform="translate(30 30) rotate(0 40.102875580838884 19.780198784917957)"><path d="M0.92 -0.92 C14.43 5.75, 67 33.46, 80.26 40.48 M-0.05 1.22 C13.38 7.47, 66.11 32.23, 79.45 38.6" stroke="#495057" stroke-width="1" fill="none"></path></g></g><g stroke-linecap="round"><g transform="translate(30 30) rotate(0 39.59433063452599 60.78348090623513)"><path d="M0.49 1.16 C13.77 21, 66.7 99.92, 79.9 119.55 M-0.71 0.72 C12.38 20.69, 65.66 101.02, 78.89 120.84" stroke="#495057" stroke-width="1" fill="none"></path></g></g><g stroke-linecap="round"><g transform="translate(30 30) rotate(0 39.71380480801221 100.1715563169355)"><path d="M0.9 -0.63 C14.24 32.6, 66.41 166.12, 79.52 199.63 M-0.09 1.65 C13.1 35.04, 65.21 168.19, 78.32 200.97" stroke="#495057" stroke-width="1" fill="none"></path></g></g><g stroke-linecap="round"><g transform="translate(30 90) rotate(0 40.43098756085149 -10.552685185349674)"><path d="M0.8 0.02 C14 -3.21, 65.59 -16.17, 78.94 -19.35 M-0.24 -1.01 C13.34 -4.6, 67.62 -17.81, 81.1 -21.13" stroke="#495057" stroke-width="1" fill="none"></path></g></g><g stroke-linecap="round"><g transform="translate(30 90) rotate(0 39.83637961521745 29.782285488420257)"><path d="M-0.56 0.09 C12.66 10.02, 66.62 50.34, 80.23 60.47 M1.35 -0.9 C14.35 8.57, 66.14 48.61, 79.41 58.59" stroke="#495057" stroke-width="1" fill="none"></path></g></g><g stroke-linecap="round"><g transform="translate(30 150) rotate(0 40.46422309476418 -40.22699263896311)"><path d="M-0.53 0.02 C12.52 -13.13, 65.6 -65.61, 79.18 -78.92 M1.39 -1.01 C14.75 -14.47, 68.25 -67.57, 81.46 -80.48" stroke="#495057" stroke-width="1" fill="none"></path></g></g><g stroke-linecap="round"><g transform="translate(30 210) rotate(0 39.45254077091815 -70.97957953450714)"><path d="M-0.8 -0.34 C12.6 -23.68, 66.14 -116.22, 79.7 -139.67 M0.99 -1.56 C14.26 -25.32, 65.41 -118.51, 78.6 -141.62" stroke="#495057" stroke-width="1" fill="none"></path></g></g><g stroke-linecap="round"><g transform="translate(30 270) rotate(0 40.06972679719328 -100.21777268275582)"><path d="M-0.31 0.41 C13.04 -32.94, 67.17 -167.37, 80.45 -200.84 M1.73 -0.42 C14.92 -33.57, 66.99 -166.6, 79.74 -199.75" stroke="#495057" stroke-width="1" fill="none"></path></g></g><g stroke-linecap="round" transform="translate(10 70) rotate(0 20 20)"><path d="M23.03 0.85 C27.09 0.89, 30.79 2.89, 33.55 5.95 C36.3 9.02, 39.11 14.97, 39.55 19.21 C39.99 23.46, 38.87 28.03, 36.22 31.43 C33.56 34.84, 27.94 38.46, 23.65 39.65 C19.35 40.83, 14.11 40.37, 10.44 38.54 C6.78 36.71, 3.35 32.65, 1.64 28.67 C-0.06 24.7, -1.08 18.85, 0.19 14.69 C1.47 10.53, 4.86 5.85, 9.3 3.7 C13.73 1.54, 23.28 1.99, 26.81 1.77 C30.33 1.55, 30.49 2.14, 30.45 2.38 M18.52 0.71 C22.62 -0.33, 26.88 -0.2, 30.18 1.88 C33.48 3.96, 37.12 8.78, 38.33 13.19 C39.53 17.59, 39 24.22, 37.41 28.29 C35.82 32.37, 32.47 36.01, 28.8 37.65 C25.13 39.29, 19.63 38.93, 15.4 38.13 C11.17 37.34, 5.94 36.36, 3.42 32.88 C0.9 29.41, -0.31 21.93, 0.27 17.26 C0.85 12.59, 3.97 7.53, 6.87 4.86 C9.78 2.2, 15.76 2.23, 17.71 1.27 C19.67 0.32, 18.67 -1.23, 18.61 -0.86" stroke="none" stroke-width="0" fill="#15aabf"></path><path d="M14.81 -0.3 C18.57 -1.37, 25.33 0.28, 29.18 2.32 C33.04 4.36, 36.34 8.09, 37.93 11.94 C39.51 15.79, 39.77 21.3, 38.69 25.41 C37.6 29.52, 35.04 34.17, 31.43 36.61 C27.83 39.05, 21.3 40.52, 17.06 40.04 C12.82 39.55, 8.89 36.98, 6 33.71 C3.11 30.44, -0.03 24.89, -0.26 20.42 C-0.49 15.96, 1.32 10.46, 4.6 6.92 C7.89 3.38, 16.21 0.13, 19.46 -0.79 C22.71 -1.72, 24 0.91, 24.08 1.37 M24.77 1.54 C28.59 2.27, 33.53 4.95, 36.27 8.23 C39 11.51, 41.64 16.87, 41.17 21.2 C40.71 25.52, 36.92 31.19, 33.5 34.16 C30.08 37.13, 24.92 38.85, 20.67 39.03 C16.42 39.21, 11.48 37.48, 7.99 35.23 C4.49 32.97, 0.54 29.75, -0.28 25.49 C-1.1 21.23, 0.96 13.78, 3.08 9.66 C5.2 5.54, 8.7 2.08, 12.46 0.77 C16.21 -0.54, 23.23 1.54, 25.62 1.8 C28.01 2.06, 26.89 2.32, 26.79 2.33" stroke="#495057" stroke-width="2" fill="none"></path></g><g stroke-linecap="round" transform="translate(10 130) rotate(0 20 20)"><path d="M12.09 0.97 C15.48 -1.21, 20.59 -1.04, 24.68 0.22 C28.78 1.48, 34.21 5.14, 36.67 8.54 C39.13 11.93, 39.81 16.43, 39.44 20.57 C39.08 24.72, 37.27 30.19, 34.47 33.41 C31.66 36.63, 26.77 39.5, 22.59 39.91 C18.42 40.32, 13 38.22, 9.42 35.85 C5.85 33.47, 2.35 29.61, 1.14 25.66 C-0.06 21.71, -0.19 16.22, 2.19 12.14 C4.58 8.05, 12.89 2.98, 15.44 1.16 C17.99 -0.65, 17.5 1.04, 17.52 1.25 M11.57 1.22 C14.74 -1.11, 19.19 -1.34, 23.06 -0.35 C26.93 0.63, 31.92 3.55, 34.78 7.12 C37.64 10.69, 40.28 16.62, 40.2 21.07 C40.12 25.52, 37.48 30.79, 34.29 33.85 C31.11 36.9, 25.12 38.9, 21.09 39.42 C17.06 39.94, 13.73 39.02, 10.13 36.97 C6.52 34.92, 1.08 31.27, -0.56 27.11 C-2.19 22.95, -1.8 16.05, 0.31 12.01 C2.43 7.97, 10.55 4.59, 12.13 2.88 C13.71 1.18, 9.59 1.55, 9.78 1.79" stroke="none" stroke-width="0" fill="#15aabf"></path><path d="M28.51 2.31 C32.31 4.03, 36.9 8.01, 38.6 11.9 C40.3 15.8, 40.12 21.41, 38.71 25.68 C37.3 29.96, 33.74 35.25, 30.14 37.54 C26.54 39.83, 21.22 39.98, 17.09 39.42 C12.97 38.85, 8.22 37.3, 5.4 34.15 C2.57 31, 0.45 24.82, 0.16 20.51 C-0.13 16.2, 1.22 11.71, 3.66 8.28 C6.1 4.84, 10.33 0.74, 14.79 -0.12 C19.24 -0.98, 27.34 2.26, 30.4 3.12 C33.46 3.97, 33.21 4.57, 33.16 5 M22.51 -0.47 C26.34 0.07, 30.58 4.15, 33.27 7.28 C35.95 10.41, 38.17 14.31, 38.59 18.32 C39.01 22.32, 38.19 27.78, 35.77 31.3 C33.36 34.82, 28.28 38.45, 24.11 39.46 C19.94 40.46, 14.28 39.01, 10.75 37.3 C7.22 35.59, 4.78 32.93, 2.92 29.19 C1.05 25.46, -1.28 19.21, -0.46 14.88 C0.37 10.55, 3.98 5.52, 7.85 3.22 C11.72 0.91, 20.26 1.56, 22.77 1.05 C25.27 0.53, 23.21 -0.24, 22.88 0.11" stroke="#495057" stroke-width="2" fill="none"></path></g><g stroke-linecap="round" transform="translate(10 190) rotate(0 20 20)"><path d="M25.83 0.89 C29.55 1.98, 34.55 6.69, 36.89 10.37 C39.23 14.05, 40.7 18.76, 39.86 22.95 C39.03 27.14, 35.3 32.54, 31.89 35.49 C28.49 38.44, 23.55 40.56, 19.43 40.66 C15.31 40.76, 10.46 38.87, 7.17 36.08 C3.87 33.29, 0.36 28.19, -0.34 23.91 C-1.04 19.63, 0.65 14.08, 2.97 10.42 C5.28 6.76, 9.35 3.54, 13.55 1.93 C17.75 0.33, 25.55 0.68, 28.15 0.78 C30.76 0.89, 29.41 2.28, 29.17 2.56 M22.89 -1.13 C26.67 -0.9, 31.97 2.57, 34.67 6.19 C37.37 9.81, 39.04 16.14, 39.11 20.58 C39.17 25.02, 37.69 29.85, 35.06 32.83 C32.42 35.81, 27.59 37.57, 23.29 38.46 C18.98 39.36, 12.91 40.43, 9.25 38.21 C5.59 35.98, 2.41 29.53, 1.31 25.09 C0.21 20.64, 1.17 15.1, 2.65 11.53 C4.13 7.96, 6.54 5.75, 10.19 3.66 C13.84 1.57, 22.41 -0.75, 24.55 -1 C26.69 -1.25, 23.15 1.77, 23.03 2.17" stroke="none" stroke-width="0" fill="#15aabf"></path><path d="M16.21 0.46 C20.21 -0.49, 25.51 0.2, 29.19 2.18 C32.86 4.15, 36.54 8.29, 38.27 12.31 C39.99 16.33, 40.93 22.14, 39.53 26.31 C38.13 30.48, 33.55 35.08, 29.89 37.35 C26.22 39.61, 21.76 40.69, 17.55 39.9 C13.34 39.1, 7.45 36.01, 4.62 32.59 C1.78 29.17, 0.64 23.7, 0.52 19.37 C0.4 15.04, 0.68 9.76, 3.89 6.61 C7.1 3.46, 16.45 1.44, 19.77 0.47 C23.09 -0.5, 23.67 0.51, 23.83 0.79 M22.64 -0.71 C27.11 -0.64, 33.59 2.27, 36.48 5.59 C39.36 8.9, 40.14 14.83, 39.93 19.18 C39.72 23.53, 37.9 28.4, 35.22 31.69 C32.54 34.99, 28.14 37.82, 23.85 38.96 C19.56 40.11, 13.09 40.73, 9.47 38.55 C5.86 36.38, 3.52 30.25, 2.16 25.93 C0.79 21.61, 0.07 16.35, 1.29 12.65 C2.5 8.94, 5.62 5.61, 9.43 3.72 C13.24 1.83, 21.94 1.97, 24.16 1.3 C26.38 0.64, 22.79 -0.47, 22.76 -0.25" stroke="#495057" stroke-width="2" fill="none"></path></g><g stroke-linecap="round" transform="translate(10 250) rotate(0 20 20)"><path d="M26.76 0.88 C30.6 2.27, 35.77 6.73, 37.83 10.38 C39.9 14.02, 39.99 18.65, 39.16 22.73 C38.33 26.82, 35.98 32, 32.86 34.88 C29.73 37.76, 24.61 40.06, 20.42 40 C16.22 39.94, 10.99 37.26, 7.7 34.52 C4.41 31.77, 1.42 27.58, 0.67 23.53 C-0.08 19.48, 0.96 13.86, 3.2 10.21 C5.44 6.55, 9.85 2.75, 14.11 1.58 C18.36 0.4, 25.79 2.78, 28.73 3.17 C31.68 3.56, 31.97 3.69, 31.78 3.92 M23.03 -0.36 C26.75 0.32, 31.9 3.53, 34.76 7.1 C37.62 10.67, 40.27 16.59, 40.2 21.04 C40.12 25.5, 37.49 30.77, 34.31 33.83 C31.13 36.89, 25.14 38.89, 21.11 39.41 C17.09 39.94, 13.76 39.03, 10.15 36.98 C6.54 34.94, 1.09 31.29, -0.55 27.13 C-2.19 22.97, -1.81 16.07, 0.3 12.04 C2.41 8, 8.3 4.94, 12.1 2.9 C15.91 0.86, 20.87 0.07, 23.16 -0.2 C25.45 -0.47, 25.85 0.65, 25.84 1.29" stroke="none" stroke-width="0" fill="#15aabf"></path><path d="M12.46 0.99 C16.2 -0.87, 21.72 -0.96, 25.7 0.52 C29.68 2.01, 34.02 6.28, 36.34 9.9 C38.66 13.51, 40.05 17.97, 39.61 22.23 C39.17 26.49, 36.8 32.54, 33.69 35.46 C30.59 38.37, 25.4 39.55, 21 39.7 C16.59 39.85, 10.87 39.03, 7.29 36.37 C3.7 33.71, 0.47 28.05, -0.49 23.73 C-1.46 19.41, -1.16 14.29, 1.47 10.44 C4.11 6.59, 12.65 2.17, 15.32 0.62 C17.98 -0.92, 17.43 0.78, 17.46 1.17 M11.36 2.87 C14.69 1.15, 20.49 -0.16, 24.65 0.85 C28.81 1.87, 33.94 5.32, 36.32 8.96 C38.69 12.6, 39.46 18.53, 38.88 22.69 C38.31 26.86, 35.66 30.94, 32.85 33.96 C30.03 36.98, 26.35 40.49, 21.99 40.83 C17.63 41.18, 10.39 38.86, 6.67 36.05 C2.96 33.25, 0.29 28.07, -0.3 24.02 C-0.89 19.97, 0.87 15.56, 3.15 11.74 C5.43 7.93, 11.97 2.62, 13.37 1.15 C14.78 -0.31, 11.56 2.53, 11.57 2.96" stroke="#495057" stroke-width="2" fill="none"></path></g><g stroke-linecap="round" transform="translate(90 130) rotate(0 20 20)"><path d="M26.57 1.65 C30.66 2.8, 35.54 5.94, 37.56 9.63 C39.58 13.33, 39.59 19.4, 38.69 23.81 C37.79 28.22, 35.28 33.26, 32.15 36.08 C29.01 38.9, 24.15 40.81, 19.85 40.74 C15.56 40.66, 9.6 38.47, 6.38 35.64 C3.17 32.8, 1.11 27.9, 0.58 23.72 C0.04 19.55, 0.97 14.48, 3.17 10.59 C5.37 6.7, 8.84 1.47, 13.75 0.4 C18.66 -0.67, 29.04 3.05, 32.63 4.16 C36.22 5.27, 35.55 6.77, 35.29 7.07 M23.07 -0.83 C27.12 0.01, 31.92 4.24, 34.74 7.74 C37.55 11.25, 39.89 16.16, 39.96 20.19 C40.03 24.22, 38.07 28.49, 35.17 31.93 C32.27 35.37, 26.78 40.22, 22.56 40.84 C18.33 41.46, 13.18 38.28, 9.81 35.66 C6.45 33.03, 3.79 28.72, 2.36 25.09 C0.94 21.45, -0.21 17.87, 1.26 13.86 C2.72 9.86, 7.49 3.08, 11.15 1.07 C14.81 -0.94, 21.04 2.01, 23.23 1.8 C25.41 1.59, 24 -0.27, 24.25 -0.18" stroke="none" stroke-width="0" fill="#be4bdb"></path><path d="M11.74 1.22 C15.32 -0.69, 21.23 -0.93, 25.51 0.36 C29.8 1.65, 35.12 5.23, 37.44 8.96 C39.76 12.68, 39.97 18.4, 39.44 22.71 C38.91 27.03, 37.4 32.03, 34.28 34.82 C31.15 37.61, 25 39.43, 20.69 39.45 C16.38 39.48, 11.88 37.6, 8.42 34.96 C4.95 32.32, 1 27.57, -0.09 23.63 C-1.17 19.69, -0.31 15.07, 1.91 11.32 C4.12 7.58, 11.02 2.83, 13.2 1.18 C15.38 -0.48, 14.81 1.23, 14.98 1.41 M25.56 -0.89 C29.68 -0.21, 33.38 3.75, 35.74 7.2 C38.1 10.65, 39.85 15.56, 39.71 19.82 C39.58 24.07, 37.88 29.23, 34.92 32.75 C31.96 36.26, 26.07 40.41, 21.95 40.91 C17.83 41.41, 13.67 38.35, 10.2 35.75 C6.73 33.16, 2.64 29.08, 1.13 25.34 C-0.38 21.61, -0.6 17.01, 1.15 13.34 C2.9 9.68, 7.85 5.66, 11.63 3.36 C15.41 1.06, 21.58 -0.09, 23.84 -0.45 C26.11 -0.82, 25.15 0.94, 25.2 1.19" stroke="#495057" stroke-width="2" fill="none"></path></g><g stroke-linecap="round" transform="translate(90 210) rotate(0 20 20)"><path d="M10.9 2.56 C14.34 0.31, 19.39 -1.31, 23.55 -0.57 C27.71 0.17, 33.03 3.48, 35.88 7 C38.73 10.53, 40.69 16.31, 40.65 20.59 C40.62 24.86, 38.57 29.4, 35.68 32.65 C32.79 35.9, 27.6 39.29, 23.31 40.09 C19.01 40.89, 13.49 39.66, 9.9 37.44 C6.3 35.21, 3.27 30.75, 1.73 26.74 C0.19 22.73, -1.72 17.8, 0.66 13.38 C3.03 8.97, 12.72 2.34, 15.99 0.24 C19.27 -1.85, 20.21 0.4, 20.32 0.82 M12.62 0.08 C16.7 -1.27, 23.62 -0.35, 27.75 1.43 C31.87 3.22, 35.62 7.08, 37.38 10.8 C39.13 14.52, 38.94 19.54, 38.27 23.74 C37.6 27.94, 36.76 33.08, 33.36 36 C29.96 38.93, 22.53 41.52, 17.86 41.3 C13.18 41.09, 8.05 37.69, 5.3 34.72 C2.55 31.75, 1.95 27.83, 1.35 23.49 C0.74 19.14, -0.64 12.35, 1.68 8.66 C4 4.97, 13.36 2.37, 15.25 1.35 C17.14 0.32, 13.14 2.11, 13 2.52" stroke="none" stroke-width="0" fill="#be4bdb"></path><path d="M19.81 -0.41 C23.78 -0.44, 29.15 2.62, 32.43 5.4 C35.71 8.18, 38.67 12.03, 39.5 16.27 C40.34 20.51, 39.55 27.11, 37.44 30.82 C35.34 34.54, 31 37.16, 26.85 38.56 C22.69 39.97, 16.7 40.8, 12.5 39.26 C8.3 37.71, 3.8 33.16, 1.64 29.29 C-0.52 25.43, -1.48 20.2, -0.46 16.07 C0.55 11.95, 4.14 7.1, 7.73 4.53 C11.33 1.96, 18.7 1.25, 21.11 0.63 C23.52 0.02, 22.36 0.52, 22.21 0.83 M14.93 0.29 C18.95 -0.99, 25.43 0.15, 29.24 2.28 C33.04 4.4, 36.26 9.1, 37.76 13.02 C39.25 16.95, 39.27 21.66, 38.2 25.83 C37.12 30, 35.08 35.7, 31.32 38.04 C27.55 40.39, 20.15 40.8, 15.61 39.91 C11.07 39.03, 6.52 35.84, 4.07 32.72 C1.62 29.61, 0.65 25.51, 0.9 21.22 C1.15 16.92, 3.15 10.26, 5.56 6.96 C7.97 3.66, 13.51 2.39, 15.37 1.41 C17.22 0.43, 16.71 0.77, 16.7 1.09" stroke="#495057" stroke-width="2" fill="none"></path></g><g stroke-linecap="round" transform="translate(170 170) rotate(0 20 20)"><path d="M17.08 -0.26 C20.97 -1.17, 25.82 0.66, 29.36 3.07 C32.9 5.48, 36.78 10.05, 38.33 14.2 C39.88 18.34, 40.21 24, 38.66 27.95 C37.1 31.91, 32.71 35.92, 29.01 37.93 C25.3 39.94, 20.46 40.8, 16.44 40.02 C12.41 39.24, 7.5 36.79, 4.84 33.27 C2.18 29.74, 0.31 23.2, 0.46 18.84 C0.6 14.48, 2.88 10.38, 5.71 7.11 C8.54 3.83, 15.25 0.23, 17.43 -0.8 C19.61 -1.83, 18.65 0.54, 18.79 0.92 M9.54 2.66 C13.14 0.65, 19.55 -0.49, 23.93 0.1 C28.3 0.7, 33.2 2.66, 35.8 6.24 C38.4 9.82, 39.65 17.3, 39.55 21.56 C39.46 25.83, 37.77 29, 35.22 31.82 C32.68 34.64, 28.59 37.41, 24.3 38.48 C20 39.55, 13.2 40.47, 9.45 38.22 C5.7 35.98, 3.24 29.02, 1.77 25 C0.31 20.98, -0.85 18.02, 0.66 14.1 C2.17 10.18, 8.96 3.36, 10.81 1.47 C12.67 -0.42, 11.54 2.43, 11.79 2.77" stroke="none" stroke-width="0" fill="#4c6ef5"></path><path d="M20.52 -0.51 C24.79 -0.56, 31.03 2.05, 34.18 5.08 C37.33 8.1, 38.87 13.33, 39.43 17.64 C39.99 21.95, 39.83 27.45, 37.53 30.94 C35.24 34.42, 29.8 37.48, 25.68 38.57 C21.56 39.66, 16.82 39.19, 12.81 37.49 C8.81 35.8, 3.76 31.96, 1.65 28.39 C-0.45 24.82, -0.85 20.14, 0.18 16.09 C1.2 12.04, 3.93 6.72, 7.81 4.1 C11.7 1.49, 20.63 1.05, 23.5 0.4 C26.38 -0.25, 25.14 -0.04, 25.06 0.19 M13.61 0.49 C17.13 -0.98, 23.07 -1.1, 27.08 0.45 C31.09 2, 35.74 5.69, 37.69 9.8 C39.65 13.9, 39.56 20.99, 38.82 25.11 C38.09 29.22, 36.48 32.15, 33.29 34.5 C30.09 36.85, 24.11 38.99, 19.63 39.22 C15.14 39.44, 9.48 38.4, 6.4 35.86 C3.33 33.32, 1.81 28.52, 1.17 23.98 C0.54 19.44, 0.32 12.39, 2.58 8.62 C4.84 4.86, 12.81 2.8, 14.74 1.37 C16.67 -0.05, 14.05 -0.37, 14.15 0.07" stroke="#495057" stroke-width="2" fill="none"></path></g><g stroke-linecap="round" transform="translate(250 130) rotate(0 20 20)"><path d="M15.38 -0.55 C19.28 -1.77, 25.64 -0.42, 29.61 1.76 C33.58 3.95, 37.53 8.58, 39.22 12.54 C40.91 16.51, 41.12 21.45, 39.75 25.57 C38.38 29.69, 34.67 34.84, 30.98 37.28 C27.28 39.72, 21.77 40.79, 17.58 40.22 C13.39 39.64, 8.88 36.94, 5.83 33.81 C2.78 30.68, -0.53 25.83, -0.75 21.43 C-0.96 17.04, 1.68 10.92, 4.53 7.44 C7.38 3.96, 13.91 1.67, 16.35 0.57 C18.79 -0.53, 19.09 0.74, 19.19 0.84 M14.45 0.82 C18.43 -0.43, 23.9 0.16, 27.59 1.78 C31.27 3.41, 34.41 6.71, 36.56 10.55 C38.72 14.38, 41.54 20.34, 40.54 24.8 C39.54 29.26, 34.38 34.83, 30.56 37.33 C26.73 39.84, 21.43 40.19, 17.58 39.85 C13.73 39.51, 10.6 38.34, 7.46 35.31 C4.33 32.27, -0.77 25.95, -1.23 21.64 C-1.7 17.33, 2.26 12.69, 4.67 9.42 C7.09 6.15, 11.65 3.23, 13.26 2.02 C14.87 0.8, 14.18 2.21, 14.32 2.14" stroke="none" stroke-width="0" fill="#be4bdb"></path><path d="M14.32 1.3 C18.21 0.01, 24.26 -0.34, 28.26 1.49 C32.27 3.31, 36.47 8.37, 38.34 12.27 C40.2 16.18, 40.69 20.82, 39.45 24.93 C38.22 29.03, 34.62 34.51, 30.92 36.92 C27.22 39.32, 21.58 39.86, 17.26 39.34 C12.95 38.82, 7.83 36.76, 5.04 33.81 C2.25 30.86, 0.78 25.77, 0.55 21.66 C0.31 17.54, 0.73 12.64, 3.64 9.11 C6.55 5.57, 15.26 1.82, 17.99 0.44 C20.72 -0.94, 20.06 0.67, 20 0.84 M28.08 1.68 C31.93 3.23, 35.5 8, 37.25 11.82 C39.01 15.64, 39.39 20.33, 38.59 24.58 C37.78 28.84, 36.03 34.76, 32.42 37.34 C28.8 39.92, 21.48 40.69, 16.91 40.08 C12.33 39.47, 7.61 36.61, 4.95 33.68 C2.3 30.76, 0.99 26.8, 0.96 22.52 C0.93 18.24, 2.58 11.47, 4.77 8 C6.96 4.53, 10.06 2.65, 14.09 1.7 C18.13 0.75, 26.8 2.02, 28.97 2.3 C31.13 2.57, 27.13 2.93, 27.11 3.36" stroke="#495057" stroke-width="2" fill="none"></path></g><g stroke-linecap="round" transform="translate(250 210) rotate(0 20 20)"><path d="M22.92 0.57 C26.84 1.31, 32.16 4.71, 35 8.14 C37.85 11.58, 40.1 16.93, 40 21.18 C39.9 25.42, 37.17 30.43, 34.39 33.6 C31.61 36.76, 27.4 39.46, 23.34 40.17 C19.28 40.87, 13.68 40.23, 10.04 37.81 C6.4 35.4, 2.83 29.8, 1.51 25.67 C0.2 21.54, 0.69 17.04, 2.13 13.01 C3.57 8.99, 6.19 3.49, 10.16 1.53 C14.14 -0.43, 23.09 1.32, 25.97 1.25 C28.86 1.18, 27.8 0.95, 27.48 1.1 M12.01 1.36 C15.82 -0.75, 21.82 -1.91, 25.86 -0.46 C29.9 0.99, 33.87 6.49, 36.25 10.04 C38.62 13.6, 40.29 17, 40.1 20.87 C39.9 24.73, 38.24 29.85, 35.07 33.22 C31.9 36.6, 25.46 40.87, 21.08 41.12 C16.71 41.37, 12.36 37.21, 8.82 34.69 C5.28 32.18, 0.88 30.16, -0.17 26.06 C-1.23 21.96, 0.26 14.16, 2.49 10.09 C4.72 6.02, 11.44 3.1, 13.21 1.63 C14.98 0.17, 13.36 0.96, 13.11 1.3" stroke="none" stroke-width="0" fill="#be4bdb"></path><path d="M17.26 0.07 C21.23 -0.75, 25.98 0.71, 29.7 2.93 C33.41 5.16, 38.07 9.49, 39.53 13.41 C40.99 17.32, 39.99 22.59, 38.47 26.42 C36.96 30.26, 34.19 34.34, 30.42 36.41 C26.64 38.49, 20.19 39.41, 15.84 38.88 C11.48 38.35, 6.95 36.41, 4.3 33.24 C1.65 30.08, -0.23 24.22, -0.05 19.89 C0.12 15.56, 2.23 10.68, 5.36 7.24 C8.48 3.81, 16.16 0.48, 18.69 -0.72 C21.23 -1.92, 20.68 -0.59, 20.54 0.03 M11.06 1.03 C14.64 -0.99, 20.98 -1.46, 25.05 -0.06 C29.12 1.34, 32.85 6.03, 35.48 9.43 C38.1 12.83, 40.96 16.37, 40.8 20.34 C40.63 24.3, 37.67 29.79, 34.48 33.2 C31.29 36.61, 25.78 40.07, 21.65 40.8 C17.52 41.53, 13.23 40.28, 9.68 37.57 C6.14 34.85, 1.51 28.74, 0.37 24.5 C-0.78 20.26, 0.95 16.09, 2.84 12.11 C4.72 8.14, 10.06 2.09, 11.68 0.64 C13.3 -0.81, 12.28 3.14, 12.55 3.42" stroke="#495057" stroke-width="2" fill="none"></path></g><g stroke-linecap="round" transform="translate(330 70) rotate(0 20 20)"><path d="M21.82 -0.53 C26.1 -0.29, 31.59 2.78, 34.73 5.78 C37.86 8.79, 40.3 13.19, 40.65 17.5 C41.01 21.82, 39.35 27.98, 36.86 31.68 C34.36 35.38, 29.76 38.55, 25.68 39.71 C21.6 40.86, 16.45 40.35, 12.36 38.62 C8.28 36.89, 3.07 33.31, 1.16 29.32 C-0.75 25.34, -0.14 18.92, 0.92 14.71 C1.98 10.5, 3.48 6.36, 7.5 4.06 C11.53 1.77, 21.86 1.48, 25.06 0.93 C28.26 0.39, 26.95 0.7, 26.7 0.82 M13.86 1.04 C17.42 -0.46, 22.35 -0.54, 26.52 1.15 C30.7 2.83, 36.96 7.04, 38.89 11.15 C40.81 15.26, 39.43 21.7, 38.07 25.81 C36.71 29.93, 33.73 33.37, 30.74 35.85 C27.74 38.33, 24.4 41.03, 20.11 40.7 C15.82 40.38, 8.08 36.89, 4.99 33.91 C1.9 30.92, 2.01 26.75, 1.55 22.81 C1.1 18.88, 0.16 13.78, 2.26 10.27 C4.36 6.77, 12.25 3.48, 14.13 1.78 C16.02 0.09, 13.42 -0.24, 13.55 0.11" stroke="none" stroke-width="0" fill="#15aabf"></path><path d="M15.72 0.02 C19.77 -1.05, 25.84 1.03, 29.67 3.08 C33.5 5.13, 37.26 8.36, 38.72 12.31 C40.19 16.27, 40 22.77, 38.47 26.79 C36.94 30.81, 33.25 34.31, 29.56 36.43 C25.86 38.55, 20.33 40.01, 16.33 39.48 C12.33 38.95, 8.27 36.3, 5.55 33.26 C2.83 30.21, 0.19 25.43, 0.01 21.21 C-0.16 16.99, 1.68 11.37, 4.49 7.93 C7.29 4.49, 14.43 1.93, 16.85 0.57 C19.27 -0.8, 18.67 -0.34, 18.99 -0.23 M18.62 0.11 C22.66 -0.32, 28.16 0.83, 31.84 3.64 C35.52 6.45, 39.96 12.6, 40.71 16.96 C41.47 21.32, 38.73 26.24, 36.36 29.8 C33.99 33.36, 30.11 36.63, 26.47 38.31 C22.82 40, 18.22 41.28, 14.46 39.89 C10.71 38.51, 6.47 33.64, 3.94 29.99 C1.42 26.34, -1.21 22.13, -0.67 18.01 C-0.13 13.9, 4.02 8.13, 7.17 5.31 C10.32 2.48, 15.98 1.69, 18.23 1.05 C20.48 0.41, 20.68 1.39, 20.66 1.47" stroke="#495057" stroke-width="2" fill="none"></path></g><g stroke-linecap="round" transform="translate(330 130) rotate(0 20 20)"><path d="M14.49 1.27 C18.54 0.12, 24.85 0.91, 28.7 2.73 C32.55 4.55, 35.79 8.35, 37.59 12.2 C39.4 16.06, 40.53 21.66, 39.55 25.84 C38.56 30.01, 35.18 35.04, 31.66 37.25 C28.15 39.47, 22.64 39.65, 18.44 39.14 C14.24 38.63, 9.54 37.32, 6.44 34.21 C3.34 31.11, 0.22 24.78, -0.16 20.54 C-0.54 16.29, 0.96 12.28, 4.16 8.76 C7.36 5.25, 16.2 0.89, 19.05 -0.58 C21.89 -2.05, 21.4 -0.4, 21.22 -0.06 M21.68 -1.23 C25.69 -0.95, 30.46 3.79, 33.54 6.76 C36.61 9.73, 39.41 12.74, 40.13 16.61 C40.84 20.48, 40.3 26.02, 37.83 29.98 C35.35 33.95, 29.5 39.27, 25.28 40.41 C21.06 41.56, 16.49 38.58, 12.49 36.85 C8.48 35.13, 3.17 33.86, 1.25 30.07 C-0.66 26.27, -0.37 18.47, 1 14.08 C2.38 9.69, 5.93 6.19, 9.5 3.73 C13.07 1.27, 20.62 -0.15, 22.42 -0.66 C24.23 -1.17, 20.33 0.22, 20.33 0.66" stroke="none" stroke-width="0" fill="#15aabf"></path><path d="M14.31 0.91 C18.18 -0.35, 25.13 0.3, 29.04 1.97 C32.96 3.64, 35.99 7.23, 37.8 10.92 C39.6 14.61, 41 20, 39.86 24.1 C38.73 28.2, 34.62 32.8, 30.99 35.52 C27.35 38.24, 22.25 40.62, 18.06 40.41 C13.88 40.19, 8.78 37.29, 5.89 34.23 C2.99 31.17, 1.03 26.45, 0.69 22.05 C0.35 17.65, 1.18 11.52, 3.87 7.84 C6.56 4.16, 14.55 1.03, 16.82 -0.05 C19.09 -1.12, 17.66 1, 17.5 1.38 M16.53 -0.36 C20.41 -1, 25.3 1.68, 29.14 3.73 C32.99 5.77, 37.97 8.19, 39.61 11.9 C41.26 15.6, 40.64 21.59, 39 25.97 C37.36 30.35, 33.33 35.7, 29.76 38.17 C26.19 40.63, 21.82 41.78, 17.58 40.76 C13.35 39.74, 7.12 35.41, 4.36 32.03 C1.61 28.64, 0.96 24.81, 1.06 20.45 C1.16 16.09, 2.23 9.06, 4.96 5.88 C7.7 2.71, 15.37 2.51, 17.47 1.41 C19.57 0.3, 17.76 -0.81, 17.57 -0.77" stroke="#495057" stroke-width="2" fill="none"></path></g><g stroke-linecap="round" transform="translate(330 190) rotate(0 20 20)"><path d="M11.23 2.36 C14.79 0.21, 20.7 -1.15, 24.85 -0.22 C29.01 0.71, 33.56 4.4, 36.14 7.95 C38.73 11.5, 40.48 16.76, 40.39 21.07 C40.3 25.38, 38.66 30.55, 35.61 33.8 C32.56 37.05, 26.39 40.08, 22.07 40.57 C17.75 41.06, 13.37 39.09, 9.7 36.77 C6.04 34.44, 1.36 30.58, 0.06 26.61 C-1.25 22.64, -0.03 17.28, 1.9 12.95 C3.82 8.61, 9.67 2.65, 11.61 0.57 C13.54 -1.5, 13.36 0, 13.49 0.5 M18.48 -0.44 C22.78 -0.73, 30.46 1.75, 33.75 4.76 C37.04 7.77, 37.84 13.47, 38.24 17.62 C38.64 21.77, 37.81 26.04, 36.13 29.68 C34.46 33.32, 32.23 38.03, 28.21 39.45 C24.19 40.86, 16 39.63, 12 38.15 C8 36.67, 6.32 33.95, 4.2 30.57 C2.08 27.2, -1.16 22.05, -0.7 17.91 C-0.24 13.77, 3.66 8.91, 6.95 5.73 C10.24 2.56, 16.88 -0.43, 19.05 -1.15 C21.23 -1.86, 19.87 0.89, 19.98 1.45" stroke="none" stroke-width="0" fill="#15aabf"></path><path d="M26.35 1.67 C30.36 2.69, 34.93 5.49, 37.09 9.1 C39.24 12.7, 40.06 19.07, 39.29 23.27 C38.51 27.46, 35.67 31.53, 32.44 34.26 C29.22 37, 23.98 39.43, 19.93 39.68 C15.89 39.92, 11.43 38.2, 8.18 35.72 C4.94 33.24, 1.39 28.92, 0.45 24.79 C-0.5 20.66, 0.64 14.78, 2.51 10.96 C4.39 7.14, 7.58 3.58, 11.69 1.89 C15.8 0.21, 24.18 0.89, 27.16 0.83 C30.14 0.77, 29.66 1.18, 29.59 1.54 M17.49 -0.69 C21.86 -1.19, 29.06 1.82, 32.5 4.42 C35.93 7.02, 37.31 10.98, 38.13 14.91 C38.94 18.85, 38.84 24.02, 37.39 28.05 C35.94 32.07, 33 37.23, 29.43 39.05 C25.86 40.87, 20.4 40.04, 15.95 38.96 C11.51 37.89, 5.35 35.98, 2.76 32.61 C0.17 29.23, 0.13 22.96, 0.42 18.69 C0.7 14.42, 1.32 9.89, 4.46 6.96 C7.6 4.04, 17.21 2.31, 19.25 1.15 C21.3 0, 16.98 -0.23, 16.72 0.02" stroke="#495057" stroke-width="2" fill="none"></path></g><g stroke-linecap="round" transform="translate(330 250) rotate(0 20 20)"><path d="M21.89 0.83 C25.96 0.92, 30.54 3.38, 33.6 6.37 C36.66 9.37, 39.72 14.48, 40.24 18.8 C40.76 23.12, 39.17 29.01, 36.71 32.31 C34.26 35.61, 29.58 37.59, 25.49 38.6 C21.4 39.6, 16.17 40.2, 12.19 38.33 C8.2 36.46, 3.44 31.25, 1.6 27.38 C-0.25 23.52, -0.14 19.22, 1.1 15.14 C2.35 11.06, 5.63 5.5, 9.05 2.91 C12.46 0.32, 19.38 0.06, 21.61 -0.41 C23.85 -0.89, 22.3 -0.34, 22.44 0.08 M17.59 1.16 C21.63 0.49, 27.68 0.05, 31.51 2.07 C35.34 4.1, 39.48 8.75, 40.57 13.31 C41.67 17.87, 39.96 25.51, 38.1 29.41 C36.23 33.3, 33.35 34.76, 29.38 36.66 C25.42 38.55, 18.53 41.78, 14.32 40.78 C10.11 39.79, 6.31 34.41, 4.12 30.69 C1.94 26.97, 0.81 22.69, 1.22 18.46 C1.64 14.23, 4 8.32, 6.61 5.3 C9.22 2.27, 14.8 1.12, 16.89 0.3 C18.97 -0.52, 18.86 0.25, 19.13 0.39" stroke="none" stroke-width="0" fill="#15aabf"></path><path d="M18.54 0.26 C22.58 -0.55, 27.31 0.66, 30.85 2.86 C34.38 5.06, 38.58 9.39, 39.72 13.46 C40.87 17.53, 39.59 23.12, 37.72 27.28 C35.85 31.44, 32.28 36.39, 28.52 38.42 C24.76 40.44, 19.18 40.5, 15.17 39.43 C11.16 38.36, 6.93 35.59, 4.46 32 C2 28.41, 0.11 22.26, 0.37 17.89 C0.62 13.52, 2.65 8.61, 5.99 5.78 C9.33 2.95, 17.51 1.75, 20.38 0.92 C23.25 0.09, 23.18 0.64, 23.21 0.79 M13.01 2.09 C16.93 0.5, 24.18 -1.01, 28.31 0.27 C32.45 1.56, 35.99 5.68, 37.82 9.8 C39.64 13.93, 39.99 20.52, 39.24 25.02 C38.49 29.52, 36.68 34.44, 33.3 36.78 C29.92 39.13, 23.23 39.34, 18.96 39.08 C14.69 38.83, 10.78 38.17, 7.71 35.24 C4.64 32.3, 1.15 25.6, 0.55 21.48 C-0.06 17.36, 1.68 14.18, 4.06 10.52 C6.45 6.85, 13.29 1.14, 14.85 -0.49 C16.42 -2.12, 13.42 0.14, 13.45 0.75" stroke="#495057" stroke-width="2" fill="none"></path></g><g stroke-linecap="round" transform="translate(10 10) rotate(0 20 20)"><path d="M23.7 0.13 C27.42 0.68, 31.98 4.03, 34.79 7.37 C37.6 10.72, 40.5 15.73, 40.56 20.18 C40.61 24.62, 38.15 30.87, 35.12 34.07 C32.08 37.27, 26.67 38.96, 22.34 39.39 C18.02 39.82, 12.66 38.8, 9.17 36.63 C5.67 34.47, 2.72 30.28, 1.38 26.41 C0.05 22.55, -0.21 17.39, 1.16 13.43 C2.53 9.47, 5.29 4.55, 9.61 2.67 C13.94 0.79, 23.67 2, 27.1 2.15 C30.53 2.31, 30.22 3.26, 30.22 3.59 M21.35 1.17 C25.52 0.84, 29.19 2.23, 32.3 4.92 C35.41 7.61, 38.96 12.91, 40.02 17.3 C41.08 21.69, 40.88 27.76, 38.65 31.24 C36.42 34.72, 30.91 37.12, 26.63 38.19 C22.36 39.27, 16.79 38.9, 13.01 37.7 C9.23 36.5, 6.01 34.68, 3.93 31 C1.85 27.32, 0.1 19.93, 0.52 15.61 C0.93 11.28, 3.31 7.72, 6.42 5.05 C9.54 2.38, 16.96 0.29, 19.2 -0.42 C21.43 -1.13, 19.53 0.62, 19.82 0.81" stroke="none" stroke-width="0" fill="#15aabf"></path><path d="M13 1.58 C16.5 0.09, 22.58 0.65, 26.67 2.04 C30.76 3.43, 35.23 6.24, 37.53 9.92 C39.83 13.61, 41.5 19.71, 40.48 24.14 C39.46 28.57, 34.82 33.99, 31.41 36.5 C28.01 39.02, 24.16 39.64, 20.06 39.23 C15.96 38.83, 10.1 36.99, 6.81 34.07 C3.51 31.16, 0.91 25.86, 0.29 21.74 C-0.34 17.63, 0.43 12.99, 3.04 9.37 C5.65 5.75, 13.52 1.34, 15.95 0.01 C18.37 -1.32, 17.75 0.94, 17.6 1.39 M15.38 0.66 C19.3 -0.71, 23.96 -0.26, 27.88 1.48 C31.79 3.21, 36.98 7.38, 38.88 11.07 C40.78 14.75, 40.23 19.43, 39.29 23.6 C38.35 27.77, 36.73 33.35, 33.24 36.1 C29.75 38.84, 22.9 40.47, 18.34 40.06 C13.78 39.65, 8.8 36.46, 5.87 33.64 C2.95 30.83, 1.31 27.5, 0.81 23.18 C0.31 18.87, 0.5 11.42, 2.86 7.73 C5.22 4.03, 13.23 1.98, 14.96 1.01 C16.69 0.05, 13.09 1.81, 13.23 1.92" stroke="#495057" stroke-width="2" fill="none"></path></g><g stroke-linecap="round" transform="translate(90 50) rotate(0 20 20)"><path d="M17.75 0.9 C21.57 0.15, 26.85 0.67, 30.36 2.82 C33.87 4.96, 37.41 9.58, 38.81 13.77 C40.22 17.96, 40.46 23.81, 38.79 27.95 C37.13 32.1, 32.86 36.68, 28.83 38.66 C24.79 40.63, 18.85 40.78, 14.59 39.78 C10.34 38.77, 5.87 36.11, 3.31 32.61 C0.74 29.1, -1.15 23.01, -0.8 18.74 C-0.46 14.48, 2.2 10.3, 5.4 7.04 C8.61 3.78, 16.01 0.16, 18.41 -0.81 C20.81 -1.79, 19.65 0.78, 19.8 1.18 M22.21 1.09 C26.23 0.79, 30.48 2, 33.42 4.53 C36.36 7.06, 39.04 11.72, 39.85 16.28 C40.66 20.83, 40.52 28.16, 38.26 31.84 C36 35.51, 30.73 37.12, 26.28 38.31 C21.83 39.51, 15.72 40.58, 11.56 39.01 C7.4 37.44, 3.22 32.7, 1.3 28.89 C-0.61 25.09, -1.11 20.5, 0.08 16.17 C1.28 11.84, 5.07 5.48, 8.47 2.9 C11.87 0.31, 18.68 1.16, 20.5 0.68 C22.31 0.21, 19.54 -0.3, 19.38 0.04" stroke="none" stroke-width="0" fill="#be4bdb"></path><path d="M26.3 0.6 C30.19 1.69, 33.27 5.92, 35.68 9.35 C38.1 12.79, 41.01 17.15, 40.78 21.18 C40.55 25.22, 37.47 30.59, 34.28 33.57 C31.09 36.54, 25.99 38.55, 21.66 39.02 C17.33 39.48, 11.71 38.77, 8.31 36.34 C4.91 33.91, 2.2 28.49, 1.28 24.44 C0.36 20.4, 1.17 15.83, 2.79 12.09 C4.41 8.35, 7.21 3.91, 11.01 2 C14.81 0.1, 23.03 0.58, 25.62 0.67 C28.21 0.76, 26.56 2.16, 26.53 2.55 M19.28 -0.8 C23.35 -1.17, 30.33 1.73, 33.6 4.55 C36.87 7.37, 38.33 12.13, 38.89 16.12 C39.46 20.12, 38.83 24.66, 37.01 28.52 C35.19 32.37, 31.9 37.77, 27.96 39.27 C24.01 40.77, 17.33 38.96, 13.31 37.5 C9.29 36.05, 6.17 33.85, 3.83 30.54 C1.49 27.23, -1.41 22.11, -0.73 17.66 C-0.05 13.21, 4.49 6.7, 7.92 3.86 C11.34 1.02, 17.79 0.93, 19.83 0.6 C21.86 0.27, 20.19 1.72, 20.13 1.86" stroke="#495057" stroke-width="2" fill="none"></path></g><g stroke-linecap="round" transform="translate(170 90) rotate(0 20 20)"><path d="M16.38 0.56 C20.32 -0.31, 25.72 1.19, 29.27 3.26 C32.82 5.32, 36.19 9.01, 37.68 12.95 C39.18 16.88, 39.59 22.91, 38.24 26.89 C36.9 30.87, 33.15 34.56, 29.63 36.82 C26.1 39.08, 21.19 41.19, 17.09 40.45 C13 39.71, 7.8 35.57, 5.05 32.38 C2.29 29.19, 0.54 25.52, 0.55 21.3 C0.56 17.09, 2.19 10.59, 5.12 7.09 C8.05 3.59, 15.56 1.25, 18.12 0.29 C20.68 -0.67, 20.35 1.05, 20.49 1.35 M16.94 1.66 C20.88 0.56, 25.9 -0.36, 29.34 1.49 C32.78 3.34, 36.12 8.76, 37.58 12.77 C39.04 16.77, 39.29 21.44, 38.1 25.52 C36.91 29.59, 33.76 35.06, 30.44 37.23 C27.12 39.41, 22.42 39.05, 18.19 38.55 C13.95 38.05, 8.28 37.23, 5.02 34.24 C1.76 31.24, -1.01 24.85, -1.36 20.58 C-1.71 16.3, 0.26 11.86, 2.93 8.59 C5.59 5.32, 12.69 2.31, 14.66 0.96 C16.62 -0.39, 14.41 0.15, 14.73 0.49" stroke="none" stroke-width="0" fill="#4c6ef5"></path><path d="M26.84 0.4 C30.64 1.46, 35.14 5.01, 37.28 8.82 C39.42 12.63, 40.28 18.96, 39.68 23.25 C39.09 27.54, 36.82 31.67, 33.73 34.58 C30.64 37.5, 25.64 40.53, 21.13 40.72 C16.62 40.91, 10.22 38.6, 6.66 35.72 C3.1 32.84, 0.51 27.54, -0.25 23.44 C-1 19.35, -0.02 14.81, 2.14 11.14 C4.3 7.47, 8.49 2.9, 12.72 1.41 C16.95 -0.08, 24.88 2.1, 27.52 2.22 C30.15 2.34, 28.74 1.82, 28.53 2.13 M20.67 -1.01 C24.97 -0.92, 31.27 3.26, 34.42 6.15 C37.56 9.03, 39.03 12.11, 39.55 16.28 C40.08 20.45, 40.04 27.23, 37.57 31.15 C35.1 35.07, 28.79 38.81, 24.73 39.82 C20.66 40.82, 16.89 38.91, 13.18 37.2 C9.46 35.48, 4.43 32.92, 2.42 29.52 C0.42 26.11, 0.24 21.14, 1.17 16.78 C2.09 12.42, 4.71 6.37, 7.98 3.35 C11.24 0.33, 18.64 -0.99, 20.78 -1.34 C22.93 -1.68, 20.89 0.67, 20.83 1.29" stroke="#495057" stroke-width="2" fill="none"></path></g><g stroke-linecap="round" transform="translate(250 50) rotate(0 20 20)"><path d="M12.66 1.35 C16.4 -0.2, 23.29 -0.36, 27.23 1.13 C31.17 2.62, 34.08 6.49, 36.29 10.29 C38.51 14.1, 41.13 19.81, 40.51 23.97 C39.9 28.12, 35.95 32.47, 32.61 35.21 C29.27 37.95, 24.53 40.22, 20.48 40.39 C16.44 40.56, 11.68 39.07, 8.32 36.22 C4.96 33.38, 1.3 27.76, 0.34 23.31 C-0.62 18.87, -0.03 13.22, 2.56 9.57 C5.14 5.92, 13.39 3, 15.83 1.43 C18.27 -0.14, 17.38 -0.12, 17.22 0.13 M13.89 1.81 C17.51 0.26, 21.82 -0.15, 25.87 1.04 C29.91 2.22, 35.92 5.31, 38.16 8.91 C40.39 12.51, 40.07 18.37, 39.26 22.65 C38.45 26.93, 36.48 31.87, 33.3 34.6 C30.11 37.33, 24.6 38.88, 20.13 39.05 C15.67 39.21, 9.72 38.44, 6.5 35.61 C3.28 32.78, 1.56 26.49, 0.81 22.08 C0.06 17.68, -0.15 12.74, 2.03 9.19 C4.2 5.65, 11.79 2.17, 13.86 0.82 C15.93 -0.54, 14.64 0.84, 14.45 1.06" stroke="none" stroke-width="0" fill="#be4bdb"></path><path d="M27.08 0.32 C31.14 1.14, 35.2 5.25, 37.27 8.96 C39.33 12.66, 39.98 18.26, 39.46 22.57 C38.94 26.88, 37.27 31.93, 34.13 34.82 C30.99 37.72, 24.92 39.78, 20.61 39.94 C16.31 40.11, 11.67 38.55, 8.28 35.8 C4.88 33.05, 1.1 27.64, 0.25 23.44 C-0.6 19.23, 1.19 14.24, 3.18 10.57 C5.17 6.9, 7.96 2.97, 12.21 1.45 C16.45 -0.08, 25.39 0.95, 28.63 1.44 C31.87 1.93, 31.79 4.12, 31.66 4.37 M26.53 2.04 C30.28 3.21, 33.33 5.96, 35.65 9.47 C37.97 12.98, 40.54 18.92, 40.44 23.09 C40.34 27.27, 38.39 31.79, 35.06 34.53 C31.72 37.27, 25.19 39.36, 20.44 39.54 C15.69 39.71, 9.74 38.2, 6.56 35.58 C3.38 32.96, 2.03 27.73, 1.35 23.8 C0.67 19.87, 0.81 15.81, 2.5 12.01 C4.18 8.2, 7.62 2.92, 11.44 0.97 C15.26 -0.98, 22.94 0.24, 25.43 0.33 C27.91 0.42, 26.42 0.87, 26.33 1.5" stroke="#495057" stroke-width="2" fill="none"></path></g><g stroke-linecap="round" transform="translate(330 10) rotate(0 20 20)"><path d="M27.08 1.87 C31.14 3.02, 35.81 5.67, 37.94 9.25 C40.06 12.83, 40.57 18.88, 39.83 23.35 C39.09 27.81, 36.62 33.29, 33.49 36.06 C30.36 38.83, 25.47 40.07, 21.04 39.98 C16.62 39.89, 10.51 38.1, 6.95 35.55 C3.39 33, 0.29 28.88, -0.32 24.69 C-0.93 20.5, 1.18 14.39, 3.3 10.4 C5.41 6.41, 8.04 2.23, 12.37 0.74 C16.7 -0.75, 26.23 0.99, 29.29 1.45 C32.35 1.92, 30.88 3.04, 30.72 3.53 M10.26 1.45 C13.71 -0.47, 19.92 0.14, 24.13 1.41 C28.33 2.69, 33.04 5.75, 35.51 9.09 C37.98 12.44, 39.12 17.19, 38.96 21.47 C38.81 25.75, 37.64 31.84, 34.57 34.78 C31.51 37.72, 25.02 38.79, 20.58 39.11 C16.13 39.43, 11.29 38.9, 7.92 36.7 C4.55 34.5, 1.44 30.35, 0.38 25.9 C-0.69 21.46, -0.23 14.09, 1.51 10.03 C3.25 5.97, 9.17 2.68, 10.8 1.54 C12.44 0.4, 10.94 2.91, 11.32 3.2" stroke="none" stroke-width="0" fill="#15aabf"></path><path d="M21.68 0.99 C25.83 1.23, 31.18 3.14, 34.22 6.2 C37.25 9.25, 39.55 15.09, 39.9 19.33 C40.26 23.56, 38.94 28.13, 36.34 31.6 C33.74 35.07, 28.48 39.17, 24.31 40.15 C20.15 41.14, 15.12 39.57, 11.37 37.51 C7.61 35.45, 3.67 31.54, 1.79 27.78 C-0.09 24.01, -1.17 19.03, 0.07 14.93 C1.31 10.84, 5.48 5.55, 9.24 3.22 C13 0.88, 19.98 1.39, 22.61 0.92 C25.24 0.45, 24.86 0.05, 25.04 0.4 M13.17 2.89 C16.78 0.94, 22.21 -0.44, 26.1 0.43 C30 1.29, 34.33 4.2, 36.55 8.07 C38.77 11.95, 40.07 19.16, 39.43 23.68 C38.79 28.2, 35.63 32.61, 32.69 35.19 C29.74 37.78, 26.04 39.19, 21.77 39.2 C17.49 39.21, 10.69 37.69, 7.04 35.26 C3.39 32.84, 0.61 28.85, -0.13 24.67 C-0.87 20.49, 0.27 14.27, 2.59 10.16 C4.92 6.06, 12.06 1.63, 13.82 0.05 C15.58 -1.52, 13.08 0.38, 13.13 0.72" stroke="#495057" stroke-width="2" fill="none"></path></g></svg>