<svg version="1.1" xmlns="http://www.w3.org/2000/svg" viewBox="0 0 1100.8072164278478 901.3691761493124" width="2201.6144328556957" height="1802.7383522986247">
  <!-- svg-source:excalidraw -->
  
  <defs>
    <style>
      @font-face {
        font-family: "Virgil";
        src: url("https://excalidraw.com/Virgil.woff2");
      }
      @font-face {
        font-family: "Cascadia";
        src: url("https://excalidraw.com/Cascadia.woff2");
      }
    </style>
  </defs>
  <g stroke-linecap="round" transform="translate(450 431.36917614931235) rotate(0 80 60)"><path d="M7.33 7.7 C7.33 7.7, 7.33 7.7, 7.33 7.7 M7.33 7.7 C7.33 7.7, 7.33 7.7, 7.33 7.7 M2.87 25.02 C9.99 18.73, 18 9.62, 20.58 4.64 M2.87 25.02 C9.9 18.41, 15.66 9.32, 20.58 4.64 M3 37.06 C9.87 26.51, 17.77 18.82, 33.18 2.34 M3 37.06 C9.87 28.84, 18.58 20.85, 33.18 2.34 M3.14 49.1 C14.91 36.1, 27.8 20.92, 43.81 2.31 M3.14 49.1 C18.45 32.32, 34.06 13.09, 43.81 2.31 M2.61 61.9 C25.1 40.06, 42.06 14.75, 54.44 2.28 M2.61 61.9 C18.64 43, 33.29 25.8, 54.44 2.28 M2.75 73.94 C14.14 57.81, 31.48 42.5, 65.07 2.24 M2.75 73.94 C16.05 58.25, 30.63 41.93, 65.07 2.24 M2.88 85.98 C30.76 53.45, 59 23, 75.05 2.96 M2.88 85.98 C19.44 67.41, 35.48 49.72, 75.05 2.96 M2.36 98.77 C33.48 61.09, 69.87 23.34, 85.68 2.93 M2.36 98.77 C26.59 71.59, 49.42 44.6, 85.68 2.93 M4.46 108.55 C38.13 67.73, 72.5 29.53, 96.31 2.89 M4.46 108.55 C26.84 82.03, 48.9 58.25, 96.31 2.89 M9.84 114.55 C33.07 85.81, 57.03 58.67, 106.94 2.86 M9.84 114.55 C30.67 91.66, 50.95 66.95, 106.94 2.86 M17.19 118.29 C45.92 87.78, 72.5 56.39, 117.57 2.82 M17.19 118.29 C56.45 71.58, 96.92 26.28, 117.57 2.82 M26.51 119.77 C69.58 72.71, 109.11 23.93, 130.16 0.52 M26.51 119.77 C50.97 90.56, 75.14 61.93, 130.16 0.52 M33.86 123.51 C58.08 94.76, 79.89 67.22, 139.48 2 M33.86 123.51 C60.37 92.45, 87.26 61.89, 139.48 2 M44.49 123.47 C81 79.03, 121 36.6, 146.83 5.74 M44.49 123.47 C65.81 97.54, 88.9 72.87, 146.83 5.74 M55.12 123.44 C92.28 79.18, 127.49 37.84, 154.18 9.48 M55.12 123.44 C91.97 80.09, 130 38.55, 154.18 9.48 M65.75 123.4 C95.26 91.7, 123.24 57.02, 158.25 16.99 M65.75 123.4 C103.38 79.92, 138.58 38.52, 158.25 16.99 M76.38 123.37 C101.5 95.15, 123.5 67.58, 159.7 27.52 M76.38 123.37 C96.73 101.7, 117.35 79.26, 159.7 27.52 M87.01 123.34 C107.78 99.27, 131.86 74.2, 164.42 34.28 M87.01 123.34 C106.47 99.11, 127.59 75.53, 164.42 34.28 M97.64 123.3 C122.81 97.68, 146.51 70.71, 164.56 46.32 M97.64 123.3 C119.24 97.21, 142.46 73.12, 164.56 46.32 M108.27 123.27 C128.44 99.98, 145.65 79.24, 164.69 58.36 M108.27 123.27 C123.79 104.57, 139.53 87.08, 164.69 58.36 M118.9 123.23 C134.27 105.09, 151.48 85.53, 164.17 71.16 M118.9 123.23 C130.99 109.86, 142.91 97.12, 164.17 71.16 M131.5 120.93 C141.34 109.82, 150.45 98.63, 164.3 83.2 M131.5 120.93 C144.09 107.74, 156.78 93.49, 164.3 83.2 M144.09 118.63 C148.6 113.16, 152.6 108.24, 161.15 99.01 M144.09 118.63 C147.81 113.83, 152.56 109.88, 161.15 99.01" stroke="#868e96" stroke-width="1" fill="none"></path><path d="M30 0 M30 0 C68.24 0.83, 103.71 -0.94, 130 0 M30 0 C69.04 -0.28, 109.99 -1.27, 130 0 M130 0 C148.56 1.76, 161.02 10.53, 160 30 M130 0 C150.08 -1.53, 159.73 11.06, 160 30 M160 30 C160.45 42.66, 160.47 53.9, 160 90 M160 30 C160.68 44.45, 160.79 58.78, 160 90 M160 90 C160.58 109.94, 149.64 119.16, 130 120 M160 90 C162.29 110.01, 151.1 120.96, 130 120 M130 120 C101.44 120.92, 74.64 121.55, 30 120 M130 120 C105.94 119.9, 81 120.76, 30 120 M30 120 C9.41 121.62, -1.03 111.49, 0 90 M30 120 C7.76 117.76, -0.99 108.02, 0 90 M0 90 C-0.35 71.6, 1.48 51.01, 0 30 M0 90 C-0.53 68, -0.41 46.2, 0 30 M0 30 C-1.65 11.25, 11.42 0.99, 30 0 M0 30 C-1.12 11.08, 10.91 2.04, 30 0" stroke="#343a40" stroke-width="2" fill="none"></path></g><g stroke-linecap="round"><g transform="translate(610 491.36917614931235) rotate(0 19.938642992451832 -0.16411135978995617)"><path d="M-0.93 0.76 C5.85 0.64, 33.92 -0.81, 40.8 -1.09 M0.79 0.12 C7.46 0.14, 33.78 -0.1, 40.28 -0.13" stroke="#343a40" stroke-width="2" fill="none"></path></g></g><g stroke-linecap="round"><g transform="translate(650 491.36917614931235) rotate(0 -0.021012167930621217 -40.38656239867208)"><path d="M0.76 0.8 C0.64 -12.32, -0.81 -66.17, -1.09 -79.64 M-0.3 0.18 C-0.03 -13.23, 0.75 -68.42, 1.05 -81.58" stroke="#343a40" stroke-width="2" fill="none"></path></g></g><g stroke-linecap="round"><g transform="translate(650 411.36917614931235) rotate(0 -19.799297756096394 -19.973862042436394)"><path d="M0.8 -1.09 C-5.65 -8.03, -32.84 -34.27, -39.64 -40.9 M-0.24 0.95 C-6.73 -5.93, -33.64 -33.01, -40.4 -39.83" stroke="#343a40" stroke-width="2" fill="none"></path></g></g><g stroke-linecap="round"><g transform="translate(650 411.36917614931235) rotate(0 20.125280115753412 -19.834801111742877)"><path d="M-1.09 0.36 C5.3 -6.45, 32.4 -33.17, 39.1 -40.03 M0.54 -0.5 C7.23 -7.17, 34.5 -31.94, 41.34 -38.51" stroke="#343a40" stroke-width="2" fill="none"></path></g></g><g stroke-linecap="round" transform="translate(830 231.36917614931235) rotate(0 80 60)"><path d="M7.33 7.7 C7.33 7.7, 7.33 7.7, 7.33 7.7 M7.33 7.7 C7.33 7.7, 7.33 7.7, 7.33 7.7 M2.87 25.02 C9.51 15.5, 17.71 10.47, 20.58 4.64 M2.87 25.02 C7.27 18.88, 11.56 13.71, 20.58 4.64 M3 37.06 C11.29 29.14, 16.06 22.05, 33.18 2.34 M3 37.06 C14.72 24.21, 26.11 10.58, 33.18 2.34 M3.14 49.1 C15.13 35.2, 26.3 23.78, 43.81 2.31 M3.14 49.1 C16.42 32.83, 30.87 18.91, 43.81 2.31 M2.61 61.9 C14.17 49.08, 26.89 33.35, 54.44 2.28 M2.61 61.9 C13.76 50.57, 22.84 37.76, 54.44 2.28 M2.75 73.94 C25.68 45.99, 50.44 17.27, 65.07 2.24 M2.75 73.94 C23.94 50.74, 43.27 27.68, 65.07 2.24 M2.88 85.98 C29.24 56.71, 55.8 26.96, 75.05 2.96 M2.88 85.98 C29.8 54.38, 55.91 22.94, 75.05 2.96 M2.36 98.77 C30.68 66.69, 62.45 31.25, 85.68 2.93 M2.36 98.77 C31.98 64.17, 59.9 31.03, 85.68 2.93 M4.46 108.55 C27.55 82.61, 51.92 52.93, 96.31 2.89 M4.46 108.55 C33.01 74.67, 61.4 41.31, 96.31 2.89 M9.84 114.55 C30.44 91.07, 50.28 70.6, 106.94 2.86 M9.84 114.55 C43.47 77.02, 76.79 40.09, 106.94 2.86 M17.19 118.29 C50.83 79.12, 83.2 38.85, 117.57 2.82 M17.19 118.29 C45.99 84.21, 76.09 50.61, 117.57 2.82 M26.51 119.77 C56.38 88.67, 85.74 52.99, 130.16 0.52 M26.51 119.77 C61.99 82.44, 95.46 42.78, 130.16 0.52 M33.86 123.51 C62.75 92.28, 89.81 60.29, 139.48 2 M33.86 123.51 C68.86 83.37, 103.31 41.99, 139.48 2 M44.49 123.47 C82.29 82.29, 117.11 39.77, 146.83 5.74 M44.49 123.47 C80.89 80.04, 118.53 35.76, 146.83 5.74 M55.12 123.44 C80.92 93.42, 106.02 62.57, 154.18 9.48 M55.12 123.44 C87.25 85.61, 121.52 47.21, 154.18 9.48 M65.75 123.4 C93.83 90.94, 123.55 56.33, 158.25 16.99 M65.75 123.4 C86.55 98.73, 107.68 75.22, 158.25 16.99 M76.38 123.37 C93.6 101.05, 113.33 82.18, 159.7 27.52 M76.38 123.37 C106.1 88.94, 136.68 53.42, 159.7 27.52 M87.01 123.34 C119.09 89.18, 147.19 52.77, 164.42 34.28 M87.01 123.34 C108.3 98.46, 131.25 73.54, 164.42 34.28 M97.64 123.3 C123.63 92.86, 149.31 60.72, 164.56 46.32 M97.64 123.3 C121.23 95.39, 144.31 68.58, 164.56 46.32 M108.27 123.27 C122.29 107.11, 134.08 91.88, 164.69 58.36 M108.27 123.27 C120.61 108.28, 133.6 93.08, 164.69 58.36 M118.9 123.23 C131.61 107.4, 146.9 91.63, 164.17 71.16 M118.9 123.23 C135.45 103.65, 152.05 84.9, 164.17 71.16 M131.5 120.93 C137.46 111.32, 146.4 105.08, 164.3 83.2 M131.5 120.93 C143.12 105.81, 156.24 92.05, 164.3 83.2 M144.09 118.63 C145.87 113.27, 150.52 109.57, 161.15 99.01 M144.09 118.63 C150.73 111.74, 157.79 104.25, 161.15 99.01" stroke="#868e96" stroke-width="1" fill="none"></path><path d="M30 0 M30 0 C57.51 0.13, 83.01 -0.43, 130 0 M30 0 C67.05 1.23, 102.61 0.75, 130 0 M130 0 C148.67 -0.23, 160.92 8.18, 160 30 M130 0 C148.33 -1.35, 161.02 10.15, 160 30 M160 30 C159.09 50.17, 161.33 71.63, 160 90 M160 30 C160.02 53.57, 159.63 78.5, 160 90 M160 90 C160.01 110.96, 150.84 119.67, 130 120 M160 90 C159.62 110.61, 149.77 120.75, 130 120 M130 120 C92.48 120.18, 56.86 118.47, 30 120 M130 120 C105.48 119.19, 80.09 118.73, 30 120 M30 120 C8.05 119.14, -1.72 110.38, 0 90 M30 120 C10.04 118.84, -0.39 110.83, 0 90 M0 90 C1.92 68.06, 0.18 45.62, 0 30 M0 90 C0.17 72.08, 0.05 52.25, 0 30 M0 30 C0.94 10.79, 11.77 -0.19, 30 0 M0 30 C0.31 7.76, 8.68 2.12, 30 0" stroke="#343a40" stroke-width="2" fill="none"></path></g><g stroke-linecap="round"><g transform="translate(990 291.36917614931235) rotate(0 20.24311005264508 -0.3748947168141967)"><path d="M-0.9 -0.03 C5.8 -0.22, 32.31 -0.91, 39.13 -0.79 M0.83 -1.09 C8 -1.18, 34.98 0.36, 41.39 0.34" stroke="#343a40" stroke-width="2" fill="none"></path></g></g><g stroke-linecap="round"><g transform="translate(1030 291.36917614931235) rotate(0 0.00560253376147557 -39.34481307239275)"><path d="M-0.03 -0.87 C-0.22 -14.05, -0.91 -66.94, -0.79 -79.98 M-1.5 1.29 C-1.34 -11.61, 1.2 -64.72, 1.51 -78.43" stroke="#343a40" stroke-width="2" fill="none"></path></g></g><g stroke-linecap="round"><g transform="translate(1030 211.36917614931235) rotate(0 -20.01959555231042 -19.786905572786964)"><path d="M-0.87 -0.79 C-7.38 -7.32, -33.61 -32.79, -39.98 -39.26 M0.87 1.42 C-5.72 -5.46, -34.2 -33.81, -40.91 -40.99" stroke="#343a40" stroke-width="2" fill="none"></path></g></g><g stroke-linecap="round"><g transform="translate(1030 211.36917614931235) rotate(0 19.978481163457218 -20.359327135542458)"><path d="M-0.79 0.02 C6.01 -6.35, 33.87 -32.4, 40.74 -39.09 M1 -1.01 C7.71 -7.63, 33.7 -34.43, 40.18 -40.74" stroke="#343a40" stroke-width="2" fill="none"></path></g></g><g stroke-linecap="round" transform="translate(850 591.3691761493124) rotate(0 80 60)"><path d="M7.33 7.7 C7.33 7.7, 7.33 7.7, 7.33 7.7 M7.33 7.7 C7.33 7.7, 7.33 7.7, 7.33 7.7 M2.87 25.02 C7.38 17.47, 14.11 9.37, 20.58 4.64 M2.87 25.02 C7.19 19.82, 12.07 15.47, 20.58 4.64 M3 37.06 C12.72 27.68, 19.28 19.95, 33.18 2.34 M3 37.06 C11.23 28.61, 19.12 18.46, 33.18 2.34 M3.14 49.1 C13.87 36.62, 27.01 19.17, 43.81 2.31 M3.14 49.1 C18.77 30.73, 35.08 12.45, 43.81 2.31 M2.61 61.9 C19.85 42.07, 36.85 25.99, 54.44 2.28 M2.61 61.9 C13.79 47.9, 23.8 36.08, 54.44 2.28 M2.75 73.94 C14.44 60.23, 31.07 43.38, 65.07 2.24 M2.75 73.94 C24.46 48.65, 45.41 25.2, 65.07 2.24 M2.88 85.98 C32.34 55.35, 59.14 22.4, 75.05 2.96 M2.88 85.98 C17.82 68.6, 31.3 52.98, 75.05 2.96 M2.36 98.77 C33.65 63.52, 66.91 23.93, 85.68 2.93 M2.36 98.77 C26.59 71.68, 49.55 45.81, 85.68 2.93 M4.46 108.55 C35.66 74.26, 63.37 40.48, 96.31 2.89 M4.46 108.55 C26.79 83.66, 49 58.62, 96.31 2.89 M9.84 114.55 C44.9 71.26, 83.56 28.87, 106.94 2.86 M9.84 114.55 C45.95 73.61, 81.91 31.37, 106.94 2.86 M17.19 118.29 C42.58 92.36, 66.16 63.43, 117.57 2.82 M17.19 118.29 C54.31 74.39, 92.44 32.46, 117.57 2.82 M26.51 119.77 C61.53 76.31, 101.11 37.37, 130.16 0.52 M26.51 119.77 C64.67 75.88, 103.56 32.47, 130.16 0.52 M33.86 123.51 C69.25 84.47, 103.94 44.97, 139.48 2 M33.86 123.51 C60.21 92.34, 86.45 63.48, 139.48 2 M44.49 123.47 C76.78 89.44, 105.29 53.97, 146.83 5.74 M44.49 123.47 C78.99 85.6, 113.18 45.95, 146.83 5.74 M55.12 123.44 C81.65 94.91, 103.77 67.95, 154.18 9.48 M55.12 123.44 C86.17 87.38, 118.45 49.73, 154.18 9.48 M65.75 123.4 C102.08 83.27, 137.5 41.04, 158.25 16.99 M65.75 123.4 C97.47 87.3, 128.4 50.96, 158.25 16.99 M76.38 123.37 C101.22 94.98, 122.93 69.54, 159.7 27.52 M76.38 123.37 C97.82 97.29, 120.02 73.17, 159.7 27.52 M87.01 123.34 C106.29 102.85, 123.93 81.53, 164.42 34.28 M87.01 123.34 C116.48 89, 145.11 55.06, 164.42 34.28 M97.64 123.3 C115.95 105.38, 132.02 84.54, 164.56 46.32 M97.64 123.3 C122.28 96.16, 146.22 68.41, 164.56 46.32 M108.27 123.27 C125.12 107.2, 138.4 89.33, 164.69 58.36 M108.27 123.27 C122.04 106.55, 135.8 90.58, 164.69 58.36 M118.9 123.23 C134.6 105.94, 148.82 88.01, 164.17 71.16 M118.9 123.23 C131.97 109.74, 143.46 94.02, 164.17 71.16 M131.5 120.93 C142.54 108.33, 150.95 94.76, 164.3 83.2 M131.5 120.93 C140.61 110.67, 147.67 100.92, 164.3 83.2 M144.09 118.63 C148.47 114.36, 153.94 108.89, 161.15 99.01 M144.09 118.63 C149.91 112.68, 156.24 105.29, 161.15 99.01" stroke="#868e96" stroke-width="1" fill="none"></path><path d="M30 0 M30 0 C52.09 -2.05, 78.8 0.4, 130 0 M30 0 C62.53 1.13, 94.39 -0.06, 130 0 M130 0 C148.83 0.88, 160.13 10.9, 160 30 M130 0 C148.66 -1.4, 159.36 9.38, 160 30 M160 30 C160.22 53.64, 160 75.75, 160 90 M160 30 C161.08 45.89, 160.43 60.77, 160 90 M160 90 C160.53 109.8, 150.65 121.36, 130 120 M160 90 C161.47 108.68, 149.14 120.87, 130 120 M130 120 C98.71 118.94, 67.51 118.51, 30 120 M130 120 C92.1 118.16, 55.25 119.05, 30 120 M30 120 C8.99 119.66, 0.72 111.49, 0 90 M30 120 C9.15 121.64, 1.96 110.61, 0 90 M0 90 C1.34 70.48, 1.08 55.68, 0 30 M0 90 C0.69 69.9, 0.2 48.17, 0 30 M0 30 C-1.95 8.85, 11.84 1.11, 30 0 M0 30 C-0.88 11.66, 9.46 0.63, 30 0" stroke="#343a40" stroke-width="2" fill="none"></path></g><g stroke-linecap="round"><g transform="translate(1010 651.3691761493124) rotate(0 20.054043830195496 0.61463302480837)"><path d="M0.74 0.91 C7.61 0.88, 33.84 -0.12, 40.43 -0.14 M-0.33 0.34 C6.49 0.5, 33.04 1.57, 39.71 1.33" stroke="#343a40" stroke-width="2" fill="none"></path></g></g><g stroke-linecap="round"><g transform="translate(1050 651.3691761493124) rotate(0 -0.12490597888836419 -40.596506915837494)"><path d="M0.91 0.43 C0.88 -12.97, -0.12 -66.46, -0.14 -79.68 M-0.08 -0.38 C-0.28 -14.23, -1.25 -68.26, -1.16 -81.63" stroke="#343a40" stroke-width="2" fill="none"></path></g></g><g stroke-linecap="round"><g transform="translate(1050 571.3691761493124) rotate(0 -20.00924227326186 -20.513772618928897)"><path d="M0.43 -0.14 C-6.3 -6.82, -33.13 -32.54, -39.68 -39.19 M-0.8 -1.25 C-7.73 -8.35, -34.08 -34.64, -40.45 -40.89" stroke="#343a40" stroke-width="2" fill="none"></path></g></g><g stroke-linecap="round"><g transform="translate(1050 571.3691761493124) rotate(0 19.570357498824706 -20.02652654379608)"><path d="M-0.14 0.32 C6.51 -6.22, 34.13 -32.28, 40.81 -38.86 M-1.67 -0.55 C4.82 -7.44, 33.48 -33.63, 40.28 -40.38" stroke="#343a40" stroke-width="2" fill="none"></path></g></g><g stroke-linecap="round" transform="translate(590 71.36917614931235) rotate(0 80 60)"><path d="M7.33 7.7 C7.33 7.7, 7.33 7.7, 7.33 7.7 M7.33 7.7 C7.33 7.7, 7.33 7.7, 7.33 7.7 M2.87 25.02 C6.2 18.27, 12.47 13.23, 20.58 4.64 M2.87 25.02 C9.77 18.46, 16.92 10.05, 20.58 4.64 M3 37.06 C13.96 25.92, 22.7 16.81, 33.18 2.34 M3 37.06 C13.83 25.91, 22.22 15.2, 33.18 2.34 M3.14 49.1 C15.97 34.3, 25.38 22.78, 43.81 2.31 M3.14 49.1 C13.46 35.33, 25.45 22.69, 43.81 2.31 M2.61 61.9 C21.33 42.27, 40.86 16.65, 54.44 2.28 M2.61 61.9 C13.56 49.79, 23.89 37.75, 54.44 2.28 M2.75 73.94 C25.98 47.53, 51.29 17.51, 65.07 2.24 M2.75 73.94 C24.47 49.16, 47.07 24.34, 65.07 2.24 M2.88 85.98 C26.82 60.99, 50.71 32.62, 75.05 2.96 M2.88 85.98 C22.15 63.11, 41.6 40.68, 75.05 2.96 M2.36 98.77 C32.51 62.56, 65.26 26.65, 85.68 2.93 M2.36 98.77 C24.52 71.96, 49.44 44.45, 85.68 2.93 M4.46 108.55 C32.98 73.98, 63.05 41.08, 96.31 2.89 M4.46 108.55 C38.61 70.06, 70.86 31.31, 96.31 2.89 M9.84 114.55 C40.04 80.9, 69.32 48.47, 106.94 2.86 M9.84 114.55 C39.38 80.16, 70.37 46.39, 106.94 2.86 M17.19 118.29 C46.83 83.67, 74.81 49.28, 117.57 2.82 M17.19 118.29 C49.93 78.97, 83.34 38.92, 117.57 2.82 M26.51 119.77 C65.57 71.86, 105.93 25.32, 130.16 0.52 M26.51 119.77 C63.02 77.61, 100.03 35.8, 130.16 0.52 M33.86 123.51 C65.4 87.56, 99.14 47.09, 139.48 2 M33.86 123.51 C74.4 77.34, 116.24 30.51, 139.48 2 M44.49 123.47 C74.16 85.72, 106.82 51.41, 146.83 5.74 M44.49 123.47 C72.34 91.58, 102.03 58.47, 146.83 5.74 M55.12 123.44 C80.18 95.38, 102.41 69.42, 154.18 9.48 M55.12 123.44 C83.2 88.13, 113.42 55.08, 154.18 9.48 M65.75 123.4 C93.93 89.06, 122.56 56.94, 158.25 16.99 M65.75 123.4 C87.78 100.35, 108.85 75.53, 158.25 16.99 M76.38 123.37 C99.53 99.42, 121.81 70.58, 159.7 27.52 M76.38 123.37 C107.24 87.61, 138.84 52.22, 159.7 27.52 M87.01 123.34 C108.9 100.74, 129.59 75.42, 164.42 34.28 M87.01 123.34 C108.99 98.23, 133.02 72.14, 164.42 34.28 M97.64 123.3 C123.13 91.65, 151.04 62.65, 164.56 46.32 M97.64 123.3 C120.82 96.08, 145.13 70.59, 164.56 46.32 M108.27 123.27 C123.52 106.47, 137.46 88.41, 164.69 58.36 M108.27 123.27 C122.23 107.63, 136.79 90.89, 164.69 58.36 M118.9 123.23 C132.96 106.42, 146.91 94, 164.17 71.16 M118.9 123.23 C130.81 111.21, 141.58 97.63, 164.17 71.16 M131.5 120.93 C138.93 111.2, 146.81 103.64, 164.3 83.2 M131.5 120.93 C138.47 113.4, 146.14 104.86, 164.3 83.2 M144.09 118.63 C150.7 112.02, 154.11 108.58, 161.15 99.01 M144.09 118.63 C149.67 113.13, 154.1 105.56, 161.15 99.01" stroke="#868e96" stroke-width="1" fill="none"></path><path d="M30 0 M30 0 C68.87 -1.6, 107.37 0.66, 130 0 M30 0 C51.33 0.65, 72.23 0, 130 0 M130 0 C148.78 -0.56, 159.46 11.69, 160 30 M130 0 C150.23 2.21, 160.18 10.67, 160 30 M160 30 C161.88 47.82, 160.85 66.45, 160 90 M160 30 C159.8 47.34, 160.58 64.67, 160 90 M160 90 C158.85 109.25, 150.76 120.41, 130 120 M160 90 C158.9 108.93, 150.88 119.32, 130 120 M130 120 C89.96 118.8, 52.96 119.02, 30 120 M130 120 C97.95 119.86, 66.99 119.13, 30 120 M30 120 C11.43 121.7, 0.53 109.96, 0 90 M30 120 C10.63 120.24, 1.73 108.11, 0 90 M0 90 C-1.4 69.2, 0.36 48.3, 0 30 M0 90 C-0.66 73.5, 0.48 54.77, 0 30 M0 30 C1.45 9.53, 10.54 -1.37, 30 0 M0 30 C-1.15 8.35, 10.99 0.95, 30 0" stroke="#343a40" stroke-width="2" fill="none"></path></g><g stroke-linecap="round"><g transform="translate(750 131.36917614931235) rotate(0 19.850815361589184 0.1837756397544581)"><path d="M0.81 1.14 C7.48 1.23, 33.44 1.18, 39.93 0.86 M-0.23 0.7 C6.3 0.43, 32.43 -0.71, 38.94 -0.82" stroke="#343a40" stroke-width="2" fill="none"></path></g></g><g stroke-linecap="round"><g transform="translate(790 131.36917614931235) rotate(0 0.7048818030450548 -40.14796403236687)"><path d="M1.14 -0.07 C1.23 -13.58, 1.18 -66.99, 0.86 -80.23 M0.29 -1.15 C0.26 -14.54, 0.13 -65.4, 0.36 -78.81" stroke="#343a40" stroke-width="2" fill="none"></path></g></g><g stroke-linecap="round"><g transform="translate(790 51.36917614931235) rotate(0 -20.68123103618632 -19.9718063812702)"><path d="M-0.07 0.86 C-6.91 -6.13, -33.65 -34.16, -40.23 -40.8 M-1.57 0.26 C-8.65 -6.08, -34.88 -32.84, -41.29 -39.68" stroke="#343a40" stroke-width="2" fill="none"></path></g></g><g stroke-linecap="round"><g transform="translate(790 51.36917614931235) rotate(0 20.669403172079456 -20.797434307048093)"><path d="M0.86 -0.23 C7.2 -6.8, 32.51 -32.8, 39.2 -39.51 M-0.15 -1.39 C6.47 -8.32, 34.67 -35.03, 41.49 -41.37" stroke="#343a40" stroke-width="2" fill="none"></path></g></g><g stroke-linecap="round" transform="translate(190 131.36917614931235) rotate(0 80 60)"><path d="M7.33 7.7 C7.33 7.7, 7.33 7.7, 7.33 7.7 M7.33 7.7 C7.33 7.7, 7.33 7.7, 7.33 7.7 M2.87 25.02 C8.11 18.11, 14.22 14.55, 20.58 4.64 M2.87 25.02 C10.59 16.72, 17.52 8.97, 20.58 4.64 M3 37.06 C12.99 25.05, 25.41 13.46, 33.18 2.34 M3 37.06 C9.21 29.83, 17.71 19.84, 33.18 2.34 M3.14 49.1 C14.87 36.99, 23.69 22.34, 43.81 2.31 M3.14 49.1 C17.52 32.41, 30.46 18.73, 43.81 2.31 M2.61 61.9 C19.35 41.95, 35.34 25.36, 54.44 2.28 M2.61 61.9 C13.34 49.01, 24.18 36.39, 54.44 2.28 M2.75 73.94 C25.26 49.96, 47.29 24.41, 65.07 2.24 M2.75 73.94 C26.05 45.82, 49.51 20.36, 65.07 2.24 M2.88 85.98 C32.54 55.97, 58.84 23.48, 75.05 2.96 M2.88 85.98 C22.51 61.04, 43.61 36.58, 75.05 2.96 M2.36 98.77 C30.21 68.71, 54.3 38.26, 85.68 2.93 M2.36 98.77 C33.07 62.34, 64.29 26.3, 85.68 2.93 M4.46 108.55 C31.69 77.08, 61.87 43.71, 96.31 2.89 M4.46 108.55 C23.82 87, 43.76 64.38, 96.31 2.89 M9.84 114.55 C41.49 76.37, 72.14 40.42, 106.94 2.86 M9.84 114.55 C41.21 78.68, 73.18 40.99, 106.94 2.86 M17.19 118.29 C50.02 84.01, 78.19 48.61, 117.57 2.82 M17.19 118.29 C41.22 92.17, 62.83 65.19, 117.57 2.82 M26.51 119.77 C55.62 86.9, 83.91 54.04, 130.16 0.52 M26.51 119.77 C59.53 81.3, 91.4 44.62, 130.16 0.52 M33.86 123.51 C71.59 80.38, 107.84 39.66, 139.48 2 M33.86 123.51 C75.24 75.52, 115.9 26.62, 139.48 2 M44.49 123.47 C69.88 92.77, 94.59 64.66, 146.83 5.74 M44.49 123.47 C82.85 80.91, 120.66 37.3, 146.83 5.74 M55.12 123.44 C82.87 92.67, 108.68 57.06, 154.18 9.48 M55.12 123.44 C84.26 89.4, 114.55 53.83, 154.18 9.48 M65.75 123.4 C90.55 94.27, 118.66 66.4, 158.25 16.99 M65.75 123.4 C101.45 83.28, 136 44.69, 158.25 16.99 M76.38 123.37 C104.71 90.5, 130.73 60.2, 159.7 27.52 M76.38 123.37 C103.67 93.22, 131 62.19, 159.7 27.52 M87.01 123.34 C116.22 88.87, 143.79 57.71, 164.42 34.28 M87.01 123.34 C116.25 88.3, 146.71 52.2, 164.42 34.28 M97.64 123.3 C119.39 96.45, 142.05 69.72, 164.56 46.32 M97.64 123.3 C122.03 94.98, 146.33 67.42, 164.56 46.32 M108.27 123.27 C124.36 105.62, 140.43 87.87, 164.69 58.36 M108.27 123.27 C126.67 101.54, 145.93 79.44, 164.69 58.36 M118.9 123.23 C133.81 105.31, 152.23 87.75, 164.17 71.16 M118.9 123.23 C133.06 106.25, 148.58 88.7, 164.17 71.16 M131.5 120.93 C142.31 106.99, 154.62 95.14, 164.3 83.2 M131.5 120.93 C140.87 111.25, 149.79 100.19, 164.3 83.2 M144.09 118.63 C149.97 111.6, 154.37 108.42, 161.15 99.01 M144.09 118.63 C148.64 114.27, 152.06 108.86, 161.15 99.01" stroke="#868e96" stroke-width="1" fill="none"></path><path d="M30 0 M30 0 C57.38 -0.26, 88.54 1.04, 130 0 M30 0 C64.24 0.34, 99.89 0.71, 130 0 M130 0 C151.92 0.16, 160.58 9.94, 160 30 M130 0 C149.58 -0.97, 162.29 10.01, 160 30 M160 30 C159.92 51.41, 160.05 72.41, 160 90 M160 30 C160.01 52.44, 160.59 73.65, 160 90 M160 90 C159.07 110.76, 149.41 121.62, 130 120 M160 90 C158.82 111.72, 147.76 117.76, 130 120 M130 120 C104.36 119.18, 78.31 120.91, 30 120 M130 120 C93.41 120.98, 55.1 120.99, 30 120 M30 120 C10.21 121.51, -1.65 111.25, 0 90 M30 120 C11.63 121.14, -1.12 111.08, 0 90 M0 90 C-0.26 67.69, -1.68 51.1, 0 30 M0 90 C-0.01 68.93, -0.45 46.81, 0 30 M0 30 C-1.44 10.86, 10.83 -0.82, 30 0 M0 30 C2.2 9.53, 8.49 2.14, 30 0" stroke="#343a40" stroke-width="2" fill="none"></path></g><g stroke-linecap="round"><g transform="translate(350 191.36917614931235) rotate(0 20.10567845292394 0.15661514206789207)"><path d="M-0.8 0.49 C5.89 0.45, 34.35 -0.34, 41.01 -0.48 M0.98 -0.29 C7.53 -0.15, 33.82 0.63, 40.6 0.8" stroke="#343a40" stroke-width="2" fill="none"></path></g></g><g stroke-linecap="round"><g transform="translate(390 191.36917614931235) rotate(0 -0.5966894361375807 -39.90081918053329)"><path d="M0.49 1.01 C0.45 -12.32, -0.34 -67.24, -0.48 -80.81 M-0.71 0.5 C-0.93 -12.63, -1.58 -66.4, -1.69 -79.7" stroke="#343a40" stroke-width="2" fill="none"></path></g></g><g stroke-linecap="round"><g transform="translate(390 111.36917614931235) rotate(0 -19.90081918053329 -20.442663522437215)"><path d="M1.01 -0.48 C-5.66 -7.3, -33.91 -33.63, -40.81 -40.4 M0.08 -1.78 C-6.13 -8.47, -31.62 -32.65, -38.53 -39.07" stroke="#343a40" stroke-width="2" fill="none"></path></g></g><g stroke-linecap="round"><g transform="translate(390 111.36917614931235) rotate(0 19.557336477562785 -19.51735878631473)"><path d="M-0.48 -0.81 C6.03 -7.72, 33.03 -33.75, 39.6 -40.41 M1.46 1.37 C7.74 -4.84, 31.81 -32.21, 38.44 -39.08" stroke="#343a40" stroke-width="2" fill="none"></path></g></g><g stroke-linecap="round" transform="translate(10 511.36917614931235) rotate(0 80 60)"><path d="M7.33 7.7 C7.33 7.7, 7.33 7.7, 7.33 7.7 M7.33 7.7 C7.33 7.7, 7.33 7.7, 7.33 7.7 M2.87 25.02 C8.7 18.42, 16.08 10.69, 20.58 4.64 M2.87 25.02 C10.52 17.36, 16.48 9.26, 20.58 4.64 M3 37.06 C16.54 23.26, 25.09 12.16, 33.18 2.34 M3 37.06 C14.18 24.35, 25.5 12.21, 33.18 2.34 M3.14 49.1 C11.82 39.01, 24.32 24.52, 43.81 2.31 M3.14 49.1 C13.8 34.44, 26.59 20.69, 43.81 2.31 M2.61 61.9 C19.21 46.72, 32.65 28.6, 54.44 2.28 M2.61 61.9 C15.84 45.61, 30.89 29.48, 54.44 2.28 M2.75 73.94 C22.39 52.97, 39.71 29.6, 65.07 2.24 M2.75 73.94 C24.23 47.74, 47.45 23.38, 65.07 2.24 M2.88 85.98 C27.5 60.51, 47.78 31.75, 75.05 2.96 M2.88 85.98 C18.91 66.92, 36.17 48.53, 75.05 2.96 M2.36 98.77 C19.25 77.76, 36.68 55.51, 85.68 2.93 M2.36 98.77 C22.9 75.79, 43.25 52.44, 85.68 2.93 M4.46 108.55 C31.04 77.74, 58.55 47.49, 96.31 2.89 M4.46 108.55 C35.36 73.53, 65.01 37.98, 96.31 2.89 M9.84 114.55 C37.18 85.02, 61.53 57.7, 106.94 2.86 M9.84 114.55 C44.18 74.92, 80.46 35.04, 106.94 2.86 M17.19 118.29 C43.43 88.64, 74.22 56, 117.57 2.82 M17.19 118.29 C44.85 87.25, 72.95 55.19, 117.57 2.82 M26.51 119.77 C56.75 86.14, 86.57 51.18, 130.16 0.52 M26.51 119.77 C55.87 84.64, 87.61 48.23, 130.16 0.52 M33.86 123.51 C64.84 87.76, 94.51 53.23, 139.48 2 M33.86 123.51 C57.55 97.95, 79.41 71.81, 139.48 2 M44.49 123.47 C69.84 92.15, 96.83 64.25, 146.83 5.74 M44.49 123.47 C84.74 78.37, 123.39 34.02, 146.83 5.74 M55.12 123.44 C76.84 99.34, 96.31 75.88, 154.18 9.48 M55.12 123.44 C80.65 93.84, 105.77 65.38, 154.18 9.48 M65.75 123.4 C96.41 85.51, 130.17 48.56, 158.25 16.99 M65.75 123.4 C96.82 86.63, 130.08 47.97, 158.25 16.99 M76.38 123.37 C102.49 93.81, 127.73 67.32, 159.7 27.52 M76.38 123.37 C107.49 86.15, 139.19 49.1, 159.7 27.52 M87.01 123.34 C107.21 101.76, 124.61 78.45, 164.42 34.28 M87.01 123.34 C106.42 101.68, 125.08 79.09, 164.42 34.28 M97.64 123.3 C116.6 102.25, 133.61 82.09, 164.56 46.32 M97.64 123.3 C119.45 97.25, 142.03 72.43, 164.56 46.32 M108.27 123.27 C123.91 104.75, 139.04 86.19, 164.69 58.36 M108.27 123.27 C128.05 101, 145.45 80.44, 164.69 58.36 M118.9 123.23 C134.67 102.69, 149.64 85.06, 164.17 71.16 M118.9 123.23 C132.95 105.65, 147.34 89.74, 164.17 71.16 M131.5 120.93 C140.37 112.16, 148.22 104.28, 164.3 83.2 M131.5 120.93 C145.01 106.83, 157.03 91.7, 164.3 83.2 M144.09 118.63 C148.11 114.1, 156.14 106.46, 161.15 99.01 M144.09 118.63 C149.86 111.79, 153.85 106.16, 161.15 99.01" stroke="#868e96" stroke-width="1" fill="none"></path><path d="M30 0 M30 0 C63.25 -1.67, 98.29 -0.99, 130 0 M30 0 C68.51 -0.67, 106.82 -1.14, 130 0 M130 0 C149.16 1.99, 160.01 10.96, 160 30 M130 0 C150.96 -0.38, 159.62 10.61, 160 30 M160 30 C161.48 46.24, 159.45 65.54, 160 90 M160 30 C160.1 48.94, 160.52 67.95, 160 90 M160 90 C161.49 108.05, 148.05 119.14, 130 120 M160 90 C158.02 110.43, 150.04 118.84, 130 120 M130 120 C100.95 122.17, 75.07 121.27, 30 120 M130 120 C100.97 119.28, 71.06 120.82, 30 120 M30 120 C10.99 119.02, 0.94 110.79, 0 90 M30 120 C12.04 119.78, 0.31 107.76, 0 90 M0 90 C-1.32 76.9, -1.02 61.45, 0 30 M0 90 C0.73 76.51, -0.11 63.15, 0 30 M0 30 C-0.41 8.69, 11.86 -0.16, 30 0 M0 30 C-0.61 9.25, 11.32 -0.15, 30 0" stroke="#343a40" stroke-width="2" fill="none"></path></g><g stroke-linecap="round"><g transform="translate(170 571.3691761493124) rotate(0 20.322205935120678 -0.657160592749733)"><path d="M-0.4 -0.41 C6.16 -0.4, 32.33 -0.7, 38.91 -0.78 M1.59 -1.67 C8.55 -1.45, 34.4 0.08, 41.04 0.35" stroke="#343a40" stroke-width="2" fill="none"></path></g></g><g stroke-linecap="round"><g transform="translate(210 571.3691761493124) rotate(0 0.4975894117853841 -39.99752337277869)"><path d="M-0.41 -1.09 C-0.4 -14.52, -0.7 -67.79, -0.78 -80.94 M1.58 0.95 C2.04 -12.32, 1.53 -66.63, 1.53 -79.9" stroke="#343a40" stroke-width="2" fill="none"></path></g></g><g stroke-linecap="round"><g transform="translate(210 491.36917614931235) rotate(0 -20.204290764778875 -19.71950663998723)"><path d="M-1.09 -0.78 C-7.85 -7.52, -34.46 -34.23, -40.94 -40.87 M0.53 1.43 C-5.82 -5.15, -31.84 -32.94, -38.73 -39.79" stroke="#343a40" stroke-width="2" fill="none"></path></g></g><g stroke-linecap="round"><g transform="translate(210 491.36917614931235) rotate(0 20.304950049230797 -19.413798064449793)"><path d="M-0.78 -0.94 C5.81 -7.43, 32.44 -33.64, 39.13 -40 M1.02 1.18 C8.02 -5.01, 35.18 -31.43, 41.39 -38.47" stroke="#343a40" stroke-width="2" fill="none"></path></g></g><g stroke-linecap="round" transform="translate(330 771.3691761493124) rotate(0 80 60)"><path d="M7.33 7.7 C7.33 7.7, 7.33 7.7, 7.33 7.7 M7.33 7.7 C7.33 7.7, 7.33 7.7, 7.33 7.7 M2.87 25.02 C9.44 17.99, 18.07 9.83, 20.58 4.64 M2.87 25.02 C8.27 18.32, 14.1 12.77, 20.58 4.64 M3 37.06 C8.25 28.17, 16.72 20.24, 33.18 2.34 M3 37.06 C12.41 25.59, 22.94 14, 33.18 2.34 M3.14 49.1 C19.74 33, 30.39 14.62, 43.81 2.31 M3.14 49.1 C15.95 34.23, 28.86 21.81, 43.81 2.31 M2.61 61.9 C19.53 44.72, 32.82 26.23, 54.44 2.28 M2.61 61.9 C18.14 45.16, 33.6 27.08, 54.44 2.28 M2.75 73.94 C26.71 49.79, 47.3 22.14, 65.07 2.24 M2.75 73.94 C27.03 45.64, 51.75 18.37, 65.07 2.24 M2.88 85.98 C18.24 68.43, 33.92 49.23, 75.05 2.96 M2.88 85.98 C27.29 59.3, 51 30.7, 75.05 2.96 M2.36 98.77 C19.8 77.73, 38.87 57.15, 85.68 2.93 M2.36 98.77 C18.89 78.4, 35.19 59.83, 85.68 2.93 M4.46 108.55 C29.32 80.25, 55.46 51.24, 96.31 2.89 M4.46 108.55 C35.5 74.1, 67.11 38.59, 96.31 2.89 M9.84 114.55 C43.01 74.46, 76.5 35.61, 106.94 2.86 M9.84 114.55 C47.15 70.72, 83.8 29.09, 106.94 2.86 M17.19 118.29 C52.42 75.72, 89.1 34.94, 117.57 2.82 M17.19 118.29 C47.08 84.23, 77.36 49.76, 117.57 2.82 M26.51 119.77 C69.47 73.4, 107.82 26.85, 130.16 0.52 M26.51 119.77 C58.96 84.35, 90.74 46.99, 130.16 0.52 M33.86 123.51 C68.02 82.83, 105.69 42.65, 139.48 2 M33.86 123.51 C68.08 86.5, 101 47.04, 139.48 2 M44.49 123.47 C82.52 78.28, 122.69 34.48, 146.83 5.74 M44.49 123.47 C76.78 85.26, 111.47 46.16, 146.83 5.74 M55.12 123.44 C74.43 98.9, 96.06 73.31, 154.18 9.48 M55.12 123.44 C78.05 98.35, 99.2 71.93, 154.18 9.48 M65.75 123.4 C102.33 84.07, 133.95 45.75, 158.25 16.99 M65.75 123.4 C98.55 86.42, 131.59 48.62, 158.25 16.99 M76.38 123.37 C107.76 89.47, 136.56 53.13, 159.7 27.52 M76.38 123.37 C104.52 93.52, 131.58 62.34, 159.7 27.52 M87.01 123.34 C103.27 103.75, 122.3 83.2, 164.42 34.28 M87.01 123.34 C106.25 101.69, 127.15 78.07, 164.42 34.28 M97.64 123.3 C121.03 96.37, 143.05 69.21, 164.56 46.32 M97.64 123.3 C117.1 101.9, 135.51 79.68, 164.56 46.32 M108.27 123.27 C122.43 106.37, 140.95 86.15, 164.69 58.36 M108.27 123.27 C123.05 106.97, 136.32 89.58, 164.69 58.36 M118.9 123.23 C128.05 111.96, 139.3 96.54, 164.17 71.16 M118.9 123.23 C129.92 111.61, 139.89 100.32, 164.17 71.16 M131.5 120.93 C143.04 106.32, 157.87 92.68, 164.3 83.2 M131.5 120.93 C144.01 106.73, 154.32 94.93, 164.3 83.2 M144.09 118.63 C148.7 111.51, 156.93 103.04, 161.15 99.01 M144.09 118.63 C148.15 114.55, 151.38 109.03, 161.15 99.01" stroke="#868e96" stroke-width="1" fill="none"></path><path d="M30 0 M30 0 C57.42 1.08, 84.59 -0.26, 130 0 M30 0 C60.68 0.43, 89.84 0.84, 130 0 M130 0 C149.67 -0.33, 160.53 9.8, 160 30 M130 0 C150.75 1.56, 161.47 8.68, 160 30 M160 30 C159.27 44.82, 160.99 60.92, 160 90 M160 30 C158.72 51.88, 159.26 74.84, 160 90 M160 90 C160.38 110.04, 148.99 119.66, 130 120 M160 90 C160.83 111.71, 149.15 121.64, 130 120 M130 120 C92.04 120.19, 54.48 118.33, 30 120 M130 120 C93.28 120.97, 57.94 121.38, 30 120 M30 120 C9.81 120.27, -1.95 108.85, 0 90 M30 120 C12.12 121.28, -0.88 111.66, 0 90 M0 90 C-1.16 71.98, 0.7 57.67, 0 30 M0 90 C-1.23 75.39, -0.65 58.64, 0 30 M0 30 C-0.65 11.14, 9.87 -1.55, 30 0 M0 30 C-2.03 9.24, 10.95 -0.32, 30 0" stroke="#343a40" stroke-width="2" fill="none"></path></g><g stroke-linecap="round"><g transform="translate(490 831.3691761493124) rotate(0 20.434010964790332 -0.10204259857869147)"><path d="M-0.87 0 C5.82 0.29, 32.57 0.92, 39.36 0.85 M0.88 -1.05 C8.03 -1, 35.37 -1.12, 41.74 -0.83" stroke="#343a40" stroke-width="2" fill="none"></path></g></g><g stroke-linecap="round"><g transform="translate(530 831.3691761493124) rotate(0 -0.30880999057899317 -39.23350002512336)"><path d="M0 -0.64 C0.29 -13.85, 0.92 -66.94, 0.85 -80.11 M-1.47 1.64 C-1.17 -11.3, 0.33 -64.72, 0.35 -78.63" stroke="#343a40" stroke-width="2" fill="none"></path></g></g><g stroke-linecap="round"><g transform="translate(530 751.3691761493124) rotate(0 -19.94228742277255 -19.778423150256287)"><path d="M-0.64 0.85 C-7.18 -5.88, -33.61 -33.78, -40.11 -40.41 M1.23 0.25 C-5.4 -6.32, -34.21 -32.27, -41.11 -39.08" stroke="#343a40" stroke-width="2" fill="none"></path></g></g><g stroke-linecap="round"><g transform="translate(530 751.3691761493124) rotate(0 19.7147406375409 -20.825716282129292)"><path d="M0.85 -0.11 C7.45 -6.6, 32.88 -33.15, 39.59 -39.62 M-0.17 -1.21 C6.24 -8.02, 31.58 -34.96, 38.43 -41.54" stroke="#343a40" stroke-width="2" fill="none"></path></g></g><g stroke-linecap="round"><g transform="translate(270 271.36917614931235) rotate(0 -90.23845163955355 109.72868726490998)"><path d="M-0.11 -0.41 C-29.94 36.31, -149.82 184.37, -179.62 221.12 M-1.62 -1.66 C-31.52 34.67, -150.79 182.4, -180.37 219.59" stroke="#343a40" stroke-width="1" fill="none"></path></g><g transform="translate(270 271.36917614931235) rotate(0 -90.23845163955355 109.72868726490998)"><path d="M-10.56 28.59 C-5.8 22.76, -5.11 14.29, 1.55 -1.06 M-9.1 28.24 C-6.16 17.01, -1.4 6.28, -0.72 0.52" stroke="#343a40" stroke-width="1" fill="none"></path></g><g transform="translate(270 271.36917614931235) rotate(0 -90.23845163955355 109.72868726490998)"><path d="M-26.5 15.67 C-17.72 13.04, -13.1 7.76, 1.55 -1.06 M-25.04 15.32 C-15.97 9, -5.06 3.26, -0.72 0.52" stroke="#343a40" stroke-width="1" fill="none"></path></g><g transform="translate(270 271.36917614931235) rotate(0 -90.23845163955355 109.72868726490998)"><path d="M-171.4 191.81 C-171.04 199.97, -175.14 205.51, -178.71 218.93 M-169.94 191.46 C-174.57 202.22, -177.31 213.39, -180.98 220.52" stroke="#343a40" stroke-width="1" fill="none"></path></g><g transform="translate(270 271.36917614931235) rotate(0 -90.23845163955355 109.72868726490998)"><path d="M-155.4 204.66 C-159.07 209.63, -167.12 212, -178.71 218.93 M-153.94 204.3 C-164.73 210.19, -173.63 216.4, -180.98 220.52" stroke="#343a40" stroke-width="1" fill="none"></path></g></g><g stroke-linecap="round"><g transform="translate(570 131.36917614931235) rotate(0 -78.82780291698862 20.304185228198833)"><path d="M-0.41 0.38 C-27.03 7.24, -132.29 34.44, -158.88 41.08 M1.58 -0.47 C-25.17 6.09, -132.2 32.51, -159.24 39.52" stroke="#343a40" stroke-width="1" fill="none"></path></g><g transform="translate(570 131.36917614931235) rotate(0 -78.82780291698862 20.304185228198833)"><path d="M-24.51 19.22 C-14.17 11.29, -6.47 6.51, -1.06 2.09 M-24.87 17.26 C-18.1 13.19, -10.8 6.82, 0.52 0.16" stroke="#343a40" stroke-width="1" fill="none"></path></g><g transform="translate(570 131.36917614931235) rotate(0 -78.82780291698862 20.304185228198833)"><path d="M-29.63 -0.66 C-17.4 -1.2, -7.81 1.38, -1.06 2.09 M-29.98 -2.61 C-21.66 -1.03, -12.9 -1.71, 0.52 0.16" stroke="#343a40" stroke-width="1" fill="none"></path></g><g transform="translate(570 131.36917614931235) rotate(0 -78.82780291698862 20.304185228198833)"><path d="M-133.78 24.55 C-141.84 28.98, -152.52 36.74, -159.89 41.23 M-134.13 22.59 C-141.4 28.59, -148.3 31.91, -158.31 39.3" stroke="#343a40" stroke-width="1" fill="none"></path></g><g transform="translate(570 131.36917614931235) rotate(0 -78.82780291698862 20.304185228198833)"><path d="M-128.76 44.44 C-138.66 41.49, -151.2 41.86, -159.89 41.23 M-129.11 42.49 C-137.91 42.83, -146.25 40.45, -158.31 39.3" stroke="#343a40" stroke-width="1" fill="none"></path></g></g><g stroke-linecap="round"><g transform="translate(550 411.36917614931235) rotate(0 60.097417836198474 -99.39512682743367)"><path d="M0.38 1.12 C20.58 -32.13, 101.11 -166.56, 121.08 -199.91 M-0.88 0.66 C19.26 -32.34, 100.63 -164.75, 120.69 -198.33" stroke="#343a40" stroke-width="1" fill="none"></path></g><g transform="translate(550 411.36917614931235) rotate(0 60.097417836198474 -99.39512682743367)"><path d="M7.97 -26.53 C4.48 -19.42, 4.33 -11.82, 2.09 0.85 M6.01 -28.29 C5.25 -17.87, 1.76 -7.01, 0.16 0.44" stroke="#343a40" stroke-width="1" fill="none"></path></g><g transform="translate(550 411.36917614931235) rotate(0 60.097417836198474 -99.39512682743367)"><path d="M25.56 -15.96 C16.99 -11.87, 11.71 -7.35, 2.09 0.85 M23.6 -17.72 C16.68 -10.91, 7.1 -3.7, 0.16 0.44" stroke="#343a40" stroke-width="1" fill="none"></path></g><g transform="translate(550 411.36917614931235) rotate(0 60.097417836198474 -99.39512682743367)"><path d="M116.7 -167.11 C116.79 -177.17, 120 -186.71, 122.41 -198.6 M114.74 -168.86 C117.53 -178.85, 118.04 -188.35, 120.47 -199.01" stroke="#343a40" stroke-width="1" fill="none"></path></g><g transform="translate(550 411.36917614931235) rotate(0 60.097417836198474 -99.39512682743367)"><path d="M99.16 -177.76 C104.32 -184.78, 112.64 -191.21, 122.41 -198.6 M97.2 -179.51 C106.14 -185.86, 112.72 -191.68, 120.47 -199.01" stroke="#343a40" stroke-width="1" fill="none"></path></g></g><g stroke-linecap="round"><g transform="translate(450 411.36917614931235) rotate(0 -49.845891085565086 -69.36708705238999)"><path d="M1.12 1.08 C-15.46 -22.29, -83.22 -116.23, -99.91 -139.81 M0.25 0.6 C-16.45 -22.58, -84.23 -114.86, -100.81 -138.17" stroke="#343a40" stroke-width="1" fill="none"></path></g><g transform="translate(450 411.36917614931235) rotate(0 -49.845891085565086 -69.36708705238999)"><path d="M-21.86 -15.7 C-16.69 -9.92, -11.06 -5.35, 0.85 1.99 M-23.61 -14.94 C-13.97 -10.02, -3.91 -3.23, 0.44 2.07" stroke="#343a40" stroke-width="1" fill="none"></path></g><g transform="translate(450 411.36917614931235) rotate(0 -49.845891085565086 -69.36708705238999)"><path d="M-5.19 -27.66 C-4.42 -18.54, -3.23 -10.79, 0.85 1.99 M-6.94 -26.91 C-3.58 -17.47, 0.16 -6.15, 0.44 2.07" stroke="#343a40" stroke-width="1" fill="none"></path></g><g transform="translate(450 411.36917614931235) rotate(0 -49.845891085565086 -69.36708705238999)"><path d="M-74.17 -121.21 C-82.32 -123.95, -89.9 -128.37, -101.09 -137.25 M-75.92 -120.46 C-85.17 -128.36, -93.9 -134.34, -101.5 -137.18" stroke="#343a40" stroke-width="1" fill="none"></path></g><g transform="translate(450 411.36917614931235) rotate(0 -49.845891085565086 -69.36708705238999)"><path d="M-90.79 -109.18 C-94.55 -115.27, -97.71 -122.89, -101.09 -137.25 M-92.54 -108.42 C-95.53 -120.87, -97.97 -131.41, -101.5 -137.18" stroke="#343a40" stroke-width="1" fill="none"></path></g></g><g stroke-linecap="round"><g transform="translate(170 651.3691761493124) rotate(0 70.18583976612422 60.04135058431885)"><path d="M1.08 0.09 C24.38 20.07, 117.1 100.84, 140.19 120.99 M0.18 -0.91 C23.31 19.26, 116.27 99.37, 139.34 119.39" stroke="#343a40" stroke-width="1" fill="none"></path></g><g transform="translate(170 651.3691761493124) rotate(0 70.18583976612422 60.04135058431885)"><path d="M29.24 11.14 C21.36 6.86, 12.13 3.68, 1.99 1.66 M29.99 11.07 C19.3 8.24, 10.49 3.11, 2.07 0.7" stroke="#343a40" stroke-width="1" fill="none"></path></g><g transform="translate(170 651.3691761493124) rotate(0 70.18583976612422 60.04135058431885)"><path d="M15.78 26.63 C12.22 17.1, 7.45 8.78, 1.99 1.66 M16.54 26.57 C10.27 18.65, 5.88 8.43, 2.07 0.7" stroke="#343a40" stroke-width="1" fill="none"></path></g><g transform="translate(170 651.3691761493124) rotate(0 70.18583976612422 60.04135058431885)"><path d="M111.45 109.03 C122.36 111.35, 131.71 115.27, 140.26 120.97 M112.2 108.97 C119.88 113.14, 129.47 115.03, 140.34 120" stroke="#343a40" stroke-width="1" fill="none"></path></g><g transform="translate(170 651.3691761493124) rotate(0 70.18583976612422 60.04135058431885)"><path d="M124.87 93.51 C131.47 101.09, 136.38 110.16, 140.26 120.97 M125.62 93.44 C128.89 102.71, 134.07 109.7, 140.34 120" stroke="#343a40" stroke-width="1" fill="none"></path></g></g><g stroke-linecap="round"><g transform="translate(230 551.3691761493124) rotate(0 99.83458319231875 -20.101704726740763)"><path d="M0.09 0.19 C33.4 -6.72, 167.5 -33.67, 200.99 -40.39 M-1.32 -0.76 C31.82 -6.98, 166.88 -32.7, 200.57 -39.06" stroke="#343a40" stroke-width="1" fill="none"></path></g><g transform="translate(230 551.3691761493124) rotate(0 99.83458319231875 -20.101704726740763)"><path d="M26 -13.8 C15.1 -7.57, 5.41 -2.21, 1.66 0.75 M25.94 -16.07 C19.17 -10.9, 10.11 -5.12, 0.7 -0.51" stroke="#343a40" stroke-width="1" fill="none"></path></g><g transform="translate(230 551.3691761493124) rotate(0 99.83458319231875 -20.101704726740763)"><path d="M30.07 6.31 C17.39 4.64, 6.1 2.08, 1.66 0.75 M30.01 4.04 C22.04 3.4, 11.8 3.32, 0.7 -0.51" stroke="#343a40" stroke-width="1" fill="none"></path></g><g transform="translate(230 551.3691761493124) rotate(0 99.83458319231875 -20.101704726740763)"><path d="M175.1 -22.07 C184.13 -28.06, 194.66 -34.89, 202.14 -38.5 M175.03 -24.34 C183.21 -28.65, 189.11 -31.89, 201.18 -39.77" stroke="#343a40" stroke-width="1" fill="none"></path></g><g transform="translate(230 551.3691761493124) rotate(0 99.83458319231875 -20.101704726740763)"><path d="M171.27 -42.23 C181.99 -40.3, 194.03 -39.19, 202.14 -38.5 M171.21 -44.5 C180.51 -42.97, 187.52 -40.35, 201.18 -39.77" stroke="#343a40" stroke-width="1" fill="none"></path></g></g><g stroke-linecap="round"><g transform="translate(410 751.3691761493124) rotate(0 39.218509022900776 -89.78001665876249)"><path d="M0.19 0.99 C13.28 -28.85, 66.33 -148.9, 79.61 -178.97 M-1.17 0.47 C11.63 -29.7, 65.09 -150.22, 78.45 -180.55" stroke="#343a40" stroke-width="1" fill="none"></path></g><g transform="translate(410 751.3691761493124) rotate(0 39.218509022900776 -89.78001665876249)"><path d="M3.84 -29.6 C3.14 -17.55, 1.57 -4.03, 0.75 0.82 M1.57 -28.01 C1.62 -20.51, 2.23 -10.11, -0.51 0.66" stroke="#343a40" stroke-width="1" fill="none"></path></g><g transform="translate(410 751.3691761493124) rotate(0 39.218509022900776 -89.78001665876249)"><path d="M22.61 -21.31 C14.59 -12.46, 5.71 -2.18, 0.75 0.82 M20.35 -19.73 C14.61 -14.7, 9.51 -6.82, -0.51 0.66" stroke="#343a40" stroke-width="1" fill="none"></path></g><g transform="translate(410 751.3691761493124) rotate(0 39.218509022900776 -89.78001665876249)"><path d="M78.1 -151.28 C78.92 -162.56, 78.91 -172.38, 79.01 -180.73 M75.83 -149.69 C76.56 -160.41, 78.39 -168.22, 77.75 -180.88" stroke="#343a40" stroke-width="1" fill="none"></path></g><g transform="translate(410 751.3691761493124) rotate(0 39.218509022900776 -89.78001665876249)"><path d="M59.33 -159.57 C67.47 -167.65, 74.77 -174.24, 79.01 -180.73 M57.06 -157.99 C63.58 -166.23, 71.11 -171.52, 77.75 -180.88" stroke="#343a40" stroke-width="1" fill="none"></path></g></g><g stroke-linecap="round"><g transform="translate(830 651.3691761493124) rotate(0 -99.19275201618689 -50.278337095305346)"><path d="M0.99 -0.39 C-32.18 -17.12, -165.56 -83.72, -198.97 -100.16 M0.06 -1.65 C-33.2 -18.2, -166.05 -82.17, -199.38 -98.71" stroke="#343a40" stroke-width="1" fill="none"></path></g><g transform="translate(830 651.3691761493124) rotate(0 -99.19275201618689 -50.278337095305346)"><path d="M-29.47 -2.1 C-19.92 -2.09, -8.91 -1.4, 0.82 -0.31 M-27.88 -4.04 C-17.86 -1.31, -4.95 -1.67, 0.66 -0.36" stroke="#343a40" stroke-width="1" fill="none"></path></g><g transform="translate(830 651.3691761493124) rotate(0 -99.19275201618689 -50.278337095305346)"><path d="M-20.29 -20.46 C-13.53 -14.73, -5.35 -8.39, 0.82 -0.31 M-18.71 -22.4 C-12.22 -12.56, -2.88 -5.77, 0.66 -0.36" stroke="#343a40" stroke-width="1" fill="none"></path></g><g transform="translate(830 651.3691761493124) rotate(0 -99.19275201618689 -50.278337095305346)"><path d="M-170.2 -93.85 C-178.99 -95.37, -186.32 -96.69, -199.56 -98.63 M-168.62 -95.79 C-181.87 -95.98, -192.21 -98.91, -199.71 -98.68" stroke="#343a40" stroke-width="1" fill="none"></path></g><g transform="translate(830 651.3691761493124) rotate(0 -99.19275201618689 -50.278337095305346)"><path d="M-179.2 -75.41 C-185.26 -82.67, -189.81 -89.66, -199.56 -98.63 M-177.62 -77.35 C-187.41 -84.68, -194.23 -94.79, -199.71 -98.68" stroke="#343a40" stroke-width="1" fill="none"></path></g></g><g stroke-linecap="round"><g transform="translate(670 451.36917614931235) rotate(0 69.72166290469477 -50.12656200320458)"><path d="M-0.39 1.03 C22.88 -15.71, 116.28 -82.67, 139.84 -99.45 M1.6 0.52 C24.69 -16.66, 115.62 -84.22, 138.8 -101.28" stroke="#343a40" stroke-width="1" fill="none"></path></g><g transform="translate(670 451.36917614931235) rotate(0 69.72166290469477 -50.12656200320458)"><path d="M18.25 -24.01 C12.31 -14.4, 6.61 -8.33, -0.31 2.83 M16.31 -24.42 C11.88 -14.91, 4.67 -7.81, -0.36 0.76" stroke="#343a40" stroke-width="1" fill="none"></path></g><g transform="translate(670 451.36917614931235) rotate(0 69.72166290469477 -50.12656200320458)"><path d="M30.21 -7.33 C20.36 -3.03, 10.88 -2.22, -0.31 2.83 M28.27 -7.74 C20.05 -3.55, 8.96 -1.86, -0.36 0.76" stroke="#343a40" stroke-width="1" fill="none"></path></g><g transform="translate(670 451.36917614931235) rotate(0 69.72166290469477 -50.12656200320458)"><path d="M123.96 -76.54 C128.19 -82.54, 133.06 -92.19, 138.89 -99.48 M122.02 -76.95 C128.78 -83.94, 132.46 -93.02, 138.84 -101.55" stroke="#343a40" stroke-width="1" fill="none"></path></g><g transform="translate(670 451.36917614931235) rotate(0 69.72166290469477 -50.12656200320458)"><path d="M111.75 -93.03 C119.97 -93.78, 128.7 -98.23, 138.89 -99.48 M109.81 -93.44 C120.44 -95.19, 128.09 -98.9, 138.84 -101.55" stroke="#343a40" stroke-width="1" fill="none"></path></g></g><g stroke-linecap="round"><g transform="translate(910 371.36917614931235) rotate(0 0.460702639370993 99.82470395490532)"><path d="M1.03 -0.16 C0.96 33.39, 0.67 167.6, 0.55 200.94 M0.11 -1.3 C-0.16 31.97, -0.05 165.58, -0.11 199.32" stroke="#343a40" stroke-width="1" fill="none"></path></g><g transform="translate(910 371.36917614931235) rotate(0 0.460702639370993 99.82470395490532)"><path d="M10.95 28.97 C8.99 17.9, 3.34 6.62, 2.83 0.34 M10.54 29.05 C9.14 20.58, 5.76 14.58, 0.76 0.28" stroke="#343a40" stroke-width="1" fill="none"></path></g><g transform="translate(910 371.36917614931235) rotate(0 0.460702639370993 99.82470395490532)"><path d="M-9.57 28.92 C-3.68 17.7, -1.48 6.44, 2.83 0.34 M-9.98 29 C-6.48 20.59, -4.95 14.6, 0.76 0.28" stroke="#343a40" stroke-width="1" fill="none"></path></g><g transform="translate(910 371.36917614931235) rotate(0 0.460702639370993 99.82470395490532)"><path d="M-10.63 172.04 C-4.95 182.39, -2.78 192.7, 1.69 199.82 M-11.04 172.12 C-7.03 177.18, -5.53 184.65, -0.38 199.76" stroke="#343a40" stroke-width="1" fill="none"></path></g><g transform="translate(910 371.36917614931235) rotate(0 0.460702639370993 99.82470395490532)"><path d="M9.89 172.05 C7.71 182.57, 2.03 192.88, 1.69 199.82 M9.48 172.13 C8.59 177.14, 5.19 184.61, -0.38 199.76" stroke="#343a40" stroke-width="1" fill="none"></path></g></g><g stroke-linecap="round"><g transform="translate(770 191.36917614931235) rotate(0 19.617936562905015 30.06582799150607)"><path d="M-0.16 0.55 C6.73 10.44, 34.27 50.42, 40.94 60.34 M-1.71 -0.21 C5.14 9.82, 33.7 48.12, 40.49 58.39" stroke="#343a40" stroke-width="1" fill="none"></path></g><g transform="translate(770 191.36917614931235) rotate(0 19.617936562905015 30.06582799150607)"><path d="M25.2 19.51 C18.16 13.08, 11.15 10.41, 0.34 -0.67 M25.28 18.55 C14.02 10.61, 5.15 3.84, 0.28 0.69" stroke="#343a40" stroke-width="1" fill="none"></path></g><g transform="translate(770 191.36917614931235) rotate(0 19.617936562905015 30.06582799150607)"><path d="M8.31 31.16 C5.68 21.64, 3.19 15.85, 0.34 -0.67 M8.38 30.2 C3.78 17.8, 1.56 6.45, 0.28 0.69" stroke="#343a40" stroke-width="1" fill="none"></path></g><g transform="translate(770 191.36917614931235) rotate(0 19.617936562905015 30.06582799150607)"><path d="M16.75 42.88 C23.13 45.73, 29.24 52.27, 40.99 57.17 M16.83 41.92 C24.78 47.85, 35.2 54.63, 40.94 58.53" stroke="#343a40" stroke-width="1" fill="none"></path></g><g transform="translate(770 191.36917614931235) rotate(0 19.617936562905015 30.06582799150607)"><path d="M33.5 31.03 C35.51 37.02, 37.14 46.73, 40.99 57.17 M33.58 30.06 C34.92 40.54, 38.77 51.97, 40.94 58.53" stroke="#343a40" stroke-width="1" fill="none"></path></g></g><g stroke-linecap="round"><g transform="translate(550 791.3691761493124) rotate(0 139.85906059950594 -49.58093693070114)"><path d="M0.55 0.94 C47.1 -15.71, 233.75 -83.46, 280.34 -100.11 M-0.62 0.39 C45.71 -16.05, 232.91 -81.78, 279.57 -98.62" stroke="#343a40" stroke-width="1" fill="none"></path></g><g transform="translate(550 791.3691761493124) rotate(0 139.85906059950594 -49.58093693070114)"><path d="M25.15 -17.73 C14.49 -10.68, 7.58 -2.84, -0.67 2.8 M24.19 -18.99 C16.72 -12.68, 10.39 -6.93, 0.69 0.37" stroke="#343a40" stroke-width="1" fill="none"></path></g><g transform="translate(550 791.3691761493124) rotate(0 139.85906059950594 -49.58093693070114)"><path d="M32.13 1.57 C18.8 1.21, 9.2 1.6, -0.67 2.8 M31.16 0.31 C21.89 1.33, 13.62 1.72, 0.69 0.37" stroke="#343a40" stroke-width="1" fill="none"></path></g><g transform="translate(550 791.3691761493124) rotate(0 139.85906059950594 -49.58093693070114)"><path d="M258.01 -78.95 C265.21 -86.91, 276.11 -93.86, 278.34 -96.77 M257.05 -80.22 C262.66 -85.02, 269.14 -89.91, 279.7 -99.2" stroke="#343a40" stroke-width="1" fill="none"></path></g><g transform="translate(550 791.3691761493124) rotate(0 139.85906059950594 -49.58093693070114)"><path d="M251.14 -98.29 C260.96 -98.82, 274.51 -98.31, 278.34 -96.77 M250.18 -99.56 C257.56 -99.05, 265.95 -98.58, 279.7 -99.2" stroke="#343a40" stroke-width="1" fill="none"></path></g></g></svg>