<?xml version="1.0" encoding="UTF-8" standalone="no"?>
<svg
   xmlns:dc="http://purl.org/dc/elements/1.1/"
   xmlns:cc="http://creativecommons.org/ns#"
   xmlns:rdf="http://www.w3.org/1999/02/22-rdf-syntax-ns#"
   xmlns:svg="http://www.w3.org/2000/svg"
   xmlns="http://www.w3.org/2000/svg"
   id="svg492"
   version="1.1"
   viewBox="0 0 1154 298"
   height="298"
   width="1154">
  <metadata
     id="metadata498">
    <rdf:RDF>
      <cc:Work
         rdf:about="">
        <dc:format>image/svg+xml</dc:format>
        <dc:type
           rdf:resource="http://purl.org/dc/dcmitype/StillImage" />
        <dc:title></dc:title>
      </cc:Work>
    </rdf:RDF>
  </metadata>
  <defs
     id="defs496">
    <clipPath
       id="clipPath20"
       clipPathUnits="userSpaceOnUse">
      <path
         id="path18"
         d="M 21,21 H 587.929 V 304.465 H 21 Z" />
    </clipPath>
  </defs>
  <g
     transform="translate(13.302594)"
     id="g580">
    <g
       transform="matrix(4.2886649,0,0,-4.2886649,-728.98841,1141.4319)"
       id="g14">
      <g
         id="g16"
         clip-path="url(#clipPath20)">
        <g
           id="g22"
           transform="translate(353.7561,226.7347)">
          <path
             d="m 0,0 h -19.686 v 21.514 h -8.532 V -6.777 H 0 Z m 21.927,-0.49 c -0.79,-0.395 -4.757,-1.98 -5.22,-1.98 -0.381,0 -0.643,0.187 -0.786,0.562 -0.142,0.374 -0.214,0.942 -0.214,1.704 v 8.022 c 0,2.041 -0.759,3.643 -2.276,4.806 C 11.914,13.788 9.652,14.37 6.644,14.37 5.461,14.37 4.29,14.268 3.134,14.063 1.977,13.859 0.868,13.55 -0.193,13.135 -1.255,12.72 -2.242,12.186 -3.153,11.532 V 5.899 c 1.143,1.116 2.402,2.027 3.776,2.735 1.374,0.707 2.864,1.061 4.47,1.061 1.361,0 2.245,-0.285 2.654,-0.857 C 8.155,8.267 8.359,7.477 8.359,6.47 8.073,6.321 7.801,6.198 7.543,6.103 7.284,6.008 6.893,5.875 6.369,5.705 5.845,5.535 5.073,5.287 4.052,4.96 2.256,4.388 0.813,3.837 -0.275,3.307 -1.364,2.776 -2.231,2.092 -2.878,1.255 -3.524,0.418 -3.847,-0.64 -3.847,-1.919 c 0,-0.844 0.187,-1.663 0.561,-2.459 0.374,-0.796 1.028,-1.456 1.96,-1.98 0.932,-0.524 2.153,-0.786 3.664,-0.786 1.564,0 2.83,0.208 3.796,0.623 0.966,0.414 1.844,0.942 2.633,1.581 0.204,-0.612 0.544,-1.132 1.021,-1.561 0.476,-0.429 1.32,-0.643 2.531,-0.643 1.279,0 2.374,0.129 3.286,0.388 0.912,0.258 5.247,1.986 6.322,2.408 z M 6.838,-2.766 c -0.497,-0.279 -0.997,-0.418 -1.5,-0.418 -0.531,0 -0.997,0.184 -1.398,0.551 -0.402,0.367 -0.602,0.898 -0.602,1.592 0,0.966 0.401,1.731 1.204,2.296 0.803,0.565 2.075,1.201 3.817,1.909 V -1.755 C 7.842,-2.15 7.335,-2.487 6.838,-2.766 M 43.712,7.522 c -0.395,1.286 -0.997,2.445 -1.807,3.48 -0.81,1.034 -1.854,1.854 -3.133,2.459 -1.279,0.606 -2.756,0.909 -4.429,0.909 -1.252,0 -2.355,-0.16 -3.307,-0.48 -0.953,-0.32 -1.701,-0.691 -2.245,-1.112 v 8.736 H 21.443 V -6.777 h 7.348 v 1.878 c 0.476,-0.408 0.935,-0.758 1.378,-1.051 0.442,-0.293 1.061,-0.565 1.857,-0.816 0.796,-0.252 1.738,-0.378 2.827,-0.378 1.51,0 2.993,0.374 4.45,1.123 1.456,0.748 2.653,1.915 3.592,3.5 0.939,1.585 1.409,3.582 1.409,5.991 0,1.415 -0.198,2.766 -0.592,4.052 M 35.22,-0.52 c -0.898,-0.742 -1.803,-1.113 -2.714,-1.113 -1.443,0 -2.681,0.49 -3.715,1.47 v 7.94 c 1.374,0.884 2.613,1.327 3.715,1.327 1.102,0 2.054,-0.467 2.857,-1.399 0.803,-0.932 1.205,-2.289 1.205,-4.072 0,-2.028 -0.449,-3.412 -1.348,-4.153"
             style="fill:#47c1ba;fill-opacity:1;fill-rule:nonzero;stroke:none"
             id="path24" />
        </g>
      </g>
    </g>
    <g
       id="g26"
       transform="matrix(4.2886649,0,0,-4.2886649,219.7625,155.05273)">
      <path
         d="M 0,0 H 29.052"
         style="fill:none;stroke:#377abc;stroke-width:2.82399988;stroke-linecap:butt;stroke-linejoin:miter;stroke-miterlimit:4;stroke-dasharray:none;stroke-opacity:1"
         id="path28" />
    </g>
    <g
       id="g30"
       transform="matrix(4.2886649,0,0,-4.2886649,396.50177,155.05273)">
      <path
         d="M 0,0 H 11.433"
         style="fill:none;stroke:#377abc;stroke-width:2.82399988;stroke-linecap:butt;stroke-linejoin:miter;stroke-miterlimit:4;stroke-dasharray:none;stroke-opacity:1"
         id="path32" />
    </g>
    <g
       id="g34"
       transform="matrix(4.2886649,0,0,-4.2886649,445.53192,155.05273)">
      <path
         d="M 0,0 H 11.432"
         style="fill:none;stroke:#377abc;stroke-width:2.82399988;stroke-linecap:butt;stroke-linejoin:miter;stroke-miterlimit:4;stroke-dasharray:none;stroke-opacity:1"
         id="path36" />
    </g>
    <g
       id="g38"
       transform="matrix(4.2886649,0,0,-4.2886649,560.89702,155.05273)">
      <path
         d="M 0,0 H 9.872"
         style="fill:none;stroke:#377abc;stroke-width:2.82399988;stroke-linecap:butt;stroke-linejoin:miter;stroke-miterlimit:4;stroke-dasharray:none;stroke-opacity:1"
         id="path40" />
    </g>
    <g
       id="g50"
       transform="matrix(4.2886649,0,0,-4.2886649,215.26455,168.04995)">
      <path
         d="m 0,0 c 0,-1.071 -0.425,-1.963 -1.276,-2.675 -0.85,-0.711 -1.915,-1.067 -3.194,-1.067 -2.899,0 -5.45,1.396 -7.654,4.189 v -5.184 c 2.313,-1.732 4.878,-2.598 7.695,-2.598 2.449,0 4.439,0.715 5.97,2.143 1.531,1.429 2.296,3.287 2.296,5.573 0,3.211 -1.739,5.855 -5.217,7.933 l -3.118,1.845 c -1.399,0.82 -2.414,1.602 -3.046,2.348 -0.631,0.745 -0.947,1.545 -0.947,2.399 0,0.963 0.428,1.752 1.286,2.369 0.857,0.617 1.952,0.925 3.286,0.925 2.368,0 4.579,-0.988 6.634,-2.965 v 4.634 c -1.987,1.337 -4.171,2.005 -6.552,2.005 -2.491,0 -4.515,-0.701 -6.073,-2.102 -1.558,-1.402 -2.337,-3.225 -2.337,-5.471 0,-1.497 0.412,-2.82 1.235,-3.97 0.823,-1.15 2.208,-2.319 4.154,-3.507 L -3.756,4.939 C -1.252,3.382 0,1.736 0,0 m 23.82,2.524 c 0,2.926 -0.742,5.259 -2.225,7.001 -1.483,1.742 -3.47,2.613 -5.96,2.613 -2.585,0 -4.688,-0.895 -6.307,-2.684 -1.62,-1.79 -2.429,-4.113 -2.429,-6.971 0,-1.905 0.384,-3.582 1.153,-5.031 0.769,-1.449 1.793,-2.603 3.072,-3.46 1.279,-0.857 2.953,-1.286 5.021,-1.286 1.511,0 2.827,0.163 3.95,0.49 1.123,0.327 2.256,0.871 3.399,1.633 v 3.633 c -2.069,-1.524 -4.328,-2.286 -6.777,-2.286 -1.755,0 -3.188,0.531 -4.297,1.592 -1.109,1.062 -1.711,2.49 -1.806,4.287 H 23.82 Z M 12.359,7.708 c 0.85,0.803 1.942,1.205 3.276,1.205 1.334,0 2.395,-0.402 3.184,-1.205 0.789,-0.803 1.232,-1.946 1.327,-3.429 h -9.45 c 0.258,1.483 0.813,2.626 1.663,3.429 M 27.76,11.77 V -7.008 h 3.796 v 13.41 c 1.225,1.756 2.715,2.633 4.47,2.633 1.374,0 2.354,-0.411 2.939,-1.235 0.585,-0.823 0.878,-2.194 0.878,-4.113 V -7.008 h 3.715 V 3.728 c 0,2.286 -0.262,3.957 -0.786,5.011 -0.524,1.055 -1.289,1.885 -2.296,2.49 -1.007,0.606 -2.096,0.909 -3.266,0.909 -2.109,0 -3.994,-0.919 -5.654,-2.756 V 11.77 Z M 51.11,-6.978 c 0.871,-0.237 1.864,-0.357 2.98,-0.357 1.892,0 3.44,0.493 4.644,1.479 1.204,0.987 1.806,2.249 1.806,3.786 0,2.149 -1.565,4.108 -4.696,5.877 l -1.327,0.755 c -1.007,0.557 -1.711,1.033 -2.112,1.428 -0.401,0.395 -0.601,0.811 -0.601,1.247 0,0.504 0.221,0.909 0.664,1.216 0.442,0.306 1.023,0.46 1.745,0.46 1.401,0 3.204,-0.667 5.409,-2.001 v 3.675 c -1.933,1.033 -3.817,1.551 -5.654,1.551 -1.769,0 -3.215,-0.456 -4.338,-1.368 -1.122,-0.912 -1.684,-2.089 -1.684,-3.531 0,-1.116 0.371,-2.147 1.113,-3.092 0.741,-0.946 2.31,-2.086 4.705,-3.419 1.197,-0.681 1.976,-1.201 2.337,-1.562 0.36,-0.36 0.541,-0.813 0.541,-1.357 0,-0.531 -0.279,-0.987 -0.837,-1.368 -0.558,-0.381 -1.225,-0.571 -2.001,-0.571 -0.748,0 -1.67,0.228 -2.765,0.684 -1.096,0.455 -2.167,1.051 -3.215,1.786 v -4.001 c 1.32,-0.64 2.415,-1.079 3.286,-1.317 M 66.613,9.066 c -1.912,-1.83 -2.868,-4.12 -2.868,-6.869 0,-2.721 0.945,-4.99 2.837,-6.807 1.891,-1.816 4.246,-2.725 7.062,-2.725 2.912,0 5.328,0.895 7.246,2.684 1.919,1.79 2.878,4.038 2.878,6.746 0,2.79 -0.945,5.106 -2.837,6.95 -1.891,1.844 -4.266,2.766 -7.123,2.766 -2.885,0 -5.284,-0.915 -7.195,-2.745 M 78.176,6.708 c 1.211,-1.17 1.816,-2.646 1.816,-4.429 0,-1.796 -0.581,-3.269 -1.745,-4.419 -1.163,-1.15 -2.657,-1.725 -4.48,-1.725 -1.837,0 -3.341,0.568 -4.511,1.705 -1.171,1.136 -1.755,2.602 -1.755,4.398 0,1.81 0.571,3.3 1.714,4.47 1.143,1.17 2.606,1.756 4.389,1.756 1.837,0 3.36,-0.586 4.572,-1.756 m 9.96,5.062 V -7.008 h 3.736 v 8.473 c 0,1.564 0.439,2.919 1.316,4.062 0.878,1.143 1.915,1.714 3.113,1.714 1.102,0 3.525,0.236 5.552,-1.862 v 4.636 c -1.524,1.415 -2.987,2.123 -4.388,2.123 -1.797,0 -3.593,-1.449 -5.389,-4.348 L 91.872,7.464 v 4.306 z"
         style="fill:#377abc;fill-opacity:1;fill-rule:nonzero;stroke:none"
         id="path52" />
    </g>
    <g
       id="g54"
       transform="matrix(4.2886649,0,0,-4.2886649,531.50507,173.5403)">
      <path
         d="M 0,0 C 1.839,0 3.33,1.491 3.33,3.33 3.33,5.168 1.839,6.659 0,6.659 -1.839,6.659 -3.33,5.168 -3.33,3.33 -3.33,1.491 -1.839,0 0,0"
         style="fill:#377abc;fill-opacity:1;fill-rule:nonzero;stroke:none"
         id="path56" />
    </g>
    <g
       id="g58"
       transform="matrix(4.2886649,0,0,-4.2886649,114.815,8.0561695)">
      <path
         d="M 0,0 C 0,0 -30.956,-29.959 0.223,-65.727"
         style="fill:none;stroke:#377abc;stroke-width:3.72000003;stroke-linecap:round;stroke-linejoin:round;stroke-miterlimit:4;stroke-dasharray:none;stroke-opacity:1"
         id="path60" />
    </g>
    <g
       id="g62"
       transform="matrix(4.2886649,0,0,-4.2886649,1011.9548,8.0561695)">
      <path
         d="M 0,0 C 0,0 30.956,-29.959 -0.223,-65.727"
         style="fill:none;stroke:#47c1ba;stroke-width:3.72000003;stroke-linecap:round;stroke-linejoin:round;stroke-miterlimit:4;stroke-dasharray:none;stroke-opacity:1"
         id="path64" />
    </g>
    <g
       id="g66"
       transform="matrix(4.2886649,0,0,-4.2886649,148.48061,51.462605)">
      <path
         d="M 0,0 C 0,0 -21.422,-20.733 0.154,-45.484"
         style="fill:none;stroke:#377abc;stroke-width:3.72000003;stroke-linecap:round;stroke-linejoin:round;stroke-miterlimit:4;stroke-dasharray:none;stroke-opacity:1"
         id="path68" />
    </g>
    <g
       id="g70"
       transform="matrix(4.2886649,0,0,-4.2886649,978.28919,51.462605)">
      <path
         d="M 0,0 C 0,0 21.422,-20.733 -0.154,-45.484"
         style="fill:none;stroke:#47c1ba;stroke-width:3.72000003;stroke-linecap:round;stroke-linejoin:round;stroke-miterlimit:4;stroke-dasharray:none;stroke-opacity:1"
         id="path72" />
    </g>
  </g>
</svg>
