<?xml version="1.0" encoding="UTF-8" standalone="no"?>
<svg
   xmlns:dc="http://purl.org/dc/elements/1.1/"
   xmlns:cc="http://creativecommons.org/ns#"
   xmlns:rdf="http://www.w3.org/1999/02/22-rdf-syntax-ns#"
   xmlns:svg="http://www.w3.org/2000/svg"
   xmlns="http://www.w3.org/2000/svg"
   xmlns:sodipodi="http://sodipodi.sourceforge.net/DTD/sodipodi-0.dtd"
   xmlns:inkscape="http://www.inkscape.org/namespaces/inkscape"
   width="1154"
   height="298"
   viewBox="0 0 1154 298"
   version="1.1"
   id="svg4"
   sodipodi:docname="sensorlab-ng-white.svg"
   inkscape:version="0.92.5 (2060ec1f9f, 2020-04-08)">
  <metadata
     id="metadata10">
    <rdf:RDF>
      <cc:Work
         rdf:about="">
        <dc:format>image/svg+xml</dc:format>
        <dc:type
           rdf:resource="http://purl.org/dc/dcmitype/StillImage" />
        <dc:title></dc:title>
      </cc:Work>
    </rdf:RDF>
  </metadata>
  <defs
     id="defs8">
    <clipPath
       id="clipPath20"
       clipPathUnits="userSpaceOnUse">
      <path
         inkscape:connector-curvature="0"
         id="path18"
         d="M 21,21 H 587.929 V 304.465 H 21 Z" />
    </clipPath>
  </defs>
  <sodipodi:namedview
     pagecolor="#000000"
     bordercolor="#666666"
     borderopacity="1"
     objecttolerance="10"
     gridtolerance="10"
     guidetolerance="10"
     inkscape:pageopacity="0"
     inkscape:pageshadow="2"
     inkscape:window-width="1918"
     inkscape:window-height="1133"
     id="namedview6"
     showgrid="false"
     inkscape:snap-bbox="true"
     inkscape:bbox-paths="true"
     inkscape:bbox-nodes="true"
     inkscape:snap-bbox-edge-midpoints="true"
     inkscape:snap-bbox-midpoints="true"
     inkscape:snap-nodes="true"
     inkscape:object-paths="true"
     inkscape:snap-intersection-paths="true"
     inkscape:snap-smooth-nodes="true"
     inkscape:snap-midpoints="true"
     inkscape:snap-center="true"
     inkscape:snap-object-midpoints="true"
     inkscape:snap-text-baseline="true"
     inkscape:snap-page="true"
     inkscape:zoom="0.84068501"
     inkscape:cx="694.97224"
     inkscape:cy="163.55169"
     inkscape:window-x="1804"
     inkscape:window-y="378"
     inkscape:window-maximized="0"
     inkscape:current-layer="svg4" />
  <g
     id="g4693">
    <g
       style="fill:#ffffff;fill-opacity:1;stroke:#ffffff;stroke-opacity:1"
       id="g26"
       transform="matrix(4.2886649,0,0,-4.2886649,234.71773,155.05273)">
      <path
         d="M 0,0 H 29.052"
         style="fill:#ffffff;fill-opacity:1;stroke:#ffffff;stroke-width:2.82399988;stroke-linecap:butt;stroke-linejoin:miter;stroke-miterlimit:4;stroke-dasharray:none;stroke-opacity:1"
         id="path28"
         inkscape:connector-curvature="0" />
    </g>
    <g
       style="fill:#ffffff;fill-opacity:1;stroke:#ffffff;stroke-opacity:1"
       id="g30"
       transform="matrix(4.2886649,0,0,-4.2886649,411.45698,155.05273)">
      <path
         d="M 0,0 H 11.433"
         style="fill:#ffffff;fill-opacity:1;stroke:#ffffff;stroke-width:2.82399988;stroke-linecap:butt;stroke-linejoin:miter;stroke-miterlimit:4;stroke-dasharray:none;stroke-opacity:1"
         id="path32"
         inkscape:connector-curvature="0" />
    </g>
    <g
       style="fill:none;fill-opacity:1;stroke:#ffffff;stroke-opacity:1"
       id="g34"
       transform="matrix(4.2886649,0,0,-4.2886649,460.48718,155.05273)">
      <path
         d="M 0,0 H 11.432"
         style="fill:none;fill-opacity:1;stroke:#ffffff;stroke-width:2.82399988;stroke-linecap:butt;stroke-linejoin:miter;stroke-miterlimit:4;stroke-dasharray:none;stroke-opacity:1"
         id="path36"
         inkscape:connector-curvature="0" />
    </g>
    <g
       style="fill:#ffffff;fill-opacity:1;stroke:#ffffff;stroke-opacity:1"
       id="g38"
       transform="matrix(4.2886649,0,0,-4.2886649,575.85228,155.05273)">
      <path
         d="M 0,0 H 9.872"
         style="fill:#ffffff;fill-opacity:1;stroke:#ffffff;stroke-width:2.82399988;stroke-linecap:butt;stroke-linejoin:miter;stroke-miterlimit:4;stroke-dasharray:none;stroke-opacity:1"
         id="path40"
         inkscape:connector-curvature="0" />
    </g>
    <path
       inkscape:connector-curvature="0"
       id="path52"
       style="fill:#ffffff;fill-opacity:1;fill-rule:nonzero;stroke:none;stroke-width:4.28866482"
       d="m 230.21978,168.04995 c 0,4.59316 -1.82268,8.41865 -5.47234,11.47218 -3.64536,3.04924 -8.21279,4.576 -13.69799,4.576 -12.43284,0 -23.37323,-5.98697 -32.82544,-17.96521 v 22.23244 c 9.91968,7.42796 20.9201,11.14195 33.00127,11.14195 10.50294,0 19.03739,-3.0664 25.60333,-9.19061 6.56595,-6.1285 9.84678,-14.09684 9.84678,-23.90073 0,-13.7709 -7.45799,-25.11013 -22.37397,-34.02198 l -13.37205,-7.91259 c -5.99985,-3.5167 -10.35284,-6.87044 -13.06328,-10.06978 -2.70615,-3.19506 -4.06136,-6.62599 -4.06136,-10.28851 0,-4.12998 1.83554,-7.51374 5.51522,-10.15985 3.67539,-2.6461 8.37147,-3.96701 14.09255,-3.96701 10.15556,0 19.6378,4.2372 28.45101,12.71589 V 82.838469 c -8.52158,-5.73395 -17.88803,-8.59878 -28.09934,-8.59878 -10.68306,0 -19.36332,3.00636 -26.04506,9.01478 -6.68174,6.01271 -10.02261,13.83094 -10.02261,23.463281 0,6.42013 1.76693,12.09404 5.2965,17.026 3.52957,4.93197 9.46937,9.94542 17.81512,15.04035 l 13.30343,8.08413 c 10.73882,6.67746 16.10823,13.7366 16.10823,21.18172 m 102.156,-10.82459 c 0,-12.54863 -3.1822,-22.55409 -9.5423,-30.02494 -6.3601,-7.47086 -14.88165,-11.20628 -25.56042,-11.20628 -11.0862,0 -20.10527,3.83835 -27.04861,11.51077 -6.94764,7.67671 -10.41717,17.63928 -10.41717,29.89629 0,8.1699 1.64685,15.36199 4.94483,21.57627 3.29798,6.21427 7.68958,11.16339 13.17478,14.83878 5.4852,3.67538 12.66443,5.51522 21.53338,5.51522 6.48018,0 12.12406,-0.69905 16.94021,-2.10144 4.8162,-1.4024 9.6752,-3.73543 14.5772,-7.00339 v -15.58072 c -8.8733,6.53592 -18.56135,9.80388 -29.06429,9.80388 -7.52661,0 -13.67226,-2.27728 -18.42839,-6.82755 -4.75613,-4.55456 -7.33791,-10.67878 -7.74533,-18.38551 h 56.63611 z m -49.15239,-22.23244 c 3.64536,-3.4438 8.32859,-5.16784 14.04967,-5.16784 5.72107,0 10.27135,1.72404 13.6551,5.16784 3.38372,3.4438 5.28362,8.34574 5.69102,14.70583 h -40.52784 c 1.10648,-6.36009 3.48668,-11.26203 7.13205,-14.70583 m 66.04969,-17.42056 v 80.53255 h 16.2798 v -57.51099 c 5.2536,-7.5309 11.6437,-11.29206 19.1703,-11.29206 5.8927,0 10.0956,1.76264 12.6044,5.2965 2.5089,3.52957 3.7655,9.40933 3.7655,17.63928 v 45.86727 h 15.9324 v -46.0431 c 0,-9.80389 -1.1237,-16.97025 -3.3709,-21.4905 -2.2473,-4.52454 -5.5281,-8.08414 -9.8468,-10.67878 -4.3187,-2.59893 -8.989,-3.89839 -14.0068,-3.89839 -9.0448,0 -17.1289,3.94128 -24.2481,11.81956 v -10.24134 z m 100.1404,80.40389 c 3.7354,1.01642 7.994,1.53106 12.7802,1.53106 8.1141,0 14.753,-2.11431 19.9165,-6.34294 5.1636,-4.23291 7.7454,-9.64521 7.7454,-16.23688 0,-9.21634 -6.7118,-17.61784 -20.1396,-25.20449 l -5.6911,-3.23794 c -4.3186,-2.38879 -7.3379,-4.43019 -9.0576,-6.12421 -1.7198,-1.69403 -2.5775,-3.47811 -2.5775,-5.34797 0,-2.16148 0.9478,-3.89839 2.8477,-5.21501 1.8956,-1.31234 4.3873,-1.97279 7.4837,-1.97279 6.0084,0 13.7409,2.86054 23.1974,8.58162 v -15.76085 c -8.29,-4.43019 -16.3699,-6.65171 -24.2481,-6.65171 -7.5867,0 -13.7881,1.95563 -18.6043,5.86689 -4.8118,3.91126 -7.2221,8.95902 -7.2221,15.14327 0,4.78615 1.5911,9.20777 4.7733,13.26056 3.1779,4.05707 9.9068,8.94615 20.1782,14.66294 5.1335,2.92058 8.4744,5.15069 10.0226,6.6989 1.5439,1.54392 2.3202,3.48668 2.3202,5.81971 0,2.27729 -1.1966,4.23292 -3.5897,5.8669 -2.393,1.63398 -5.2536,2.44883 -8.5816,2.44883 -3.2079,0 -7.162,-0.97782 -11.8581,-2.93345 -4.7004,-1.95134 -9.2936,-4.50739 -13.7881,-7.65956 v 17.15895 c 5.661,2.74475 10.3571,4.62747 14.0926,5.64817 m 66.4871,-68.80734 c -8.1999,7.84826 -12.2999,17.6693 -12.2999,29.45884 0,11.66946 4.0528,21.40044 12.167,29.19295 8.1099,7.78821 18.2097,11.68661 30.2865,11.68661 12.4886,0 22.85,-3.83836 31.0757,-11.51078 8.23,-7.67671 12.3428,-17.31763 12.3428,-28.93133 0,-11.96538 -4.0528,-21.89793 -12.167,-29.80622 -8.1098,-7.9083 -18.2954,-11.86245 -30.5481,-11.86245 -12.3728,0 -22.6613,3.92413 -30.857,11.77238 m 49.5899,10.11268 c 5.1935,5.01773 7.7882,11.3478 7.7882,18.99449 0,7.70244 -2.4917,14.01965 -7.4837,18.95161 -4.9878,4.93197 -11.395,7.39795 -19.2133,7.39795 -7.8782,0 -14.3284,-2.43596 -19.3461,-7.31217 -5.0221,-4.87193 -7.5266,-11.15911 -7.5266,-18.86155 0,-7.76249 2.4488,-14.1526 7.3507,-19.17033 4.902,-5.01774 11.1763,-7.5309 18.823,-7.5309 7.8783,0 14.4099,2.51316 19.6078,7.5309 m 42.7151,-21.70923 v 80.53255 h 16.0224 v -36.33785 c 0,-6.70748 1.8827,-12.51862 5.6439,-17.42056 3.7655,-4.90194 8.2128,-7.35077 13.3506,-7.35077 4.7261,0 15.1176,-1.01213 23.8107,7.98549 v -19.88225 c -6.5359,-6.06846 -12.8103,-9.10483 -18.8187,-9.10483 -7.7067,0 -15.4091,6.21427 -23.1116,18.64711 l -0.8749,1.39811 v -18.467 z" />
    <g
       style="fill:#ffffff;fill-opacity:1;stroke:#ffffff;stroke-opacity:1"
       id="g54"
       transform="matrix(4.2886649,0,0,-4.2886649,546.46028,173.5403)">
      <path
         d="M 0,0 C 1.839,0 3.33,1.491 3.33,3.33 3.33,5.168 1.839,6.659 0,6.659 -1.839,6.659 -3.33,5.168 -3.33,3.33 -3.33,1.491 -1.839,0 0,0"
         style="fill:#ffffff;fill-opacity:1;fill-rule:nonzero;stroke:#ffffff;stroke-opacity:1"
         id="path56"
         inkscape:connector-curvature="0" />
    </g>
    <g
       style="stroke:#ffffff;stroke-opacity:1"
       id="g58"
       transform="matrix(4.2886649,0,0,-4.2886649,129.77023,8.0561695)">
      <path
         d="M 0,0 C 0,0 -30.956,-29.959 0.223,-65.727"
         style="fill:none;stroke:#ffffff;stroke-width:3.72000003;stroke-linecap:round;stroke-linejoin:round;stroke-miterlimit:4;stroke-dasharray:none;stroke-opacity:1"
         id="path60"
         inkscape:connector-curvature="0" />
    </g>
    <g
       style="stroke:#ffffff;stroke-opacity:1"
       id="g66"
       transform="matrix(4.2886649,0,0,-4.2886649,163.43584,51.462609)">
      <path
         d="M 0,0 C 0,0 -21.422,-20.733 0.154,-45.484"
         style="fill:none;stroke:#ffffff;stroke-width:3.72000003;stroke-linecap:round;stroke-linejoin:round;stroke-miterlimit:4;stroke-dasharray:none;stroke-opacity:1"
         id="path68"
         inkscape:connector-curvature="0" />
    </g>
  </g>
  <g
     id="g4702">
    <g
       style="fill:#ffffff;fill-opacity:1;stroke:none;stroke-opacity:1"
       transform="matrix(4.2886649,0,0,-4.2886649,-714.03318,1141.4319)"
       clip-path="url(#clipPath20)"
       id="g16">
      <g
         style="fill:#ffffff;fill-opacity:1;stroke:none;stroke-opacity:1"
         transform="translate(353.7561,226.7347)"
         id="g22">
        <path
           inkscape:connector-curvature="0"
           id="path24"
           style="fill:#ffffff;fill-opacity:1;fill-rule:nonzero;stroke:none;stroke-opacity:1"
           d="m 0,0 h -19.686 v 21.514 h -8.532 V -6.777 H 0 Z m 21.927,-0.49 c -0.79,-0.395 -4.757,-1.98 -5.22,-1.98 -0.381,0 -0.643,0.187 -0.786,0.562 -0.142,0.374 -0.214,0.942 -0.214,1.704 v 8.022 c 0,2.041 -0.759,3.643 -2.276,4.806 C 11.914,13.788 9.652,14.37 6.644,14.37 5.461,14.37 4.29,14.268 3.134,14.063 1.977,13.859 0.868,13.55 -0.193,13.135 -1.255,12.72 -2.242,12.186 -3.153,11.532 V 5.899 c 1.143,1.116 2.402,2.027 3.776,2.735 1.374,0.707 2.864,1.061 4.47,1.061 1.361,0 2.245,-0.285 2.654,-0.857 C 8.155,8.267 8.359,7.477 8.359,6.47 8.073,6.321 7.801,6.198 7.543,6.103 7.284,6.008 6.893,5.875 6.369,5.705 5.845,5.535 5.073,5.287 4.052,4.96 2.256,4.388 0.813,3.837 -0.275,3.307 -1.364,2.776 -2.231,2.092 -2.878,1.255 -3.524,0.418 -3.847,-0.64 -3.847,-1.919 c 0,-0.844 0.187,-1.663 0.561,-2.459 0.374,-0.796 1.028,-1.456 1.96,-1.98 0.932,-0.524 2.153,-0.786 3.664,-0.786 1.564,0 2.83,0.208 3.796,0.623 0.966,0.414 1.844,0.942 2.633,1.581 0.204,-0.612 0.544,-1.132 1.021,-1.561 0.476,-0.429 1.32,-0.643 2.531,-0.643 1.279,0 2.374,0.129 3.286,0.388 0.912,0.258 5.247,1.986 6.322,2.408 z M 6.838,-2.766 c -0.497,-0.279 -0.997,-0.418 -1.5,-0.418 -0.531,0 -0.997,0.184 -1.398,0.551 -0.402,0.367 -0.602,0.898 -0.602,1.592 0,0.966 0.401,1.731 1.204,2.296 0.803,0.565 2.075,1.201 3.817,1.909 V -1.755 C 7.842,-2.15 7.335,-2.487 6.838,-2.766 M 43.712,7.522 c -0.395,1.286 -0.997,2.445 -1.807,3.48 -0.81,1.034 -1.854,1.854 -3.133,2.459 -1.279,0.606 -2.756,0.909 -4.429,0.909 -1.252,0 -2.355,-0.16 -3.307,-0.48 -0.953,-0.32 -1.701,-0.691 -2.245,-1.112 v 8.736 H 21.443 V -6.777 h 7.348 v 1.878 c 0.476,-0.408 0.935,-0.758 1.378,-1.051 0.442,-0.293 1.061,-0.565 1.857,-0.816 0.796,-0.252 1.738,-0.378 2.827,-0.378 1.51,0 2.993,0.374 4.45,1.123 1.456,0.748 2.653,1.915 3.592,3.5 0.939,1.585 1.409,3.582 1.409,5.991 0,1.415 -0.198,2.766 -0.592,4.052 M 35.22,-0.52 c -0.898,-0.742 -1.803,-1.113 -2.714,-1.113 -1.443,0 -2.681,0.49 -3.715,1.47 v 7.94 c 1.374,0.884 2.613,1.327 3.715,1.327 1.102,0 2.054,-0.467 2.857,-1.399 0.803,-0.932 1.205,-2.289 1.205,-4.072 0,-2.028 -0.449,-3.412 -1.348,-4.153" />
      </g>
    </g>
    <g
       id="g62"
       transform="matrix(4.2886649,0,0,-4.2886649,1026.9101,8.0561695)">
      <path
         d="M 0,0 C 0,0 30.956,-29.959 -0.223,-65.727"
         style="fill:#ffffff;fill-opacity:0;stroke:#f2ffff;stroke-width:3.72000003;stroke-linecap:round;stroke-linejoin:round;stroke-miterlimit:4;stroke-dasharray:none;stroke-opacity:1"
         id="path64"
         inkscape:connector-curvature="0" />
    </g>
    <g
       style="stroke:#ffffff;stroke-opacity:1"
       id="g70"
       transform="matrix(4.2886649,0,0,-4.2886649,993.24438,51.462609)">
      <path
         d="M 0,0 C 0,0 21.422,-20.733 -0.154,-45.484"
         style="fill:none;stroke:#ffffff;stroke-width:3.72000003;stroke-linecap:round;stroke-linejoin:round;stroke-miterlimit:4;stroke-dasharray:none;stroke-opacity:1"
         id="path72"
         inkscape:connector-curvature="0" />
    </g>
  </g>
</svg>
