<svg xmlns:dc="http://purl.org/dc/elements/1.1/" xmlns:cc="http://creativecommons.org/ns#" xmlns:rdf="http://www.w3.org/1999/02/22-rdf-syntax-ns#" xmlns:svg="http://www.w3.org/2000/svg" xmlns="http://www.w3.org/2000/svg" id="svg492" viewBox="0 0 1154 298" height="298" width="1154"><defs id="defs496"><clipPath id="clipPath20" clipPathUnits="userSpaceOnUse"><path id="path18" d="M21 21H587.929V304.465H21z"/></clipPath></defs><g transform="translate(13.302594)" id="g580"><g transform="matrix(4.2886649,0,0,-4.2886649,-728.98841,1141.4319)" id="g14"><g id="g16" clip-path="url(#clipPath20)"><g id="g22" transform="translate(353.7561,226.7347)"><path d="m0 0h-19.686v21.514h-8.532V-6.777H0zm21.927-.49c-.79-.395-4.757-1.98-5.22-1.98-.381.0-.643.187-.786.562-.142.374-.214.942-.214 1.704v8.022c0 2.041-.759 3.643-2.276 4.806-1.517 1.164-3.779 1.746-6.787 1.746C5.461 14.37 4.29 14.268 3.134 14.063 1.977 13.859.868 13.55-.193 13.135-1.255 12.72-2.242 12.186-3.153 11.532V5.899C-2.01 7.015-.751 7.926.623 8.634c1.374.707 2.864 1.061 4.47 1.061 1.361.0 2.245-.285 2.654-.857C8.155 8.267 8.359 7.477 8.359 6.47 8.073 6.321 7.801 6.198 7.543 6.103 7.284 6.008 6.893 5.875 6.369 5.705S5.073 5.287 4.052 4.96C2.256 4.388.813 3.837-.275 3.307-1.364 2.776-2.231 2.092-2.878 1.255-3.524.418-3.847-.64-3.847-1.919c0-.844.187-1.663.561-2.459s1.028-1.456 1.96-1.98c.932-.524 2.153-.786 3.664-.786 1.564.0 2.83.208 3.796.623.966.414 1.844.942 2.633 1.581.204-.612.544-1.132 1.021-1.561.476-.429 1.32-.643 2.531-.643 1.279.0 2.374.129 3.286.388.912.258 5.247 1.986 6.322 2.408zM6.838-2.766c-.497-.279-.997-.418-1.5-.418-.531.0-.997.184-1.398.551-.402.367-.602.898-.602 1.592.0.966.401 1.731 1.204 2.296.803.565 2.075 1.201 3.817 1.909V-1.755C7.842-2.15 7.335-2.487 6.838-2.766M43.712 7.522c-.395 1.286-.997 2.445-1.807 3.48-.81 1.034-1.854 1.854-3.133 2.459-1.279.606-2.756.909-4.429.909-1.252.0-2.355-.16-3.307-.48-.953-.32-1.701-.691-2.245-1.112v8.736H21.443V-6.777h7.348v1.878c.476-.408.935-.758 1.378-1.051.442-.293 1.061-.565 1.857-.816.796-.252 1.738-.378 2.827-.378 1.51.0 2.993.374 4.45 1.123 1.456.748 2.653 1.915 3.592 3.5s1.409 3.582 1.409 5.991c0 1.415-.198 2.766-.592 4.052M35.22-.52c-.898-.742-1.803-1.113-2.714-1.113-1.443.0-2.681.49-3.715 1.47v7.94c1.374.884 2.613 1.327 3.715 1.327 1.102.0 2.054-.467 2.857-1.399.803-.932 1.205-2.289 1.205-4.072.0-2.028-.449-3.412-1.348-4.153" style="fill:#47c1ba;fill-opacity:1;fill-rule:nonzero;stroke:none" id="path24"/></g></g></g><g id="g26" transform="matrix(4.2886649,0,0,-4.2886649,219.7625,155.05273)"><path d="M0 0H29.052" style="fill:none;stroke:#377abc;stroke-width:2.82399988;stroke-linecap:butt;stroke-linejoin:miter;stroke-miterlimit:4;stroke-dasharray:none;stroke-opacity:1" id="path28"/></g><g id="g30" transform="matrix(4.2886649,0,0,-4.2886649,396.50177,155.05273)"><path d="M0 0H11.433" style="fill:none;stroke:#377abc;stroke-width:2.82399988;stroke-linecap:butt;stroke-linejoin:miter;stroke-miterlimit:4;stroke-dasharray:none;stroke-opacity:1" id="path32"/></g><g id="g34" transform="matrix(4.2886649,0,0,-4.2886649,445.53192,155.05273)"><path d="M0 0H11.432" style="fill:none;stroke:#377abc;stroke-width:2.82399988;stroke-linecap:butt;stroke-linejoin:miter;stroke-miterlimit:4;stroke-dasharray:none;stroke-opacity:1" id="path36"/></g><g id="g38" transform="matrix(4.2886649,0,0,-4.2886649,560.89702,155.05273)"><path d="M0 0H9.872" style="fill:none;stroke:#377abc;stroke-width:2.82399988;stroke-linecap:butt;stroke-linejoin:miter;stroke-miterlimit:4;stroke-dasharray:none;stroke-opacity:1" id="path40"/></g><g id="g50" transform="matrix(4.2886649,0,0,-4.2886649,215.26455,168.04995)"><path d="m0 0c0-1.071-.425-1.963-1.276-2.675-.85-.711-1.915-1.067-3.194-1.067-2.899.0-5.45 1.396-7.654 4.189v-5.184c2.313-1.732 4.878-2.598 7.695-2.598 2.449.0 4.439.715 5.97 2.143C3.072-3.763 3.837-1.905 3.837.381c0 3.211-1.739 5.855-5.217 7.933l-3.118 1.845c-1.399.82-2.414 1.602-3.046 2.348-.631.745-.947 1.545-.947 2.399.0.963.428 1.752 1.286 2.369.857.617 1.952.925 3.286.925 2.368.0 4.579-.988 6.634-2.965v4.634c-1.987 1.337-4.171 2.005-6.552 2.005-2.491.0-4.515-.701-6.073-2.102-1.558-1.402-2.337-3.225-2.337-5.471.0-1.497.412-2.82 1.235-3.97.823-1.15 2.208-2.319 4.154-3.507l3.102-1.885C-1.252 3.382.0 1.736.0.0m23.82 2.524c0 2.926-.742 5.259-2.225 7.001s-3.47 2.613-5.96 2.613c-2.585.0-4.688-.895-6.307-2.684-1.62-1.79-2.429-4.113-2.429-6.971.0-1.905.384-3.582 1.153-5.031s1.793-2.603 3.072-3.46c1.279-.857 2.953-1.286 5.021-1.286 1.511.0 2.827.163 3.95.49 1.123.327 2.256.871 3.399 1.633v3.633c-2.069-1.524-4.328-2.286-6.777-2.286-1.755.0-3.188.531-4.297 1.592-1.109 1.062-1.711 2.49-1.806 4.287H23.82zM12.359 7.708c.85.803 1.942 1.205 3.276 1.205s2.395-.402 3.184-1.205c.789-.803 1.232-1.946 1.327-3.429h-9.45c.258 1.483.813 2.626 1.663 3.429M27.76 11.77V-7.008h3.796v13.41c1.225 1.756 2.715 2.633 4.47 2.633 1.374.0 2.354-.411 2.939-1.235.585-.823.878-2.194.878-4.113V-7.008h3.715V3.728c0 2.286-.262 3.957-.786 5.011-.524 1.055-1.289 1.885-2.296 2.49-1.007.606-2.096.909-3.266.909-2.109.0-3.994-.919-5.654-2.756V11.77zM51.11-6.978c.871-.237 1.864-.357 2.98-.357 1.892.0 3.44.493 4.644 1.479 1.204.987 1.806 2.249 1.806 3.786.0 2.149-1.565 4.108-4.696 5.877l-1.327.755c-1.007.557-1.711 1.033-2.112 1.428s-.601.811-.601 1.247c0 .504.221.909.664 1.216.442.306 1.023.46 1.745.46 1.401.0 3.204-.667 5.409-2.001v3.675c-1.933 1.033-3.817 1.551-5.654 1.551-1.769.0-3.215-.456-4.338-1.368-1.122-.912-1.684-2.089-1.684-3.531.0-1.116.371-2.147 1.113-3.092.741-.946 2.31-2.086 4.705-3.419 1.197-.681 1.976-1.201 2.337-1.562.36-.36.541-.813.541-1.357.0-.531-.279-.987-.837-1.368s-1.225-.571-2.001-.571c-.748.0-1.67.228-2.765.684-1.096.455-2.167 1.051-3.215 1.786v-4.001c1.32-.64 2.415-1.079 3.286-1.317M66.613 9.066c-1.912-1.83-2.868-4.12-2.868-6.869.0-2.721.945-4.99 2.837-6.807 1.891-1.816 4.246-2.725 7.062-2.725 2.912.0 5.328.895 7.246 2.684 1.919 1.79 2.878 4.038 2.878 6.746.0 2.79-.945 5.106-2.837 6.95-1.891 1.844-4.266 2.766-7.123 2.766-2.885.0-5.284-.915-7.195-2.745M78.176 6.708c1.211-1.17 1.816-2.646 1.816-4.429.0-1.796-.581-3.269-1.745-4.419-1.163-1.15-2.657-1.725-4.48-1.725-1.837.0-3.341.568-4.511 1.705-1.171 1.136-1.755 2.602-1.755 4.398.0 1.81.571 3.3 1.714 4.47s2.606 1.756 4.389 1.756c1.837.0 3.36-.586 4.572-1.756m9.96 5.062V-7.008h3.736v8.473c0 1.564.439 2.919 1.316 4.062.878 1.143 1.915 1.714 3.113 1.714 1.102.0 3.525.236 5.552-1.862v4.636c-1.524 1.415-2.987 2.123-4.388 2.123-1.797.0-3.593-1.449-5.389-4.348L91.872 7.464v4.306z" style="fill:#377abc;fill-opacity:1;fill-rule:nonzero;stroke:none" id="path52"/></g><g id="g54" transform="matrix(4.2886649,0,0,-4.2886649,531.50507,173.5403)"><path d="M0 0C1.839.0 3.33 1.491 3.33 3.33 3.33 5.168 1.839 6.659.0 6.659S-3.33 5.168-3.33 3.33C-3.33 1.491-1.839.0.0.0" style="fill:#377abc;fill-opacity:1;fill-rule:nonzero;stroke:none" id="path56"/></g><g id="g58" transform="matrix(4.2886649,0,0,-4.2886649,114.815,8.0561695)"><path d="M0 0S-30.956-29.959.223-65.727" style="fill:none;stroke:#377abc;stroke-width:3.72000003;stroke-linecap:round;stroke-linejoin:round;stroke-miterlimit:4;stroke-dasharray:none;stroke-opacity:1" id="path60"/></g><g id="g62" transform="matrix(4.2886649,0,0,-4.2886649,1011.9548,8.0561695)"><path d="M0 0S30.956-29.959-.223-65.727" style="fill:none;stroke:#47c1ba;stroke-width:3.72000003;stroke-linecap:round;stroke-linejoin:round;stroke-miterlimit:4;stroke-dasharray:none;stroke-opacity:1" id="path64"/></g><g id="g66" transform="matrix(4.2886649,0,0,-4.2886649,148.48061,51.462605)"><path d="M0 0S-21.422-20.733.154-45.484" style="fill:none;stroke:#377abc;stroke-width:3.72000003;stroke-linecap:round;stroke-linejoin:round;stroke-miterlimit:4;stroke-dasharray:none;stroke-opacity:1" id="path68"/></g><g id="g70" transform="matrix(4.2886649,0,0,-4.2886649,978.28919,51.462605)"><path d="M0 0S21.422-20.733-.154-45.484" style="fill:none;stroke:#47c1ba;stroke-width:3.72000003;stroke-linecap:round;stroke-linejoin:round;stroke-miterlimit:4;stroke-dasharray:none;stroke-opacity:1" id="path72"/></g></g></svg>